%TF.GenerationSoftware,KiCad,Pcbnew,9.0.7*%
%TF.CreationDate,2026-02-11T22:14:35-08:00*%
%TF.ProjectId,WALLOPS,57414c4c-4f50-4532-9e6b-696361645f70,rev?*%
%TF.SameCoordinates,Original*%
%TF.FileFunction,Copper,L1,Top*%
%TF.FilePolarity,Positive*%
%FSLAX46Y46*%
G04 Gerber Fmt 4.6, Leading zero omitted, Abs format (unit mm)*
G04 Created by KiCad (PCBNEW 9.0.7) date 2026-02-11 22:14:35*
%MOMM*%
%LPD*%
G01*
G04 APERTURE LIST*
G04 Aperture macros list*
%AMRoundRect*
0 Rectangle with rounded corners*
0 $1 Rounding radius*
0 $2 $3 $4 $5 $6 $7 $8 $9 X,Y pos of 4 corners*
0 Add a 4 corners polygon primitive as box body*
4,1,4,$2,$3,$4,$5,$6,$7,$8,$9,$2,$3,0*
0 Add four circle primitives for the rounded corners*
1,1,$1+$1,$2,$3*
1,1,$1+$1,$4,$5*
1,1,$1+$1,$6,$7*
1,1,$1+$1,$8,$9*
0 Add four rect primitives between the rounded corners*
20,1,$1+$1,$2,$3,$4,$5,0*
20,1,$1+$1,$4,$5,$6,$7,0*
20,1,$1+$1,$6,$7,$8,$9,0*
20,1,$1+$1,$8,$9,$2,$3,0*%
G04 Aperture macros list end*
%TA.AperFunction,ComponentPad*%
%ADD10C,1.820000*%
%TD*%
%TA.AperFunction,SMDPad,CuDef*%
%ADD11C,2.000000*%
%TD*%
%TA.AperFunction,SMDPad,CuDef*%
%ADD12RoundRect,0.243750X0.243750X0.456250X-0.243750X0.456250X-0.243750X-0.456250X0.243750X-0.456250X0*%
%TD*%
%TA.AperFunction,SMDPad,CuDef*%
%ADD13RoundRect,0.250000X0.350000X0.450000X-0.350000X0.450000X-0.350000X-0.450000X0.350000X-0.450000X0*%
%TD*%
%TA.AperFunction,SMDPad,CuDef*%
%ADD14RoundRect,0.250000X-0.350000X-0.450000X0.350000X-0.450000X0.350000X0.450000X-0.350000X0.450000X0*%
%TD*%
%TA.AperFunction,ComponentPad*%
%ADD15C,1.500000*%
%TD*%
%TA.AperFunction,SMDPad,CuDef*%
%ADD16RoundRect,0.200000X0.750000X0.200000X-0.750000X0.200000X-0.750000X-0.200000X0.750000X-0.200000X0*%
%TD*%
%TA.AperFunction,ComponentPad*%
%ADD17C,1.778000*%
%TD*%
%TA.AperFunction,ComponentPad*%
%ADD18C,3.200000*%
%TD*%
%TA.AperFunction,ComponentPad*%
%ADD19RoundRect,0.250000X0.625000X-0.350000X0.625000X0.350000X-0.625000X0.350000X-0.625000X-0.350000X0*%
%TD*%
%TA.AperFunction,ComponentPad*%
%ADD20O,1.750000X1.200000*%
%TD*%
%TA.AperFunction,ViaPad*%
%ADD21C,0.800000*%
%TD*%
%TA.AperFunction,Conductor*%
%ADD22C,0.750000*%
%TD*%
%TA.AperFunction,Conductor*%
%ADD23C,0.250000*%
%TD*%
G04 APERTURE END LIST*
D10*
%TO.P,U2,1,CORE/IOVDD*%
%TO.N,unconnected-(U2-CORE{slash}IOVDD-Pad1)*%
X209840000Y-88300000D03*
%TO.P,U2,2,AVDD*%
%TO.N,unconnected-(U2-AVDD-Pad2)*%
X207300000Y-88300000D03*
%TO.P,U2,3,VIN*%
%TO.N,/3.3VOUT*%
X204760000Y-88300000D03*
%TO.P,U2,4,GND*%
%TO.N,GND*%
X202220000Y-88340000D03*
%TO.P,U2,5,SDA*%
%TO.N,/SDA*%
X199640000Y-88300000D03*
%TO.P,U2,6,SCL*%
%TO.N,/SCL*%
X197140000Y-88310000D03*
%TO.P,U2,7,MISO*%
%TO.N,unconnected-(U2-MISO-Pad7)*%
X194600000Y-88300000D03*
%TO.P,U2,8*%
%TO.N,N/C*%
X192060000Y-88300000D03*
%TO.P,U2,9,CS*%
%TO.N,unconnected-(U2-CS-Pad9)*%
X189520000Y-88300000D03*
%TO.P,U2,10,GND*%
%TO.N,GND*%
X202220000Y-98460000D03*
%TO.P,U2,11,SPI/I2C*%
X199640000Y-98460000D03*
%TO.P,U2,12,LPn*%
%TO.N,/LPn_1*%
X197140000Y-98460000D03*
%TO.P,U2,13,SYNC*%
%TO.N,unconnected-(U2-SYNC-Pad13)*%
X194600000Y-98460000D03*
%TD*%
%TO.P,U1,1,CORE/IOVDD*%
%TO.N,unconnected-(U1-CORE{slash}IOVDD-Pad1)*%
X209740000Y-73980000D03*
%TO.P,U1,2,AVDD*%
%TO.N,unconnected-(U1-AVDD-Pad2)*%
X207200000Y-73980000D03*
%TO.P,U1,3,VIN*%
%TO.N,/3.3VOUT*%
X204660000Y-73980000D03*
%TO.P,U1,4,GND*%
%TO.N,GND*%
X202120000Y-74020000D03*
%TO.P,U1,5,SDA*%
%TO.N,/SDA*%
X199540000Y-73980000D03*
%TO.P,U1,6,SCL*%
%TO.N,/SCL*%
X197040000Y-73990000D03*
%TO.P,U1,7,MISO*%
%TO.N,unconnected-(U1-MISO-Pad7)*%
X194500000Y-73980000D03*
%TO.P,U1,8*%
%TO.N,N/C*%
X191960000Y-73980000D03*
%TO.P,U1,9,CS*%
%TO.N,unconnected-(U1-CS-Pad9)*%
X189420000Y-73980000D03*
%TO.P,U1,10,GND*%
%TO.N,GND*%
X202120000Y-84140000D03*
%TO.P,U1,11,SPI/I2C*%
X199540000Y-84140000D03*
%TO.P,U1,12,LPn*%
%TO.N,/LPn_0*%
X197040000Y-84140000D03*
%TO.P,U1,13,SYNC*%
%TO.N,unconnected-(U1-SYNC-Pad13)*%
X194500000Y-84140000D03*
%TD*%
%TO.P,U3,1,CORE/IOVDD*%
%TO.N,unconnected-(U3-CORE{slash}IOVDD-Pad1)*%
X185180000Y-88300000D03*
%TO.P,U3,2,AVDD*%
%TO.N,unconnected-(U3-AVDD-Pad2)*%
X182640000Y-88300000D03*
%TO.P,U3,3,VIN*%
%TO.N,/3.3VOUT*%
X180100000Y-88300000D03*
%TO.P,U3,4,GND*%
%TO.N,GND*%
X177560000Y-88340000D03*
%TO.P,U3,5,SDA*%
%TO.N,/SDA*%
X174980000Y-88300000D03*
%TO.P,U3,6,SCL*%
%TO.N,/SCL*%
X172480000Y-88310000D03*
%TO.P,U3,7,MISO*%
%TO.N,unconnected-(U3-MISO-Pad7)*%
X169940000Y-88300000D03*
%TO.P,U3,8*%
%TO.N,N/C*%
X167400000Y-88300000D03*
%TO.P,U3,9,CS*%
%TO.N,unconnected-(U3-CS-Pad9)*%
X164860000Y-88300000D03*
%TO.P,U3,10,GND*%
%TO.N,GND*%
X177560000Y-98460000D03*
%TO.P,U3,11,SPI/I2C*%
X174980000Y-98460000D03*
%TO.P,U3,12,LPn*%
%TO.N,/LPn_3*%
X172480000Y-98460000D03*
%TO.P,U3,13,SYNC*%
%TO.N,unconnected-(U3-SYNC-Pad13)*%
X169940000Y-98460000D03*
%TD*%
D11*
%TO.P,TP-SCL,1,1*%
%TO.N,/SCL*%
X195900000Y-60300000D03*
%TD*%
D12*
%TO.P,D2,1,K*%
%TO.N,GND*%
X212500000Y-44900000D03*
%TO.P,D2,2,A*%
%TO.N,Net-(D2-A)*%
X210625000Y-44900000D03*
%TD*%
D13*
%TO.P,R2,1*%
%TO.N,/SCL*%
X185100000Y-63100000D03*
%TO.P,R2,2*%
%TO.N,/3.3VOUT*%
X183100000Y-63100000D03*
%TD*%
D14*
%TO.P,R3,1*%
%TO.N,/3.3VOUT*%
X183100000Y-59000000D03*
%TO.P,R3,2*%
%TO.N,/SDA*%
X185100000Y-59000000D03*
%TD*%
D15*
%TO.P,U6,1,PG*%
%TO.N,unconnected-(U6-PG-Pad1)*%
X185800000Y-39470000D03*
%TO.P,U6,2,EN*%
%TO.N,unconnected-(U6-EN-Pad2)*%
X185800000Y-42010000D03*
%TO.P,U6,3,VIN*%
%TO.N,/5Vin*%
X185800000Y-44550000D03*
%TO.P,U6,4,GND*%
%TO.N,GND*%
X185800000Y-47090000D03*
%TO.P,U6,5,VOUT*%
%TO.N,/3.3VOUT*%
X185800000Y-49630000D03*
%TO.P,U6,6,VOUT*%
%TO.N,unconnected-(U6-VOUT-Pad6)*%
X196460000Y-39470000D03*
%TD*%
D14*
%TO.P,R4,1*%
%TO.N,/SCAN_LED*%
X206100000Y-44800000D03*
%TO.P,R4,2*%
%TO.N,Net-(D2-A)*%
X208100000Y-44800000D03*
%TD*%
D12*
%TO.P,D1,1,K*%
%TO.N,GND*%
X212337500Y-41300000D03*
%TO.P,D1,2,A*%
%TO.N,Net-(D1-A)*%
X210462500Y-41300000D03*
%TD*%
D16*
%TO.P,Q1,1,G*%
%TO.N,GND*%
X197700000Y-64950000D03*
%TO.P,Q1,2,S*%
%TO.N,/5VinML*%
X197700000Y-63050000D03*
%TO.P,Q1,3,D*%
%TO.N,/5Vin*%
X194700000Y-64000000D03*
%TD*%
D10*
%TO.P,U4,1,CORE/IOVDD*%
%TO.N,unconnected-(U4-CORE{slash}IOVDD-Pad1)*%
X185140000Y-74000000D03*
%TO.P,U4,2,AVDD*%
%TO.N,unconnected-(U4-AVDD-Pad2)*%
X182600000Y-74000000D03*
%TO.P,U4,3,VIN*%
%TO.N,/3.3VOUT*%
X180060000Y-74000000D03*
%TO.P,U4,4,GND*%
%TO.N,GND*%
X177520000Y-74040000D03*
%TO.P,U4,5,SDA*%
%TO.N,/SDA*%
X174940000Y-74000000D03*
%TO.P,U4,6,SCL*%
%TO.N,/SCL*%
X172440000Y-74010000D03*
%TO.P,U4,7,MISO*%
%TO.N,unconnected-(U4-MISO-Pad7)*%
X169900000Y-74000000D03*
%TO.P,U4,8*%
%TO.N,N/C*%
X167360000Y-74000000D03*
%TO.P,U4,9,CS*%
%TO.N,unconnected-(U4-CS-Pad9)*%
X164820000Y-74000000D03*
%TO.P,U4,10,GND*%
%TO.N,GND*%
X177520000Y-84160000D03*
%TO.P,U4,11,SPI/I2C*%
X174940000Y-84160000D03*
%TO.P,U4,12,LPn*%
%TO.N,/LPn_2*%
X172440000Y-84160000D03*
%TO.P,U4,13,SYNC*%
%TO.N,unconnected-(U4-SYNC-Pad13)*%
X169900000Y-84160000D03*
%TD*%
D17*
%TO.P,U5,JP1_1,VIN*%
%TO.N,/3.3VOUT*%
X164550000Y-45550000D03*
%TO.P,U5,JP1_2,1.8V*%
%TO.N,unconnected-(U5A-1.8V-PadJP1_2)*%
X164550000Y-48090000D03*
%TO.P,U5,JP1_3,GND_JP1*%
%TO.N,GND*%
X164550000Y-50630000D03*
%TO.P,U5,JP1_4,SCK/SCL*%
%TO.N,/SCL*%
X164550000Y-53170000D03*
%TO.P,U5,JP1_5,SDI/SDA*%
%TO.N,/SDA*%
X164550000Y-55710000D03*
%TO.P,U5,JP1_6,INT*%
%TO.N,unconnected-(U5A-INT-PadJP1_6)*%
X164550000Y-58250000D03*
%TO.P,U5,JP3_1*%
%TO.N,N/C*%
X177250000Y-58250000D03*
%TO.P,U5,JP3_2*%
X177250000Y-55710000D03*
%TO.P,U5,JP3_3*%
X177250000Y-53170000D03*
%TO.P,U5,JP3_4*%
X177250000Y-50630000D03*
%TO.P,U5,JP3_5*%
X177250000Y-48090000D03*
%TO.P,U5,JP3_6*%
X177250000Y-45550000D03*
D18*
%TO.P,U5,SH1*%
X177250000Y-41740000D03*
%TO.P,U5,SH2*%
X164550000Y-41740000D03*
%TO.P,U5,SH3*%
X164550000Y-62060000D03*
%TO.P,U5,SH4*%
X177250000Y-62060000D03*
%TD*%
D13*
%TO.P,R1,1*%
%TO.N,Net-(D1-A)*%
X208037500Y-41300000D03*
%TO.P,R1,2*%
%TO.N,/5Vin*%
X206037500Y-41300000D03*
%TD*%
D11*
%TO.P,TP-5V,1,1*%
%TO.N,/5Vin*%
X191100000Y-62400000D03*
%TD*%
D19*
%TO.P,J1,1,Pin_1*%
%TO.N,GND*%
X207250000Y-65000000D03*
D20*
%TO.P,J1,2,Pin_2*%
%TO.N,/5VinML*%
X207250000Y-63000000D03*
%TO.P,J1,3,Pin_3*%
%TO.N,/SCL*%
X207250000Y-61000000D03*
%TO.P,J1,4,Pin_4*%
%TO.N,/SDA*%
X207250000Y-59000000D03*
%TO.P,J1,5,Pin_5*%
%TO.N,/SCAN_LED*%
X207250000Y-57000000D03*
%TO.P,J1,6,Pin_6*%
%TO.N,/LPn_0*%
X207250000Y-55000000D03*
%TO.P,J1,7,Pin_7*%
%TO.N,/LPn_1*%
X207250000Y-53000000D03*
%TO.P,J1,8,Pin_8*%
%TO.N,/LPn_2*%
X207250000Y-51000000D03*
%TO.P,J1,9,Pin_9*%
%TO.N,/LPn_3*%
X207250000Y-49000000D03*
%TD*%
D11*
%TO.P,TP-GND,1,1*%
%TO.N,GND*%
X203600000Y-65000000D03*
%TD*%
%TO.P,TP-SDA,1,1*%
%TO.N,/SDA*%
X202900000Y-58200000D03*
%TD*%
D21*
%TO.N,/5Vin*%
X189750000Y-47100000D03*
%TO.N,GND*%
X213700000Y-44900000D03*
X213700000Y-41300000D03*
X200900000Y-65000000D03*
X197700000Y-66600000D03*
%TO.N,/LPn_1*%
X211200000Y-63600000D03*
X212600000Y-77000000D03*
%TO.N,/SDA*%
X193400000Y-57400000D03*
X193800000Y-92100000D03*
X187000000Y-57400000D03*
X191700000Y-77100000D03*
X187400000Y-82900000D03*
X171300000Y-68300000D03*
X185100000Y-60900000D03*
%TO.N,/LPn_2*%
X183100000Y-66100000D03*
X212700000Y-60700000D03*
X174250000Y-64050000D03*
X166700000Y-65600000D03*
X193400000Y-68300000D03*
X180200000Y-66100000D03*
%TO.N,/LPn_0*%
X199600000Y-79800000D03*
%TO.N,/SCL*%
X180400000Y-68800000D03*
X194200000Y-71000000D03*
X175300000Y-70500000D03*
X187000000Y-63100000D03*
X161400000Y-85100000D03*
X186200000Y-66525000D03*
X193500000Y-60900000D03*
X189700000Y-66500000D03*
%TD*%
D22*
%TO.N,/SCL*%
X161400000Y-85100000D02*
X161400000Y-90500000D01*
X164800000Y-93900000D02*
X168100000Y-93900000D01*
X161400000Y-90500000D02*
X164800000Y-93900000D01*
%TO.N,/5Vin*%
X192700000Y-64000000D02*
X191100000Y-62400000D01*
X191100000Y-49850000D02*
X189675000Y-48425000D01*
X191100000Y-49850000D02*
X192550000Y-49850000D01*
X192550000Y-49850000D02*
X196500000Y-45900000D01*
X191100000Y-62400000D02*
X191100000Y-49850000D01*
D23*
X189675000Y-47325000D02*
X189750000Y-47250000D01*
D22*
X196500000Y-43700000D02*
X197100000Y-43100000D01*
X194700000Y-64000000D02*
X192700000Y-64000000D01*
X189675000Y-48425000D02*
X189675000Y-47325000D01*
X197100000Y-43100000D02*
X203000000Y-43100000D01*
D23*
X189750000Y-47250000D02*
X189750000Y-47150000D01*
D22*
X203000000Y-43100000D02*
X204800000Y-41300000D01*
X196500000Y-45900000D02*
X196500000Y-43700000D01*
X204800000Y-41300000D02*
X206037500Y-41300000D01*
X189675000Y-48425000D02*
X185800000Y-44550000D01*
%TO.N,GND*%
X203200000Y-65000000D02*
X200900000Y-65000000D01*
X207250000Y-65000000D02*
X203200000Y-65000000D01*
X212500000Y-44900000D02*
X213700000Y-44900000D01*
X212337500Y-41300000D02*
X213700000Y-41300000D01*
X197700000Y-64950000D02*
X197700000Y-66600000D01*
%TO.N,Net-(D1-A)*%
X208037500Y-41300000D02*
X210462500Y-41300000D01*
%TO.N,Net-(D2-A)*%
X208100000Y-44800000D02*
X210525000Y-44800000D01*
D23*
X210525000Y-44800000D02*
X210625000Y-44900000D01*
D22*
%TO.N,/LPn_1*%
X197140000Y-100740000D02*
X198000000Y-101600000D01*
X197140000Y-98460000D02*
X197140000Y-100740000D01*
X211200000Y-54800000D02*
X209400000Y-53000000D01*
X211200000Y-63600000D02*
X211200000Y-54800000D01*
X212600000Y-93700000D02*
X212600000Y-77000000D01*
X204700000Y-101600000D02*
X212600000Y-93700000D01*
X198000000Y-101600000D02*
X204700000Y-101600000D01*
X209400000Y-53000000D02*
X207250000Y-53000000D01*
%TO.N,/SDA*%
X174940000Y-72740000D02*
X171300000Y-69100000D01*
X171300000Y-68300000D02*
X169400000Y-66400000D01*
X202100000Y-57400000D02*
X193400000Y-57400000D01*
X185100000Y-58300000D02*
X185100000Y-59000000D01*
X185100000Y-59000000D02*
X185100000Y-60900000D01*
X174980000Y-91180000D02*
X174980000Y-88300000D01*
X207250000Y-59000000D02*
X203700000Y-59000000D01*
X166610000Y-55710000D02*
X164550000Y-55710000D01*
X187400000Y-90900000D02*
X186200000Y-92100000D01*
X203700000Y-59000000D02*
X202900000Y-58200000D01*
X175900000Y-92100000D02*
X174980000Y-91180000D01*
X169400000Y-58500000D02*
X166610000Y-55710000D01*
X198400000Y-77100000D02*
X199540000Y-75960000D01*
X191700000Y-77100000D02*
X198400000Y-77100000D01*
X199540000Y-75960000D02*
X199540000Y-73980000D01*
X171300000Y-69100000D02*
X171300000Y-68300000D01*
X187400000Y-82900000D02*
X187400000Y-90900000D01*
X186000000Y-57400000D02*
X185100000Y-58300000D01*
X186200000Y-92100000D02*
X193800000Y-92100000D01*
X174940000Y-74000000D02*
X174940000Y-72740000D01*
X202900000Y-58200000D02*
X202100000Y-57400000D01*
X186200000Y-92100000D02*
X175900000Y-92100000D01*
X169400000Y-66400000D02*
X169400000Y-58500000D01*
X187000000Y-57400000D02*
X186000000Y-57400000D01*
%TO.N,/SCAN_LED*%
X205100000Y-57000000D02*
X204300000Y-56200000D01*
X204300000Y-56200000D02*
X204300000Y-46600000D01*
X204300000Y-46600000D02*
X206100000Y-44800000D01*
X207250000Y-57000000D02*
X205100000Y-57000000D01*
%TO.N,/LPn_3*%
X214324000Y-95076000D02*
X214324000Y-50824000D01*
X214324000Y-50824000D02*
X212500000Y-49000000D01*
X172480000Y-98460000D02*
X172480000Y-101480000D01*
X212500000Y-49000000D02*
X207250000Y-49000000D01*
X205900000Y-103500000D02*
X214324000Y-95076000D01*
X174500000Y-103500000D02*
X205900000Y-103500000D01*
X172480000Y-101480000D02*
X174500000Y-103500000D01*
%TO.N,/LPn_2*%
X193400000Y-68300000D02*
X192800000Y-67700000D01*
X176300000Y-66100000D02*
X180200000Y-66100000D01*
X171300000Y-81200000D02*
X172440000Y-82340000D01*
X184700000Y-67700000D02*
X183100000Y-66100000D01*
X163600000Y-81200000D02*
X171300000Y-81200000D01*
X212700000Y-53600000D02*
X212700000Y-60700000D01*
X165200000Y-67100000D02*
X162500000Y-67100000D01*
X210100000Y-51000000D02*
X212700000Y-53600000D01*
X162500000Y-67100000D02*
X161500000Y-68100000D01*
X207250000Y-51000000D02*
X210100000Y-51000000D01*
X192800000Y-67700000D02*
X184700000Y-67700000D01*
X166700000Y-65600000D02*
X165200000Y-67100000D01*
X161500000Y-79100000D02*
X163600000Y-81200000D01*
X174250000Y-64050000D02*
X176300000Y-66100000D01*
X172440000Y-82340000D02*
X172440000Y-84160000D01*
X161500000Y-68100000D02*
X161500000Y-79100000D01*
%TO.N,/LPn_0*%
X208000000Y-70300000D02*
X209900000Y-72200000D01*
X209600000Y-66800000D02*
X208000000Y-68400000D01*
X208000000Y-68400000D02*
X208000000Y-70300000D01*
X209600000Y-55800000D02*
X209600000Y-66800000D01*
X210900000Y-72200000D02*
X212000000Y-73300000D01*
X208800000Y-55000000D02*
X209600000Y-55800000D01*
X212000000Y-74800000D02*
X210500000Y-76300000D01*
X207250000Y-55000000D02*
X208800000Y-55000000D01*
X203100000Y-76300000D02*
X199600000Y-79800000D01*
X210500000Y-76300000D02*
X203100000Y-76300000D01*
X209900000Y-72200000D02*
X210900000Y-72200000D01*
X212000000Y-73300000D02*
X212000000Y-74800000D01*
%TO.N,/SCL*%
X178600000Y-69100000D02*
X178600000Y-68900000D01*
X195900000Y-60300000D02*
X194100000Y-60300000D01*
X172480000Y-90820000D02*
X172480000Y-88310000D01*
X172500000Y-64800000D02*
X176600000Y-68900000D01*
X180400000Y-68800000D02*
X178900000Y-68800000D01*
X177200000Y-70500000D02*
X178600000Y-69100000D01*
X197140000Y-91860000D02*
X197140000Y-88310000D01*
X185100000Y-63100000D02*
X185100000Y-64800000D01*
X169400000Y-93900000D02*
X172480000Y-90820000D01*
X168100000Y-93900000D02*
X195100000Y-93900000D01*
X194100000Y-60300000D02*
X193500000Y-60900000D01*
X176600000Y-68900000D02*
X178600000Y-68900000D01*
X196600000Y-61000000D02*
X195900000Y-60300000D01*
X167370000Y-53170000D02*
X172500000Y-58300000D01*
X194200000Y-71000000D02*
X194200000Y-71150000D01*
X195100000Y-93900000D02*
X197140000Y-91860000D01*
X189700000Y-66500000D02*
X188000000Y-64800000D01*
X172500000Y-58300000D02*
X172500000Y-64800000D01*
X185100000Y-64800000D02*
X185100000Y-65425000D01*
X178800000Y-68900000D02*
X178900000Y-68800000D01*
X188000000Y-64800000D02*
X185100000Y-64800000D01*
X175300000Y-70500000D02*
X177200000Y-70500000D01*
X168100000Y-93900000D02*
X169400000Y-93900000D01*
X164550000Y-53170000D02*
X167370000Y-53170000D01*
X194200000Y-71150000D02*
X197040000Y-73990000D01*
X187000000Y-63100000D02*
X185100000Y-63100000D01*
X178600000Y-68900000D02*
X178800000Y-68900000D01*
X185100000Y-65425000D02*
X186200000Y-66525000D01*
X207250000Y-61000000D02*
X196600000Y-61000000D01*
%TO.N,/3.3VOUT*%
X181200000Y-64900000D02*
X181800000Y-65500000D01*
X183300000Y-81100000D02*
X189600000Y-81100000D01*
X181900000Y-48600000D02*
X181200000Y-49300000D01*
X204760000Y-83160000D02*
X204760000Y-88300000D01*
X202700000Y-81100000D02*
X204760000Y-83160000D01*
X204660000Y-71260000D02*
X204660000Y-73980000D01*
X181800000Y-67300000D02*
X183250000Y-68750000D01*
X181300000Y-40800000D02*
X179300000Y-38800000D01*
X182650000Y-49350000D02*
X181900000Y-48600000D01*
X183100000Y-59000000D02*
X182600000Y-59000000D01*
X183250000Y-68750000D02*
X184100000Y-69600000D01*
D23*
X181200000Y-57600000D02*
X181200000Y-59200000D01*
D22*
X182400000Y-63100000D02*
X181200000Y-61900000D01*
X168650000Y-45550000D02*
X164550000Y-45550000D01*
X181200000Y-59200000D02*
X181200000Y-63200000D01*
D23*
X181200000Y-61900000D02*
X181200000Y-63200000D01*
D22*
X184100000Y-69600000D02*
X187300000Y-69600000D01*
X189600000Y-81100000D02*
X202700000Y-81100000D01*
X189600000Y-79400000D02*
X187300000Y-77100000D01*
X203000000Y-69600000D02*
X204660000Y-71260000D01*
X181200000Y-49300000D02*
X181200000Y-59200000D01*
X182930000Y-49630000D02*
X182650000Y-49350000D01*
X189600000Y-81100000D02*
X189600000Y-79400000D01*
X175400000Y-38800000D02*
X168650000Y-45550000D01*
X187300000Y-69600000D02*
X203000000Y-69600000D01*
X187300000Y-77100000D02*
X187300000Y-71000000D01*
X180060000Y-71940000D02*
X180060000Y-74000000D01*
X179300000Y-38800000D02*
X175400000Y-38800000D01*
X185800000Y-49630000D02*
X182930000Y-49630000D01*
X183250000Y-68750000D02*
X180060000Y-71940000D01*
X181800000Y-65500000D02*
X181800000Y-67300000D01*
X181300000Y-48000000D02*
X181300000Y-40800000D01*
X180100000Y-84300000D02*
X183300000Y-81100000D01*
X182600000Y-59000000D02*
X181200000Y-57600000D01*
X183100000Y-63100000D02*
X182400000Y-63100000D01*
X182650000Y-49350000D02*
X181300000Y-48000000D01*
X181200000Y-63200000D02*
X181200000Y-64900000D01*
X187300000Y-71000000D02*
X188700000Y-69600000D01*
X180100000Y-88300000D02*
X180100000Y-84300000D01*
%TO.N,/5VinML*%
X207250000Y-63000000D02*
X197750000Y-63000000D01*
D23*
X197750000Y-63000000D02*
X197700000Y-63050000D01*
%TD*%
%TA.AperFunction,Conductor*%
%TO.N,/5Vin*%
G36*
X191937453Y-61854503D02*
G01*
X191937770Y-61855007D01*
X192076920Y-62088620D01*
X192077536Y-62089803D01*
X192172437Y-62300534D01*
X192172890Y-62301703D01*
X192233783Y-62488024D01*
X192234006Y-62488796D01*
X192277031Y-62659297D01*
X192345077Y-62908700D01*
X192345080Y-62908708D01*
X192428541Y-63101549D01*
X192428546Y-63101558D01*
X192486196Y-63199138D01*
X192486207Y-63199155D01*
X192559071Y-63302310D01*
X192631573Y-63390143D01*
X192651728Y-63414559D01*
X192725316Y-63492559D01*
X192757992Y-63527194D01*
X192761177Y-63535563D01*
X192757755Y-63543496D01*
X192243473Y-64057778D01*
X192235200Y-64061205D01*
X192227196Y-64058039D01*
X192226918Y-64057778D01*
X192103434Y-63941952D01*
X192103431Y-63941949D01*
X192049569Y-63898412D01*
X191981642Y-63843505D01*
X191981635Y-63843500D01*
X191868186Y-63766719D01*
X191761153Y-63707856D01*
X191558772Y-63628982D01*
X191359318Y-63577037D01*
X191305172Y-63564040D01*
X191304683Y-63563911D01*
X191057086Y-63493037D01*
X191055734Y-63492559D01*
X190814461Y-63390143D01*
X190813435Y-63389647D01*
X190685116Y-63319725D01*
X190684495Y-63319361D01*
X190554618Y-63237863D01*
X190549432Y-63230563D01*
X190550927Y-63221734D01*
X190551076Y-63221502D01*
X191097996Y-62401237D01*
X191101237Y-62397996D01*
X191921228Y-61851258D01*
X191930012Y-61849521D01*
X191937453Y-61854503D01*
G37*
%TD.AperFunction*%
%TD*%
%TA.AperFunction,Conductor*%
%TO.N,/5Vin*%
G36*
X191471941Y-60422642D02*
G01*
X191475362Y-60430541D01*
X191480790Y-60600144D01*
X191497295Y-60755858D01*
X191497296Y-60755863D01*
X191497297Y-60755872D01*
X191523228Y-60890398D01*
X191523230Y-60890405D01*
X191523231Y-60890410D01*
X191557287Y-61007698D01*
X191644619Y-61206575D01*
X191746795Y-61380713D01*
X191748936Y-61384361D01*
X191776681Y-61429632D01*
X191778028Y-61431829D01*
X191778282Y-61432266D01*
X191903237Y-61657450D01*
X191903855Y-61658744D01*
X192002041Y-61901769D01*
X192002416Y-61902846D01*
X192043708Y-62043017D01*
X192043890Y-62043713D01*
X192078101Y-62193185D01*
X192076606Y-62202014D01*
X192069306Y-62207200D01*
X192068990Y-62207268D01*
X191102294Y-62400541D01*
X191097706Y-62400541D01*
X190131287Y-62207323D01*
X190123846Y-62202341D01*
X190122108Y-62193556D01*
X190122239Y-62192976D01*
X190160152Y-62043363D01*
X190189035Y-61929381D01*
X190189430Y-61928127D01*
X190271343Y-61711993D01*
X190271842Y-61710863D01*
X190360548Y-61536028D01*
X190360913Y-61535367D01*
X190451064Y-61384361D01*
X190579302Y-61159891D01*
X190656650Y-60964506D01*
X190684887Y-60854732D01*
X190706311Y-60730243D01*
X190720164Y-60585361D01*
X190724669Y-60430574D01*
X190728335Y-60422405D01*
X190736364Y-60419215D01*
X191463668Y-60419215D01*
X191471941Y-60422642D01*
G37*
%TD.AperFunction*%
%TD*%
%TA.AperFunction,Conductor*%
%TO.N,/5Vin*%
G36*
X205508625Y-40717367D02*
G01*
X206031340Y-41292128D01*
X206034371Y-41300554D01*
X206031340Y-41307872D01*
X205507220Y-41884178D01*
X205499118Y-41887993D01*
X205490692Y-41884962D01*
X205487267Y-41879350D01*
X205470262Y-41816239D01*
X205470261Y-41816238D01*
X205470261Y-41816236D01*
X205423702Y-41754806D01*
X205423703Y-41754806D01*
X205408090Y-41744688D01*
X205358311Y-41712429D01*
X205358307Y-41712427D01*
X205279256Y-41685830D01*
X205279255Y-41685829D01*
X205279250Y-41685828D01*
X205191676Y-41671722D01*
X205181340Y-41671166D01*
X205100747Y-41666832D01*
X204929533Y-41671585D01*
X204929534Y-41671586D01*
X204929483Y-41671587D01*
X204929479Y-41671588D01*
X204926055Y-41671715D01*
X204849634Y-41674549D01*
X204841239Y-41671431D01*
X204837508Y-41663291D01*
X204837500Y-41662857D01*
X204837500Y-40937142D01*
X204840927Y-40928869D01*
X204849200Y-40925442D01*
X204849627Y-40925449D01*
X204929479Y-40928412D01*
X204998073Y-40931626D01*
X205185030Y-40928912D01*
X205185035Y-40928911D01*
X205185036Y-40928911D01*
X205212861Y-40923565D01*
X205317912Y-40903384D01*
X205408033Y-40858117D01*
X205465491Y-40792878D01*
X205483342Y-40750225D01*
X205488473Y-40723064D01*
X205493375Y-40715574D01*
X205502141Y-40713742D01*
X205508625Y-40717367D01*
G37*
%TD.AperFunction*%
%TD*%
%TA.AperFunction,Conductor*%
%TO.N,/5Vin*%
G36*
X186429752Y-44143283D02*
G01*
X186429967Y-44143618D01*
X186529069Y-44303921D01*
X186529510Y-44304700D01*
X186604782Y-44450290D01*
X186605237Y-44451280D01*
X186703116Y-44693528D01*
X186703248Y-44693872D01*
X186718869Y-44736407D01*
X186800314Y-44926981D01*
X186800316Y-44926985D01*
X186800318Y-44926989D01*
X186850658Y-45015147D01*
X186850663Y-45015155D01*
X186916082Y-45109737D01*
X186916088Y-45109745D01*
X186916090Y-45109747D01*
X187003271Y-45216154D01*
X187003273Y-45216156D01*
X187107839Y-45327039D01*
X187111022Y-45335409D01*
X187107600Y-45343339D01*
X186593173Y-45857766D01*
X186584900Y-45861193D01*
X186577052Y-45858170D01*
X186394472Y-45693030D01*
X186394471Y-45693029D01*
X186299241Y-45627024D01*
X186233237Y-45581276D01*
X186087638Y-45508589D01*
X186087626Y-45508583D01*
X185943692Y-45453181D01*
X185875660Y-45428053D01*
X185875051Y-45427809D01*
X185645010Y-45327849D01*
X185644064Y-45327386D01*
X185522439Y-45260950D01*
X185521825Y-45260590D01*
X185393500Y-45179994D01*
X185388317Y-45172692D01*
X185389815Y-45163863D01*
X185389954Y-45163647D01*
X185797995Y-44551240D01*
X185801240Y-44547995D01*
X186413530Y-44140032D01*
X186422313Y-44138298D01*
X186429752Y-44143283D01*
G37*
%TD.AperFunction*%
%TD*%
%TA.AperFunction,Conductor*%
%TO.N,GND*%
G36*
X203402014Y-64023393D02*
G01*
X203407200Y-64030693D01*
X203407268Y-64031009D01*
X203600541Y-64997706D01*
X203600541Y-65002294D01*
X203407323Y-65968712D01*
X203402341Y-65976153D01*
X203393556Y-65977891D01*
X203392976Y-65977760D01*
X203129390Y-65910965D01*
X203128118Y-65910564D01*
X202912003Y-65828659D01*
X202910855Y-65828152D01*
X202736049Y-65739462D01*
X202735346Y-65739074D01*
X202584371Y-65648942D01*
X202584372Y-65648942D01*
X202584361Y-65648936D01*
X202359891Y-65520698D01*
X202164506Y-65443350D01*
X202164504Y-65443349D01*
X202164498Y-65443347D01*
X202054722Y-65415110D01*
X201930265Y-65393692D01*
X201930245Y-65393689D01*
X201846466Y-65385678D01*
X201785361Y-65379836D01*
X201785357Y-65379835D01*
X201785347Y-65379835D01*
X201630575Y-65375330D01*
X201622405Y-65371664D01*
X201619215Y-65363635D01*
X201619215Y-64636331D01*
X201622642Y-64628058D01*
X201630539Y-64624637D01*
X201800139Y-64619210D01*
X201955872Y-64602703D01*
X202090397Y-64576772D01*
X202207700Y-64542712D01*
X202406572Y-64455382D01*
X202584361Y-64351064D01*
X202631860Y-64321952D01*
X202632231Y-64321736D01*
X202857451Y-64196760D01*
X202858744Y-64196143D01*
X203101774Y-64097955D01*
X203102840Y-64097583D01*
X203243044Y-64056282D01*
X203243685Y-64056115D01*
X203393186Y-64021898D01*
X203402014Y-64023393D01*
G37*
%TD.AperFunction*%
%TD*%
%TA.AperFunction,Conductor*%
%TO.N,GND*%
G36*
X206541973Y-64429208D02*
G01*
X206785790Y-64625490D01*
X207239678Y-64990886D01*
X207243973Y-64998744D01*
X207241455Y-65007337D01*
X207239678Y-65009114D01*
X206540996Y-65571577D01*
X206532403Y-65574095D01*
X206524545Y-65569800D01*
X206523040Y-65567375D01*
X206492584Y-65501537D01*
X206433992Y-65443603D01*
X206433991Y-65443602D01*
X206358309Y-65404003D01*
X206358306Y-65404002D01*
X206341753Y-65399407D01*
X206270285Y-65379571D01*
X206174698Y-65367150D01*
X206174672Y-65367148D01*
X206076268Y-65363568D01*
X206076248Y-65363568D01*
X205889986Y-65370277D01*
X205889958Y-65370279D01*
X205870213Y-65371089D01*
X205787180Y-65374499D01*
X205778773Y-65371415D01*
X205775010Y-65363289D01*
X205775000Y-65362809D01*
X205775000Y-64637190D01*
X205778427Y-64628917D01*
X205786700Y-64625490D01*
X205787170Y-64625499D01*
X205889954Y-64629720D01*
X205889964Y-64629721D01*
X205919227Y-64631325D01*
X205941621Y-64632554D01*
X205941638Y-64632554D01*
X205941646Y-64632555D01*
X206153880Y-64634243D01*
X206307310Y-64612109D01*
X206414582Y-64569040D01*
X206486752Y-64506309D01*
X206511777Y-64466242D01*
X206523672Y-64434245D01*
X206529766Y-64427686D01*
X206538715Y-64427357D01*
X206541973Y-64429208D01*
G37*
%TD.AperFunction*%
%TD*%
%TA.AperFunction,Conductor*%
%TO.N,GND*%
G36*
X203807026Y-64022239D02*
G01*
X204070613Y-64089034D01*
X204071877Y-64089432D01*
X204287996Y-64171340D01*
X204289142Y-64171846D01*
X204463958Y-64260541D01*
X204464645Y-64260920D01*
X204615639Y-64351064D01*
X204840109Y-64479302D01*
X205035494Y-64556650D01*
X205035499Y-64556651D01*
X205035501Y-64556652D01*
X205063866Y-64563948D01*
X205145268Y-64584887D01*
X205145274Y-64584888D01*
X205145278Y-64584889D01*
X205253518Y-64603516D01*
X205269757Y-64606311D01*
X205414639Y-64620164D01*
X205569425Y-64624669D01*
X205577595Y-64628335D01*
X205580785Y-64636364D01*
X205580785Y-65363668D01*
X205577358Y-65371941D01*
X205569459Y-65375362D01*
X205399855Y-65380790D01*
X205244141Y-65397295D01*
X205244133Y-65397296D01*
X205244128Y-65397297D01*
X205109602Y-65423228D01*
X205109596Y-65423229D01*
X205109589Y-65423231D01*
X204992301Y-65457287D01*
X204793424Y-65544619D01*
X204615643Y-65648933D01*
X204568169Y-65678027D01*
X204567733Y-65678281D01*
X204342549Y-65803237D01*
X204341255Y-65803855D01*
X204098230Y-65902041D01*
X204097153Y-65902416D01*
X203956982Y-65943708D01*
X203956286Y-65943890D01*
X203806814Y-65978101D01*
X203797985Y-65976606D01*
X203792799Y-65969306D01*
X203792742Y-65969042D01*
X203599458Y-65002290D01*
X203599458Y-64997709D01*
X203792676Y-64031286D01*
X203797658Y-64023846D01*
X203806443Y-64022108D01*
X203807026Y-64022239D01*
G37*
%TD.AperFunction*%
%TD*%
%TA.AperFunction,Conductor*%
%TO.N,GND*%
G36*
X212981855Y-44428559D02*
G01*
X212985155Y-44434883D01*
X212991778Y-44473174D01*
X213019289Y-44515539D01*
X213019290Y-44515540D01*
X213028063Y-44521237D01*
X213060566Y-44542345D01*
X213112359Y-44556344D01*
X213234489Y-44556921D01*
X213234502Y-44556919D01*
X213234504Y-44556919D01*
X213263486Y-44552832D01*
X213359615Y-44539279D01*
X213359724Y-44539265D01*
X213461864Y-44526625D01*
X213470494Y-44529009D01*
X213474911Y-44536799D01*
X213475000Y-44538236D01*
X213475000Y-45261763D01*
X213471573Y-45270036D01*
X213463300Y-45273463D01*
X213461863Y-45273374D01*
X213359808Y-45260744D01*
X213359548Y-45260709D01*
X213251070Y-45244802D01*
X213172055Y-45242891D01*
X213126908Y-45241799D01*
X213126907Y-45241799D01*
X213126904Y-45241799D01*
X213048464Y-45263401D01*
X213048463Y-45263401D01*
X213000810Y-45308026D01*
X212986665Y-45343099D01*
X212986664Y-45343103D01*
X212984195Y-45363473D01*
X212979797Y-45371274D01*
X212971172Y-45373680D01*
X212964262Y-45370294D01*
X212902660Y-45308026D01*
X212507139Y-44908227D01*
X212503758Y-44899937D01*
X212507139Y-44891772D01*
X212965309Y-44428647D01*
X212973563Y-44425177D01*
X212981855Y-44428559D01*
G37*
%TD.AperFunction*%
%TD*%
%TA.AperFunction,Conductor*%
%TO.N,GND*%
G36*
X212819355Y-40828559D02*
G01*
X212822655Y-40834883D01*
X212829278Y-40873174D01*
X212856789Y-40915539D01*
X212856790Y-40915540D01*
X212865563Y-40921237D01*
X212898066Y-40942345D01*
X212949859Y-40956344D01*
X213071989Y-40956921D01*
X213072002Y-40956919D01*
X213072004Y-40956919D01*
X213100986Y-40952832D01*
X213197115Y-40939279D01*
X213197224Y-40939265D01*
X213299364Y-40926625D01*
X213307994Y-40929009D01*
X213312411Y-40936799D01*
X213312500Y-40938236D01*
X213312500Y-41661763D01*
X213309073Y-41670036D01*
X213300800Y-41673463D01*
X213299363Y-41673374D01*
X213197308Y-41660744D01*
X213197048Y-41660709D01*
X213088570Y-41644802D01*
X213009555Y-41642891D01*
X212964408Y-41641799D01*
X212964407Y-41641799D01*
X212964404Y-41641799D01*
X212885964Y-41663401D01*
X212885963Y-41663401D01*
X212838310Y-41708026D01*
X212824165Y-41743099D01*
X212824164Y-41743103D01*
X212821695Y-41763473D01*
X212817297Y-41771274D01*
X212808672Y-41773680D01*
X212801762Y-41770294D01*
X212740160Y-41708026D01*
X212344639Y-41308227D01*
X212341258Y-41299937D01*
X212344639Y-41291772D01*
X212802809Y-40828647D01*
X212811063Y-40825177D01*
X212819355Y-40828559D01*
G37*
%TD.AperFunction*%
%TD*%
%TA.AperFunction,Conductor*%
%TO.N,Net-(D1-A)*%
G36*
X208584307Y-40715037D02*
G01*
X208587732Y-40720649D01*
X208604737Y-40783760D01*
X208604740Y-40783766D01*
X208651297Y-40845193D01*
X208651296Y-40845193D01*
X208651298Y-40845194D01*
X208651299Y-40845195D01*
X208716689Y-40887571D01*
X208795751Y-40914172D01*
X208883324Y-40928278D01*
X208974250Y-40933167D01*
X208974251Y-40933166D01*
X208974252Y-40933167D01*
X209145466Y-40928414D01*
X209145516Y-40928412D01*
X209145521Y-40928412D01*
X209225366Y-40925450D01*
X209233761Y-40928568D01*
X209237492Y-40936708D01*
X209237500Y-40937142D01*
X209237500Y-41662857D01*
X209234073Y-41671130D01*
X209225800Y-41674557D01*
X209225366Y-41674549D01*
X209145556Y-41671589D01*
X209145442Y-41671584D01*
X209076947Y-41668374D01*
X209076932Y-41668374D01*
X209076928Y-41668374D01*
X208922484Y-41670616D01*
X208889966Y-41671088D01*
X208889963Y-41671088D01*
X208757090Y-41696615D01*
X208757085Y-41696616D01*
X208666966Y-41741884D01*
X208609509Y-41807120D01*
X208591658Y-41849774D01*
X208586527Y-41876932D01*
X208581623Y-41884425D01*
X208572858Y-41886257D01*
X208566374Y-41882632D01*
X208043659Y-41307872D01*
X208040628Y-41299446D01*
X208043659Y-41292128D01*
X208567781Y-40715819D01*
X208575881Y-40712006D01*
X208584307Y-40715037D01*
G37*
%TD.AperFunction*%
%TD*%
%TA.AperFunction,Conductor*%
%TO.N,Net-(D1-A)*%
G36*
X209998237Y-40829705D02*
G01*
X210455359Y-41291771D01*
X210458741Y-41300063D01*
X210455359Y-41308229D01*
X209997191Y-41771351D01*
X209988936Y-41774822D01*
X209980644Y-41771440D01*
X209977344Y-41765117D01*
X209970722Y-41726826D01*
X209943211Y-41684461D01*
X209943209Y-41684460D01*
X209943209Y-41684459D01*
X209922468Y-41670990D01*
X209901934Y-41657655D01*
X209901931Y-41657654D01*
X209901932Y-41657654D01*
X209850142Y-41643656D01*
X209728014Y-41643079D01*
X209728013Y-41643079D01*
X209728011Y-41643079D01*
X209728009Y-41643079D01*
X209727995Y-41643080D01*
X209602929Y-41660713D01*
X209602733Y-41660739D01*
X209500637Y-41673374D01*
X209492006Y-41670990D01*
X209487589Y-41663200D01*
X209487500Y-41661763D01*
X209487500Y-40938236D01*
X209490927Y-40929963D01*
X209499200Y-40926536D01*
X209500625Y-40926624D01*
X209602691Y-40939255D01*
X209602937Y-40939288D01*
X209711437Y-40955198D01*
X209835592Y-40958201D01*
X209914036Y-40936599D01*
X209961690Y-40891973D01*
X209975836Y-40856897D01*
X209978304Y-40836526D01*
X209982701Y-40828726D01*
X209991326Y-40826319D01*
X209998237Y-40829705D01*
G37*
%TD.AperFunction*%
%TD*%
%TA.AperFunction,Conductor*%
%TO.N,Net-(D2-A)*%
G36*
X210170246Y-44380273D02*
G01*
X210256538Y-44478678D01*
X210618388Y-44891319D01*
X210621266Y-44899799D01*
X210617421Y-44907726D01*
X210153732Y-45325378D01*
X210145292Y-45328369D01*
X210137209Y-45324515D01*
X210134326Y-45318384D01*
X210127082Y-45269044D01*
X210127082Y-45269041D01*
X210098270Y-45218147D01*
X210054730Y-45184332D01*
X210054726Y-45184330D01*
X210021648Y-45172382D01*
X210000126Y-45164608D01*
X210000124Y-45164607D01*
X210000121Y-45164607D01*
X209872394Y-45155491D01*
X209744371Y-45166904D01*
X209744332Y-45166907D01*
X209662700Y-45173910D01*
X209654164Y-45171203D01*
X209650043Y-45163253D01*
X209650000Y-45162253D01*
X209650000Y-44438744D01*
X209653427Y-44430471D01*
X209661700Y-44427044D01*
X209663560Y-44427193D01*
X209779268Y-44445909D01*
X209786685Y-44447109D01*
X209787157Y-44447195D01*
X209866946Y-44463461D01*
X209922995Y-44469779D01*
X210001929Y-44478679D01*
X210001930Y-44478678D01*
X210001932Y-44478679D01*
X210084157Y-44466138D01*
X210132739Y-44430566D01*
X210132739Y-44430565D01*
X210132740Y-44430565D01*
X210132740Y-44430564D01*
X210147571Y-44400607D01*
X210147570Y-44400607D01*
X210147572Y-44400605D01*
X210149898Y-44386130D01*
X210154595Y-44378507D01*
X210163307Y-44376436D01*
X210170246Y-44380273D01*
G37*
%TD.AperFunction*%
%TD*%
%TA.AperFunction,Conductor*%
%TO.N,Net-(D2-A)*%
G36*
X208646807Y-44215037D02*
G01*
X208650232Y-44220649D01*
X208667237Y-44283760D01*
X208667240Y-44283766D01*
X208713797Y-44345193D01*
X208713796Y-44345193D01*
X208713798Y-44345194D01*
X208713799Y-44345195D01*
X208779189Y-44387571D01*
X208858251Y-44414172D01*
X208945824Y-44428278D01*
X209036750Y-44433167D01*
X209036751Y-44433166D01*
X209036752Y-44433167D01*
X209207966Y-44428414D01*
X209208016Y-44428412D01*
X209208021Y-44428412D01*
X209287866Y-44425450D01*
X209296261Y-44428568D01*
X209299992Y-44436708D01*
X209300000Y-44437142D01*
X209300000Y-45162857D01*
X209296573Y-45171130D01*
X209288300Y-45174557D01*
X209287866Y-45174549D01*
X209208056Y-45171589D01*
X209207942Y-45171584D01*
X209139447Y-45168374D01*
X209139432Y-45168374D01*
X209139428Y-45168374D01*
X208984984Y-45170616D01*
X208952466Y-45171088D01*
X208952463Y-45171088D01*
X208819590Y-45196615D01*
X208819585Y-45196616D01*
X208729466Y-45241884D01*
X208672009Y-45307120D01*
X208654158Y-45349774D01*
X208649027Y-45376932D01*
X208644123Y-45384425D01*
X208635358Y-45386257D01*
X208628874Y-45382632D01*
X208106159Y-44807872D01*
X208103128Y-44799446D01*
X208106159Y-44792128D01*
X208630281Y-44215819D01*
X208638381Y-44212006D01*
X208646807Y-44215037D01*
G37*
%TD.AperFunction*%
%TD*%
%TA.AperFunction,Conductor*%
%TO.N,/LPn_1*%
G36*
X198020503Y-98635129D02*
G01*
X198027943Y-98640112D01*
X198029681Y-98648897D01*
X198029563Y-98649421D01*
X197971158Y-98884669D01*
X197970808Y-98885822D01*
X197900440Y-99080782D01*
X197900005Y-99081828D01*
X197824766Y-99240320D01*
X197824433Y-99240968D01*
X197793597Y-99296681D01*
X197748511Y-99378141D01*
X197676377Y-99510863D01*
X197659416Y-99542072D01*
X197659411Y-99542081D01*
X197582591Y-99732212D01*
X197554792Y-99837404D01*
X197554790Y-99837414D01*
X197533597Y-99957509D01*
X197519825Y-100098737D01*
X197519824Y-100098747D01*
X197515335Y-100251160D01*
X197511666Y-100259328D01*
X197503640Y-100262515D01*
X196776358Y-100262515D01*
X196768085Y-100259088D01*
X196764663Y-100251163D01*
X196761754Y-100153351D01*
X196760092Y-100097416D01*
X196746089Y-99955221D01*
X196724068Y-99832272D01*
X196695110Y-99724909D01*
X196620699Y-99542306D01*
X196531489Y-99378142D01*
X196421327Y-99173093D01*
X196420795Y-99171961D01*
X196324890Y-98935138D01*
X196324520Y-98934078D01*
X196284108Y-98797294D01*
X196283925Y-98796596D01*
X196250171Y-98649257D01*
X196251664Y-98640428D01*
X196258963Y-98635240D01*
X196259250Y-98635178D01*
X197137705Y-98459459D01*
X197142295Y-98459459D01*
X198020503Y-98635129D01*
G37*
%TD.AperFunction*%
%TD*%
%TA.AperFunction,Conductor*%
%TO.N,/LPn_1*%
G36*
X207650531Y-52419899D02*
G01*
X207652125Y-52421179D01*
X207726372Y-52492316D01*
X207828022Y-52551476D01*
X207942728Y-52592169D01*
X208000967Y-52604144D01*
X208066202Y-52617558D01*
X208066207Y-52617558D01*
X208066213Y-52617560D01*
X208194199Y-52630810D01*
X208322410Y-52635083D01*
X208562397Y-52629347D01*
X208701434Y-52625346D01*
X208709803Y-52628533D01*
X208713466Y-52636704D01*
X208713471Y-52637041D01*
X208713471Y-53362958D01*
X208710044Y-53371231D01*
X208701771Y-53374658D01*
X208701435Y-53374653D01*
X208562413Y-53370652D01*
X208249200Y-53366450D01*
X208031619Y-53388080D01*
X207864269Y-53433352D01*
X207742760Y-53497013D01*
X207736946Y-53500060D01*
X207736945Y-53500061D01*
X207652118Y-53579093D01*
X207643728Y-53582226D01*
X207635582Y-53578509D01*
X207634413Y-53577031D01*
X207253340Y-53006498D01*
X207251594Y-52997715D01*
X207253340Y-52993502D01*
X207634306Y-52423128D01*
X207641748Y-52418153D01*
X207650531Y-52419899D01*
G37*
%TD.AperFunction*%
%TD*%
%TA.AperFunction,Conductor*%
%TO.N,/SDA*%
G36*
X185267382Y-57618995D02*
G01*
X185268532Y-57620004D01*
X185781541Y-58133013D01*
X185784968Y-58141286D01*
X185781926Y-58149155D01*
X185739997Y-58195287D01*
X185643157Y-58338873D01*
X185643153Y-58338881D01*
X185579457Y-58492658D01*
X185579455Y-58492666D01*
X185552110Y-58647508D01*
X185561425Y-58801236D01*
X185609164Y-58954461D01*
X185648684Y-59031109D01*
X185648684Y-59031110D01*
X185684844Y-59085562D01*
X185686566Y-59094349D01*
X185681569Y-59101781D01*
X185673033Y-59103550D01*
X185104815Y-59001696D01*
X185097276Y-58996864D01*
X185096607Y-58995782D01*
X184990512Y-58801233D01*
X184727801Y-58319492D01*
X184726850Y-58310589D01*
X184732472Y-58303619D01*
X184735492Y-58302480D01*
X184765011Y-58295819D01*
X184809651Y-58268748D01*
X184898492Y-58174145D01*
X184985950Y-58043163D01*
X185071069Y-57896888D01*
X185178527Y-57715695D01*
X185179295Y-57714559D01*
X185250977Y-57621153D01*
X185258733Y-57616677D01*
X185267382Y-57618995D01*
G37*
%TD.AperFunction*%
%TD*%
%TA.AperFunction,Conductor*%
%TO.N,/SDA*%
G36*
X185108016Y-59006543D02*
G01*
X185488517Y-59364580D01*
X185668356Y-59533802D01*
X185672033Y-59541967D01*
X185668859Y-59550341D01*
X185665250Y-59552942D01*
X185601537Y-59582415D01*
X185543603Y-59641007D01*
X185543602Y-59641008D01*
X185504003Y-59716690D01*
X185479571Y-59804715D01*
X185467150Y-59900302D01*
X185467148Y-59900328D01*
X185466392Y-59921118D01*
X185463568Y-59998741D01*
X185470279Y-60185042D01*
X185470281Y-60185102D01*
X185474500Y-60287820D01*
X185471416Y-60296227D01*
X185463290Y-60299990D01*
X185462810Y-60300000D01*
X184737190Y-60300000D01*
X184728917Y-60296573D01*
X184725490Y-60288300D01*
X184725500Y-60287820D01*
X184729721Y-60185042D01*
X184732555Y-60133355D01*
X184734243Y-59921121D01*
X184712109Y-59767690D01*
X184669041Y-59660419D01*
X184606309Y-59588249D01*
X184596969Y-59582415D01*
X184566246Y-59563225D01*
X184566244Y-59563224D01*
X184566242Y-59563223D01*
X184536700Y-59552240D01*
X184530139Y-59546144D01*
X184529810Y-59537196D01*
X184532758Y-59532753D01*
X185091983Y-59006543D01*
X185100356Y-59003370D01*
X185108016Y-59006543D01*
G37*
%TD.AperFunction*%
%TD*%
%TA.AperFunction,Conductor*%
%TO.N,/SDA*%
G36*
X175860503Y-88475129D02*
G01*
X175867943Y-88480112D01*
X175869681Y-88488897D01*
X175869563Y-88489421D01*
X175811158Y-88724669D01*
X175810808Y-88725822D01*
X175740440Y-88920782D01*
X175740005Y-88921828D01*
X175664766Y-89080320D01*
X175664433Y-89080968D01*
X175633597Y-89136681D01*
X175588511Y-89218141D01*
X175516377Y-89350863D01*
X175499416Y-89382072D01*
X175499411Y-89382081D01*
X175422591Y-89572212D01*
X175394792Y-89677404D01*
X175394790Y-89677414D01*
X175373597Y-89797509D01*
X175359825Y-89938737D01*
X175359824Y-89938747D01*
X175355335Y-90091160D01*
X175351666Y-90099328D01*
X175343640Y-90102515D01*
X174616358Y-90102515D01*
X174608085Y-90099088D01*
X174604663Y-90091163D01*
X174601754Y-89993351D01*
X174600092Y-89937416D01*
X174586089Y-89795221D01*
X174564068Y-89672272D01*
X174535110Y-89564909D01*
X174460699Y-89382306D01*
X174371489Y-89218142D01*
X174261327Y-89013093D01*
X174260795Y-89011961D01*
X174164890Y-88775138D01*
X174164520Y-88774078D01*
X174124108Y-88637294D01*
X174123925Y-88636596D01*
X174090171Y-88489257D01*
X174091664Y-88480428D01*
X174098963Y-88475240D01*
X174099250Y-88475178D01*
X174977705Y-88299459D01*
X174982295Y-88299459D01*
X175860503Y-88475129D01*
G37*
%TD.AperFunction*%
%TD*%
%TA.AperFunction,Conductor*%
%TO.N,/SDA*%
G36*
X206864417Y-58421490D02*
G01*
X206865586Y-58422968D01*
X207246659Y-58993502D01*
X207248405Y-59002285D01*
X207246659Y-59006498D01*
X206865695Y-59576869D01*
X206858251Y-59581846D01*
X206849468Y-59580100D01*
X206847872Y-59578819D01*
X206773632Y-59507687D01*
X206773629Y-59507684D01*
X206773625Y-59507682D01*
X206773623Y-59507680D01*
X206671984Y-59448528D01*
X206671981Y-59448526D01*
X206671978Y-59448525D01*
X206592878Y-59420463D01*
X206557270Y-59407830D01*
X206557265Y-59407829D01*
X206433797Y-59382442D01*
X206433784Y-59382440D01*
X206305802Y-59369190D01*
X206286075Y-59368532D01*
X206177589Y-59364918D01*
X206177582Y-59364918D01*
X206177578Y-59364918D01*
X206071321Y-59367457D01*
X205937602Y-59370653D01*
X205937573Y-59370653D01*
X205798565Y-59374653D01*
X205790197Y-59371466D01*
X205786534Y-59363294D01*
X205786529Y-59362958D01*
X205786529Y-58637041D01*
X205789956Y-58628768D01*
X205798229Y-58625341D01*
X205798540Y-58625345D01*
X205863433Y-58627212D01*
X205937589Y-58629347D01*
X205987692Y-58630019D01*
X206250803Y-58633550D01*
X206468382Y-58611920D01*
X206635732Y-58566647D01*
X206763055Y-58499940D01*
X206847882Y-58420905D01*
X206856270Y-58417773D01*
X206864417Y-58421490D01*
G37*
%TD.AperFunction*%
%TD*%
%TA.AperFunction,Conductor*%
%TO.N,/SDA*%
G36*
X164735288Y-54841008D02*
G01*
X164963895Y-54897454D01*
X164965017Y-54897791D01*
X165155021Y-54965472D01*
X165156019Y-54965882D01*
X165310673Y-55037984D01*
X165311292Y-55038296D01*
X165445212Y-55110907D01*
X165594525Y-55190878D01*
X165594530Y-55190880D01*
X165783798Y-55267605D01*
X165783801Y-55267605D01*
X165783811Y-55267610D01*
X165887968Y-55295295D01*
X166007069Y-55316426D01*
X166085717Y-55324125D01*
X166147523Y-55330177D01*
X166147524Y-55330177D01*
X166147534Y-55330178D01*
X166299565Y-55334664D01*
X166307732Y-55338333D01*
X166310918Y-55346359D01*
X166310918Y-56073635D01*
X166307491Y-56081908D01*
X166299559Y-56085330D01*
X166149460Y-56089702D01*
X166010397Y-56103121D01*
X165890129Y-56124228D01*
X165785061Y-56151999D01*
X165606229Y-56223400D01*
X165606218Y-56223405D01*
X165445233Y-56309081D01*
X165445211Y-56309093D01*
X165256708Y-56408913D01*
X165255623Y-56409418D01*
X165020008Y-56504783D01*
X165018934Y-56505158D01*
X164882878Y-56545364D01*
X164882175Y-56545549D01*
X164735161Y-56579231D01*
X164726331Y-56577738D01*
X164721143Y-56570439D01*
X164721075Y-56570121D01*
X164624022Y-56085000D01*
X164549459Y-55712294D01*
X164549459Y-55707705D01*
X164721035Y-54850075D01*
X164726018Y-54842638D01*
X164734802Y-54840900D01*
X164735288Y-54841008D01*
G37*
%TD.AperFunction*%
%TD*%
%TA.AperFunction,Conductor*%
%TO.N,/SDA*%
G36*
X203737469Y-57654492D02*
G01*
X203737779Y-57654982D01*
X203811235Y-57777822D01*
X203811740Y-57778763D01*
X203873186Y-57906739D01*
X203873589Y-57907682D01*
X203962778Y-58144673D01*
X203962876Y-58144942D01*
X203985304Y-58209275D01*
X203985308Y-58209285D01*
X204054288Y-58375795D01*
X204054289Y-58375797D01*
X204126293Y-58482134D01*
X204126295Y-58482136D01*
X204218597Y-58556385D01*
X204218600Y-58556387D01*
X204218605Y-58556391D01*
X204278939Y-58584597D01*
X204278940Y-58584597D01*
X204278941Y-58584598D01*
X204349967Y-58605665D01*
X204441553Y-58620083D01*
X204538250Y-58624491D01*
X204546356Y-58628290D01*
X204549415Y-58636178D01*
X204549415Y-59363205D01*
X204545988Y-59371478D01*
X204537715Y-59374905D01*
X204537621Y-59374905D01*
X204024546Y-59370794D01*
X204023974Y-59370775D01*
X203662578Y-59350178D01*
X203661577Y-59350078D01*
X203321149Y-59301088D01*
X203320589Y-59300993D01*
X202858771Y-59211471D01*
X202858710Y-59211459D01*
X202745621Y-59188904D01*
X202716365Y-59183069D01*
X202708923Y-59178091D01*
X202707177Y-59169327D01*
X202898057Y-58204762D01*
X202903021Y-58197316D01*
X203721243Y-57651254D01*
X203730026Y-57649513D01*
X203737469Y-57654492D01*
G37*
%TD.AperFunction*%
%TD*%
%TA.AperFunction,Conductor*%
%TO.N,/SDA*%
G36*
X200420503Y-74155129D02*
G01*
X200427943Y-74160112D01*
X200429681Y-74168897D01*
X200429563Y-74169421D01*
X200371158Y-74404669D01*
X200370808Y-74405822D01*
X200300440Y-74600782D01*
X200300005Y-74601828D01*
X200224766Y-74760320D01*
X200224433Y-74760968D01*
X200193597Y-74816681D01*
X200148511Y-74898141D01*
X200076377Y-75030863D01*
X200059416Y-75062072D01*
X200059411Y-75062081D01*
X199982591Y-75252212D01*
X199954792Y-75357404D01*
X199954790Y-75357414D01*
X199933597Y-75477509D01*
X199919825Y-75618737D01*
X199919824Y-75618747D01*
X199915335Y-75771160D01*
X199911666Y-75779328D01*
X199903640Y-75782515D01*
X199176358Y-75782515D01*
X199168085Y-75779088D01*
X199164663Y-75771163D01*
X199161754Y-75673351D01*
X199160092Y-75617416D01*
X199146089Y-75475221D01*
X199124068Y-75352272D01*
X199095110Y-75244909D01*
X199020699Y-75062306D01*
X198931489Y-74898142D01*
X198821327Y-74693093D01*
X198820795Y-74691961D01*
X198724890Y-74455138D01*
X198724520Y-74454078D01*
X198684108Y-74317294D01*
X198683925Y-74316596D01*
X198650171Y-74169257D01*
X198651664Y-74160428D01*
X198658963Y-74155240D01*
X198659250Y-74155178D01*
X199537705Y-73979459D01*
X199542295Y-73979459D01*
X200420503Y-74155129D01*
G37*
%TD.AperFunction*%
%TD*%
%TA.AperFunction,Conductor*%
%TO.N,/SDA*%
G36*
X185267382Y-57618995D02*
G01*
X185268532Y-57620004D01*
X185781541Y-58133013D01*
X185784968Y-58141286D01*
X185781926Y-58149155D01*
X185739997Y-58195287D01*
X185643157Y-58338873D01*
X185643153Y-58338881D01*
X185579457Y-58492658D01*
X185579455Y-58492666D01*
X185552110Y-58647508D01*
X185561425Y-58801236D01*
X185609164Y-58954461D01*
X185648684Y-59031109D01*
X185648684Y-59031110D01*
X185684844Y-59085562D01*
X185686566Y-59094349D01*
X185681569Y-59101781D01*
X185673033Y-59103550D01*
X185104815Y-59001696D01*
X185097276Y-58996864D01*
X185096607Y-58995782D01*
X184990512Y-58801233D01*
X184727801Y-58319492D01*
X184726850Y-58310589D01*
X184732472Y-58303619D01*
X184735492Y-58302480D01*
X184765011Y-58295819D01*
X184809651Y-58268748D01*
X184898492Y-58174145D01*
X184985950Y-58043163D01*
X185071069Y-57896888D01*
X185178527Y-57715695D01*
X185179295Y-57714559D01*
X185250977Y-57621153D01*
X185258733Y-57616677D01*
X185267382Y-57618995D01*
G37*
%TD.AperFunction*%
%TD*%
%TA.AperFunction,Conductor*%
%TO.N,/SDA*%
G36*
X174829474Y-72099840D02*
G01*
X174829808Y-72100188D01*
X175035366Y-72323443D01*
X175036173Y-72324421D01*
X175177650Y-72516147D01*
X175178433Y-72517356D01*
X175274912Y-72688815D01*
X175275354Y-72689684D01*
X175353746Y-72860988D01*
X175504267Y-73176375D01*
X175504276Y-73176394D01*
X175690855Y-73484871D01*
X175692205Y-73493723D01*
X175687355Y-73500647D01*
X174944743Y-73998003D01*
X174935962Y-73999760D01*
X174935942Y-73999756D01*
X174059863Y-73824938D01*
X174052421Y-73819958D01*
X174050679Y-73811174D01*
X174050881Y-73810331D01*
X174092422Y-73661878D01*
X174092968Y-73660346D01*
X174154140Y-73520473D01*
X174154675Y-73519407D01*
X174224997Y-73395562D01*
X174225326Y-73395020D01*
X174297437Y-73283463D01*
X174327563Y-73237696D01*
X174363174Y-73176385D01*
X174413457Y-73089813D01*
X174413459Y-73089808D01*
X174449649Y-72978293D01*
X174448121Y-72874176D01*
X174431637Y-72818545D01*
X174402948Y-72760482D01*
X174355961Y-72693228D01*
X174298672Y-72629801D01*
X174295670Y-72621365D01*
X174299081Y-72613687D01*
X174812929Y-72099839D01*
X174821201Y-72096413D01*
X174829474Y-72099840D01*
G37*
%TD.AperFunction*%
%TD*%
%TA.AperFunction,Conductor*%
%TO.N,/SDA*%
G36*
X201775485Y-57029206D02*
G01*
X201775995Y-57029222D01*
X202137426Y-57049821D01*
X202138422Y-57049920D01*
X202478887Y-57098916D01*
X202479379Y-57099000D01*
X202941268Y-57188536D01*
X203083635Y-57216930D01*
X203091076Y-57221908D01*
X203092822Y-57230674D01*
X202901943Y-58195234D01*
X202896976Y-58202685D01*
X202896961Y-58202695D01*
X202078757Y-58748744D01*
X202069973Y-58750486D01*
X202062530Y-58745507D01*
X202062220Y-58745017D01*
X202035095Y-58699656D01*
X201988757Y-58622165D01*
X201988265Y-58621248D01*
X201926810Y-58493254D01*
X201926410Y-58492317D01*
X201837215Y-58255313D01*
X201837117Y-58255043D01*
X201814699Y-58190735D01*
X201814696Y-58190727D01*
X201814692Y-58190716D01*
X201745709Y-58024202D01*
X201673708Y-57917867D01*
X201673706Y-57917865D01*
X201673704Y-57917863D01*
X201581402Y-57843614D01*
X201581397Y-57843610D01*
X201581395Y-57843609D01*
X201581393Y-57843608D01*
X201521060Y-57815402D01*
X201521061Y-57815402D01*
X201450030Y-57794334D01*
X201379489Y-57783229D01*
X201358447Y-57779917D01*
X201358448Y-57779917D01*
X201261752Y-57775509D01*
X201253644Y-57771709D01*
X201250585Y-57763821D01*
X201250585Y-57036794D01*
X201254012Y-57028521D01*
X201262285Y-57025094D01*
X201262316Y-57025094D01*
X201775485Y-57029206D01*
G37*
%TD.AperFunction*%
%TD*%
%TA.AperFunction,Conductor*%
%TO.N,/SCAN_LED*%
G36*
X205514665Y-44557522D02*
G01*
X206094996Y-44796937D01*
X206101337Y-44803260D01*
X206101982Y-44805338D01*
X206245411Y-45485228D01*
X206243766Y-45494030D01*
X206236378Y-45499091D01*
X206233445Y-45499332D01*
X206135571Y-45494998D01*
X206135568Y-45494998D01*
X206025156Y-45518754D01*
X206025149Y-45518756D01*
X205918175Y-45565797D01*
X205815548Y-45630649D01*
X205718179Y-45707830D01*
X205718166Y-45707842D01*
X205626978Y-45791863D01*
X205626974Y-45791867D01*
X205626972Y-45791869D01*
X205466675Y-45958609D01*
X205424751Y-46002817D01*
X205382337Y-46047542D01*
X205374157Y-46051187D01*
X205365796Y-46047981D01*
X205365574Y-46047764D01*
X204852212Y-45534402D01*
X204848785Y-45526129D01*
X204852212Y-45517856D01*
X204852363Y-45517707D01*
X204953512Y-45421263D01*
X205190690Y-45187654D01*
X205190697Y-45187645D01*
X205190703Y-45187639D01*
X205269728Y-45091107D01*
X205339102Y-45006368D01*
X205435105Y-44843444D01*
X205486981Y-44693507D01*
X205486981Y-44693504D01*
X205486982Y-44693502D01*
X205498552Y-44567270D01*
X205502720Y-44559344D01*
X205511271Y-44556687D01*
X205514665Y-44557522D01*
G37*
%TD.AperFunction*%
%TD*%
%TA.AperFunction,Conductor*%
%TO.N,/SCAN_LED*%
G36*
X206864417Y-56421490D02*
G01*
X206865586Y-56422968D01*
X207246659Y-56993502D01*
X207248405Y-57002285D01*
X207246659Y-57006498D01*
X206865695Y-57576869D01*
X206858251Y-57581846D01*
X206849468Y-57580100D01*
X206847872Y-57578819D01*
X206773632Y-57507687D01*
X206773629Y-57507684D01*
X206773625Y-57507682D01*
X206773623Y-57507680D01*
X206671984Y-57448528D01*
X206671981Y-57448526D01*
X206671978Y-57448525D01*
X206592878Y-57420463D01*
X206557270Y-57407830D01*
X206557265Y-57407829D01*
X206433797Y-57382442D01*
X206433784Y-57382440D01*
X206305802Y-57369190D01*
X206286075Y-57368532D01*
X206177589Y-57364918D01*
X206177582Y-57364918D01*
X206177578Y-57364918D01*
X206071321Y-57367457D01*
X205937602Y-57370653D01*
X205937573Y-57370653D01*
X205798565Y-57374653D01*
X205790197Y-57371466D01*
X205786534Y-57363294D01*
X205786529Y-57362958D01*
X205786529Y-56637041D01*
X205789956Y-56628768D01*
X205798229Y-56625341D01*
X205798540Y-56625345D01*
X205863433Y-56627212D01*
X205937589Y-56629347D01*
X205987692Y-56630019D01*
X206250803Y-56633550D01*
X206468382Y-56611920D01*
X206635732Y-56566647D01*
X206763055Y-56499940D01*
X206847882Y-56420905D01*
X206856270Y-56417773D01*
X206864417Y-56421490D01*
G37*
%TD.AperFunction*%
%TD*%
%TA.AperFunction,Conductor*%
%TO.N,/LPn_3*%
G36*
X173360503Y-98635129D02*
G01*
X173367943Y-98640112D01*
X173369681Y-98648897D01*
X173369563Y-98649421D01*
X173311158Y-98884669D01*
X173310808Y-98885822D01*
X173240440Y-99080782D01*
X173240005Y-99081828D01*
X173164766Y-99240320D01*
X173164433Y-99240968D01*
X173133597Y-99296681D01*
X173088511Y-99378141D01*
X173016377Y-99510863D01*
X172999416Y-99542072D01*
X172999411Y-99542081D01*
X172922591Y-99732212D01*
X172894792Y-99837404D01*
X172894790Y-99837414D01*
X172873597Y-99957509D01*
X172859825Y-100098737D01*
X172859824Y-100098747D01*
X172855335Y-100251160D01*
X172851666Y-100259328D01*
X172843640Y-100262515D01*
X172116358Y-100262515D01*
X172108085Y-100259088D01*
X172104663Y-100251163D01*
X172101754Y-100153351D01*
X172100092Y-100097416D01*
X172086089Y-99955221D01*
X172064068Y-99832272D01*
X172035110Y-99724909D01*
X171960699Y-99542306D01*
X171871489Y-99378142D01*
X171761327Y-99173093D01*
X171760795Y-99171961D01*
X171664890Y-98935138D01*
X171664520Y-98934078D01*
X171624108Y-98797294D01*
X171623925Y-98796596D01*
X171590171Y-98649257D01*
X171591664Y-98640428D01*
X171598963Y-98635240D01*
X171599250Y-98635178D01*
X172477705Y-98459459D01*
X172482295Y-98459459D01*
X173360503Y-98635129D01*
G37*
%TD.AperFunction*%
%TD*%
%TA.AperFunction,Conductor*%
%TO.N,/LPn_3*%
G36*
X207650531Y-48419899D02*
G01*
X207652125Y-48421179D01*
X207726372Y-48492316D01*
X207828022Y-48551476D01*
X207942728Y-48592169D01*
X208000967Y-48604144D01*
X208066202Y-48617558D01*
X208066207Y-48617558D01*
X208066213Y-48617560D01*
X208194199Y-48630810D01*
X208322410Y-48635083D01*
X208562397Y-48629347D01*
X208701434Y-48625346D01*
X208709803Y-48628533D01*
X208713466Y-48636704D01*
X208713471Y-48637041D01*
X208713471Y-49362958D01*
X208710044Y-49371231D01*
X208701771Y-49374658D01*
X208701435Y-49374653D01*
X208562413Y-49370652D01*
X208249200Y-49366450D01*
X208031619Y-49388080D01*
X207864269Y-49433352D01*
X207742760Y-49497013D01*
X207736946Y-49500060D01*
X207736945Y-49500061D01*
X207652118Y-49579093D01*
X207643728Y-49582226D01*
X207635582Y-49578509D01*
X207634413Y-49577031D01*
X207253340Y-49006498D01*
X207251594Y-48997715D01*
X207253340Y-48993502D01*
X207634306Y-48423128D01*
X207641748Y-48418153D01*
X207650531Y-48419899D01*
G37*
%TD.AperFunction*%
%TD*%
%TA.AperFunction,Conductor*%
%TO.N,/LPn_2*%
G36*
X207650531Y-50419899D02*
G01*
X207652125Y-50421179D01*
X207726372Y-50492316D01*
X207828022Y-50551476D01*
X207942728Y-50592169D01*
X208000967Y-50604144D01*
X208066202Y-50617558D01*
X208066207Y-50617558D01*
X208066213Y-50617560D01*
X208194199Y-50630810D01*
X208322410Y-50635083D01*
X208562397Y-50629347D01*
X208701434Y-50625346D01*
X208709803Y-50628533D01*
X208713466Y-50636704D01*
X208713471Y-50637041D01*
X208713471Y-51362958D01*
X208710044Y-51371231D01*
X208701771Y-51374658D01*
X208701435Y-51374653D01*
X208562413Y-51370652D01*
X208249200Y-51366450D01*
X208031619Y-51388080D01*
X207864269Y-51433352D01*
X207742760Y-51497013D01*
X207736946Y-51500060D01*
X207736945Y-51500061D01*
X207652118Y-51579093D01*
X207643728Y-51582226D01*
X207635582Y-51578509D01*
X207634413Y-51577031D01*
X207253340Y-51006498D01*
X207251594Y-50997715D01*
X207253340Y-50993502D01*
X207634306Y-50423128D01*
X207641748Y-50418153D01*
X207650531Y-50419899D01*
G37*
%TD.AperFunction*%
%TD*%
%TA.AperFunction,Conductor*%
%TO.N,/LPn_2*%
G36*
X172811915Y-82360912D02*
G01*
X172815337Y-82368837D01*
X172819907Y-82522574D01*
X172833911Y-82664785D01*
X172848326Y-82745263D01*
X172855932Y-82787728D01*
X172855933Y-82787734D01*
X172855934Y-82787736D01*
X172884886Y-82895079D01*
X172884893Y-82895099D01*
X172959297Y-83077686D01*
X172959304Y-83077701D01*
X173048484Y-83241808D01*
X173048498Y-83241864D01*
X173048511Y-83241858D01*
X173158668Y-83446899D01*
X173159206Y-83448044D01*
X173255106Y-83684853D01*
X173255482Y-83685930D01*
X173295889Y-83822701D01*
X173296073Y-83823403D01*
X173329828Y-83970741D01*
X173328335Y-83979571D01*
X173321036Y-83984759D01*
X173320718Y-83984827D01*
X172442295Y-84160540D01*
X172437705Y-84160540D01*
X171559496Y-83984870D01*
X171552056Y-83979887D01*
X171550318Y-83971102D01*
X171550427Y-83970616D01*
X171608842Y-83735324D01*
X171609191Y-83734176D01*
X171626803Y-83685381D01*
X171679567Y-83539196D01*
X171679985Y-83538190D01*
X171755242Y-83379659D01*
X171755555Y-83379049D01*
X171831489Y-83241857D01*
X171920586Y-83077923D01*
X171997409Y-82887785D01*
X172025209Y-82782588D01*
X172046402Y-82662493D01*
X172060175Y-82521260D01*
X172064666Y-82368837D01*
X172068334Y-82360672D01*
X172076360Y-82357485D01*
X172803642Y-82357485D01*
X172811915Y-82360912D01*
G37*
%TD.AperFunction*%
%TD*%
%TA.AperFunction,Conductor*%
%TO.N,/LPn_0*%
G36*
X207650531Y-54419899D02*
G01*
X207652125Y-54421179D01*
X207726372Y-54492316D01*
X207828022Y-54551476D01*
X207942728Y-54592169D01*
X208000967Y-54604144D01*
X208066202Y-54617558D01*
X208066207Y-54617558D01*
X208066213Y-54617560D01*
X208194199Y-54630810D01*
X208322410Y-54635083D01*
X208562397Y-54629347D01*
X208701434Y-54625346D01*
X208709803Y-54628533D01*
X208713466Y-54636704D01*
X208713471Y-54637041D01*
X208713471Y-55362958D01*
X208710044Y-55371231D01*
X208701771Y-55374658D01*
X208701435Y-55374653D01*
X208562413Y-55370652D01*
X208249200Y-55366450D01*
X208031619Y-55388080D01*
X207864269Y-55433352D01*
X207742760Y-55497013D01*
X207736946Y-55500060D01*
X207736945Y-55500061D01*
X207652118Y-55579093D01*
X207643728Y-55582226D01*
X207635582Y-55578509D01*
X207634413Y-55577031D01*
X207253340Y-55006498D01*
X207251594Y-54997715D01*
X207253340Y-54993502D01*
X207634306Y-54423128D01*
X207641748Y-54418153D01*
X207650531Y-54419899D01*
G37*
%TD.AperFunction*%
%TD*%
%TA.AperFunction,Conductor*%
%TO.N,/SCL*%
G36*
X195350721Y-59477926D02*
G01*
X195898004Y-60295257D01*
X195899759Y-60304038D01*
X195899756Y-60304056D01*
X195707346Y-61268569D01*
X195702367Y-61276012D01*
X195693583Y-61277754D01*
X195692870Y-61277588D01*
X195586059Y-61249231D01*
X195584694Y-61248777D01*
X195476552Y-61205264D01*
X195475365Y-61204708D01*
X195376138Y-61151186D01*
X195375165Y-61150598D01*
X195363044Y-61142451D01*
X195284005Y-61089327D01*
X195282991Y-61088560D01*
X195119962Y-60950750D01*
X195119242Y-60950088D01*
X194976327Y-60807184D01*
X194813518Y-60648023D01*
X194813513Y-60648018D01*
X194755818Y-60606487D01*
X194698124Y-60564957D01*
X194647911Y-60546522D01*
X194597700Y-60528087D01*
X194597696Y-60528086D01*
X194548003Y-60523892D01*
X194496459Y-60529478D01*
X194440135Y-60546746D01*
X194380906Y-60576694D01*
X194380906Y-60576695D01*
X194311481Y-60625791D01*
X194245583Y-60685518D01*
X194237152Y-60688535D01*
X194229453Y-60685122D01*
X193715601Y-60171270D01*
X193712174Y-60162997D01*
X193715601Y-60154724D01*
X193715885Y-60154450D01*
X193829287Y-60049539D01*
X193830062Y-60048884D01*
X193943556Y-59961331D01*
X193944540Y-59960650D01*
X194051088Y-59894673D01*
X194052202Y-59894065D01*
X194153429Y-59845923D01*
X194154587Y-59845448D01*
X194252138Y-59811443D01*
X194253180Y-59811133D01*
X194348659Y-59787629D01*
X194349626Y-59787434D01*
X194541712Y-59757307D01*
X194673608Y-59738440D01*
X194891053Y-59689422D01*
X195107159Y-59605171D01*
X195107167Y-59605167D01*
X195221600Y-59544856D01*
X195221604Y-59544853D01*
X195221620Y-59544845D01*
X195334826Y-59474497D01*
X195343659Y-59473042D01*
X195350721Y-59477926D01*
G37*
%TD.AperFunction*%
%TD*%
%TA.AperFunction,Conductor*%
%TO.N,/SCL*%
G36*
X173360503Y-88485129D02*
G01*
X173367943Y-88490112D01*
X173369681Y-88498897D01*
X173369563Y-88499421D01*
X173311158Y-88734669D01*
X173310808Y-88735822D01*
X173240440Y-88930782D01*
X173240005Y-88931828D01*
X173164766Y-89090320D01*
X173164433Y-89090968D01*
X173133597Y-89146681D01*
X173088511Y-89228141D01*
X173016377Y-89360863D01*
X172999416Y-89392072D01*
X172999411Y-89392081D01*
X172922591Y-89582212D01*
X172894792Y-89687404D01*
X172894790Y-89687414D01*
X172873597Y-89807509D01*
X172859825Y-89948737D01*
X172859824Y-89948747D01*
X172855335Y-90101160D01*
X172851666Y-90109328D01*
X172843640Y-90112515D01*
X172116358Y-90112515D01*
X172108085Y-90109088D01*
X172104663Y-90101163D01*
X172101754Y-90003351D01*
X172100092Y-89947416D01*
X172086089Y-89805221D01*
X172064068Y-89682272D01*
X172035110Y-89574909D01*
X171960699Y-89392306D01*
X171871489Y-89228142D01*
X171761327Y-89023093D01*
X171760795Y-89021961D01*
X171664890Y-88785138D01*
X171664520Y-88784078D01*
X171624108Y-88647294D01*
X171623925Y-88646596D01*
X171590171Y-88499257D01*
X171591664Y-88490428D01*
X171598963Y-88485240D01*
X171599250Y-88485178D01*
X172477705Y-88309459D01*
X172482295Y-88309459D01*
X173360503Y-88485129D01*
G37*
%TD.AperFunction*%
%TD*%
%TA.AperFunction,Conductor*%
%TO.N,/SCL*%
G36*
X198020503Y-88485129D02*
G01*
X198027943Y-88490112D01*
X198029681Y-88498897D01*
X198029563Y-88499421D01*
X197971158Y-88734669D01*
X197970808Y-88735822D01*
X197900440Y-88930782D01*
X197900005Y-88931828D01*
X197824766Y-89090320D01*
X197824433Y-89090968D01*
X197793597Y-89146681D01*
X197748511Y-89228141D01*
X197676377Y-89360863D01*
X197659416Y-89392072D01*
X197659411Y-89392081D01*
X197582591Y-89582212D01*
X197554792Y-89687404D01*
X197554790Y-89687414D01*
X197533597Y-89807509D01*
X197519825Y-89948737D01*
X197519824Y-89948747D01*
X197515335Y-90101160D01*
X197511666Y-90109328D01*
X197503640Y-90112515D01*
X196776358Y-90112515D01*
X196768085Y-90109088D01*
X196764663Y-90101163D01*
X196761754Y-90003351D01*
X196760092Y-89947416D01*
X196746089Y-89805221D01*
X196724068Y-89682272D01*
X196695110Y-89574909D01*
X196620699Y-89392306D01*
X196531489Y-89228142D01*
X196421327Y-89023093D01*
X196420795Y-89021961D01*
X196324890Y-88785138D01*
X196324520Y-88784078D01*
X196284108Y-88647294D01*
X196283925Y-88646596D01*
X196250171Y-88499257D01*
X196251664Y-88490428D01*
X196258963Y-88485240D01*
X196259250Y-88485178D01*
X197137705Y-88309459D01*
X197142295Y-88309459D01*
X198020503Y-88485129D01*
G37*
%TD.AperFunction*%
%TD*%
%TA.AperFunction,Conductor*%
%TO.N,/SCL*%
G36*
X185108016Y-63106543D02*
G01*
X185488517Y-63464580D01*
X185668356Y-63633802D01*
X185672033Y-63641967D01*
X185668859Y-63650341D01*
X185665250Y-63652942D01*
X185601537Y-63682415D01*
X185543603Y-63741007D01*
X185543602Y-63741008D01*
X185504003Y-63816690D01*
X185479571Y-63904715D01*
X185467150Y-64000302D01*
X185467148Y-64000328D01*
X185466392Y-64021118D01*
X185463568Y-64098741D01*
X185470279Y-64285042D01*
X185470281Y-64285102D01*
X185474500Y-64387820D01*
X185471416Y-64396227D01*
X185463290Y-64399990D01*
X185462810Y-64400000D01*
X184737190Y-64400000D01*
X184728917Y-64396573D01*
X184725490Y-64388300D01*
X184725500Y-64387820D01*
X184729721Y-64285042D01*
X184732555Y-64233355D01*
X184734243Y-64021121D01*
X184712109Y-63867690D01*
X184669041Y-63760419D01*
X184606309Y-63688249D01*
X184596969Y-63682415D01*
X184566246Y-63663225D01*
X184566244Y-63663224D01*
X184566242Y-63663223D01*
X184536700Y-63652240D01*
X184530139Y-63646144D01*
X184529810Y-63637196D01*
X184532758Y-63632753D01*
X185091983Y-63106543D01*
X185100356Y-63103370D01*
X185108016Y-63106543D01*
G37*
%TD.AperFunction*%
%TD*%
%TA.AperFunction,Conductor*%
%TO.N,/SCL*%
G36*
X164735288Y-52301008D02*
G01*
X164963895Y-52357454D01*
X164965017Y-52357791D01*
X165155021Y-52425472D01*
X165156019Y-52425882D01*
X165310673Y-52497984D01*
X165311292Y-52498296D01*
X165445212Y-52570907D01*
X165594525Y-52650878D01*
X165594530Y-52650880D01*
X165783798Y-52727605D01*
X165783801Y-52727605D01*
X165783811Y-52727610D01*
X165887968Y-52755295D01*
X166007069Y-52776426D01*
X166085717Y-52784125D01*
X166147523Y-52790177D01*
X166147524Y-52790177D01*
X166147534Y-52790178D01*
X166299565Y-52794664D01*
X166307732Y-52798333D01*
X166310918Y-52806359D01*
X166310918Y-53533635D01*
X166307491Y-53541908D01*
X166299559Y-53545330D01*
X166149460Y-53549702D01*
X166010397Y-53563121D01*
X165890129Y-53584228D01*
X165785061Y-53611999D01*
X165606229Y-53683400D01*
X165606218Y-53683405D01*
X165445233Y-53769081D01*
X165445211Y-53769093D01*
X165256708Y-53868913D01*
X165255623Y-53869418D01*
X165020008Y-53964783D01*
X165018934Y-53965158D01*
X164882878Y-54005364D01*
X164882175Y-54005549D01*
X164735161Y-54039231D01*
X164726331Y-54037738D01*
X164721143Y-54030439D01*
X164721075Y-54030121D01*
X164624022Y-53545000D01*
X164549459Y-53172294D01*
X164549459Y-53167705D01*
X164721035Y-52310075D01*
X164726018Y-52302638D01*
X164734802Y-52300900D01*
X164735288Y-52301008D01*
G37*
%TD.AperFunction*%
%TD*%
%TA.AperFunction,Conductor*%
%TO.N,/SCL*%
G36*
X196038859Y-72458052D02*
G01*
X196106298Y-72521597D01*
X196150799Y-72563529D01*
X196150802Y-72563532D01*
X196150808Y-72563537D01*
X196261256Y-72654182D01*
X196363765Y-72725549D01*
X196460159Y-72780990D01*
X196460165Y-72780992D01*
X196460168Y-72780994D01*
X196563618Y-72824541D01*
X196641895Y-72857493D01*
X196821058Y-72910494D01*
X197043942Y-72977588D01*
X197045119Y-72978012D01*
X197280404Y-73077661D01*
X197281406Y-73078145D01*
X197363539Y-73122815D01*
X197406691Y-73146285D01*
X197407318Y-73146651D01*
X197535378Y-73226971D01*
X197540566Y-73234270D01*
X197539073Y-73243100D01*
X197538896Y-73243373D01*
X197042004Y-73988759D01*
X197038759Y-73992004D01*
X196293556Y-74488773D01*
X196284771Y-74490511D01*
X196277331Y-74485528D01*
X196277043Y-74485074D01*
X196151995Y-74277430D01*
X196151427Y-74276367D01*
X196063324Y-74088744D01*
X196062893Y-74087697D01*
X196004020Y-73922411D01*
X196003812Y-73921765D01*
X195960494Y-73771058D01*
X195907575Y-73592138D01*
X195827450Y-73403367D01*
X195772722Y-73309324D01*
X195702788Y-73209419D01*
X195612659Y-73099813D01*
X195612655Y-73099809D01*
X195612656Y-73099809D01*
X195563112Y-73047258D01*
X195508056Y-72988859D01*
X195504875Y-72980490D01*
X195508296Y-72972563D01*
X196022565Y-72458294D01*
X196030837Y-72454868D01*
X196038859Y-72458052D01*
G37*
%TD.AperFunction*%
%TD*%
%TA.AperFunction,Conductor*%
%TO.N,/SCL*%
G36*
X185646807Y-62515037D02*
G01*
X185650232Y-62520649D01*
X185667237Y-62583760D01*
X185667240Y-62583766D01*
X185713797Y-62645193D01*
X185713796Y-62645193D01*
X185713798Y-62645194D01*
X185713799Y-62645195D01*
X185779189Y-62687571D01*
X185858251Y-62714172D01*
X185945824Y-62728278D01*
X186036750Y-62733167D01*
X186036751Y-62733166D01*
X186036752Y-62733167D01*
X186207966Y-62728414D01*
X186208016Y-62728412D01*
X186208021Y-62728412D01*
X186287866Y-62725450D01*
X186296261Y-62728568D01*
X186299992Y-62736708D01*
X186300000Y-62737142D01*
X186300000Y-63462857D01*
X186296573Y-63471130D01*
X186288300Y-63474557D01*
X186287866Y-63474549D01*
X186208056Y-63471589D01*
X186207942Y-63471584D01*
X186139447Y-63468374D01*
X186139432Y-63468374D01*
X186139428Y-63468374D01*
X185984984Y-63470616D01*
X185952466Y-63471088D01*
X185952463Y-63471088D01*
X185819590Y-63496615D01*
X185819585Y-63496616D01*
X185729466Y-63541884D01*
X185672009Y-63607120D01*
X185654158Y-63649774D01*
X185649027Y-63676932D01*
X185644123Y-63684425D01*
X185635358Y-63686257D01*
X185628874Y-63682632D01*
X185106159Y-63107872D01*
X185103128Y-63099446D01*
X185106159Y-63092128D01*
X185630281Y-62515819D01*
X185638381Y-62512006D01*
X185646807Y-62515037D01*
G37*
%TD.AperFunction*%
%TD*%
%TA.AperFunction,Conductor*%
%TO.N,/SCL*%
G36*
X206864417Y-60421490D02*
G01*
X206865586Y-60422968D01*
X207246659Y-60993502D01*
X207248405Y-61002285D01*
X207246659Y-61006498D01*
X206865695Y-61576869D01*
X206858251Y-61581846D01*
X206849468Y-61580100D01*
X206847872Y-61578819D01*
X206773632Y-61507687D01*
X206773629Y-61507684D01*
X206773625Y-61507682D01*
X206773623Y-61507680D01*
X206671984Y-61448528D01*
X206671981Y-61448526D01*
X206671978Y-61448525D01*
X206592878Y-61420463D01*
X206557270Y-61407830D01*
X206557265Y-61407829D01*
X206433797Y-61382442D01*
X206433784Y-61382440D01*
X206305802Y-61369190D01*
X206286075Y-61368532D01*
X206177589Y-61364918D01*
X206177582Y-61364918D01*
X206177578Y-61364918D01*
X206071321Y-61367457D01*
X205937602Y-61370653D01*
X205937573Y-61370653D01*
X205798565Y-61374653D01*
X205790197Y-61371466D01*
X205786534Y-61363294D01*
X205786529Y-61362958D01*
X205786529Y-60637041D01*
X205789956Y-60628768D01*
X205798229Y-60625341D01*
X205798540Y-60625345D01*
X205863433Y-60627212D01*
X205937589Y-60629347D01*
X205987692Y-60630019D01*
X206250803Y-60633550D01*
X206468382Y-60611920D01*
X206635732Y-60566647D01*
X206763055Y-60499940D01*
X206847882Y-60420905D01*
X206856270Y-60417773D01*
X206864417Y-60421490D01*
G37*
%TD.AperFunction*%
%TD*%
%TA.AperFunction,Conductor*%
%TO.N,/3.3VOUT*%
G36*
X205131915Y-86500912D02*
G01*
X205135337Y-86508837D01*
X205139907Y-86662574D01*
X205153911Y-86804785D01*
X205168326Y-86885263D01*
X205175932Y-86927728D01*
X205175933Y-86927734D01*
X205175934Y-86927736D01*
X205204886Y-87035079D01*
X205204893Y-87035099D01*
X205279297Y-87217686D01*
X205279304Y-87217701D01*
X205368484Y-87381808D01*
X205368498Y-87381864D01*
X205368511Y-87381858D01*
X205478668Y-87586899D01*
X205479206Y-87588044D01*
X205575106Y-87824853D01*
X205575482Y-87825930D01*
X205615889Y-87962701D01*
X205616073Y-87963403D01*
X205649828Y-88110741D01*
X205648335Y-88119571D01*
X205641036Y-88124759D01*
X205640718Y-88124827D01*
X204762295Y-88300540D01*
X204757705Y-88300540D01*
X203879496Y-88124870D01*
X203872056Y-88119887D01*
X203870318Y-88111102D01*
X203870427Y-88110616D01*
X203928842Y-87875324D01*
X203929191Y-87874176D01*
X203946803Y-87825381D01*
X203999567Y-87679196D01*
X203999985Y-87678190D01*
X204075242Y-87519659D01*
X204075555Y-87519049D01*
X204151489Y-87381857D01*
X204240586Y-87217923D01*
X204317409Y-87027785D01*
X204345209Y-86922588D01*
X204366402Y-86802493D01*
X204380175Y-86661260D01*
X204384666Y-86508837D01*
X204388334Y-86500672D01*
X204396360Y-86497485D01*
X205123642Y-86497485D01*
X205131915Y-86500912D01*
G37*
%TD.AperFunction*%
%TD*%
%TA.AperFunction,Conductor*%
%TO.N,/3.3VOUT*%
G36*
X205031915Y-72180912D02*
G01*
X205035337Y-72188837D01*
X205039907Y-72342574D01*
X205053911Y-72484785D01*
X205068326Y-72565263D01*
X205075932Y-72607728D01*
X205075933Y-72607734D01*
X205075934Y-72607736D01*
X205104886Y-72715079D01*
X205104893Y-72715099D01*
X205179297Y-72897686D01*
X205179304Y-72897701D01*
X205268484Y-73061808D01*
X205268498Y-73061864D01*
X205268511Y-73061858D01*
X205378668Y-73266899D01*
X205379206Y-73268044D01*
X205475106Y-73504853D01*
X205475482Y-73505930D01*
X205515889Y-73642701D01*
X205516073Y-73643403D01*
X205549828Y-73790741D01*
X205548335Y-73799571D01*
X205541036Y-73804759D01*
X205540718Y-73804827D01*
X204662295Y-73980540D01*
X204657705Y-73980540D01*
X203779496Y-73804870D01*
X203772056Y-73799887D01*
X203770318Y-73791102D01*
X203770427Y-73790616D01*
X203828842Y-73555324D01*
X203829191Y-73554176D01*
X203846803Y-73505381D01*
X203899567Y-73359196D01*
X203899985Y-73358190D01*
X203975242Y-73199659D01*
X203975555Y-73199049D01*
X204051489Y-73061857D01*
X204140586Y-72897923D01*
X204217409Y-72707785D01*
X204245209Y-72602588D01*
X204266402Y-72482493D01*
X204280175Y-72341260D01*
X204284666Y-72188837D01*
X204288334Y-72180672D01*
X204296360Y-72177485D01*
X205023642Y-72177485D01*
X205031915Y-72180912D01*
G37*
%TD.AperFunction*%
%TD*%
%TA.AperFunction,Conductor*%
%TO.N,/3.3VOUT*%
G36*
X164735288Y-44681008D02*
G01*
X164963895Y-44737454D01*
X164965017Y-44737791D01*
X165155021Y-44805472D01*
X165156019Y-44805882D01*
X165310673Y-44877984D01*
X165311292Y-44878296D01*
X165445212Y-44950907D01*
X165594525Y-45030878D01*
X165594530Y-45030880D01*
X165783798Y-45107605D01*
X165783801Y-45107605D01*
X165783811Y-45107610D01*
X165887968Y-45135295D01*
X166007069Y-45156426D01*
X166085717Y-45164125D01*
X166147523Y-45170177D01*
X166147524Y-45170177D01*
X166147534Y-45170178D01*
X166299565Y-45174664D01*
X166307732Y-45178333D01*
X166310918Y-45186359D01*
X166310918Y-45913635D01*
X166307491Y-45921908D01*
X166299559Y-45925330D01*
X166149460Y-45929702D01*
X166010397Y-45943121D01*
X165890129Y-45964228D01*
X165785061Y-45991999D01*
X165606229Y-46063400D01*
X165606218Y-46063405D01*
X165445233Y-46149081D01*
X165445211Y-46149093D01*
X165256708Y-46248913D01*
X165255623Y-46249418D01*
X165020008Y-46344783D01*
X165018934Y-46345158D01*
X164882878Y-46385364D01*
X164882175Y-46385549D01*
X164735161Y-46419231D01*
X164726331Y-46417738D01*
X164721143Y-46410439D01*
X164721075Y-46410121D01*
X164624022Y-45925000D01*
X164549459Y-45552294D01*
X164549459Y-45547705D01*
X164721035Y-44690075D01*
X164726018Y-44682638D01*
X164734802Y-44680900D01*
X164735288Y-44681008D01*
G37*
%TD.AperFunction*%
%TD*%
%TA.AperFunction,Conductor*%
%TO.N,/3.3VOUT*%
G36*
X180431915Y-72200912D02*
G01*
X180435337Y-72208837D01*
X180439907Y-72362574D01*
X180453911Y-72504785D01*
X180468326Y-72585263D01*
X180475932Y-72627728D01*
X180475933Y-72627734D01*
X180475934Y-72627736D01*
X180504886Y-72735079D01*
X180504893Y-72735099D01*
X180579297Y-72917686D01*
X180579304Y-72917701D01*
X180668484Y-73081808D01*
X180668498Y-73081864D01*
X180668511Y-73081858D01*
X180778668Y-73286899D01*
X180779206Y-73288044D01*
X180875106Y-73524853D01*
X180875482Y-73525930D01*
X180915889Y-73662701D01*
X180916073Y-73663403D01*
X180949828Y-73810741D01*
X180948335Y-73819571D01*
X180941036Y-73824759D01*
X180940718Y-73824827D01*
X180062295Y-74000540D01*
X180057705Y-74000540D01*
X179179496Y-73824870D01*
X179172056Y-73819887D01*
X179170318Y-73811102D01*
X179170427Y-73810616D01*
X179228842Y-73575324D01*
X179229191Y-73574176D01*
X179246803Y-73525381D01*
X179299567Y-73379196D01*
X179299985Y-73378190D01*
X179375242Y-73219659D01*
X179375555Y-73219049D01*
X179451489Y-73081857D01*
X179540586Y-72917923D01*
X179617409Y-72727785D01*
X179645209Y-72622588D01*
X179666402Y-72502493D01*
X179680175Y-72361260D01*
X179684666Y-72208837D01*
X179688334Y-72200672D01*
X179696360Y-72197485D01*
X180423642Y-72197485D01*
X180431915Y-72200912D01*
G37*
%TD.AperFunction*%
%TD*%
%TA.AperFunction,Conductor*%
%TO.N,/3.3VOUT*%
G36*
X185650793Y-48898585D02*
G01*
X185655976Y-48905887D01*
X185656042Y-48906195D01*
X185800539Y-49627702D01*
X185800539Y-49632298D01*
X185656058Y-50353720D01*
X185651073Y-50361159D01*
X185642288Y-50362894D01*
X185641899Y-50362809D01*
X185458482Y-50319536D01*
X185457627Y-50319300D01*
X185301428Y-50269569D01*
X185300408Y-50269191D01*
X185059909Y-50167109D01*
X185059566Y-50166957D01*
X185018460Y-50147933D01*
X185018459Y-50147932D01*
X184826112Y-50070766D01*
X184826105Y-50070763D01*
X184826103Y-50070762D01*
X184826102Y-50070762D01*
X184806665Y-50065454D01*
X184728154Y-50044017D01*
X184728145Y-50044015D01*
X184728144Y-50044015D01*
X184615034Y-50023397D01*
X184615019Y-50023395D01*
X184478111Y-50009798D01*
X184325768Y-50005332D01*
X184317599Y-50001664D01*
X184314411Y-49993637D01*
X184314411Y-49266127D01*
X184317838Y-49257854D01*
X184325523Y-49254442D01*
X184571400Y-49242110D01*
X184725301Y-49214215D01*
X184764426Y-49207124D01*
X184764431Y-49207123D01*
X184918782Y-49155566D01*
X185059733Y-49092965D01*
X185059758Y-49092954D01*
X185077598Y-49084737D01*
X185125662Y-49062602D01*
X185126183Y-49062379D01*
X185359579Y-48970379D01*
X185360547Y-48970046D01*
X185493577Y-48931007D01*
X185494223Y-48930839D01*
X185641966Y-48897087D01*
X185650793Y-48898585D01*
G37*
%TD.AperFunction*%
%TD*%
%TA.AperFunction,Conductor*%
%TO.N,/3.3VOUT*%
G36*
X182349172Y-58218719D02*
G01*
X182349236Y-58218782D01*
X182356637Y-58226072D01*
X182483484Y-58332498D01*
X182608767Y-58403360D01*
X182725431Y-58435521D01*
X182835152Y-58431408D01*
X182888446Y-58415528D01*
X182941941Y-58389172D01*
X182995608Y-58350993D01*
X183030871Y-58317186D01*
X183039212Y-58313937D01*
X183047411Y-58317537D01*
X183050633Y-58324770D01*
X183100178Y-58993578D01*
X183097372Y-59002081D01*
X183094603Y-59004430D01*
X182514587Y-59358256D01*
X182505740Y-59359639D01*
X182498506Y-59354361D01*
X182496979Y-59350338D01*
X182489493Y-59308665D01*
X182460046Y-59250610D01*
X182414772Y-59193196D01*
X182414770Y-59193194D01*
X182414771Y-59193194D01*
X182356783Y-59136625D01*
X182356780Y-59136622D01*
X182215095Y-59026820D01*
X182059891Y-58922835D01*
X182059891Y-58922834D01*
X181928345Y-58834936D01*
X181927542Y-58834349D01*
X181820790Y-58749065D01*
X181816465Y-58741224D01*
X181818952Y-58732621D01*
X181819811Y-58731660D01*
X182332690Y-58218781D01*
X182340962Y-58215355D01*
X182349172Y-58218719D01*
G37*
%TD.AperFunction*%
%TD*%
%TA.AperFunction,Conductor*%
%TO.N,/3.3VOUT*%
G36*
X182755431Y-62417036D02*
G01*
X182761288Y-62422554D01*
X183096240Y-63091783D01*
X183096878Y-63100715D01*
X183092599Y-63106525D01*
X182514630Y-63521320D01*
X182505910Y-63523360D01*
X182498303Y-63518637D01*
X182496352Y-63514187D01*
X182488873Y-63478035D01*
X182488873Y-63478034D01*
X182457709Y-63426254D01*
X182409814Y-63376410D01*
X182409813Y-63376409D01*
X182409811Y-63376407D01*
X182348510Y-63328445D01*
X182198954Y-63237930D01*
X182198953Y-63237929D01*
X182198949Y-63237927D01*
X182035557Y-63154219D01*
X182035557Y-63154218D01*
X181908137Y-63089394D01*
X181907324Y-63088939D01*
X181896252Y-63082146D01*
X181793924Y-63019368D01*
X181788665Y-63012122D01*
X181790070Y-63003278D01*
X181791766Y-63001127D01*
X182304263Y-62488630D01*
X182312535Y-62485204D01*
X182319774Y-62487713D01*
X182324583Y-62491501D01*
X182324632Y-62491539D01*
X182324644Y-62491548D01*
X182370476Y-62526680D01*
X182465090Y-62581920D01*
X182545835Y-62600515D01*
X182617541Y-62584488D01*
X182652392Y-62561046D01*
X182685793Y-62525278D01*
X182719364Y-62471534D01*
X182740070Y-62423184D01*
X182746477Y-62416929D01*
X182755431Y-62417036D01*
G37*
%TD.AperFunction*%
%TD*%
%TA.AperFunction,Conductor*%
%TO.N,/3.3VOUT*%
G36*
X180471915Y-86500912D02*
G01*
X180475337Y-86508837D01*
X180479907Y-86662574D01*
X180493911Y-86804785D01*
X180508326Y-86885263D01*
X180515932Y-86927728D01*
X180515933Y-86927734D01*
X180515934Y-86927736D01*
X180544886Y-87035079D01*
X180544893Y-87035099D01*
X180619297Y-87217686D01*
X180619304Y-87217701D01*
X180708484Y-87381808D01*
X180708498Y-87381864D01*
X180708511Y-87381858D01*
X180818668Y-87586899D01*
X180819206Y-87588044D01*
X180915106Y-87824853D01*
X180915482Y-87825930D01*
X180955889Y-87962701D01*
X180956073Y-87963403D01*
X180989828Y-88110741D01*
X180988335Y-88119571D01*
X180981036Y-88124759D01*
X180980718Y-88124827D01*
X180102295Y-88300540D01*
X180097705Y-88300540D01*
X179219496Y-88124870D01*
X179212056Y-88119887D01*
X179210318Y-88111102D01*
X179210427Y-88110616D01*
X179268842Y-87875324D01*
X179269191Y-87874176D01*
X179286803Y-87825381D01*
X179339567Y-87679196D01*
X179339985Y-87678190D01*
X179415242Y-87519659D01*
X179415555Y-87519049D01*
X179491489Y-87381857D01*
X179580586Y-87217923D01*
X179657409Y-87027785D01*
X179685209Y-86922588D01*
X179706402Y-86802493D01*
X179720175Y-86661260D01*
X179724666Y-86508837D01*
X179728334Y-86500672D01*
X179736360Y-86497485D01*
X180463642Y-86497485D01*
X180471915Y-86500912D01*
G37*
%TD.AperFunction*%
%TD*%
%TA.AperFunction,Conductor*%
%TO.N,/5VinML*%
G36*
X206864417Y-62421490D02*
G01*
X206865586Y-62422968D01*
X207246659Y-62993502D01*
X207248405Y-63002285D01*
X207246659Y-63006498D01*
X206865695Y-63576869D01*
X206858251Y-63581846D01*
X206849468Y-63580100D01*
X206847872Y-63578819D01*
X206773632Y-63507687D01*
X206773629Y-63507684D01*
X206773625Y-63507682D01*
X206773623Y-63507680D01*
X206671984Y-63448528D01*
X206671981Y-63448526D01*
X206671978Y-63448525D01*
X206592878Y-63420463D01*
X206557270Y-63407830D01*
X206557265Y-63407829D01*
X206433797Y-63382442D01*
X206433784Y-63382440D01*
X206305802Y-63369190D01*
X206286075Y-63368532D01*
X206177589Y-63364918D01*
X206177582Y-63364918D01*
X206177578Y-63364918D01*
X206071321Y-63367457D01*
X205937602Y-63370653D01*
X205937573Y-63370653D01*
X205798565Y-63374653D01*
X205790197Y-63371466D01*
X205786534Y-63363294D01*
X205786529Y-63362958D01*
X205786529Y-62637041D01*
X205789956Y-62628768D01*
X205798229Y-62625341D01*
X205798540Y-62625345D01*
X205863433Y-62627212D01*
X205937589Y-62629347D01*
X205987692Y-62630019D01*
X206250803Y-62633550D01*
X206468382Y-62611920D01*
X206635732Y-62566647D01*
X206763055Y-62499940D01*
X206847882Y-62420905D01*
X206856270Y-62417773D01*
X206864417Y-62421490D01*
G37*
%TD.AperFunction*%
%TD*%
M02*
