M48
; DRILL file {KiCad 9.0.7} date 2026-02-11T22:15:30-0800
; FORMAT={-:-/ absolute / metric / decimal}
; #@! TF.CreationDate,2026-02-11T22:15:30-08:00
; #@! TF.GenerationSoftware,Kicad,Pcbnew,9.0.7
; #@! TF.FileFunction,Plated,1,2,PTH
FMAT,2
METRIC
; #@! TA.AperFunction,Plated,PTH,ViaDrill
T1C0.400
; #@! TA.AperFunction,Plated,PTH,ComponentDrill
T2C0.750
; #@! TA.AperFunction,Plated,PTH,ComponentDrill
T3C1.000
; #@! TA.AperFunction,Plated,PTH,ComponentDrill
T4C1.050
; #@! TA.AperFunction,Plated,PTH,ComponentDrill
T5C1.220
; #@! TA.AperFunction,Plated,PTH,ComponentDrill
T6C2.500
%
G90
G05
T1
X161.4Y-85.1
X166.7Y-65.6
X171.3Y-68.3
X174.25Y-64.05
X175.3Y-70.5
X180.2Y-66.1
X180.4Y-68.8
X183.1Y-66.1
X185.1Y-60.9
X186.2Y-66.525
X187.0Y-57.4
X187.0Y-63.1
X187.4Y-82.9
X189.7Y-66.5
X189.75Y-47.1
X191.7Y-77.1
X193.4Y-57.4
X193.4Y-68.3
X193.5Y-60.9
X193.8Y-92.1
X194.2Y-71.0
X197.7Y-66.6
X199.6Y-79.8
X200.9Y-65.0
X211.2Y-63.6
X212.6Y-77.0
X212.7Y-60.7
X213.7Y-41.3
X213.7Y-44.9
T2
X207.25Y-49.0
X207.25Y-51.0
X207.25Y-53.0
X207.25Y-55.0
X207.25Y-57.0
X207.25Y-59.0
X207.25Y-61.0
X207.25Y-63.0
X207.25Y-65.0
T3
X164.55Y-45.55
X164.55Y-48.09
X164.55Y-50.63
X164.55Y-53.17
X164.55Y-55.71
X164.55Y-58.25
X177.25Y-45.55
X177.25Y-48.09
X177.25Y-50.63
X177.25Y-53.17
X177.25Y-55.71
X177.25Y-58.25
T4
X185.8Y-39.47
X185.8Y-42.01
X185.8Y-44.55
X185.8Y-47.09
X185.8Y-49.63
X196.46Y-39.47
T5
X164.82Y-74.0
X164.86Y-88.3
X167.36Y-74.0
X167.4Y-88.3
X169.9Y-74.0
X169.9Y-84.16
X169.94Y-88.3
X169.94Y-98.46
X172.44Y-74.01
X172.44Y-84.16
X172.48Y-88.31
X172.48Y-98.46
X174.94Y-74.0
X174.94Y-84.16
X174.98Y-88.3
X174.98Y-98.46
X177.52Y-74.04
X177.52Y-84.16
X177.56Y-88.34
X177.56Y-98.46
X180.06Y-74.0
X180.1Y-88.3
X182.6Y-74.0
X182.64Y-88.3
X185.14Y-74.0
X185.18Y-88.3
X189.42Y-73.98
X189.52Y-88.3
X191.96Y-73.98
X192.06Y-88.3
X194.5Y-73.98
X194.5Y-84.14
X194.6Y-88.3
X194.6Y-98.46
X197.04Y-73.99
X197.04Y-84.14
X197.14Y-88.31
X197.14Y-98.46
X199.54Y-73.98
X199.54Y-84.14
X199.64Y-88.3
X199.64Y-98.46
X202.12Y-74.02
X202.12Y-84.14
X202.22Y-88.34
X202.22Y-98.46
X204.66Y-73.98
X204.76Y-88.3
X207.2Y-73.98
X207.3Y-88.3
X209.74Y-73.98
X209.84Y-88.3
T6
X164.55Y-41.74
X164.55Y-62.06
X177.25Y-41.74
X177.25Y-62.06
M30
