%TF.GenerationSoftware,KiCad,Pcbnew,9.0.7*%
%TF.CreationDate,2026-02-11T22:14:35-08:00*%
%TF.ProjectId,WALLOPS,57414c4c-4f50-4532-9e6b-696361645f70,rev?*%
%TF.SameCoordinates,Original*%
%TF.FileFunction,Legend,Top*%
%TF.FilePolarity,Positive*%
%FSLAX46Y46*%
G04 Gerber Fmt 4.6, Leading zero omitted, Abs format (unit mm)*
G04 Created by KiCad (PCBNEW 9.0.7) date 2026-02-11 22:14:35*
%MOMM*%
%LPD*%
G01*
G04 APERTURE LIST*
%ADD10C,0.125000*%
%ADD11C,0.150000*%
%ADD12C,0.250000*%
%ADD13C,0.100000*%
%ADD14C,0.120000*%
%ADD15C,0.000000*%
%ADD16C,0.127000*%
G04 APERTURE END LIST*
D10*
X208377474Y-43008500D02*
X208448902Y-43032309D01*
X208448902Y-43032309D02*
X208567950Y-43032309D01*
X208567950Y-43032309D02*
X208615569Y-43008500D01*
X208615569Y-43008500D02*
X208639378Y-42984690D01*
X208639378Y-42984690D02*
X208663188Y-42937071D01*
X208663188Y-42937071D02*
X208663188Y-42889452D01*
X208663188Y-42889452D02*
X208639378Y-42841833D01*
X208639378Y-42841833D02*
X208615569Y-42818023D01*
X208615569Y-42818023D02*
X208567950Y-42794214D01*
X208567950Y-42794214D02*
X208472712Y-42770404D01*
X208472712Y-42770404D02*
X208425093Y-42746595D01*
X208425093Y-42746595D02*
X208401283Y-42722785D01*
X208401283Y-42722785D02*
X208377474Y-42675166D01*
X208377474Y-42675166D02*
X208377474Y-42627547D01*
X208377474Y-42627547D02*
X208401283Y-42579928D01*
X208401283Y-42579928D02*
X208425093Y-42556119D01*
X208425093Y-42556119D02*
X208472712Y-42532309D01*
X208472712Y-42532309D02*
X208591759Y-42532309D01*
X208591759Y-42532309D02*
X208663188Y-42556119D01*
X209091759Y-43008500D02*
X209044140Y-43032309D01*
X209044140Y-43032309D02*
X208948902Y-43032309D01*
X208948902Y-43032309D02*
X208901283Y-43008500D01*
X208901283Y-43008500D02*
X208877473Y-42984690D01*
X208877473Y-42984690D02*
X208853664Y-42937071D01*
X208853664Y-42937071D02*
X208853664Y-42794214D01*
X208853664Y-42794214D02*
X208877473Y-42746595D01*
X208877473Y-42746595D02*
X208901283Y-42722785D01*
X208901283Y-42722785D02*
X208948902Y-42698976D01*
X208948902Y-42698976D02*
X209044140Y-42698976D01*
X209044140Y-42698976D02*
X209091759Y-42722785D01*
X209520330Y-43032309D02*
X209520330Y-42770404D01*
X209520330Y-42770404D02*
X209496520Y-42722785D01*
X209496520Y-42722785D02*
X209448901Y-42698976D01*
X209448901Y-42698976D02*
X209353663Y-42698976D01*
X209353663Y-42698976D02*
X209306044Y-42722785D01*
X209520330Y-43008500D02*
X209472711Y-43032309D01*
X209472711Y-43032309D02*
X209353663Y-43032309D01*
X209353663Y-43032309D02*
X209306044Y-43008500D01*
X209306044Y-43008500D02*
X209282235Y-42960880D01*
X209282235Y-42960880D02*
X209282235Y-42913261D01*
X209282235Y-42913261D02*
X209306044Y-42865642D01*
X209306044Y-42865642D02*
X209353663Y-42841833D01*
X209353663Y-42841833D02*
X209472711Y-42841833D01*
X209472711Y-42841833D02*
X209520330Y-42818023D01*
X209758425Y-42698976D02*
X209758425Y-43032309D01*
X209758425Y-42746595D02*
X209782235Y-42722785D01*
X209782235Y-42722785D02*
X209829854Y-42698976D01*
X209829854Y-42698976D02*
X209901282Y-42698976D01*
X209901282Y-42698976D02*
X209948901Y-42722785D01*
X209948901Y-42722785D02*
X209972711Y-42770404D01*
X209972711Y-42770404D02*
X209972711Y-43032309D01*
D11*
X166870112Y-50386128D02*
X166798684Y-50350414D01*
X166798684Y-50350414D02*
X166691541Y-50350414D01*
X166691541Y-50350414D02*
X166584398Y-50386128D01*
X166584398Y-50386128D02*
X166512969Y-50457557D01*
X166512969Y-50457557D02*
X166477255Y-50528985D01*
X166477255Y-50528985D02*
X166441541Y-50671842D01*
X166441541Y-50671842D02*
X166441541Y-50778985D01*
X166441541Y-50778985D02*
X166477255Y-50921842D01*
X166477255Y-50921842D02*
X166512969Y-50993271D01*
X166512969Y-50993271D02*
X166584398Y-51064700D01*
X166584398Y-51064700D02*
X166691541Y-51100414D01*
X166691541Y-51100414D02*
X166762969Y-51100414D01*
X166762969Y-51100414D02*
X166870112Y-51064700D01*
X166870112Y-51064700D02*
X166905826Y-51028985D01*
X166905826Y-51028985D02*
X166905826Y-50778985D01*
X166905826Y-50778985D02*
X166762969Y-50778985D01*
X167227255Y-51100414D02*
X167227255Y-50350414D01*
X167227255Y-50350414D02*
X167655826Y-51100414D01*
X167655826Y-51100414D02*
X167655826Y-50350414D01*
X168012969Y-51100414D02*
X168012969Y-50350414D01*
X168012969Y-50350414D02*
X168191540Y-50350414D01*
X168191540Y-50350414D02*
X168298683Y-50386128D01*
X168298683Y-50386128D02*
X168370112Y-50457557D01*
X168370112Y-50457557D02*
X168405826Y-50528985D01*
X168405826Y-50528985D02*
X168441540Y-50671842D01*
X168441540Y-50671842D02*
X168441540Y-50778985D01*
X168441540Y-50778985D02*
X168405826Y-50921842D01*
X168405826Y-50921842D02*
X168370112Y-50993271D01*
X168370112Y-50993271D02*
X168298683Y-51064700D01*
X168298683Y-51064700D02*
X168191540Y-51100414D01*
X168191540Y-51100414D02*
X168012969Y-51100414D01*
X174305826Y-100728985D02*
X174270112Y-100764700D01*
X174270112Y-100764700D02*
X174162969Y-100800414D01*
X174162969Y-100800414D02*
X174091541Y-100800414D01*
X174091541Y-100800414D02*
X173984398Y-100764700D01*
X173984398Y-100764700D02*
X173912969Y-100693271D01*
X173912969Y-100693271D02*
X173877255Y-100621842D01*
X173877255Y-100621842D02*
X173841541Y-100478985D01*
X173841541Y-100478985D02*
X173841541Y-100371842D01*
X173841541Y-100371842D02*
X173877255Y-100228985D01*
X173877255Y-100228985D02*
X173912969Y-100157557D01*
X173912969Y-100157557D02*
X173984398Y-100086128D01*
X173984398Y-100086128D02*
X174091541Y-100050414D01*
X174091541Y-100050414D02*
X174162969Y-100050414D01*
X174162969Y-100050414D02*
X174270112Y-100086128D01*
X174270112Y-100086128D02*
X174305826Y-100121842D01*
X174734398Y-100800414D02*
X174662969Y-100764700D01*
X174662969Y-100764700D02*
X174627255Y-100728985D01*
X174627255Y-100728985D02*
X174591541Y-100657557D01*
X174591541Y-100657557D02*
X174591541Y-100443271D01*
X174591541Y-100443271D02*
X174627255Y-100371842D01*
X174627255Y-100371842D02*
X174662969Y-100336128D01*
X174662969Y-100336128D02*
X174734398Y-100300414D01*
X174734398Y-100300414D02*
X174841541Y-100300414D01*
X174841541Y-100300414D02*
X174912969Y-100336128D01*
X174912969Y-100336128D02*
X174948684Y-100371842D01*
X174948684Y-100371842D02*
X174984398Y-100443271D01*
X174984398Y-100443271D02*
X174984398Y-100657557D01*
X174984398Y-100657557D02*
X174948684Y-100728985D01*
X174948684Y-100728985D02*
X174912969Y-100764700D01*
X174912969Y-100764700D02*
X174841541Y-100800414D01*
X174841541Y-100800414D02*
X174734398Y-100800414D01*
X175305826Y-100300414D02*
X175305826Y-101050414D01*
X175305826Y-100336128D02*
X175377255Y-100300414D01*
X175377255Y-100300414D02*
X175520112Y-100300414D01*
X175520112Y-100300414D02*
X175591540Y-100336128D01*
X175591540Y-100336128D02*
X175627255Y-100371842D01*
X175627255Y-100371842D02*
X175662969Y-100443271D01*
X175662969Y-100443271D02*
X175662969Y-100657557D01*
X175662969Y-100657557D02*
X175627255Y-100728985D01*
X175627255Y-100728985D02*
X175591540Y-100764700D01*
X175591540Y-100764700D02*
X175520112Y-100800414D01*
X175520112Y-100800414D02*
X175377255Y-100800414D01*
X175377255Y-100800414D02*
X175305826Y-100764700D01*
X176270111Y-100764700D02*
X176198683Y-100800414D01*
X176198683Y-100800414D02*
X176055826Y-100800414D01*
X176055826Y-100800414D02*
X175984397Y-100764700D01*
X175984397Y-100764700D02*
X175948683Y-100693271D01*
X175948683Y-100693271D02*
X175948683Y-100407557D01*
X175948683Y-100407557D02*
X175984397Y-100336128D01*
X175984397Y-100336128D02*
X176055826Y-100300414D01*
X176055826Y-100300414D02*
X176198683Y-100300414D01*
X176198683Y-100300414D02*
X176270111Y-100336128D01*
X176270111Y-100336128D02*
X176305826Y-100407557D01*
X176305826Y-100407557D02*
X176305826Y-100478985D01*
X176305826Y-100478985D02*
X175948683Y-100550414D01*
X176627254Y-100800414D02*
X176627254Y-100300414D01*
X176627254Y-100443271D02*
X176662968Y-100371842D01*
X176662968Y-100371842D02*
X176698683Y-100336128D01*
X176698683Y-100336128D02*
X176770111Y-100300414D01*
X176770111Y-100300414D02*
X176841540Y-100300414D01*
X177091540Y-100300414D02*
X177091540Y-100800414D01*
X177091540Y-100371842D02*
X177127254Y-100336128D01*
X177127254Y-100336128D02*
X177198683Y-100300414D01*
X177198683Y-100300414D02*
X177305826Y-100300414D01*
X177305826Y-100300414D02*
X177377254Y-100336128D01*
X177377254Y-100336128D02*
X177412969Y-100407557D01*
X177412969Y-100407557D02*
X177412969Y-100800414D01*
X177770111Y-100800414D02*
X177770111Y-100300414D01*
X177770111Y-100050414D02*
X177734397Y-100086128D01*
X177734397Y-100086128D02*
X177770111Y-100121842D01*
X177770111Y-100121842D02*
X177805825Y-100086128D01*
X177805825Y-100086128D02*
X177770111Y-100050414D01*
X177770111Y-100050414D02*
X177770111Y-100121842D01*
X178448683Y-100764700D02*
X178377254Y-100800414D01*
X178377254Y-100800414D02*
X178234397Y-100800414D01*
X178234397Y-100800414D02*
X178162968Y-100764700D01*
X178162968Y-100764700D02*
X178127254Y-100728985D01*
X178127254Y-100728985D02*
X178091540Y-100657557D01*
X178091540Y-100657557D02*
X178091540Y-100443271D01*
X178091540Y-100443271D02*
X178127254Y-100371842D01*
X178127254Y-100371842D02*
X178162968Y-100336128D01*
X178162968Y-100336128D02*
X178234397Y-100300414D01*
X178234397Y-100300414D02*
X178377254Y-100300414D01*
X178377254Y-100300414D02*
X178448683Y-100336128D01*
X179091540Y-100300414D02*
X179091540Y-100800414D01*
X178770111Y-100300414D02*
X178770111Y-100693271D01*
X178770111Y-100693271D02*
X178805825Y-100764700D01*
X178805825Y-100764700D02*
X178877254Y-100800414D01*
X178877254Y-100800414D02*
X178984397Y-100800414D01*
X178984397Y-100800414D02*
X179055825Y-100764700D01*
X179055825Y-100764700D02*
X179091540Y-100728985D01*
X179412968Y-100764700D02*
X179484396Y-100800414D01*
X179484396Y-100800414D02*
X179627253Y-100800414D01*
X179627253Y-100800414D02*
X179698682Y-100764700D01*
X179698682Y-100764700D02*
X179734396Y-100693271D01*
X179734396Y-100693271D02*
X179734396Y-100657557D01*
X179734396Y-100657557D02*
X179698682Y-100586128D01*
X179698682Y-100586128D02*
X179627253Y-100550414D01*
X179627253Y-100550414D02*
X179520111Y-100550414D01*
X179520111Y-100550414D02*
X179448682Y-100514700D01*
X179448682Y-100514700D02*
X179412968Y-100443271D01*
X179412968Y-100443271D02*
X179412968Y-100407557D01*
X179412968Y-100407557D02*
X179448682Y-100336128D01*
X179448682Y-100336128D02*
X179520111Y-100300414D01*
X179520111Y-100300414D02*
X179627253Y-100300414D01*
X179627253Y-100300414D02*
X179698682Y-100336128D01*
X190341541Y-100486128D02*
X190698684Y-100486128D01*
X190270112Y-100700414D02*
X190520112Y-99950414D01*
X190520112Y-99950414D02*
X190770112Y-100700414D01*
X191020112Y-100700414D02*
X191020112Y-100200414D01*
X191020112Y-100343271D02*
X191055826Y-100271842D01*
X191055826Y-100271842D02*
X191091541Y-100236128D01*
X191091541Y-100236128D02*
X191162969Y-100200414D01*
X191162969Y-100200414D02*
X191234398Y-100200414D01*
X191484398Y-100700414D02*
X191484398Y-100200414D01*
X191484398Y-99950414D02*
X191448684Y-99986128D01*
X191448684Y-99986128D02*
X191484398Y-100021842D01*
X191484398Y-100021842D02*
X191520112Y-99986128D01*
X191520112Y-99986128D02*
X191484398Y-99950414D01*
X191484398Y-99950414D02*
X191484398Y-100021842D01*
X191805827Y-100664700D02*
X191877255Y-100700414D01*
X191877255Y-100700414D02*
X192020112Y-100700414D01*
X192020112Y-100700414D02*
X192091541Y-100664700D01*
X192091541Y-100664700D02*
X192127255Y-100593271D01*
X192127255Y-100593271D02*
X192127255Y-100557557D01*
X192127255Y-100557557D02*
X192091541Y-100486128D01*
X192091541Y-100486128D02*
X192020112Y-100450414D01*
X192020112Y-100450414D02*
X191912970Y-100450414D01*
X191912970Y-100450414D02*
X191841541Y-100414700D01*
X191841541Y-100414700D02*
X191805827Y-100343271D01*
X191805827Y-100343271D02*
X191805827Y-100307557D01*
X191805827Y-100307557D02*
X191841541Y-100236128D01*
X191841541Y-100236128D02*
X191912970Y-100200414D01*
X191912970Y-100200414D02*
X192020112Y-100200414D01*
X192020112Y-100200414D02*
X192091541Y-100236128D01*
X192341541Y-100200414D02*
X192627255Y-100200414D01*
X192448684Y-99950414D02*
X192448684Y-100593271D01*
X192448684Y-100593271D02*
X192484398Y-100664700D01*
X192484398Y-100664700D02*
X192555827Y-100700414D01*
X192555827Y-100700414D02*
X192627255Y-100700414D01*
X192984398Y-100700414D02*
X192912969Y-100664700D01*
X192912969Y-100664700D02*
X192877255Y-100628985D01*
X192877255Y-100628985D02*
X192841541Y-100557557D01*
X192841541Y-100557557D02*
X192841541Y-100343271D01*
X192841541Y-100343271D02*
X192877255Y-100271842D01*
X192877255Y-100271842D02*
X192912969Y-100236128D01*
X192912969Y-100236128D02*
X192984398Y-100200414D01*
X192984398Y-100200414D02*
X193091541Y-100200414D01*
X193091541Y-100200414D02*
X193162969Y-100236128D01*
X193162969Y-100236128D02*
X193198684Y-100271842D01*
X193198684Y-100271842D02*
X193234398Y-100343271D01*
X193234398Y-100343271D02*
X193234398Y-100557557D01*
X193234398Y-100557557D02*
X193198684Y-100628985D01*
X193198684Y-100628985D02*
X193162969Y-100664700D01*
X193162969Y-100664700D02*
X193091541Y-100700414D01*
X193091541Y-100700414D02*
X192984398Y-100700414D01*
X193448683Y-100200414D02*
X193734397Y-100200414D01*
X193555826Y-99950414D02*
X193555826Y-100593271D01*
X193555826Y-100593271D02*
X193591540Y-100664700D01*
X193591540Y-100664700D02*
X193662969Y-100700414D01*
X193662969Y-100700414D02*
X193734397Y-100700414D01*
X194091540Y-100700414D02*
X194020111Y-100664700D01*
X194020111Y-100664700D02*
X193984397Y-100593271D01*
X193984397Y-100593271D02*
X193984397Y-99950414D01*
X194662968Y-100664700D02*
X194591540Y-100700414D01*
X194591540Y-100700414D02*
X194448683Y-100700414D01*
X194448683Y-100700414D02*
X194377254Y-100664700D01*
X194377254Y-100664700D02*
X194341540Y-100593271D01*
X194341540Y-100593271D02*
X194341540Y-100307557D01*
X194341540Y-100307557D02*
X194377254Y-100236128D01*
X194377254Y-100236128D02*
X194448683Y-100200414D01*
X194448683Y-100200414D02*
X194591540Y-100200414D01*
X194591540Y-100200414D02*
X194662968Y-100236128D01*
X194662968Y-100236128D02*
X194698683Y-100307557D01*
X194698683Y-100307557D02*
X194698683Y-100378985D01*
X194698683Y-100378985D02*
X194341540Y-100450414D01*
D10*
X208201283Y-38932309D02*
X208201283Y-38432309D01*
X208201283Y-38432309D02*
X208391759Y-38432309D01*
X208391759Y-38432309D02*
X208439378Y-38456119D01*
X208439378Y-38456119D02*
X208463188Y-38479928D01*
X208463188Y-38479928D02*
X208486997Y-38527547D01*
X208486997Y-38527547D02*
X208486997Y-38598976D01*
X208486997Y-38598976D02*
X208463188Y-38646595D01*
X208463188Y-38646595D02*
X208439378Y-38670404D01*
X208439378Y-38670404D02*
X208391759Y-38694214D01*
X208391759Y-38694214D02*
X208201283Y-38694214D01*
X208772712Y-38932309D02*
X208725093Y-38908500D01*
X208725093Y-38908500D02*
X208701283Y-38884690D01*
X208701283Y-38884690D02*
X208677474Y-38837071D01*
X208677474Y-38837071D02*
X208677474Y-38694214D01*
X208677474Y-38694214D02*
X208701283Y-38646595D01*
X208701283Y-38646595D02*
X208725093Y-38622785D01*
X208725093Y-38622785D02*
X208772712Y-38598976D01*
X208772712Y-38598976D02*
X208844140Y-38598976D01*
X208844140Y-38598976D02*
X208891759Y-38622785D01*
X208891759Y-38622785D02*
X208915569Y-38646595D01*
X208915569Y-38646595D02*
X208939378Y-38694214D01*
X208939378Y-38694214D02*
X208939378Y-38837071D01*
X208939378Y-38837071D02*
X208915569Y-38884690D01*
X208915569Y-38884690D02*
X208891759Y-38908500D01*
X208891759Y-38908500D02*
X208844140Y-38932309D01*
X208844140Y-38932309D02*
X208772712Y-38932309D01*
X209106045Y-38598976D02*
X209201283Y-38932309D01*
X209201283Y-38932309D02*
X209296521Y-38694214D01*
X209296521Y-38694214D02*
X209391759Y-38932309D01*
X209391759Y-38932309D02*
X209486997Y-38598976D01*
X209867950Y-38908500D02*
X209820331Y-38932309D01*
X209820331Y-38932309D02*
X209725093Y-38932309D01*
X209725093Y-38932309D02*
X209677474Y-38908500D01*
X209677474Y-38908500D02*
X209653665Y-38860880D01*
X209653665Y-38860880D02*
X209653665Y-38670404D01*
X209653665Y-38670404D02*
X209677474Y-38622785D01*
X209677474Y-38622785D02*
X209725093Y-38598976D01*
X209725093Y-38598976D02*
X209820331Y-38598976D01*
X209820331Y-38598976D02*
X209867950Y-38622785D01*
X209867950Y-38622785D02*
X209891760Y-38670404D01*
X209891760Y-38670404D02*
X209891760Y-38718023D01*
X209891760Y-38718023D02*
X209653665Y-38765642D01*
X210106045Y-38932309D02*
X210106045Y-38598976D01*
X210106045Y-38694214D02*
X210129855Y-38646595D01*
X210129855Y-38646595D02*
X210153664Y-38622785D01*
X210153664Y-38622785D02*
X210201283Y-38598976D01*
X210201283Y-38598976D02*
X210248902Y-38598976D01*
D11*
X167427255Y-86007557D02*
X167534398Y-86043271D01*
X167534398Y-86043271D02*
X167570112Y-86078985D01*
X167570112Y-86078985D02*
X167605826Y-86150414D01*
X167605826Y-86150414D02*
X167605826Y-86257557D01*
X167605826Y-86257557D02*
X167570112Y-86328985D01*
X167570112Y-86328985D02*
X167534398Y-86364700D01*
X167534398Y-86364700D02*
X167462969Y-86400414D01*
X167462969Y-86400414D02*
X167177255Y-86400414D01*
X167177255Y-86400414D02*
X167177255Y-85650414D01*
X167177255Y-85650414D02*
X167427255Y-85650414D01*
X167427255Y-85650414D02*
X167498684Y-85686128D01*
X167498684Y-85686128D02*
X167534398Y-85721842D01*
X167534398Y-85721842D02*
X167570112Y-85793271D01*
X167570112Y-85793271D02*
X167570112Y-85864700D01*
X167570112Y-85864700D02*
X167534398Y-85936128D01*
X167534398Y-85936128D02*
X167498684Y-85971842D01*
X167498684Y-85971842D02*
X167427255Y-86007557D01*
X167427255Y-86007557D02*
X167177255Y-86007557D01*
X167927255Y-86400414D02*
X167927255Y-85900414D01*
X167927255Y-86043271D02*
X167962969Y-85971842D01*
X167962969Y-85971842D02*
X167998684Y-85936128D01*
X167998684Y-85936128D02*
X168070112Y-85900414D01*
X168070112Y-85900414D02*
X168141541Y-85900414D01*
X168712970Y-86400414D02*
X168712970Y-86007557D01*
X168712970Y-86007557D02*
X168677255Y-85936128D01*
X168677255Y-85936128D02*
X168605827Y-85900414D01*
X168605827Y-85900414D02*
X168462970Y-85900414D01*
X168462970Y-85900414D02*
X168391541Y-85936128D01*
X168712970Y-86364700D02*
X168641541Y-86400414D01*
X168641541Y-86400414D02*
X168462970Y-86400414D01*
X168462970Y-86400414D02*
X168391541Y-86364700D01*
X168391541Y-86364700D02*
X168355827Y-86293271D01*
X168355827Y-86293271D02*
X168355827Y-86221842D01*
X168355827Y-86221842D02*
X168391541Y-86150414D01*
X168391541Y-86150414D02*
X168462970Y-86114700D01*
X168462970Y-86114700D02*
X168641541Y-86114700D01*
X168641541Y-86114700D02*
X168712970Y-86078985D01*
X169070112Y-86400414D02*
X169070112Y-85650414D01*
X169391541Y-86400414D02*
X169391541Y-86007557D01*
X169391541Y-86007557D02*
X169355826Y-85936128D01*
X169355826Y-85936128D02*
X169284398Y-85900414D01*
X169284398Y-85900414D02*
X169177255Y-85900414D01*
X169177255Y-85900414D02*
X169105826Y-85936128D01*
X169105826Y-85936128D02*
X169070112Y-85971842D01*
X170034397Y-86364700D02*
X169962969Y-86400414D01*
X169962969Y-86400414D02*
X169820112Y-86400414D01*
X169820112Y-86400414D02*
X169748683Y-86364700D01*
X169748683Y-86364700D02*
X169712969Y-86293271D01*
X169712969Y-86293271D02*
X169712969Y-86007557D01*
X169712969Y-86007557D02*
X169748683Y-85936128D01*
X169748683Y-85936128D02*
X169820112Y-85900414D01*
X169820112Y-85900414D02*
X169962969Y-85900414D01*
X169962969Y-85900414D02*
X170034397Y-85936128D01*
X170034397Y-85936128D02*
X170070112Y-86007557D01*
X170070112Y-86007557D02*
X170070112Y-86078985D01*
X170070112Y-86078985D02*
X169712969Y-86150414D01*
X161041541Y-65464700D02*
X161148684Y-65500414D01*
X161148684Y-65500414D02*
X161327255Y-65500414D01*
X161327255Y-65500414D02*
X161398684Y-65464700D01*
X161398684Y-65464700D02*
X161434398Y-65428985D01*
X161434398Y-65428985D02*
X161470112Y-65357557D01*
X161470112Y-65357557D02*
X161470112Y-65286128D01*
X161470112Y-65286128D02*
X161434398Y-65214700D01*
X161434398Y-65214700D02*
X161398684Y-65178985D01*
X161398684Y-65178985D02*
X161327255Y-65143271D01*
X161327255Y-65143271D02*
X161184398Y-65107557D01*
X161184398Y-65107557D02*
X161112969Y-65071842D01*
X161112969Y-65071842D02*
X161077255Y-65036128D01*
X161077255Y-65036128D02*
X161041541Y-64964700D01*
X161041541Y-64964700D02*
X161041541Y-64893271D01*
X161041541Y-64893271D02*
X161077255Y-64821842D01*
X161077255Y-64821842D02*
X161112969Y-64786128D01*
X161112969Y-64786128D02*
X161184398Y-64750414D01*
X161184398Y-64750414D02*
X161362969Y-64750414D01*
X161362969Y-64750414D02*
X161470112Y-64786128D01*
X161791541Y-65500414D02*
X161791541Y-65000414D01*
X161791541Y-64750414D02*
X161755827Y-64786128D01*
X161755827Y-64786128D02*
X161791541Y-64821842D01*
X161791541Y-64821842D02*
X161827255Y-64786128D01*
X161827255Y-64786128D02*
X161791541Y-64750414D01*
X161791541Y-64750414D02*
X161791541Y-64821842D01*
X162112970Y-65464700D02*
X162184398Y-65500414D01*
X162184398Y-65500414D02*
X162327255Y-65500414D01*
X162327255Y-65500414D02*
X162398684Y-65464700D01*
X162398684Y-65464700D02*
X162434398Y-65393271D01*
X162434398Y-65393271D02*
X162434398Y-65357557D01*
X162434398Y-65357557D02*
X162398684Y-65286128D01*
X162398684Y-65286128D02*
X162327255Y-65250414D01*
X162327255Y-65250414D02*
X162220113Y-65250414D01*
X162220113Y-65250414D02*
X162148684Y-65214700D01*
X162148684Y-65214700D02*
X162112970Y-65143271D01*
X162112970Y-65143271D02*
X162112970Y-65107557D01*
X162112970Y-65107557D02*
X162148684Y-65036128D01*
X162148684Y-65036128D02*
X162220113Y-65000414D01*
X162220113Y-65000414D02*
X162327255Y-65000414D01*
X162327255Y-65000414D02*
X162398684Y-65036128D01*
X162755827Y-65500414D02*
X162755827Y-64750414D01*
X162827256Y-65214700D02*
X163041541Y-65500414D01*
X163041541Y-65000414D02*
X162755827Y-65286128D01*
X163470113Y-65500414D02*
X163398684Y-65464700D01*
X163398684Y-65464700D02*
X163362970Y-65428985D01*
X163362970Y-65428985D02*
X163327256Y-65357557D01*
X163327256Y-65357557D02*
X163327256Y-65143271D01*
X163327256Y-65143271D02*
X163362970Y-65071842D01*
X163362970Y-65071842D02*
X163398684Y-65036128D01*
X163398684Y-65036128D02*
X163470113Y-65000414D01*
X163470113Y-65000414D02*
X163577256Y-65000414D01*
X163577256Y-65000414D02*
X163648684Y-65036128D01*
X163648684Y-65036128D02*
X163684399Y-65071842D01*
X163684399Y-65071842D02*
X163720113Y-65143271D01*
X163720113Y-65143271D02*
X163720113Y-65357557D01*
X163720113Y-65357557D02*
X163684399Y-65428985D01*
X163684399Y-65428985D02*
X163648684Y-65464700D01*
X163648684Y-65464700D02*
X163577256Y-65500414D01*
X163577256Y-65500414D02*
X163470113Y-65500414D01*
X166170112Y-44050414D02*
X166420112Y-44800414D01*
X166420112Y-44800414D02*
X166670112Y-44050414D01*
X166920112Y-44800414D02*
X166920112Y-44050414D01*
X167277255Y-44800414D02*
X167277255Y-44050414D01*
X167277255Y-44050414D02*
X167705826Y-44800414D01*
X167705826Y-44800414D02*
X167705826Y-44050414D01*
D12*
X160997952Y-103492669D02*
X161664619Y-103302193D01*
X161664619Y-103302193D02*
X161188428Y-103111717D01*
X161188428Y-103111717D02*
X161664619Y-102921241D01*
X161664619Y-102921241D02*
X160997952Y-102730765D01*
X161664619Y-101159336D02*
X161140809Y-101159336D01*
X161140809Y-101159336D02*
X161045571Y-101206955D01*
X161045571Y-101206955D02*
X160997952Y-101302193D01*
X160997952Y-101302193D02*
X160997952Y-101492669D01*
X160997952Y-101492669D02*
X161045571Y-101587907D01*
X161617000Y-101159336D02*
X161664619Y-101254574D01*
X161664619Y-101254574D02*
X161664619Y-101492669D01*
X161664619Y-101492669D02*
X161617000Y-101587907D01*
X161617000Y-101587907D02*
X161521761Y-101635526D01*
X161521761Y-101635526D02*
X161426523Y-101635526D01*
X161426523Y-101635526D02*
X161331285Y-101587907D01*
X161331285Y-101587907D02*
X161283666Y-101492669D01*
X161283666Y-101492669D02*
X161283666Y-101254574D01*
X161283666Y-101254574D02*
X161236047Y-101159336D01*
X161664619Y-99778383D02*
X161617000Y-99873621D01*
X161617000Y-99873621D02*
X161521761Y-99921240D01*
X161521761Y-99921240D02*
X160664619Y-99921240D01*
X161664619Y-98492668D02*
X161617000Y-98587906D01*
X161617000Y-98587906D02*
X161521761Y-98635525D01*
X161521761Y-98635525D02*
X160664619Y-98635525D01*
X161664619Y-97206953D02*
X161617000Y-97302191D01*
X161617000Y-97302191D02*
X161569380Y-97349810D01*
X161569380Y-97349810D02*
X161474142Y-97397429D01*
X161474142Y-97397429D02*
X161188428Y-97397429D01*
X161188428Y-97397429D02*
X161093190Y-97349810D01*
X161093190Y-97349810D02*
X161045571Y-97302191D01*
X161045571Y-97302191D02*
X160997952Y-97206953D01*
X160997952Y-97206953D02*
X160997952Y-97064096D01*
X160997952Y-97064096D02*
X161045571Y-96968858D01*
X161045571Y-96968858D02*
X161093190Y-96921239D01*
X161093190Y-96921239D02*
X161188428Y-96873620D01*
X161188428Y-96873620D02*
X161474142Y-96873620D01*
X161474142Y-96873620D02*
X161569380Y-96921239D01*
X161569380Y-96921239D02*
X161617000Y-96968858D01*
X161617000Y-96968858D02*
X161664619Y-97064096D01*
X161664619Y-97064096D02*
X161664619Y-97206953D01*
X160997952Y-95683143D02*
X161997952Y-95683143D01*
X161045571Y-95683143D02*
X160997952Y-95587905D01*
X160997952Y-95587905D02*
X160997952Y-95397429D01*
X160997952Y-95397429D02*
X161045571Y-95302191D01*
X161045571Y-95302191D02*
X161093190Y-95254572D01*
X161093190Y-95254572D02*
X161188428Y-95206953D01*
X161188428Y-95206953D02*
X161474142Y-95206953D01*
X161474142Y-95206953D02*
X161569380Y-95254572D01*
X161569380Y-95254572D02*
X161617000Y-95302191D01*
X161617000Y-95302191D02*
X161664619Y-95397429D01*
X161664619Y-95397429D02*
X161664619Y-95587905D01*
X161664619Y-95587905D02*
X161617000Y-95683143D01*
X161617000Y-94064095D02*
X161664619Y-93968857D01*
X161664619Y-93968857D02*
X161664619Y-93778381D01*
X161664619Y-93778381D02*
X161617000Y-93683143D01*
X161617000Y-93683143D02*
X161521761Y-93635524D01*
X161521761Y-93635524D02*
X161474142Y-93635524D01*
X161474142Y-93635524D02*
X161378904Y-93683143D01*
X161378904Y-93683143D02*
X161331285Y-93778381D01*
X161331285Y-93778381D02*
X161331285Y-93921238D01*
X161331285Y-93921238D02*
X161283666Y-94016476D01*
X161283666Y-94016476D02*
X161188428Y-94064095D01*
X161188428Y-94064095D02*
X161140809Y-94064095D01*
X161140809Y-94064095D02*
X161045571Y-94016476D01*
X161045571Y-94016476D02*
X160997952Y-93921238D01*
X160997952Y-93921238D02*
X160997952Y-93778381D01*
X160997952Y-93778381D02*
X161045571Y-93683143D01*
D11*
X190805826Y-85650414D02*
X191305826Y-85650414D01*
X191305826Y-85650414D02*
X190805826Y-86400414D01*
X190805826Y-86400414D02*
X191305826Y-86400414D01*
X191520112Y-85900414D02*
X191662970Y-86400414D01*
X191662970Y-86400414D02*
X191805827Y-86043271D01*
X191805827Y-86043271D02*
X191948684Y-86400414D01*
X191948684Y-86400414D02*
X192091541Y-85900414D01*
X192377255Y-86400414D02*
X192377255Y-85900414D01*
X192377255Y-85650414D02*
X192341541Y-85686128D01*
X192341541Y-85686128D02*
X192377255Y-85721842D01*
X192377255Y-85721842D02*
X192412969Y-85686128D01*
X192412969Y-85686128D02*
X192377255Y-85650414D01*
X192377255Y-85650414D02*
X192377255Y-85721842D01*
X193055827Y-86364700D02*
X192984398Y-86400414D01*
X192984398Y-86400414D02*
X192841541Y-86400414D01*
X192841541Y-86400414D02*
X192770112Y-86364700D01*
X192770112Y-86364700D02*
X192734398Y-86328985D01*
X192734398Y-86328985D02*
X192698684Y-86257557D01*
X192698684Y-86257557D02*
X192698684Y-86043271D01*
X192698684Y-86043271D02*
X192734398Y-85971842D01*
X192734398Y-85971842D02*
X192770112Y-85936128D01*
X192770112Y-85936128D02*
X192841541Y-85900414D01*
X192841541Y-85900414D02*
X192984398Y-85900414D01*
X192984398Y-85900414D02*
X193055827Y-85936128D01*
X193377255Y-86400414D02*
X193377255Y-85650414D01*
X193448684Y-86114700D02*
X193662969Y-86400414D01*
X193662969Y-85900414D02*
X193377255Y-86186128D01*
X193912969Y-85900414D02*
X194091541Y-86400414D01*
X194270112Y-85900414D02*
X194091541Y-86400414D01*
X194091541Y-86400414D02*
X194020112Y-86578985D01*
X194020112Y-86578985D02*
X193984398Y-86614700D01*
X193984398Y-86614700D02*
X193912969Y-86650414D01*
X188328571Y-99989164D02*
X188328571Y-100596307D01*
X188328571Y-100596307D02*
X188364285Y-100667735D01*
X188364285Y-100667735D02*
X188400000Y-100703450D01*
X188400000Y-100703450D02*
X188471428Y-100739164D01*
X188471428Y-100739164D02*
X188614285Y-100739164D01*
X188614285Y-100739164D02*
X188685714Y-100703450D01*
X188685714Y-100703450D02*
X188721428Y-100667735D01*
X188721428Y-100667735D02*
X188757142Y-100596307D01*
X188757142Y-100596307D02*
X188757142Y-99989164D01*
X189078571Y-100060592D02*
X189114285Y-100024878D01*
X189114285Y-100024878D02*
X189185714Y-99989164D01*
X189185714Y-99989164D02*
X189364285Y-99989164D01*
X189364285Y-99989164D02*
X189435714Y-100024878D01*
X189435714Y-100024878D02*
X189471428Y-100060592D01*
X189471428Y-100060592D02*
X189507142Y-100132021D01*
X189507142Y-100132021D02*
X189507142Y-100203450D01*
X189507142Y-100203450D02*
X189471428Y-100310592D01*
X189471428Y-100310592D02*
X189042856Y-100739164D01*
X189042856Y-100739164D02*
X189507142Y-100739164D01*
X188228571Y-85689164D02*
X188228571Y-86296307D01*
X188228571Y-86296307D02*
X188264285Y-86367735D01*
X188264285Y-86367735D02*
X188300000Y-86403450D01*
X188300000Y-86403450D02*
X188371428Y-86439164D01*
X188371428Y-86439164D02*
X188514285Y-86439164D01*
X188514285Y-86439164D02*
X188585714Y-86403450D01*
X188585714Y-86403450D02*
X188621428Y-86367735D01*
X188621428Y-86367735D02*
X188657142Y-86296307D01*
X188657142Y-86296307D02*
X188657142Y-85689164D01*
X189407142Y-86439164D02*
X188978571Y-86439164D01*
X189192856Y-86439164D02*
X189192856Y-85689164D01*
X189192856Y-85689164D02*
X189121428Y-85796307D01*
X189121428Y-85796307D02*
X189049999Y-85867735D01*
X189049999Y-85867735D02*
X188978571Y-85903450D01*
X166128571Y-100189164D02*
X166128571Y-100796307D01*
X166128571Y-100796307D02*
X166164285Y-100867735D01*
X166164285Y-100867735D02*
X166200000Y-100903450D01*
X166200000Y-100903450D02*
X166271428Y-100939164D01*
X166271428Y-100939164D02*
X166414285Y-100939164D01*
X166414285Y-100939164D02*
X166485714Y-100903450D01*
X166485714Y-100903450D02*
X166521428Y-100867735D01*
X166521428Y-100867735D02*
X166557142Y-100796307D01*
X166557142Y-100796307D02*
X166557142Y-100189164D01*
X166842856Y-100189164D02*
X167307142Y-100189164D01*
X167307142Y-100189164D02*
X167057142Y-100474878D01*
X167057142Y-100474878D02*
X167164285Y-100474878D01*
X167164285Y-100474878D02*
X167235714Y-100510592D01*
X167235714Y-100510592D02*
X167271428Y-100546307D01*
X167271428Y-100546307D02*
X167307142Y-100617735D01*
X167307142Y-100617735D02*
X167307142Y-100796307D01*
X167307142Y-100796307D02*
X167271428Y-100867735D01*
X167271428Y-100867735D02*
X167235714Y-100903450D01*
X167235714Y-100903450D02*
X167164285Y-100939164D01*
X167164285Y-100939164D02*
X166949999Y-100939164D01*
X166949999Y-100939164D02*
X166878571Y-100903450D01*
X166878571Y-100903450D02*
X166842856Y-100867735D01*
X191710714Y-57989164D02*
X192139286Y-57989164D01*
X191925000Y-58739164D02*
X191925000Y-57989164D01*
X192389286Y-58739164D02*
X192389286Y-57989164D01*
X192389286Y-57989164D02*
X192675000Y-57989164D01*
X192675000Y-57989164D02*
X192746429Y-58024878D01*
X192746429Y-58024878D02*
X192782143Y-58060592D01*
X192782143Y-58060592D02*
X192817857Y-58132021D01*
X192817857Y-58132021D02*
X192817857Y-58239164D01*
X192817857Y-58239164D02*
X192782143Y-58310592D01*
X192782143Y-58310592D02*
X192746429Y-58346307D01*
X192746429Y-58346307D02*
X192675000Y-58382021D01*
X192675000Y-58382021D02*
X192389286Y-58382021D01*
X193139286Y-58453450D02*
X193710715Y-58453450D01*
X194032143Y-58703450D02*
X194139286Y-58739164D01*
X194139286Y-58739164D02*
X194317857Y-58739164D01*
X194317857Y-58739164D02*
X194389286Y-58703450D01*
X194389286Y-58703450D02*
X194425000Y-58667735D01*
X194425000Y-58667735D02*
X194460714Y-58596307D01*
X194460714Y-58596307D02*
X194460714Y-58524878D01*
X194460714Y-58524878D02*
X194425000Y-58453450D01*
X194425000Y-58453450D02*
X194389286Y-58417735D01*
X194389286Y-58417735D02*
X194317857Y-58382021D01*
X194317857Y-58382021D02*
X194175000Y-58346307D01*
X194175000Y-58346307D02*
X194103571Y-58310592D01*
X194103571Y-58310592D02*
X194067857Y-58274878D01*
X194067857Y-58274878D02*
X194032143Y-58203450D01*
X194032143Y-58203450D02*
X194032143Y-58132021D01*
X194032143Y-58132021D02*
X194067857Y-58060592D01*
X194067857Y-58060592D02*
X194103571Y-58024878D01*
X194103571Y-58024878D02*
X194175000Y-57989164D01*
X194175000Y-57989164D02*
X194353571Y-57989164D01*
X194353571Y-57989164D02*
X194460714Y-58024878D01*
X195210714Y-58667735D02*
X195175000Y-58703450D01*
X195175000Y-58703450D02*
X195067857Y-58739164D01*
X195067857Y-58739164D02*
X194996429Y-58739164D01*
X194996429Y-58739164D02*
X194889286Y-58703450D01*
X194889286Y-58703450D02*
X194817857Y-58632021D01*
X194817857Y-58632021D02*
X194782143Y-58560592D01*
X194782143Y-58560592D02*
X194746429Y-58417735D01*
X194746429Y-58417735D02*
X194746429Y-58310592D01*
X194746429Y-58310592D02*
X194782143Y-58167735D01*
X194782143Y-58167735D02*
X194817857Y-58096307D01*
X194817857Y-58096307D02*
X194889286Y-58024878D01*
X194889286Y-58024878D02*
X194996429Y-57989164D01*
X194996429Y-57989164D02*
X195067857Y-57989164D01*
X195067857Y-57989164D02*
X195175000Y-58024878D01*
X195175000Y-58024878D02*
X195210714Y-58060592D01*
X195889286Y-58739164D02*
X195532143Y-58739164D01*
X195532143Y-58739164D02*
X195532143Y-57989164D01*
X211146428Y-43539164D02*
X211146428Y-42789164D01*
X211146428Y-42789164D02*
X211324999Y-42789164D01*
X211324999Y-42789164D02*
X211432142Y-42824878D01*
X211432142Y-42824878D02*
X211503571Y-42896307D01*
X211503571Y-42896307D02*
X211539285Y-42967735D01*
X211539285Y-42967735D02*
X211574999Y-43110592D01*
X211574999Y-43110592D02*
X211574999Y-43217735D01*
X211574999Y-43217735D02*
X211539285Y-43360592D01*
X211539285Y-43360592D02*
X211503571Y-43432021D01*
X211503571Y-43432021D02*
X211432142Y-43503450D01*
X211432142Y-43503450D02*
X211324999Y-43539164D01*
X211324999Y-43539164D02*
X211146428Y-43539164D01*
X211860714Y-42860592D02*
X211896428Y-42824878D01*
X211896428Y-42824878D02*
X211967857Y-42789164D01*
X211967857Y-42789164D02*
X212146428Y-42789164D01*
X212146428Y-42789164D02*
X212217857Y-42824878D01*
X212217857Y-42824878D02*
X212253571Y-42860592D01*
X212253571Y-42860592D02*
X212289285Y-42932021D01*
X212289285Y-42932021D02*
X212289285Y-43003450D01*
X212289285Y-43003450D02*
X212253571Y-43110592D01*
X212253571Y-43110592D02*
X211824999Y-43539164D01*
X211824999Y-43539164D02*
X212289285Y-43539164D01*
X183274999Y-65039164D02*
X183024999Y-64682021D01*
X182846428Y-65039164D02*
X182846428Y-64289164D01*
X182846428Y-64289164D02*
X183132142Y-64289164D01*
X183132142Y-64289164D02*
X183203571Y-64324878D01*
X183203571Y-64324878D02*
X183239285Y-64360592D01*
X183239285Y-64360592D02*
X183274999Y-64432021D01*
X183274999Y-64432021D02*
X183274999Y-64539164D01*
X183274999Y-64539164D02*
X183239285Y-64610592D01*
X183239285Y-64610592D02*
X183203571Y-64646307D01*
X183203571Y-64646307D02*
X183132142Y-64682021D01*
X183132142Y-64682021D02*
X182846428Y-64682021D01*
X183560714Y-64360592D02*
X183596428Y-64324878D01*
X183596428Y-64324878D02*
X183667857Y-64289164D01*
X183667857Y-64289164D02*
X183846428Y-64289164D01*
X183846428Y-64289164D02*
X183917857Y-64324878D01*
X183917857Y-64324878D02*
X183953571Y-64360592D01*
X183953571Y-64360592D02*
X183989285Y-64432021D01*
X183989285Y-64432021D02*
X183989285Y-64503450D01*
X183989285Y-64503450D02*
X183953571Y-64610592D01*
X183953571Y-64610592D02*
X183524999Y-65039164D01*
X183524999Y-65039164D02*
X183989285Y-65039164D01*
X183874999Y-57639164D02*
X183624999Y-57282021D01*
X183446428Y-57639164D02*
X183446428Y-56889164D01*
X183446428Y-56889164D02*
X183732142Y-56889164D01*
X183732142Y-56889164D02*
X183803571Y-56924878D01*
X183803571Y-56924878D02*
X183839285Y-56960592D01*
X183839285Y-56960592D02*
X183874999Y-57032021D01*
X183874999Y-57032021D02*
X183874999Y-57139164D01*
X183874999Y-57139164D02*
X183839285Y-57210592D01*
X183839285Y-57210592D02*
X183803571Y-57246307D01*
X183803571Y-57246307D02*
X183732142Y-57282021D01*
X183732142Y-57282021D02*
X183446428Y-57282021D01*
X184124999Y-56889164D02*
X184589285Y-56889164D01*
X184589285Y-56889164D02*
X184339285Y-57174878D01*
X184339285Y-57174878D02*
X184446428Y-57174878D01*
X184446428Y-57174878D02*
X184517857Y-57210592D01*
X184517857Y-57210592D02*
X184553571Y-57246307D01*
X184553571Y-57246307D02*
X184589285Y-57317735D01*
X184589285Y-57317735D02*
X184589285Y-57496307D01*
X184589285Y-57496307D02*
X184553571Y-57567735D01*
X184553571Y-57567735D02*
X184517857Y-57603450D01*
X184517857Y-57603450D02*
X184446428Y-57639164D01*
X184446428Y-57639164D02*
X184232142Y-57639164D01*
X184232142Y-57639164D02*
X184160714Y-57603450D01*
X184160714Y-57603450D02*
X184124999Y-57567735D01*
X182528571Y-55189164D02*
X182528571Y-55796307D01*
X182528571Y-55796307D02*
X182564285Y-55867735D01*
X182564285Y-55867735D02*
X182600000Y-55903450D01*
X182600000Y-55903450D02*
X182671428Y-55939164D01*
X182671428Y-55939164D02*
X182814285Y-55939164D01*
X182814285Y-55939164D02*
X182885714Y-55903450D01*
X182885714Y-55903450D02*
X182921428Y-55867735D01*
X182921428Y-55867735D02*
X182957142Y-55796307D01*
X182957142Y-55796307D02*
X182957142Y-55189164D01*
X183635714Y-55189164D02*
X183492856Y-55189164D01*
X183492856Y-55189164D02*
X183421428Y-55224878D01*
X183421428Y-55224878D02*
X183385714Y-55260592D01*
X183385714Y-55260592D02*
X183314285Y-55367735D01*
X183314285Y-55367735D02*
X183278571Y-55510592D01*
X183278571Y-55510592D02*
X183278571Y-55796307D01*
X183278571Y-55796307D02*
X183314285Y-55867735D01*
X183314285Y-55867735D02*
X183349999Y-55903450D01*
X183349999Y-55903450D02*
X183421428Y-55939164D01*
X183421428Y-55939164D02*
X183564285Y-55939164D01*
X183564285Y-55939164D02*
X183635714Y-55903450D01*
X183635714Y-55903450D02*
X183671428Y-55867735D01*
X183671428Y-55867735D02*
X183707142Y-55796307D01*
X183707142Y-55796307D02*
X183707142Y-55617735D01*
X183707142Y-55617735D02*
X183671428Y-55546307D01*
X183671428Y-55546307D02*
X183635714Y-55510592D01*
X183635714Y-55510592D02*
X183564285Y-55474878D01*
X183564285Y-55474878D02*
X183421428Y-55474878D01*
X183421428Y-55474878D02*
X183349999Y-55510592D01*
X183349999Y-55510592D02*
X183314285Y-55546307D01*
X183314285Y-55546307D02*
X183278571Y-55617735D01*
X206874999Y-43539164D02*
X206624999Y-43182021D01*
X206446428Y-43539164D02*
X206446428Y-42789164D01*
X206446428Y-42789164D02*
X206732142Y-42789164D01*
X206732142Y-42789164D02*
X206803571Y-42824878D01*
X206803571Y-42824878D02*
X206839285Y-42860592D01*
X206839285Y-42860592D02*
X206874999Y-42932021D01*
X206874999Y-42932021D02*
X206874999Y-43039164D01*
X206874999Y-43039164D02*
X206839285Y-43110592D01*
X206839285Y-43110592D02*
X206803571Y-43146307D01*
X206803571Y-43146307D02*
X206732142Y-43182021D01*
X206732142Y-43182021D02*
X206446428Y-43182021D01*
X207517857Y-43039164D02*
X207517857Y-43539164D01*
X207339285Y-42753450D02*
X207160714Y-43289164D01*
X207160714Y-43289164D02*
X207624999Y-43289164D01*
X210983928Y-39839164D02*
X210983928Y-39089164D01*
X210983928Y-39089164D02*
X211162499Y-39089164D01*
X211162499Y-39089164D02*
X211269642Y-39124878D01*
X211269642Y-39124878D02*
X211341071Y-39196307D01*
X211341071Y-39196307D02*
X211376785Y-39267735D01*
X211376785Y-39267735D02*
X211412499Y-39410592D01*
X211412499Y-39410592D02*
X211412499Y-39517735D01*
X211412499Y-39517735D02*
X211376785Y-39660592D01*
X211376785Y-39660592D02*
X211341071Y-39732021D01*
X211341071Y-39732021D02*
X211269642Y-39803450D01*
X211269642Y-39803450D02*
X211162499Y-39839164D01*
X211162499Y-39839164D02*
X210983928Y-39839164D01*
X212126785Y-39839164D02*
X211698214Y-39839164D01*
X211912499Y-39839164D02*
X211912499Y-39089164D01*
X211912499Y-39089164D02*
X211841071Y-39196307D01*
X211841071Y-39196307D02*
X211769642Y-39267735D01*
X211769642Y-39267735D02*
X211698214Y-39303450D01*
X195828571Y-67160592D02*
X195757142Y-67124878D01*
X195757142Y-67124878D02*
X195685714Y-67053450D01*
X195685714Y-67053450D02*
X195578571Y-66946307D01*
X195578571Y-66946307D02*
X195507142Y-66910592D01*
X195507142Y-66910592D02*
X195435714Y-66910592D01*
X195471428Y-67089164D02*
X195400000Y-67053450D01*
X195400000Y-67053450D02*
X195328571Y-66982021D01*
X195328571Y-66982021D02*
X195292857Y-66839164D01*
X195292857Y-66839164D02*
X195292857Y-66589164D01*
X195292857Y-66589164D02*
X195328571Y-66446307D01*
X195328571Y-66446307D02*
X195400000Y-66374878D01*
X195400000Y-66374878D02*
X195471428Y-66339164D01*
X195471428Y-66339164D02*
X195614285Y-66339164D01*
X195614285Y-66339164D02*
X195685714Y-66374878D01*
X195685714Y-66374878D02*
X195757142Y-66446307D01*
X195757142Y-66446307D02*
X195792857Y-66589164D01*
X195792857Y-66589164D02*
X195792857Y-66839164D01*
X195792857Y-66839164D02*
X195757142Y-66982021D01*
X195757142Y-66982021D02*
X195685714Y-67053450D01*
X195685714Y-67053450D02*
X195614285Y-67089164D01*
X195614285Y-67089164D02*
X195471428Y-67089164D01*
X196507142Y-67089164D02*
X196078571Y-67089164D01*
X196292856Y-67089164D02*
X196292856Y-66339164D01*
X196292856Y-66339164D02*
X196221428Y-66446307D01*
X196221428Y-66446307D02*
X196149999Y-66517735D01*
X196149999Y-66517735D02*
X196078571Y-66553450D01*
X163628571Y-85589164D02*
X163628571Y-86196307D01*
X163628571Y-86196307D02*
X163664285Y-86267735D01*
X163664285Y-86267735D02*
X163700000Y-86303450D01*
X163700000Y-86303450D02*
X163771428Y-86339164D01*
X163771428Y-86339164D02*
X163914285Y-86339164D01*
X163914285Y-86339164D02*
X163985714Y-86303450D01*
X163985714Y-86303450D02*
X164021428Y-86267735D01*
X164021428Y-86267735D02*
X164057142Y-86196307D01*
X164057142Y-86196307D02*
X164057142Y-85589164D01*
X164735714Y-85839164D02*
X164735714Y-86339164D01*
X164557142Y-85553450D02*
X164378571Y-86089164D01*
X164378571Y-86089164D02*
X164842856Y-86089164D01*
X170428571Y-65089164D02*
X170428571Y-65696307D01*
X170428571Y-65696307D02*
X170464285Y-65767735D01*
X170464285Y-65767735D02*
X170500000Y-65803450D01*
X170500000Y-65803450D02*
X170571428Y-65839164D01*
X170571428Y-65839164D02*
X170714285Y-65839164D01*
X170714285Y-65839164D02*
X170785714Y-65803450D01*
X170785714Y-65803450D02*
X170821428Y-65767735D01*
X170821428Y-65767735D02*
X170857142Y-65696307D01*
X170857142Y-65696307D02*
X170857142Y-65089164D01*
X171571428Y-65089164D02*
X171214285Y-65089164D01*
X171214285Y-65089164D02*
X171178571Y-65446307D01*
X171178571Y-65446307D02*
X171214285Y-65410592D01*
X171214285Y-65410592D02*
X171285714Y-65374878D01*
X171285714Y-65374878D02*
X171464285Y-65374878D01*
X171464285Y-65374878D02*
X171535714Y-65410592D01*
X171535714Y-65410592D02*
X171571428Y-65446307D01*
X171571428Y-65446307D02*
X171607142Y-65517735D01*
X171607142Y-65517735D02*
X171607142Y-65696307D01*
X171607142Y-65696307D02*
X171571428Y-65767735D01*
X171571428Y-65767735D02*
X171535714Y-65803450D01*
X171535714Y-65803450D02*
X171464285Y-65839164D01*
X171464285Y-65839164D02*
X171285714Y-65839164D01*
X171285714Y-65839164D02*
X171214285Y-65803450D01*
X171214285Y-65803450D02*
X171178571Y-65767735D01*
X206912499Y-39939164D02*
X206662499Y-39582021D01*
X206483928Y-39939164D02*
X206483928Y-39189164D01*
X206483928Y-39189164D02*
X206769642Y-39189164D01*
X206769642Y-39189164D02*
X206841071Y-39224878D01*
X206841071Y-39224878D02*
X206876785Y-39260592D01*
X206876785Y-39260592D02*
X206912499Y-39332021D01*
X206912499Y-39332021D02*
X206912499Y-39439164D01*
X206912499Y-39439164D02*
X206876785Y-39510592D01*
X206876785Y-39510592D02*
X206841071Y-39546307D01*
X206841071Y-39546307D02*
X206769642Y-39582021D01*
X206769642Y-39582021D02*
X206483928Y-39582021D01*
X207626785Y-39939164D02*
X207198214Y-39939164D01*
X207412499Y-39939164D02*
X207412499Y-39189164D01*
X207412499Y-39189164D02*
X207341071Y-39296307D01*
X207341071Y-39296307D02*
X207269642Y-39367735D01*
X207269642Y-39367735D02*
X207198214Y-39403450D01*
X189767857Y-64689164D02*
X190196429Y-64689164D01*
X189982143Y-65439164D02*
X189982143Y-64689164D01*
X190446429Y-65439164D02*
X190446429Y-64689164D01*
X190446429Y-64689164D02*
X190732143Y-64689164D01*
X190732143Y-64689164D02*
X190803572Y-64724878D01*
X190803572Y-64724878D02*
X190839286Y-64760592D01*
X190839286Y-64760592D02*
X190875000Y-64832021D01*
X190875000Y-64832021D02*
X190875000Y-64939164D01*
X190875000Y-64939164D02*
X190839286Y-65010592D01*
X190839286Y-65010592D02*
X190803572Y-65046307D01*
X190803572Y-65046307D02*
X190732143Y-65082021D01*
X190732143Y-65082021D02*
X190446429Y-65082021D01*
X191196429Y-65153450D02*
X191767858Y-65153450D01*
X192482143Y-64689164D02*
X192125000Y-64689164D01*
X192125000Y-64689164D02*
X192089286Y-65046307D01*
X192089286Y-65046307D02*
X192125000Y-65010592D01*
X192125000Y-65010592D02*
X192196429Y-64974878D01*
X192196429Y-64974878D02*
X192375000Y-64974878D01*
X192375000Y-64974878D02*
X192446429Y-65010592D01*
X192446429Y-65010592D02*
X192482143Y-65046307D01*
X192482143Y-65046307D02*
X192517857Y-65117735D01*
X192517857Y-65117735D02*
X192517857Y-65296307D01*
X192517857Y-65296307D02*
X192482143Y-65367735D01*
X192482143Y-65367735D02*
X192446429Y-65403450D01*
X192446429Y-65403450D02*
X192375000Y-65439164D01*
X192375000Y-65439164D02*
X192196429Y-65439164D01*
X192196429Y-65439164D02*
X192125000Y-65403450D01*
X192125000Y-65403450D02*
X192089286Y-65367735D01*
X192732143Y-64689164D02*
X192982143Y-65439164D01*
X192982143Y-65439164D02*
X193232143Y-64689164D01*
X206366666Y-67754819D02*
X206366666Y-68469104D01*
X206366666Y-68469104D02*
X206319047Y-68611961D01*
X206319047Y-68611961D02*
X206223809Y-68707200D01*
X206223809Y-68707200D02*
X206080952Y-68754819D01*
X206080952Y-68754819D02*
X205985714Y-68754819D01*
X207366666Y-68754819D02*
X206795238Y-68754819D01*
X207080952Y-68754819D02*
X207080952Y-67754819D01*
X207080952Y-67754819D02*
X206985714Y-67897676D01*
X206985714Y-67897676D02*
X206890476Y-67992914D01*
X206890476Y-67992914D02*
X206795238Y-68040533D01*
X200503571Y-66889164D02*
X200932143Y-66889164D01*
X200717857Y-67639164D02*
X200717857Y-66889164D01*
X201182143Y-67639164D02*
X201182143Y-66889164D01*
X201182143Y-66889164D02*
X201467857Y-66889164D01*
X201467857Y-66889164D02*
X201539286Y-66924878D01*
X201539286Y-66924878D02*
X201575000Y-66960592D01*
X201575000Y-66960592D02*
X201610714Y-67032021D01*
X201610714Y-67032021D02*
X201610714Y-67139164D01*
X201610714Y-67139164D02*
X201575000Y-67210592D01*
X201575000Y-67210592D02*
X201539286Y-67246307D01*
X201539286Y-67246307D02*
X201467857Y-67282021D01*
X201467857Y-67282021D02*
X201182143Y-67282021D01*
X201932143Y-67353450D02*
X202503572Y-67353450D01*
X203253571Y-66924878D02*
X203182143Y-66889164D01*
X203182143Y-66889164D02*
X203075000Y-66889164D01*
X203075000Y-66889164D02*
X202967857Y-66924878D01*
X202967857Y-66924878D02*
X202896428Y-66996307D01*
X202896428Y-66996307D02*
X202860714Y-67067735D01*
X202860714Y-67067735D02*
X202825000Y-67210592D01*
X202825000Y-67210592D02*
X202825000Y-67317735D01*
X202825000Y-67317735D02*
X202860714Y-67460592D01*
X202860714Y-67460592D02*
X202896428Y-67532021D01*
X202896428Y-67532021D02*
X202967857Y-67603450D01*
X202967857Y-67603450D02*
X203075000Y-67639164D01*
X203075000Y-67639164D02*
X203146428Y-67639164D01*
X203146428Y-67639164D02*
X203253571Y-67603450D01*
X203253571Y-67603450D02*
X203289285Y-67567735D01*
X203289285Y-67567735D02*
X203289285Y-67317735D01*
X203289285Y-67317735D02*
X203146428Y-67317735D01*
X203610714Y-67639164D02*
X203610714Y-66889164D01*
X203610714Y-66889164D02*
X204039285Y-67639164D01*
X204039285Y-67639164D02*
X204039285Y-66889164D01*
X204396428Y-67639164D02*
X204396428Y-66889164D01*
X204396428Y-66889164D02*
X204574999Y-66889164D01*
X204574999Y-66889164D02*
X204682142Y-66924878D01*
X204682142Y-66924878D02*
X204753571Y-66996307D01*
X204753571Y-66996307D02*
X204789285Y-67067735D01*
X204789285Y-67067735D02*
X204824999Y-67210592D01*
X204824999Y-67210592D02*
X204824999Y-67317735D01*
X204824999Y-67317735D02*
X204789285Y-67460592D01*
X204789285Y-67460592D02*
X204753571Y-67532021D01*
X204753571Y-67532021D02*
X204682142Y-67603450D01*
X204682142Y-67603450D02*
X204574999Y-67639164D01*
X204574999Y-67639164D02*
X204396428Y-67639164D01*
X197292857Y-58489164D02*
X197721429Y-58489164D01*
X197507143Y-59239164D02*
X197507143Y-58489164D01*
X197971429Y-59239164D02*
X197971429Y-58489164D01*
X197971429Y-58489164D02*
X198257143Y-58489164D01*
X198257143Y-58489164D02*
X198328572Y-58524878D01*
X198328572Y-58524878D02*
X198364286Y-58560592D01*
X198364286Y-58560592D02*
X198400000Y-58632021D01*
X198400000Y-58632021D02*
X198400000Y-58739164D01*
X198400000Y-58739164D02*
X198364286Y-58810592D01*
X198364286Y-58810592D02*
X198328572Y-58846307D01*
X198328572Y-58846307D02*
X198257143Y-58882021D01*
X198257143Y-58882021D02*
X197971429Y-58882021D01*
X198721429Y-58953450D02*
X199292858Y-58953450D01*
X199614286Y-59203450D02*
X199721429Y-59239164D01*
X199721429Y-59239164D02*
X199900000Y-59239164D01*
X199900000Y-59239164D02*
X199971429Y-59203450D01*
X199971429Y-59203450D02*
X200007143Y-59167735D01*
X200007143Y-59167735D02*
X200042857Y-59096307D01*
X200042857Y-59096307D02*
X200042857Y-59024878D01*
X200042857Y-59024878D02*
X200007143Y-58953450D01*
X200007143Y-58953450D02*
X199971429Y-58917735D01*
X199971429Y-58917735D02*
X199900000Y-58882021D01*
X199900000Y-58882021D02*
X199757143Y-58846307D01*
X199757143Y-58846307D02*
X199685714Y-58810592D01*
X199685714Y-58810592D02*
X199650000Y-58774878D01*
X199650000Y-58774878D02*
X199614286Y-58703450D01*
X199614286Y-58703450D02*
X199614286Y-58632021D01*
X199614286Y-58632021D02*
X199650000Y-58560592D01*
X199650000Y-58560592D02*
X199685714Y-58524878D01*
X199685714Y-58524878D02*
X199757143Y-58489164D01*
X199757143Y-58489164D02*
X199935714Y-58489164D01*
X199935714Y-58489164D02*
X200042857Y-58524878D01*
X200364286Y-59239164D02*
X200364286Y-58489164D01*
X200364286Y-58489164D02*
X200542857Y-58489164D01*
X200542857Y-58489164D02*
X200650000Y-58524878D01*
X200650000Y-58524878D02*
X200721429Y-58596307D01*
X200721429Y-58596307D02*
X200757143Y-58667735D01*
X200757143Y-58667735D02*
X200792857Y-58810592D01*
X200792857Y-58810592D02*
X200792857Y-58917735D01*
X200792857Y-58917735D02*
X200757143Y-59060592D01*
X200757143Y-59060592D02*
X200721429Y-59132021D01*
X200721429Y-59132021D02*
X200650000Y-59203450D01*
X200650000Y-59203450D02*
X200542857Y-59239164D01*
X200542857Y-59239164D02*
X200364286Y-59239164D01*
X201078572Y-59024878D02*
X201435715Y-59024878D01*
X201007143Y-59239164D02*
X201257143Y-58489164D01*
X201257143Y-58489164D02*
X201507143Y-59239164D01*
%TO.C,U2*%
D13*
X194160000Y-90730000D02*
X192180000Y-90730000D01*
X192180000Y-94120000D01*
X194160000Y-94120000D01*
X194160000Y-90730000D01*
X206230000Y-93390000D02*
X204500000Y-93390000D01*
X204500000Y-96130000D01*
X206230000Y-96130000D01*
X206230000Y-93390000D01*
X208890000Y-90480000D02*
X206230000Y-90480000D01*
X206230000Y-92240000D01*
X208890000Y-92240000D01*
X208890000Y-90480000D01*
X211110000Y-87030000D02*
X188210000Y-87030000D01*
X188210000Y-99730000D01*
X211110000Y-99730000D01*
X211110000Y-87030000D01*
X191800000Y-97230000D02*
G75*
G02*
X189620000Y-97230000I-1090000J0D01*
G01*
X189620000Y-97230000D02*
G75*
G02*
X191800000Y-97230000I1090000J0D01*
G01*
X209700000Y-97230000D02*
G75*
G02*
X207520000Y-97230000I-1090000J0D01*
G01*
X207520000Y-97230000D02*
G75*
G02*
X209700000Y-97230000I1090000J0D01*
G01*
%TO.C,U1*%
X194060000Y-76410000D02*
X192080000Y-76410000D01*
X192080000Y-79800000D01*
X194060000Y-79800000D01*
X194060000Y-76410000D01*
X206130000Y-79070000D02*
X204400000Y-79070000D01*
X204400000Y-81810000D01*
X206130000Y-81810000D01*
X206130000Y-79070000D01*
X208790000Y-76160000D02*
X206130000Y-76160000D01*
X206130000Y-77920000D01*
X208790000Y-77920000D01*
X208790000Y-76160000D01*
X211010000Y-72710000D02*
X188110000Y-72710000D01*
X188110000Y-85410000D01*
X211010000Y-85410000D01*
X211010000Y-72710000D01*
X191700000Y-82910000D02*
G75*
G02*
X189520000Y-82910000I-1090000J0D01*
G01*
X189520000Y-82910000D02*
G75*
G02*
X191700000Y-82910000I1090000J0D01*
G01*
X209600000Y-82910000D02*
G75*
G02*
X207420000Y-82910000I-1090000J0D01*
G01*
X207420000Y-82910000D02*
G75*
G02*
X209600000Y-82910000I1090000J0D01*
G01*
%TO.C,U3*%
X169500000Y-90730000D02*
X167520000Y-90730000D01*
X167520000Y-94120000D01*
X169500000Y-94120000D01*
X169500000Y-90730000D01*
X181570000Y-93390000D02*
X179840000Y-93390000D01*
X179840000Y-96130000D01*
X181570000Y-96130000D01*
X181570000Y-93390000D01*
X184230000Y-90480000D02*
X181570000Y-90480000D01*
X181570000Y-92240000D01*
X184230000Y-92240000D01*
X184230000Y-90480000D01*
X186450000Y-87030000D02*
X163550000Y-87030000D01*
X163550000Y-99730000D01*
X186450000Y-99730000D01*
X186450000Y-87030000D01*
X167140000Y-97230000D02*
G75*
G02*
X164960000Y-97230000I-1090000J0D01*
G01*
X164960000Y-97230000D02*
G75*
G02*
X167140000Y-97230000I1090000J0D01*
G01*
X185040000Y-97230000D02*
G75*
G02*
X182860000Y-97230000I-1090000J0D01*
G01*
X182860000Y-97230000D02*
G75*
G02*
X185040000Y-97230000I1090000J0D01*
G01*
D14*
%TO.C,TP-SCL*%
X197200000Y-60300000D02*
G75*
G02*
X194600000Y-60300000I-1300000J0D01*
G01*
X194600000Y-60300000D02*
G75*
G02*
X197200000Y-60300000I1300000J0D01*
G01*
%TO.C,D2*%
X210562500Y-45860000D02*
X213247500Y-45860000D01*
X213247500Y-43940000D02*
X210562500Y-43940000D01*
X213247500Y-45860000D02*
X213247500Y-43940000D01*
%TO.C,R2*%
X184327064Y-62365000D02*
X183872936Y-62365000D01*
X184327064Y-63835000D02*
X183872936Y-63835000D01*
D15*
%TO.C,G\u002A\u002A\u002A*%
G36*
X213674229Y-39274571D02*
G01*
X213672556Y-39276243D01*
X213670884Y-39274571D01*
X213672556Y-39272899D01*
X213674229Y-39274571D01*
G37*
G36*
X213677573Y-39267882D02*
G01*
X213675901Y-39269554D01*
X213674229Y-39267882D01*
X213675901Y-39266209D01*
X213677573Y-39267882D01*
G37*
G36*
X213677573Y-39475256D02*
G01*
X213675901Y-39476928D01*
X213674229Y-39475256D01*
X213675901Y-39473583D01*
X213677573Y-39475256D01*
G37*
G36*
X213734434Y-39425085D02*
G01*
X213732762Y-39426757D01*
X213731089Y-39425085D01*
X213732762Y-39423412D01*
X213734434Y-39425085D01*
G37*
G36*
X213828087Y-39405016D02*
G01*
X213826415Y-39406689D01*
X213824742Y-39405016D01*
X213826415Y-39403344D01*
X213828087Y-39405016D01*
G37*
G36*
X213838121Y-39405016D02*
G01*
X213836449Y-39406689D01*
X213834776Y-39405016D01*
X213836449Y-39403344D01*
X213838121Y-39405016D01*
G37*
G36*
X213918395Y-39448498D02*
G01*
X213916723Y-39450170D01*
X213915050Y-39448498D01*
X213916723Y-39446826D01*
X213918395Y-39448498D01*
G37*
G36*
X214038806Y-39364879D02*
G01*
X214037134Y-39366552D01*
X214035461Y-39364879D01*
X214037134Y-39363207D01*
X214038806Y-39364879D01*
G37*
G36*
X213860420Y-39387735D02*
G01*
X213859960Y-39389723D01*
X213858190Y-39389965D01*
X213855437Y-39388741D01*
X213855960Y-39387735D01*
X213859929Y-39387335D01*
X213860420Y-39387735D01*
G37*
G36*
X213954072Y-39431217D02*
G01*
X213953613Y-39433205D01*
X213951843Y-39433447D01*
X213949089Y-39432223D01*
X213949613Y-39431217D01*
X213953582Y-39430816D01*
X213954072Y-39431217D01*
G37*
G36*
X213970796Y-39367667D02*
G01*
X213970337Y-39369655D01*
X213968566Y-39369896D01*
X213965813Y-39368673D01*
X213966336Y-39367667D01*
X213970306Y-39367266D01*
X213970796Y-39367667D01*
G37*
G36*
X214024297Y-39389129D02*
G01*
X214024739Y-39395977D01*
X214024297Y-39397491D01*
X214023077Y-39397911D01*
X214022610Y-39393310D01*
X214023136Y-39388561D01*
X214024297Y-39389129D01*
G37*
G36*
X213677472Y-39482707D02*
G01*
X213678728Y-39485146D01*
X213679583Y-39489859D01*
X213677337Y-39488944D01*
X213675764Y-39486740D01*
X213674735Y-39482362D01*
X213675153Y-39481579D01*
X213677472Y-39482707D01*
G37*
G36*
X213985265Y-39529120D02*
G01*
X213985705Y-39529552D01*
X213988347Y-39533938D01*
X213987989Y-39535550D01*
X213985501Y-39534546D01*
X213983833Y-39531425D01*
X213982814Y-39527517D01*
X213985265Y-39529120D01*
G37*
G36*
X213697506Y-39519493D02*
G01*
X213697642Y-39520410D01*
X213696501Y-39523668D01*
X213696167Y-39523755D01*
X213693311Y-39521411D01*
X213692625Y-39520410D01*
X213692890Y-39517328D01*
X213694100Y-39517065D01*
X213697506Y-39519493D01*
G37*
G36*
X213818053Y-39401671D02*
G01*
X213821270Y-39405948D01*
X213821397Y-39406886D01*
X213818846Y-39409943D01*
X213818053Y-39410033D01*
X213815117Y-39407311D01*
X213814708Y-39404819D01*
X213816329Y-39401357D01*
X213818053Y-39401671D01*
G37*
G36*
X213837285Y-39397693D02*
G01*
X213838326Y-39398663D01*
X213833701Y-39399191D01*
X213831432Y-39399223D01*
X213825347Y-39398874D01*
X213824629Y-39398006D01*
X213825578Y-39397693D01*
X213834061Y-39397173D01*
X213837285Y-39397693D01*
G37*
G36*
X213987585Y-39438952D02*
G01*
X213986962Y-39440136D01*
X213983811Y-39443330D01*
X213983223Y-39443481D01*
X213982995Y-39441320D01*
X213983618Y-39440136D01*
X213986769Y-39436942D01*
X213987357Y-39436791D01*
X213987585Y-39438952D01*
G37*
G36*
X213990217Y-39362464D02*
G01*
X213989963Y-39363764D01*
X213987220Y-39366506D01*
X213986962Y-39366552D01*
X213984292Y-39364264D01*
X213983962Y-39363764D01*
X213984959Y-39361301D01*
X213986962Y-39360977D01*
X213990217Y-39362464D01*
G37*
G36*
X213998579Y-39375792D02*
G01*
X213998669Y-39376586D01*
X213995947Y-39379521D01*
X213993454Y-39379931D01*
X213989992Y-39378309D01*
X213990307Y-39376586D01*
X213994583Y-39373369D01*
X213995522Y-39373241D01*
X213998579Y-39375792D01*
G37*
G36*
X213999282Y-39439411D02*
G01*
X214001838Y-39443669D01*
X214001512Y-39445097D01*
X213998017Y-39444994D01*
X213997554Y-39444596D01*
X213995349Y-39439447D01*
X213995324Y-39438910D01*
X213997021Y-39437666D01*
X213999282Y-39439411D01*
G37*
G36*
X214000532Y-39367879D02*
G01*
X213996997Y-39369896D01*
X213989194Y-39372287D01*
X213985290Y-39372771D01*
X213983427Y-39371913D01*
X213986962Y-39369896D01*
X213994765Y-39367506D01*
X213998669Y-39367022D01*
X214000532Y-39367879D01*
G37*
G36*
X214006330Y-39494133D02*
G01*
X214003889Y-39499962D01*
X214000204Y-39504675D01*
X213997580Y-39504631D01*
X213997681Y-39500394D01*
X214000300Y-39494898D01*
X214003822Y-39490735D01*
X214006484Y-39490318D01*
X214006330Y-39494133D01*
G37*
G36*
X214007247Y-39471013D02*
G01*
X214006986Y-39474769D01*
X214004084Y-39478680D01*
X213999980Y-39481832D01*
X213998720Y-39481348D01*
X214000404Y-39476005D01*
X214003885Y-39471678D01*
X214007092Y-39470877D01*
X214007247Y-39471013D01*
G37*
G36*
X214008987Y-39399648D02*
G01*
X214010936Y-39406102D01*
X214010861Y-39408991D01*
X214008770Y-39407590D01*
X214007444Y-39404887D01*
X214005706Y-39397935D01*
X214005571Y-39395545D01*
X214006709Y-39395197D01*
X214008987Y-39399648D01*
G37*
G36*
X214015706Y-39388941D02*
G01*
X214018229Y-39395048D01*
X214018116Y-39398808D01*
X214016924Y-39403192D01*
X214015413Y-39401260D01*
X214014458Y-39398889D01*
X214012150Y-39391102D01*
X214012629Y-39387462D01*
X214015706Y-39388941D01*
G37*
G36*
X214027579Y-39433771D02*
G01*
X214027745Y-39434346D01*
X214028235Y-39441632D01*
X214027621Y-39444381D01*
X214026523Y-39444492D01*
X214026074Y-39439256D01*
X214026079Y-39438464D01*
X214026561Y-39433276D01*
X214027579Y-39433771D01*
G37*
G36*
X214031137Y-39402547D02*
G01*
X214031676Y-39411262D01*
X214031070Y-39415926D01*
X214030166Y-39416707D01*
X214029658Y-39411904D01*
X214029615Y-39408361D01*
X214029945Y-39401884D01*
X214030700Y-39400901D01*
X214031137Y-39402547D01*
G37*
G36*
X213718575Y-39302534D02*
G01*
X213719037Y-39307676D01*
X213718879Y-39308126D01*
X213715080Y-39312658D01*
X213710681Y-39311560D01*
X213709767Y-39310367D01*
X213709809Y-39305534D01*
X213710868Y-39303249D01*
X213714973Y-39300524D01*
X213718575Y-39302534D01*
G37*
G36*
X213751158Y-39438777D02*
G01*
X213750680Y-39442889D01*
X213750322Y-39443246D01*
X213746943Y-39441998D01*
X213742975Y-39440463D01*
X213738584Y-39438388D01*
X213740298Y-39436973D01*
X213743811Y-39435994D01*
X213749828Y-39435921D01*
X213751158Y-39438777D01*
G37*
G36*
X213825780Y-39328721D02*
G01*
X213827007Y-39331778D01*
X213826272Y-39333335D01*
X213821898Y-39335498D01*
X213813985Y-39336428D01*
X213813674Y-39336428D01*
X213803001Y-39336408D01*
X213812548Y-39331429D01*
X213820440Y-39328532D01*
X213825780Y-39328721D01*
G37*
G36*
X213837959Y-39388349D02*
G01*
X213841466Y-39389965D01*
X213844109Y-39392453D01*
X213840945Y-39392557D01*
X213832417Y-39390277D01*
X213831432Y-39389965D01*
X213826256Y-39388021D01*
X213827247Y-39387179D01*
X213829759Y-39387005D01*
X213837959Y-39388349D01*
G37*
G36*
X214008084Y-39416613D02*
G01*
X214007467Y-39421946D01*
X214004260Y-39428434D01*
X214000221Y-39432919D01*
X213998707Y-39433447D01*
X213998104Y-39430964D01*
X214000580Y-39424855D01*
X214001333Y-39423488D01*
X214005329Y-39417718D01*
X214007870Y-39416270D01*
X214008084Y-39416613D01*
G37*
G36*
X214038113Y-39373762D02*
G01*
X214038578Y-39374913D01*
X214039999Y-39382972D01*
X214037909Y-39388632D01*
X214034746Y-39389965D01*
X214032867Y-39387497D01*
X214033431Y-39384674D01*
X214035431Y-39376485D01*
X214035696Y-39373804D01*
X214036325Y-39370713D01*
X214038113Y-39373762D01*
G37*
G36*
X213974435Y-39439101D02*
G01*
X213975256Y-39439828D01*
X213972286Y-39441280D01*
X213964872Y-39442119D01*
X213961925Y-39442193D01*
X213953992Y-39441898D01*
X213950179Y-39441067D01*
X213950170Y-39440694D01*
X213954351Y-39439264D01*
X213961631Y-39438458D01*
X213969247Y-39438372D01*
X213974435Y-39439101D01*
G37*
G36*
X213736236Y-39320053D02*
G01*
X213741124Y-39323226D01*
X213746496Y-39328821D01*
X213745755Y-39332243D01*
X213741849Y-39337254D01*
X213739677Y-39342302D01*
X213736551Y-39348723D01*
X213733444Y-39348636D01*
X213730648Y-39342214D01*
X213729363Y-39336128D01*
X213728516Y-39324888D01*
X213730795Y-39319542D01*
X213736236Y-39320053D01*
G37*
G36*
X213764427Y-39335172D02*
G01*
X213769873Y-39339598D01*
X213771226Y-39343202D01*
X213769814Y-39348603D01*
X213767882Y-39349828D01*
X213765164Y-39347026D01*
X213764537Y-39343138D01*
X213762283Y-39337647D01*
X213757290Y-39336449D01*
X213752442Y-39335682D01*
X213752117Y-39334375D01*
X213757518Y-39332974D01*
X213764427Y-39335172D01*
G37*
G36*
X213817621Y-39445153D02*
G01*
X213821349Y-39452578D01*
X213822350Y-39457657D01*
X213822202Y-39458053D01*
X213819421Y-39458419D01*
X213818040Y-39456838D01*
X213815380Y-39454684D01*
X213813705Y-39457317D01*
X213812551Y-39457315D01*
X213811779Y-39451945D01*
X213811645Y-39448498D01*
X213811398Y-39435119D01*
X213817621Y-39445153D01*
G37*
G36*
X213854923Y-39466192D02*
G01*
X213862238Y-39468480D01*
X213864775Y-39473479D01*
X213864879Y-39475635D01*
X213862732Y-39481970D01*
X213857976Y-39483938D01*
X213853140Y-39481456D01*
X213850897Y-39476092D01*
X213848183Y-39470288D01*
X213843138Y-39469542D01*
X213839023Y-39469551D01*
X213840708Y-39467624D01*
X213846911Y-39465984D01*
X213854923Y-39466192D01*
G37*
G36*
X213660321Y-39455665D02*
G01*
X213660850Y-39458253D01*
X213662366Y-39463254D01*
X213663388Y-39464107D01*
X213664642Y-39467797D01*
X213664411Y-39475401D01*
X213664224Y-39476802D01*
X213662522Y-39488382D01*
X213658514Y-39479532D01*
X213656200Y-39472673D01*
X213657680Y-39469408D01*
X213658514Y-39468982D01*
X213659920Y-39466424D01*
X213656598Y-39463538D01*
X213652639Y-39459282D01*
X213652615Y-39456654D01*
X213656833Y-39453611D01*
X213660321Y-39455665D01*
G37*
G36*
X213644644Y-39366340D02*
G01*
X213646090Y-39374899D01*
X213647458Y-39387628D01*
X213648588Y-39403267D01*
X213648712Y-39405495D01*
X213649597Y-39424887D01*
X213649907Y-39438791D01*
X213649664Y-39446964D01*
X213648888Y-39449164D01*
X213647602Y-39445149D01*
X213646042Y-39436143D01*
X213644229Y-39421782D01*
X213642853Y-39406420D01*
X213641969Y-39391489D01*
X213641630Y-39378420D01*
X213641891Y-39368645D01*
X213642806Y-39363594D01*
X213643283Y-39363207D01*
X213644644Y-39366340D01*
G37*
G36*
X214222027Y-39360125D02*
G01*
X214235496Y-39360422D01*
X214253658Y-39360979D01*
X214266322Y-39361696D01*
X214274680Y-39362761D01*
X214279924Y-39364364D01*
X214283245Y-39366695D01*
X214284581Y-39368224D01*
X214288378Y-39378323D01*
X214288175Y-39386388D01*
X214286551Y-39394616D01*
X214283712Y-39400507D01*
X214278636Y-39404471D01*
X214270303Y-39406920D01*
X214257691Y-39408265D01*
X214239780Y-39408917D01*
X214231855Y-39409061D01*
X214214534Y-39409075D01*
X214198947Y-39408609D01*
X214186676Y-39407744D01*
X214179303Y-39406560D01*
X214178786Y-39406386D01*
X214169526Y-39399632D01*
X214164523Y-39389229D01*
X214164593Y-39377266D01*
X214165872Y-39373323D01*
X214168656Y-39368226D01*
X214172795Y-39364525D01*
X214179245Y-39362041D01*
X214188963Y-39360598D01*
X214202905Y-39360018D01*
X214222027Y-39360125D01*
G37*
G36*
X213959353Y-39366054D02*
G01*
X213960762Y-39368707D01*
X213959068Y-39372888D01*
X213955745Y-39371775D01*
X213954252Y-39369060D01*
X213951300Y-39366816D01*
X213949889Y-39367570D01*
X213949123Y-39371041D01*
X213953226Y-39373812D01*
X213960378Y-39375123D01*
X213966894Y-39374648D01*
X213972750Y-39373657D01*
X213973513Y-39374289D01*
X213968870Y-39377173D01*
X213964397Y-39379671D01*
X213955608Y-39384403D01*
X213950895Y-39386253D01*
X213948537Y-39385670D01*
X213947399Y-39384112D01*
X213946793Y-39381046D01*
X213949613Y-39381046D01*
X213950072Y-39383034D01*
X213951843Y-39383275D01*
X213954596Y-39382052D01*
X213954072Y-39381046D01*
X213950103Y-39380645D01*
X213949613Y-39381046D01*
X213946793Y-39381046D01*
X213946415Y-39379133D01*
X213946365Y-39373241D01*
X213948588Y-39366465D01*
X213953794Y-39364526D01*
X213959353Y-39366054D01*
G37*
G36*
X213985870Y-39380381D02*
G01*
X213990341Y-39383330D01*
X213993997Y-39385484D01*
X213994998Y-39385149D01*
X213997114Y-39385654D01*
X213998515Y-39390845D01*
X213999367Y-39401545D01*
X213999603Y-39407965D01*
X213997410Y-39420631D01*
X213990233Y-39428972D01*
X213978470Y-39432634D01*
X213971765Y-39432659D01*
X213964005Y-39431815D01*
X213960343Y-39430806D01*
X213960331Y-39430540D01*
X213959326Y-39427550D01*
X213956700Y-39424448D01*
X213953213Y-39417762D01*
X213951791Y-39408958D01*
X213951314Y-39402341D01*
X213949729Y-39401737D01*
X213948498Y-39403344D01*
X213946221Y-39405478D01*
X213945295Y-39401869D01*
X213945204Y-39398494D01*
X213945858Y-39392048D01*
X213948110Y-39391651D01*
X213948756Y-39392230D01*
X213953043Y-39393265D01*
X213959327Y-39388844D01*
X213960311Y-39387882D01*
X213968216Y-39382679D01*
X213977555Y-39380054D01*
X213985870Y-39380381D01*
G37*
G36*
X213670419Y-39483768D02*
G01*
X213672708Y-39489954D01*
X213673750Y-39493373D01*
X213675876Y-39502581D01*
X213676262Y-39509159D01*
X213675901Y-39510375D01*
X213675514Y-39515980D01*
X213678700Y-39521961D01*
X213683593Y-39525647D01*
X213686564Y-39525649D01*
X213690248Y-39525624D01*
X213690025Y-39528038D01*
X213690500Y-39533926D01*
X213692997Y-39538749D01*
X213697091Y-39545969D01*
X213696851Y-39549964D01*
X213695133Y-39550418D01*
X213692221Y-39547726D01*
X213687155Y-39540816D01*
X213681913Y-39532612D01*
X213674891Y-39518961D01*
X213672732Y-39509101D01*
X213673005Y-39506785D01*
X213673698Y-39501718D01*
X213672044Y-39502605D01*
X213671540Y-39503292D01*
X213668434Y-39505006D01*
X213666187Y-39501870D01*
X213665333Y-39495718D01*
X213665431Y-39495046D01*
X213667803Y-39495046D01*
X213668418Y-39499384D01*
X213669560Y-39499436D01*
X213670358Y-39494959D01*
X213669824Y-39493025D01*
X213668339Y-39491758D01*
X213667803Y-39495046D01*
X213665431Y-39495046D01*
X213666404Y-39488382D01*
X213666834Y-39487099D01*
X213668733Y-39483063D01*
X213670419Y-39483768D01*
G37*
G36*
X213533451Y-39360077D02*
G01*
X213549081Y-39360936D01*
X213560003Y-39362761D01*
X213567203Y-39365874D01*
X213571669Y-39370597D01*
X213574388Y-39377252D01*
X213575186Y-39380434D01*
X213575269Y-39387977D01*
X213571097Y-39395539D01*
X213567507Y-39399666D01*
X213557823Y-39410033D01*
X213510964Y-39410033D01*
X213464104Y-39410033D01*
X213455445Y-39399742D01*
X213452373Y-39394982D01*
X213543784Y-39394982D01*
X213545456Y-39396654D01*
X213547128Y-39394982D01*
X213545456Y-39393310D01*
X213543784Y-39394982D01*
X213452373Y-39394982D01*
X213448476Y-39388945D01*
X213447660Y-39379713D01*
X213457640Y-39379713D01*
X213458098Y-39379931D01*
X213461150Y-39377576D01*
X213461837Y-39376586D01*
X213462690Y-39373459D01*
X213462232Y-39373241D01*
X213459180Y-39375596D01*
X213458493Y-39376586D01*
X213457640Y-39379713D01*
X213447660Y-39379713D01*
X213447655Y-39379651D01*
X213452988Y-39370709D01*
X213455636Y-39368064D01*
X213459424Y-39364834D01*
X213463443Y-39362586D01*
X213468919Y-39361143D01*
X213477075Y-39360327D01*
X213489136Y-39359960D01*
X213506324Y-39359864D01*
X213512126Y-39359862D01*
X213533451Y-39360077D01*
G37*
G36*
X213898539Y-39388596D02*
G01*
X213900186Y-39390267D01*
X213904955Y-39392321D01*
X213914413Y-39392404D01*
X213916917Y-39392141D01*
X213931394Y-39390368D01*
X213932420Y-39402709D01*
X213933789Y-39410986D01*
X213936846Y-39414378D01*
X213940841Y-39414799D01*
X213944561Y-39414867D01*
X213946631Y-39416285D01*
X213947288Y-39420401D01*
X213946766Y-39428564D01*
X213945432Y-39440972D01*
X213942291Y-39442638D01*
X213934942Y-39443462D01*
X213933518Y-39443481D01*
X213925903Y-39443131D01*
X213923601Y-39441147D01*
X213925238Y-39436123D01*
X213925581Y-39435366D01*
X213928285Y-39423840D01*
X213925081Y-39415032D01*
X213916298Y-39409614D01*
X213912587Y-39408744D01*
X213902555Y-39406080D01*
X213899045Y-39404459D01*
X213912821Y-39404459D01*
X213913280Y-39406447D01*
X213915050Y-39406689D01*
X213917803Y-39405465D01*
X213917280Y-39404459D01*
X213913311Y-39404058D01*
X213912821Y-39404459D01*
X213899045Y-39404459D01*
X213894604Y-39402408D01*
X213893911Y-39401916D01*
X213891355Y-39399439D01*
X213892610Y-39398198D01*
X213898663Y-39397963D01*
X213908962Y-39398420D01*
X213920043Y-39399012D01*
X213924700Y-39399135D01*
X213923190Y-39398704D01*
X213915767Y-39397634D01*
X213912624Y-39397203D01*
X213903101Y-39395283D01*
X213895025Y-39392636D01*
X213889599Y-39389893D01*
X213888023Y-39387683D01*
X213891499Y-39386638D01*
X213892443Y-39386620D01*
X213898539Y-39388596D01*
G37*
G36*
X213676444Y-39285442D02*
G01*
X213680790Y-39288949D01*
X213684542Y-39289622D01*
X213687919Y-39290329D01*
X213689854Y-39293393D01*
X213690736Y-39300234D01*
X213690952Y-39312270D01*
X213690952Y-39313036D01*
X213690952Y-39336449D01*
X213677573Y-39336449D01*
X213669195Y-39337191D01*
X213664536Y-39339044D01*
X213664194Y-39339794D01*
X213661404Y-39342545D01*
X213657750Y-39343138D01*
X213651861Y-39345737D01*
X213650089Y-39348992D01*
X213648866Y-39352021D01*
X213647293Y-39348934D01*
X213646671Y-39346779D01*
X213646162Y-39338126D01*
X213647642Y-39332783D01*
X213650349Y-39324337D01*
X213650815Y-39319792D01*
X213652347Y-39312854D01*
X213656255Y-39302959D01*
X213659177Y-39297022D01*
X213663706Y-39289406D01*
X213666742Y-39286005D01*
X213667539Y-39286867D01*
X213668575Y-39294928D01*
X213669527Y-39298547D01*
X213670233Y-39302190D01*
X213668527Y-39300547D01*
X213665617Y-39299657D01*
X213661911Y-39304670D01*
X213660181Y-39308241D01*
X213657404Y-39315876D01*
X213657912Y-39318886D01*
X213658580Y-39318809D01*
X213662274Y-39314935D01*
X213664605Y-39309443D01*
X213666306Y-39304295D01*
X213667153Y-39305361D01*
X213667441Y-39308019D01*
X213668009Y-39314708D01*
X213669447Y-39311363D01*
X213674229Y-39311363D01*
X213675901Y-39313036D01*
X213677573Y-39311363D01*
X213675901Y-39309691D01*
X213674229Y-39311363D01*
X213669447Y-39311363D01*
X213670884Y-39308019D01*
X213671808Y-39304674D01*
X213677573Y-39304674D01*
X213679246Y-39306346D01*
X213680918Y-39304674D01*
X213679246Y-39303001D01*
X213677573Y-39304674D01*
X213671808Y-39304674D01*
X213673198Y-39299645D01*
X213674258Y-39291295D01*
X213675048Y-39285600D01*
X213676306Y-39285137D01*
X213676444Y-39285442D01*
G37*
G36*
X213876385Y-38963725D02*
G01*
X213884948Y-38969007D01*
X213888251Y-38972035D01*
X213890579Y-38975493D01*
X213892136Y-38980564D01*
X213893129Y-38988433D01*
X213893762Y-39000282D01*
X213894241Y-39017295D01*
X213894380Y-39023335D01*
X213894740Y-39042214D01*
X213894734Y-39055646D01*
X213894228Y-39064872D01*
X213893091Y-39071131D01*
X213891186Y-39075661D01*
X213888381Y-39079703D01*
X213888284Y-39079827D01*
X213879163Y-39086922D01*
X213868271Y-39089086D01*
X213857886Y-39086147D01*
X213853363Y-39082459D01*
X213852293Y-39080576D01*
X213861534Y-39080576D01*
X213863207Y-39082248D01*
X213864879Y-39080576D01*
X213863207Y-39078903D01*
X213861534Y-39080576D01*
X213852293Y-39080576D01*
X213849765Y-39076129D01*
X213849899Y-39073886D01*
X213878258Y-39073886D01*
X213879931Y-39075559D01*
X213881603Y-39073886D01*
X213879931Y-39072214D01*
X213878258Y-39073886D01*
X213849899Y-39073886D01*
X213850017Y-39071908D01*
X213850632Y-39069418D01*
X213848420Y-39070378D01*
X213846796Y-39069968D01*
X213845730Y-39065868D01*
X213845173Y-39057334D01*
X213845075Y-39043619D01*
X213845390Y-39023977D01*
X213845394Y-39023765D01*
X213845871Y-39004617D01*
X213846120Y-38998630D01*
X213858966Y-38998630D01*
X213859314Y-39004715D01*
X213860183Y-39005432D01*
X213860495Y-39004483D01*
X213861015Y-38996000D01*
X213860495Y-38992776D01*
X213859526Y-38991735D01*
X213858998Y-38996360D01*
X213858966Y-38998630D01*
X213846120Y-38998630D01*
X213846436Y-38991013D01*
X213847274Y-38981807D01*
X213848572Y-38975855D01*
X213850514Y-38972011D01*
X213852257Y-38970199D01*
X213861534Y-38970199D01*
X213863207Y-38971872D01*
X213864879Y-38970199D01*
X213863207Y-38968527D01*
X213861534Y-38970199D01*
X213852257Y-38970199D01*
X213853285Y-38969131D01*
X213854379Y-38968224D01*
X213865353Y-38962642D01*
X213876385Y-38963725D01*
G37*
G36*
X213596673Y-39080843D02*
G01*
X213602305Y-39084354D01*
X213609830Y-39090706D01*
X213620227Y-39100611D01*
X213631157Y-39111456D01*
X213645846Y-39126525D01*
X213655936Y-39138076D01*
X213661846Y-39147010D01*
X213663996Y-39154231D01*
X213662807Y-39160640D01*
X213658698Y-39167142D01*
X213657671Y-39168404D01*
X213649604Y-39174729D01*
X213641487Y-39177934D01*
X213637055Y-39178346D01*
X213632578Y-39177222D01*
X213627064Y-39173869D01*
X213619521Y-39167593D01*
X213612323Y-39160850D01*
X213620713Y-39160850D01*
X213622385Y-39162522D01*
X213624057Y-39160850D01*
X213622385Y-39159177D01*
X213620713Y-39160850D01*
X213612323Y-39160850D01*
X213608959Y-39157699D01*
X213601876Y-39150816D01*
X213610678Y-39150816D01*
X213612351Y-39152488D01*
X213614023Y-39150816D01*
X213612351Y-39149143D01*
X213610678Y-39150816D01*
X213601876Y-39150816D01*
X213599636Y-39148639D01*
X213585599Y-39134337D01*
X213585382Y-39134092D01*
X213593955Y-39134092D01*
X213595627Y-39135764D01*
X213597300Y-39134092D01*
X213595627Y-39132419D01*
X213593955Y-39134092D01*
X213585382Y-39134092D01*
X213576477Y-39124058D01*
X213583921Y-39124058D01*
X213585593Y-39125730D01*
X213587265Y-39124058D01*
X213585593Y-39122385D01*
X213583921Y-39124058D01*
X213576477Y-39124058D01*
X213574716Y-39122073D01*
X213571196Y-39117368D01*
X213624057Y-39117368D01*
X213625730Y-39119040D01*
X213627402Y-39117368D01*
X213625730Y-39115696D01*
X213624057Y-39117368D01*
X213571196Y-39117368D01*
X213567684Y-39112675D01*
X213565324Y-39107879D01*
X213565653Y-39096765D01*
X213571282Y-39087265D01*
X213580576Y-39087265D01*
X213582248Y-39088938D01*
X213583921Y-39087265D01*
X213582248Y-39085593D01*
X213580576Y-39087265D01*
X213571282Y-39087265D01*
X213571326Y-39087190D01*
X213581002Y-39080895D01*
X213587170Y-39079497D01*
X213591955Y-39079462D01*
X213596673Y-39080843D01*
G37*
G36*
X214154242Y-39079843D02*
G01*
X214162240Y-39082801D01*
X214163817Y-39083866D01*
X214168168Y-39089888D01*
X214168037Y-39093968D01*
X214167717Y-39097555D01*
X214169313Y-39097261D01*
X214173028Y-39097273D01*
X214174703Y-39101595D01*
X214174020Y-39108073D01*
X214171663Y-39113213D01*
X214167355Y-39118615D01*
X214159543Y-39127476D01*
X214149409Y-39138484D01*
X214140117Y-39148271D01*
X214125107Y-39163110D01*
X214113219Y-39172866D01*
X214103648Y-39177873D01*
X214095589Y-39178463D01*
X214088236Y-39174971D01*
X214084182Y-39171410D01*
X214079279Y-39164194D01*
X214105701Y-39164194D01*
X214107373Y-39165867D01*
X214109046Y-39164194D01*
X214107373Y-39162522D01*
X214105701Y-39164194D01*
X214079279Y-39164194D01*
X214077486Y-39161555D01*
X214075737Y-39153476D01*
X214077733Y-39145993D01*
X214082628Y-39137320D01*
X214089071Y-39129093D01*
X214095708Y-39122949D01*
X214101187Y-39120522D01*
X214102670Y-39120907D01*
X214105159Y-39121508D01*
X214104267Y-39119426D01*
X214105188Y-39115274D01*
X214109922Y-39108835D01*
X214111372Y-39107334D01*
X214162562Y-39107334D01*
X214164234Y-39109006D01*
X214165906Y-39107334D01*
X214164234Y-39105661D01*
X214162562Y-39107334D01*
X214111372Y-39107334D01*
X214116823Y-39101689D01*
X214124243Y-39095413D01*
X214130534Y-39091586D01*
X214133602Y-39091317D01*
X214135173Y-39091089D01*
X214134219Y-39089081D01*
X214134075Y-39087265D01*
X214142493Y-39087265D01*
X214144165Y-39088938D01*
X214145838Y-39087265D01*
X214145281Y-39086708D01*
X214153642Y-39086708D01*
X214154101Y-39088696D01*
X214155872Y-39088938D01*
X214158625Y-39087714D01*
X214158102Y-39086708D01*
X214154132Y-39086308D01*
X214153642Y-39086708D01*
X214145281Y-39086708D01*
X214144165Y-39085593D01*
X214142493Y-39087265D01*
X214134075Y-39087265D01*
X214133835Y-39084244D01*
X214138242Y-39080881D01*
X214145643Y-39079309D01*
X214154242Y-39079843D01*
G37*
G36*
X213730216Y-39208355D02*
G01*
X213731578Y-39210340D01*
X213735621Y-39214196D01*
X213741099Y-39212706D01*
X213747025Y-39211157D01*
X213749263Y-39212334D01*
X213748334Y-39215851D01*
X213745848Y-39217360D01*
X213736989Y-39219275D01*
X213729847Y-39218349D01*
X213727121Y-39215839D01*
X213724401Y-39215633D01*
X213719154Y-39219590D01*
X213717723Y-39221042D01*
X213713111Y-39226544D01*
X213713466Y-39228093D01*
X213715280Y-39227573D01*
X213720133Y-39227356D01*
X213721055Y-39229257D01*
X213723130Y-39231475D01*
X213724757Y-39230869D01*
X213726320Y-39227884D01*
X213724018Y-39225836D01*
X213721421Y-39222191D01*
X213722068Y-39220600D01*
X213726060Y-39220577D01*
X213729405Y-39222955D01*
X213731898Y-39226628D01*
X213731434Y-39231268D01*
X213727639Y-39238843D01*
X213725791Y-39241988D01*
X213720307Y-39250201D01*
X213715759Y-39255323D01*
X213714176Y-39256175D01*
X213711376Y-39258887D01*
X213711021Y-39261192D01*
X213712827Y-39265643D01*
X213714366Y-39266209D01*
X213716360Y-39269199D01*
X213717557Y-39276762D01*
X213717710Y-39281261D01*
X213717273Y-39290666D01*
X213715455Y-39295114D01*
X213711501Y-39296306D01*
X213711021Y-39296312D01*
X213707008Y-39295431D01*
X213705007Y-39291694D01*
X213704360Y-39283456D01*
X213704331Y-39279588D01*
X213703979Y-39269557D01*
X213702484Y-39264554D01*
X213699189Y-39262936D01*
X213697642Y-39262864D01*
X213692220Y-39260820D01*
X213690952Y-39257952D01*
X213688833Y-39254612D01*
X213685310Y-39255205D01*
X213684007Y-39254362D01*
X213687210Y-39249283D01*
X213694600Y-39240364D01*
X213695431Y-39239451D01*
X213699314Y-39239451D01*
X213699579Y-39242533D01*
X213700789Y-39242796D01*
X213704195Y-39240368D01*
X213704331Y-39239451D01*
X213717710Y-39239451D01*
X213718934Y-39242204D01*
X213719940Y-39241681D01*
X213720340Y-39237712D01*
X213719940Y-39237221D01*
X213717952Y-39237681D01*
X213717710Y-39239451D01*
X213704331Y-39239451D01*
X213703190Y-39236193D01*
X213702856Y-39236107D01*
X213700001Y-39238450D01*
X213699314Y-39239451D01*
X213695431Y-39239451D01*
X213705858Y-39228002D01*
X213715511Y-39217878D01*
X213723014Y-39210503D01*
X213727467Y-39207539D01*
X213730216Y-39208355D01*
G37*
G36*
X213828923Y-39411270D02*
G01*
X213835117Y-39412060D01*
X213846388Y-39412713D01*
X213861123Y-39413160D01*
X213877422Y-39413332D01*
X213918395Y-39413378D01*
X213918344Y-39425921D01*
X213917514Y-39435544D01*
X213915547Y-39442723D01*
X213915190Y-39443369D01*
X213913768Y-39449342D01*
X213914611Y-39451730D01*
X213916746Y-39458037D01*
X213916816Y-39460204D01*
X213918057Y-39465842D01*
X213919138Y-39467103D01*
X213917789Y-39468201D01*
X213911391Y-39468879D01*
X213906517Y-39468984D01*
X213896945Y-39468322D01*
X213890466Y-39466648D01*
X213889226Y-39465698D01*
X213889793Y-39463831D01*
X213892484Y-39464442D01*
X213898043Y-39463720D01*
X213899814Y-39461152D01*
X213901882Y-39457868D01*
X213904935Y-39459739D01*
X213907029Y-39462200D01*
X213910008Y-39465341D01*
X213909764Y-39463869D01*
X213909098Y-39460791D01*
X213912025Y-39461831D01*
X213914401Y-39462597D01*
X213911789Y-39459227D01*
X213911495Y-39458912D01*
X213907515Y-39455570D01*
X213902998Y-39455243D01*
X213895396Y-39457881D01*
X213893782Y-39458550D01*
X213886257Y-39460590D01*
X213875898Y-39462047D01*
X213864408Y-39462876D01*
X213853486Y-39463030D01*
X213844835Y-39462463D01*
X213840154Y-39461128D01*
X213839911Y-39460014D01*
X213838304Y-39457225D01*
X213833289Y-39454208D01*
X213826190Y-39448518D01*
X213822873Y-39442861D01*
X213818682Y-39434796D01*
X213815057Y-39430703D01*
X213812448Y-39428062D01*
X213813872Y-39428379D01*
X213817468Y-39429233D01*
X213817332Y-39427872D01*
X213834776Y-39427872D01*
X213835500Y-39431955D01*
X213838417Y-39434564D01*
X213844652Y-39435950D01*
X213855327Y-39436366D01*
X213871364Y-39436068D01*
X213886445Y-39435458D01*
X213896073Y-39434541D01*
X213901482Y-39433063D01*
X213903910Y-39430769D01*
X213904386Y-39429266D01*
X213904284Y-39426655D01*
X213902034Y-39424955D01*
X213896516Y-39423976D01*
X213886611Y-39423525D01*
X213871201Y-39423413D01*
X213870142Y-39423412D01*
X213853605Y-39423611D01*
X213842822Y-39424284D01*
X213836865Y-39425549D01*
X213834806Y-39427523D01*
X213834776Y-39427872D01*
X213817332Y-39427872D01*
X213817128Y-39425825D01*
X213812794Y-39417630D01*
X213812683Y-39417441D01*
X213809860Y-39412280D01*
X213810739Y-39412525D01*
X213812215Y-39414214D01*
X213817848Y-39419430D01*
X213820854Y-39418499D01*
X213821397Y-39414660D01*
X213823167Y-39410883D01*
X213828923Y-39411270D01*
G37*
G36*
X213780086Y-39362154D02*
G01*
X213776737Y-39365178D01*
X213776127Y-39365652D01*
X213771748Y-39369294D01*
X213773121Y-39369811D01*
X213777561Y-39368829D01*
X213782617Y-39368326D01*
X213782579Y-39369912D01*
X213777656Y-39372161D01*
X213768765Y-39374321D01*
X213764537Y-39375012D01*
X213755768Y-39375928D01*
X213752928Y-39375267D01*
X213754503Y-39373562D01*
X213757392Y-39370637D01*
X213756681Y-39369948D01*
X213752862Y-39372058D01*
X213747145Y-39377228D01*
X213741254Y-39383597D01*
X213736908Y-39389299D01*
X213735829Y-39392473D01*
X213735849Y-39392494D01*
X213739113Y-39391734D01*
X213742871Y-39388696D01*
X213750640Y-39383480D01*
X213759689Y-39380666D01*
X213767006Y-39381128D01*
X213767691Y-39381485D01*
X213770908Y-39381395D01*
X213771226Y-39380128D01*
X213774042Y-39377516D01*
X213778752Y-39376974D01*
X213783279Y-39377542D01*
X213781373Y-39378632D01*
X213780424Y-39378891D01*
X213775461Y-39381818D01*
X213774571Y-39383878D01*
X213776979Y-39385991D01*
X213779172Y-39385570D01*
X213783140Y-39386050D01*
X213783663Y-39387721D01*
X213784156Y-39397711D01*
X213786250Y-39401940D01*
X213787950Y-39401671D01*
X213790813Y-39402430D01*
X213791295Y-39404819D01*
X213789735Y-39409398D01*
X213788313Y-39410033D01*
X213785368Y-39412868D01*
X213783232Y-39418395D01*
X213780366Y-39424664D01*
X213777334Y-39426757D01*
X213776448Y-39428779D01*
X213779588Y-39433447D01*
X213783562Y-39438381D01*
X213784287Y-39440366D01*
X213780350Y-39440899D01*
X213772899Y-39441842D01*
X213766196Y-39442539D01*
X213765672Y-39441722D01*
X213770783Y-39438775D01*
X213771254Y-39438464D01*
X213777916Y-39438464D01*
X213779588Y-39440136D01*
X213781261Y-39438464D01*
X213779588Y-39436791D01*
X213777916Y-39438464D01*
X213771254Y-39438464D01*
X213775864Y-39435421D01*
X213775272Y-39433294D01*
X213773291Y-39432388D01*
X213768752Y-39432182D01*
X213767882Y-39433669D01*
X213765505Y-39435098D01*
X213760881Y-39433280D01*
X213752252Y-39431293D01*
X213742562Y-39432477D01*
X213735051Y-39436284D01*
X213733683Y-39437893D01*
X213731549Y-39439755D01*
X213731141Y-39437314D01*
X213733887Y-39432892D01*
X213737547Y-39431131D01*
X213741851Y-39427717D01*
X213741518Y-39423048D01*
X213737040Y-39420163D01*
X213735749Y-39420068D01*
X213731534Y-39418031D01*
X213731089Y-39416525D01*
X213733138Y-39414528D01*
X213734434Y-39415050D01*
X213736803Y-39413743D01*
X213737777Y-39407236D01*
X213737779Y-39406886D01*
X213736827Y-39399756D01*
X213734528Y-39396658D01*
X213734434Y-39396654D01*
X213731307Y-39394316D01*
X213731440Y-39388967D01*
X213734295Y-39383103D01*
X213738065Y-39379777D01*
X213742713Y-39376270D01*
X213743163Y-39374166D01*
X213739435Y-39374393D01*
X213736485Y-39376272D01*
X213731451Y-39378350D01*
X213729517Y-39376748D01*
X213730316Y-39373847D01*
X213733401Y-39373190D01*
X213737401Y-39372633D01*
X213735096Y-39370330D01*
X213734434Y-39369896D01*
X213731709Y-39367790D01*
X213732077Y-39367155D01*
X213738087Y-39367155D01*
X213740483Y-39369477D01*
X213741124Y-39369896D01*
X213746157Y-39372817D01*
X213747708Y-39371948D01*
X213747813Y-39369896D01*
X213745055Y-39367085D01*
X213741960Y-39366603D01*
X213738087Y-39367155D01*
X213732077Y-39367155D01*
X213732463Y-39366488D01*
X213737788Y-39365567D01*
X213747813Y-39364678D01*
X213760001Y-39363494D01*
X213771110Y-39362156D01*
X213778486Y-39361339D01*
X213780086Y-39362154D01*
G37*
G36*
X213837548Y-39160480D02*
G01*
X213833337Y-39162663D01*
X213828087Y-39164448D01*
X213813036Y-39169061D01*
X213828923Y-39167259D01*
X213838732Y-39166548D01*
X213843519Y-39167542D01*
X213844810Y-39170570D01*
X213844811Y-39170679D01*
X213843067Y-39175260D01*
X213841466Y-39175901D01*
X213838748Y-39178702D01*
X213838121Y-39182591D01*
X213835756Y-39188181D01*
X213831432Y-39189280D01*
X213825802Y-39186882D01*
X213824742Y-39182948D01*
X213822018Y-39176479D01*
X213815352Y-39173757D01*
X213809691Y-39174692D01*
X213805461Y-39179253D01*
X213804674Y-39182948D01*
X213803203Y-39188186D01*
X213801329Y-39189280D01*
X213798611Y-39192081D01*
X213797984Y-39195970D01*
X213799106Y-39200346D01*
X213803641Y-39202280D01*
X213811363Y-39202659D01*
X213820273Y-39203308D01*
X213824160Y-39205718D01*
X213824742Y-39208562D01*
X213827174Y-39214239D01*
X213833328Y-39222130D01*
X213841494Y-39230545D01*
X213849961Y-39237796D01*
X213857018Y-39242194D01*
X213859428Y-39242796D01*
X213863122Y-39244572D01*
X213864704Y-39250826D01*
X213864879Y-39256175D01*
X213864318Y-39264928D01*
X213862051Y-39268797D01*
X213858190Y-39269554D01*
X213852755Y-39270955D01*
X213851500Y-39272899D01*
X213854302Y-39275616D01*
X213858190Y-39276243D01*
X213863813Y-39278638D01*
X213864879Y-39282654D01*
X213866676Y-39288610D01*
X213868851Y-39290389D01*
X213869745Y-39293316D01*
X213865315Y-39299216D01*
X213864879Y-39299657D01*
X213860134Y-39305717D01*
X213860695Y-39308844D01*
X213860907Y-39308924D01*
X213864226Y-39312931D01*
X213864879Y-39316659D01*
X213864023Y-39320330D01*
X213860422Y-39322269D01*
X213852531Y-39322996D01*
X213845900Y-39323070D01*
X213826921Y-39323070D01*
X213834273Y-39315244D01*
X213840592Y-39306152D01*
X213844729Y-39296597D01*
X213847246Y-39283896D01*
X213848385Y-39269669D01*
X213848114Y-39256327D01*
X213846396Y-39246279D01*
X213845479Y-39244045D01*
X213840544Y-39237362D01*
X213832938Y-39229534D01*
X213824546Y-39222237D01*
X213817254Y-39217152D01*
X213813755Y-39215803D01*
X213813026Y-39214607D01*
X213816380Y-39212693D01*
X213819563Y-39210817D01*
X213817214Y-39209886D01*
X213810724Y-39209584D01*
X213802184Y-39208713D01*
X213796976Y-39206870D01*
X213796586Y-39206447D01*
X213792508Y-39205327D01*
X213783973Y-39205722D01*
X213777627Y-39206664D01*
X213764342Y-39208297D01*
X213755633Y-39207699D01*
X213752211Y-39204990D01*
X213752553Y-39203774D01*
X213762307Y-39203774D01*
X213762766Y-39205762D01*
X213764537Y-39206004D01*
X213767290Y-39204780D01*
X213766767Y-39203774D01*
X213762797Y-39203374D01*
X213762307Y-39203774D01*
X213752553Y-39203774D01*
X213752898Y-39202549D01*
X213752117Y-39200499D01*
X213745922Y-39201340D01*
X213739614Y-39202195D01*
X213739008Y-39200314D01*
X213743840Y-39195989D01*
X213746154Y-39194491D01*
X213768827Y-39194491D01*
X213768986Y-39197696D01*
X213773895Y-39200445D01*
X213782651Y-39201843D01*
X213784605Y-39201883D01*
X213786373Y-39201318D01*
X213783523Y-39200306D01*
X213779231Y-39197131D01*
X213779092Y-39194383D01*
X213778390Y-39191372D01*
X213774321Y-39191721D01*
X213768827Y-39194491D01*
X213746154Y-39194491D01*
X213753846Y-39189512D01*
X213759325Y-39186339D01*
X213769304Y-39186339D01*
X213769662Y-39188947D01*
X213774833Y-39188682D01*
X213779315Y-39187250D01*
X213783903Y-39184142D01*
X213784605Y-39182546D01*
X213782125Y-39181137D01*
X213776682Y-39182021D01*
X213771276Y-39184456D01*
X213769304Y-39186339D01*
X213759325Y-39186339D01*
X213759541Y-39186214D01*
X213771947Y-39180009D01*
X213786946Y-39173678D01*
X213796024Y-39170327D01*
X213805789Y-39170327D01*
X213806248Y-39172315D01*
X213808018Y-39172556D01*
X213810772Y-39171333D01*
X213810248Y-39170327D01*
X213806279Y-39169926D01*
X213805789Y-39170327D01*
X213796024Y-39170327D01*
X213802745Y-39167846D01*
X213817551Y-39163140D01*
X213829571Y-39160185D01*
X213836040Y-39159506D01*
X213837548Y-39160480D01*
G37*
G36*
X213879407Y-39156839D02*
G01*
X213898552Y-39159077D01*
X213918395Y-39162198D01*
X213948460Y-39170348D01*
X213978451Y-39184310D01*
X214007151Y-39203307D01*
X214033340Y-39226560D01*
X214051055Y-39246911D01*
X214071732Y-39278780D01*
X214086192Y-39312883D01*
X214094528Y-39349506D01*
X214096863Y-39386620D01*
X214095262Y-39418387D01*
X214090708Y-39447680D01*
X214082732Y-39475890D01*
X214070866Y-39504407D01*
X214054642Y-39534623D01*
X214038141Y-39561060D01*
X214024368Y-39582417D01*
X214014083Y-39599295D01*
X214006833Y-39612619D01*
X214002164Y-39623316D01*
X213999623Y-39632311D01*
X213998755Y-39640530D01*
X213998742Y-39641439D01*
X213996619Y-39658165D01*
X213990482Y-39669541D01*
X213982841Y-39674727D01*
X213977163Y-39677705D01*
X213977786Y-39679768D01*
X213978601Y-39680087D01*
X213984424Y-39683848D01*
X213989397Y-39688886D01*
X213991614Y-39692488D01*
X213993198Y-39697676D01*
X213994251Y-39705521D01*
X213994876Y-39717096D01*
X213995176Y-39733472D01*
X213995250Y-39749778D01*
X213995237Y-39769917D01*
X213995040Y-39784466D01*
X213994523Y-39794525D01*
X213993546Y-39801193D01*
X213991973Y-39805570D01*
X213989663Y-39808755D01*
X213987583Y-39810820D01*
X213983160Y-39814272D01*
X213977764Y-39816431D01*
X213969801Y-39817590D01*
X213957681Y-39818040D01*
X213947975Y-39818092D01*
X213916109Y-39818092D01*
X213912127Y-39831383D01*
X213904932Y-39845075D01*
X213893480Y-39855487D01*
X213879434Y-39861808D01*
X213864455Y-39863228D01*
X213852889Y-39860277D01*
X213840743Y-39851960D01*
X213830966Y-39839994D01*
X213825763Y-39827379D01*
X213823906Y-39818092D01*
X213791713Y-39817981D01*
X213776074Y-39817730D01*
X213765513Y-39816918D01*
X213758423Y-39815266D01*
X213753199Y-39812494D01*
X213751158Y-39810915D01*
X213747950Y-39807996D01*
X213745663Y-39804691D01*
X213744114Y-39799864D01*
X213743118Y-39792382D01*
X213742493Y-39781111D01*
X213742054Y-39764917D01*
X213741821Y-39753329D01*
X213741725Y-39743839D01*
X213741630Y-39734474D01*
X213797984Y-39734474D01*
X213797984Y-39743839D01*
X213798845Y-39751557D01*
X213802155Y-39756636D01*
X213809010Y-39759593D01*
X213820505Y-39760950D01*
X213834641Y-39761232D01*
X213849148Y-39761003D01*
X213858402Y-39760142D01*
X213863830Y-39758389D01*
X213866857Y-39755485D01*
X213866951Y-39755337D01*
X213868872Y-39746670D01*
X213867863Y-39741958D01*
X213866189Y-39738552D01*
X213863327Y-39736373D01*
X213857953Y-39735149D01*
X213848746Y-39734607D01*
X213834382Y-39734475D01*
X213831539Y-39734474D01*
X213797984Y-39734474D01*
X213741630Y-39734474D01*
X213741593Y-39730841D01*
X213742043Y-39714027D01*
X213743299Y-39702699D01*
X213747813Y-39702699D01*
X213749485Y-39704371D01*
X213751158Y-39702699D01*
X213749485Y-39701026D01*
X213747813Y-39702699D01*
X213743299Y-39702699D01*
X213743389Y-39701887D01*
X213745853Y-39693421D01*
X213748910Y-39688762D01*
X213749654Y-39687629D01*
X213755011Y-39683511D01*
X213757448Y-39682203D01*
X213762866Y-39679233D01*
X213762494Y-39677613D01*
X213784605Y-39677613D01*
X213784605Y-39688762D01*
X213785241Y-39697056D01*
X213786785Y-39702073D01*
X213786919Y-39702225D01*
X213790909Y-39702974D01*
X213800361Y-39703499D01*
X213814049Y-39703766D01*
X213830750Y-39703744D01*
X213839599Y-39703618D01*
X213858908Y-39703234D01*
X213872546Y-39702788D01*
X213881529Y-39702109D01*
X213886873Y-39701028D01*
X213889597Y-39699374D01*
X213890716Y-39696977D01*
X213891058Y-39694989D01*
X213891405Y-39688746D01*
X213889843Y-39684195D01*
X213885513Y-39681073D01*
X213877561Y-39679118D01*
X213865129Y-39678068D01*
X213847362Y-39677659D01*
X213834367Y-39677613D01*
X213784605Y-39677613D01*
X213762494Y-39677613D01*
X213762482Y-39677562D01*
X213758129Y-39676030D01*
X213749069Y-39669955D01*
X213743314Y-39658403D01*
X213741696Y-39647510D01*
X213748589Y-39647510D01*
X213748938Y-39653595D01*
X213749806Y-39654313D01*
X213750119Y-39653364D01*
X213750639Y-39644881D01*
X213750119Y-39641657D01*
X213749149Y-39640616D01*
X213748621Y-39645241D01*
X213748589Y-39647510D01*
X213741696Y-39647510D01*
X213740751Y-39641143D01*
X213740735Y-39640821D01*
X213739451Y-39629446D01*
X213736220Y-39618706D01*
X213730210Y-39606266D01*
X213725445Y-39597899D01*
X213718867Y-39586374D01*
X213713862Y-39576958D01*
X213711232Y-39571186D01*
X213711021Y-39570305D01*
X213708484Y-39567307D01*
X213707794Y-39567236D01*
X213703038Y-39564368D01*
X213700135Y-39557528D01*
X213699983Y-39549369D01*
X213700790Y-39546581D01*
X213702773Y-39542427D01*
X213703736Y-39543543D01*
X213704096Y-39550595D01*
X213704119Y-39551906D01*
X213704706Y-39559615D01*
X213705915Y-39563058D01*
X213706402Y-39562936D01*
X213710085Y-39563063D01*
X213714699Y-39567688D01*
X213718655Y-39575111D01*
X213719167Y-39576590D01*
X213722590Y-39582766D01*
X213726368Y-39583353D01*
X213728653Y-39579779D01*
X213729233Y-39579460D01*
X213728687Y-39584497D01*
X213728661Y-39584669D01*
X213728590Y-39592529D01*
X213730288Y-39599077D01*
X213732973Y-39602522D01*
X213735841Y-39601113D01*
X213741332Y-39597601D01*
X213748751Y-39599033D01*
X213753371Y-39602419D01*
X213756078Y-39606997D01*
X213757405Y-39614777D01*
X213757535Y-39627197D01*
X213757313Y-39633358D01*
X213756175Y-39659217D01*
X213818053Y-39659147D01*
X213840278Y-39658957D01*
X213862560Y-39658475D01*
X213883089Y-39657760D01*
X213900057Y-39656872D01*
X213909137Y-39656150D01*
X213938344Y-39653222D01*
X213939930Y-39642840D01*
X213941626Y-39631822D01*
X213943345Y-39620752D01*
X213944909Y-39609358D01*
X213946024Y-39599011D01*
X213947603Y-39590164D01*
X213949853Y-39584315D01*
X213951906Y-39578943D01*
X213958532Y-39578943D01*
X213960204Y-39580615D01*
X213961877Y-39578943D01*
X213960204Y-39577271D01*
X213958532Y-39578943D01*
X213951906Y-39578943D01*
X213952367Y-39577736D01*
X213954009Y-39569264D01*
X213954337Y-39567236D01*
X213961877Y-39567236D01*
X213962551Y-39572553D01*
X213965073Y-39572018D01*
X213965890Y-39571250D01*
X213968182Y-39566699D01*
X213965890Y-39563223D01*
X213962895Y-39561576D01*
X213961901Y-39565627D01*
X213961877Y-39567236D01*
X213954337Y-39567236D01*
X213955774Y-39558362D01*
X213958499Y-39552649D01*
X213963088Y-39550626D01*
X213965314Y-39550513D01*
X213970005Y-39549241D01*
X213970239Y-39547168D01*
X213970504Y-39544086D01*
X213971714Y-39543823D01*
X213974855Y-39541117D01*
X213975256Y-39538806D01*
X213977062Y-39534355D01*
X213978601Y-39533789D01*
X213981568Y-39536498D01*
X213981945Y-39538806D01*
X213980139Y-39543257D01*
X213978601Y-39543823D01*
X213975772Y-39546583D01*
X213975272Y-39549676D01*
X213976766Y-39551704D01*
X213980803Y-39548622D01*
X213986754Y-39541213D01*
X213993993Y-39530258D01*
X214001892Y-39516540D01*
X214001969Y-39516398D01*
X214008395Y-39502653D01*
X214010575Y-39492792D01*
X214010180Y-39489046D01*
X214009897Y-39480247D01*
X214011644Y-39474662D01*
X214013995Y-39471593D01*
X214015078Y-39473763D01*
X214015393Y-39480273D01*
X214015950Y-39486774D01*
X214017452Y-39488030D01*
X214020116Y-39483720D01*
X214024161Y-39473528D01*
X214028462Y-39461146D01*
X214032839Y-39443948D01*
X214035498Y-39425114D01*
X214035902Y-39417665D01*
X214036248Y-39406590D01*
X214036803Y-39401757D01*
X214037673Y-39402718D01*
X214038545Y-39406689D01*
X214039748Y-39411988D01*
X214040722Y-39412599D01*
X214041721Y-39407896D01*
X214042993Y-39397253D01*
X214043236Y-39394982D01*
X214043898Y-39382609D01*
X214043758Y-39367363D01*
X214042947Y-39350787D01*
X214041598Y-39334425D01*
X214039844Y-39319822D01*
X214037817Y-39308519D01*
X214035650Y-39302060D01*
X214035221Y-39301496D01*
X214032539Y-39295656D01*
X214032116Y-39292101D01*
X214030713Y-39287913D01*
X214028772Y-39287950D01*
X214025690Y-39287685D01*
X214025427Y-39286475D01*
X214022627Y-39283598D01*
X214018737Y-39282933D01*
X214012933Y-39280367D01*
X214011630Y-39276243D01*
X214010903Y-39268773D01*
X214009075Y-39263399D01*
X214007544Y-39260913D01*
X214015657Y-39260913D01*
X214016272Y-39265252D01*
X214017414Y-39265303D01*
X214018212Y-39260827D01*
X214017678Y-39258893D01*
X214016192Y-39257626D01*
X214015657Y-39260913D01*
X214007544Y-39260913D01*
X214004858Y-39256550D01*
X214004121Y-39255446D01*
X214000389Y-39247937D01*
X213999701Y-39242239D01*
X213999763Y-39242067D01*
X214001276Y-39240375D01*
X214001750Y-39243223D01*
X214004389Y-39249874D01*
X214007031Y-39252830D01*
X214011120Y-39255327D01*
X214011493Y-39252795D01*
X214008144Y-39245000D01*
X214006727Y-39242208D01*
X213997251Y-39228725D01*
X213985630Y-39219680D01*
X213973275Y-39216155D01*
X213972747Y-39216144D01*
X213964869Y-39215064D01*
X213961989Y-39211479D01*
X213961877Y-39210018D01*
X213959759Y-39202598D01*
X213957863Y-39199983D01*
X213956145Y-39196672D01*
X213959192Y-39195943D01*
X213965567Y-39197870D01*
X213968786Y-39199432D01*
X213974342Y-39201967D01*
X213975096Y-39201325D01*
X213971670Y-39198243D01*
X213964689Y-39193460D01*
X213962713Y-39192238D01*
X213954327Y-39186751D01*
X213948395Y-39182167D01*
X213947346Y-39181095D01*
X213945716Y-39180319D01*
X213946301Y-39183156D01*
X213945690Y-39188130D01*
X213942592Y-39194537D01*
X213938469Y-39200143D01*
X213934785Y-39202716D01*
X213933724Y-39202359D01*
X213932291Y-39198483D01*
X213930450Y-39190616D01*
X213930028Y-39188444D01*
X213928947Y-39180181D01*
X213930252Y-39176515D01*
X213933910Y-39175628D01*
X213935958Y-39174520D01*
X213931640Y-39171710D01*
X213928852Y-39170433D01*
X213919314Y-39167469D01*
X213911099Y-39166805D01*
X213910456Y-39166905D01*
X213906552Y-39167941D01*
X213908882Y-39168536D01*
X213912344Y-39168756D01*
X213919549Y-39169929D01*
X213922892Y-39171720D01*
X213920595Y-39172994D01*
X213913113Y-39174095D01*
X213901948Y-39174821D01*
X213899373Y-39174904D01*
X213885619Y-39175602D01*
X213876809Y-39177075D01*
X213871206Y-39179743D01*
X213868364Y-39182429D01*
X213860927Y-39188504D01*
X213855026Y-39188087D01*
X213850951Y-39181259D01*
X213850001Y-39177320D01*
X213849224Y-39168517D01*
X213851122Y-39162213D01*
X213856348Y-39158261D01*
X213865558Y-39156518D01*
X213879407Y-39156839D01*
G37*
D14*
%TO.C,R3*%
X183872936Y-58265000D02*
X184327064Y-58265000D01*
X183872936Y-59735000D02*
X184327064Y-59735000D01*
%TO.C,U6*%
D13*
X200800000Y-48700000D02*
X195800000Y-48700000D01*
X195800000Y-54200000D01*
X200800000Y-54200000D01*
X200800000Y-48700000D01*
X202300000Y-38200000D02*
X184500000Y-38200000D01*
X184500000Y-56000000D01*
X202300000Y-56000000D01*
X202300000Y-38200000D01*
X193447640Y-41700000D02*
G75*
G02*
X188152360Y-41700000I-2647640J0D01*
G01*
X188152360Y-41700000D02*
G75*
G02*
X193447640Y-41700000I2647640J0D01*
G01*
X193447640Y-48700000D02*
G75*
G02*
X188152360Y-48700000I-2647640J0D01*
G01*
X188152360Y-48700000D02*
G75*
G02*
X193447640Y-48700000I2647640J0D01*
G01*
D15*
%TO.C,G\u002A\u002A\u002A*%
G36*
X213862601Y-42962467D02*
G01*
X213911206Y-42976488D01*
X213955034Y-42999070D01*
X213993182Y-43029444D01*
X214024746Y-43066837D01*
X214048824Y-43110477D01*
X214064510Y-43159594D01*
X214067827Y-43177776D01*
X214070960Y-43198074D01*
X214073461Y-43209574D01*
X214076253Y-43213949D01*
X214080259Y-43212869D01*
X214085101Y-43209080D01*
X214106462Y-43190510D01*
X214121842Y-43174645D01*
X214134060Y-43158312D01*
X214142483Y-43144479D01*
X214151457Y-43127594D01*
X214155095Y-43116640D01*
X214154129Y-43108873D01*
X214152706Y-43106186D01*
X214147657Y-43094636D01*
X214146603Y-43088540D01*
X214142304Y-43081028D01*
X214131786Y-43073045D01*
X214130120Y-43072143D01*
X214119532Y-43065264D01*
X214118069Y-43059674D01*
X214119611Y-43057646D01*
X214128015Y-43054326D01*
X214140543Y-43057319D01*
X214156574Y-43059553D01*
X214168721Y-43052334D01*
X214177478Y-43035322D01*
X214178880Y-43030660D01*
X214184742Y-43017132D01*
X214191947Y-43011627D01*
X214192432Y-43011604D01*
X214197259Y-43013352D01*
X214198750Y-43020237D01*
X214197362Y-43034720D01*
X214197074Y-43036739D01*
X214193426Y-43061874D01*
X214207274Y-43043354D01*
X214217118Y-43031996D01*
X214225405Y-43025458D01*
X214227519Y-43024833D01*
X214234083Y-43028671D01*
X214235056Y-43038052D01*
X214230809Y-43049775D01*
X214223552Y-43059022D01*
X214212820Y-43070845D01*
X214211293Y-43077487D01*
X214218968Y-43078926D01*
X214225849Y-43077778D01*
X214241569Y-43076406D01*
X214249311Y-43080611D01*
X214248993Y-43088502D01*
X214241582Y-43094283D01*
X214228058Y-43096270D01*
X214216040Y-43097408D01*
X214210208Y-43100193D01*
X214210103Y-43100668D01*
X214205941Y-43106068D01*
X214196641Y-43112270D01*
X214187084Y-43120682D01*
X214175814Y-43135285D01*
X214166929Y-43149964D01*
X214140621Y-43191160D01*
X214110754Y-43222893D01*
X214092039Y-43236732D01*
X214079631Y-43245495D01*
X214071203Y-43254808D01*
X214064636Y-43267871D01*
X214057814Y-43287885D01*
X214057475Y-43288974D01*
X214037503Y-43335933D01*
X214008609Y-43378654D01*
X213972115Y-43415564D01*
X213929341Y-43445091D01*
X213923756Y-43448113D01*
X213906555Y-43457541D01*
X213893728Y-43465314D01*
X213887552Y-43470030D01*
X213887312Y-43470532D01*
X213888194Y-43476936D01*
X213890513Y-43490952D01*
X213893772Y-43509789D01*
X213897476Y-43530654D01*
X213901132Y-43550752D01*
X213904243Y-43567293D01*
X213906054Y-43576299D01*
X213911784Y-43585700D01*
X213925492Y-43592447D01*
X213930534Y-43593926D01*
X213949429Y-43601940D01*
X213966185Y-43614096D01*
X213978123Y-43627974D01*
X213982562Y-43640905D01*
X213980954Y-43649678D01*
X213978593Y-43651784D01*
X213971948Y-43650347D01*
X213958405Y-43646710D01*
X213940757Y-43641695D01*
X213921796Y-43636124D01*
X213904314Y-43630819D01*
X213891102Y-43626602D01*
X213884954Y-43624295D01*
X213884822Y-43624183D01*
X213883832Y-43618683D01*
X213881878Y-43605037D01*
X213879287Y-43585601D01*
X213877612Y-43572520D01*
X213874155Y-43547196D01*
X213870380Y-43522782D01*
X213866922Y-43503291D01*
X213865787Y-43497848D01*
X213860309Y-43473446D01*
X213835446Y-43478348D01*
X213813016Y-43480601D01*
X213784458Y-43480376D01*
X213753891Y-43477842D01*
X213729462Y-43474011D01*
X213714797Y-43471078D01*
X213705830Y-43520476D01*
X213701366Y-43546102D01*
X213697263Y-43571457D01*
X213694208Y-43592233D01*
X213693513Y-43597634D01*
X213690162Y-43625393D01*
X213655122Y-43635695D01*
X213628672Y-43643407D01*
X213610723Y-43648269D01*
X213599627Y-43650435D01*
X213593736Y-43650055D01*
X213591403Y-43647285D01*
X213590979Y-43642276D01*
X213590978Y-43641645D01*
X213595958Y-43627134D01*
X213609780Y-43612932D01*
X213630772Y-43600534D01*
X213642169Y-43595921D01*
X213668322Y-43586632D01*
X213677678Y-43531334D01*
X213681786Y-43507826D01*
X213685508Y-43487908D01*
X213688361Y-43474093D01*
X213689617Y-43469305D01*
X213686720Y-43463057D01*
X213675888Y-43453564D01*
X213660957Y-43443595D01*
X213620240Y-43412809D01*
X213586551Y-43374682D01*
X213560783Y-43330499D01*
X213543832Y-43281542D01*
X213541827Y-43272522D01*
X213536373Y-43251895D01*
X213528705Y-43237373D01*
X213527255Y-43235849D01*
X213549223Y-43235849D01*
X213550881Y-43248541D01*
X213554402Y-43268343D01*
X213564128Y-43303209D01*
X213579624Y-43338294D01*
X213598913Y-43369647D01*
X213614317Y-43387976D01*
X213655150Y-43422426D01*
X213699197Y-43446810D01*
X213746328Y-43461087D01*
X213796415Y-43465213D01*
X213836711Y-43461480D01*
X213883684Y-43448605D01*
X213927516Y-43426593D01*
X213966820Y-43396744D01*
X214000213Y-43360358D01*
X214026308Y-43318734D01*
X214043719Y-43273173D01*
X214045641Y-43265456D01*
X214050959Y-43220614D01*
X214047499Y-43173724D01*
X214035713Y-43127923D01*
X214021132Y-43095157D01*
X213995028Y-43057846D01*
X213961273Y-43026138D01*
X213921688Y-43000914D01*
X213878095Y-42983059D01*
X213832316Y-42973455D01*
X213786173Y-42972986D01*
X213772677Y-42974734D01*
X213755163Y-42977536D01*
X213741769Y-42979559D01*
X213736499Y-42980244D01*
X213738396Y-42981464D01*
X213748468Y-42984228D01*
X213764335Y-42987891D01*
X213798892Y-42999033D01*
X213825107Y-43016086D01*
X213843957Y-43039936D01*
X213856415Y-43071469D01*
X213856472Y-43071682D01*
X213859790Y-43102963D01*
X213854787Y-43137495D01*
X213842247Y-43173134D01*
X213822956Y-43207740D01*
X213797698Y-43239169D01*
X213793567Y-43243355D01*
X213760945Y-43270507D01*
X213726697Y-43290037D01*
X213692096Y-43301910D01*
X213658412Y-43306091D01*
X213626919Y-43302544D01*
X213598889Y-43291232D01*
X213575593Y-43272121D01*
X213560551Y-43249887D01*
X213553840Y-43237175D01*
X213550137Y-43232278D01*
X213549223Y-43235849D01*
X213527255Y-43235849D01*
X213516436Y-43224478D01*
X213516030Y-43224121D01*
X213493943Y-43200240D01*
X213473132Y-43169547D01*
X213456028Y-43135749D01*
X213452675Y-43127406D01*
X213440156Y-43102829D01*
X213424073Y-43083548D01*
X213406369Y-43071584D01*
X213396350Y-43068821D01*
X213383997Y-43063902D01*
X213380141Y-43057126D01*
X213380231Y-43050650D01*
X213385719Y-43048807D01*
X213396822Y-43050102D01*
X213412158Y-43051484D01*
X213418034Y-43048505D01*
X213414970Y-43040324D01*
X213408268Y-43031630D01*
X213397493Y-43015535D01*
X213396122Y-43003893D01*
X213401335Y-42997845D01*
X213407459Y-42997833D01*
X213415839Y-43005082D01*
X213427549Y-43020597D01*
X213430885Y-43025528D01*
X213434811Y-43030197D01*
X213436472Y-43027547D01*
X213436408Y-43016155D01*
X213436176Y-43011604D01*
X213437149Y-42994697D01*
X213441430Y-42987417D01*
X213447508Y-42989966D01*
X213453873Y-43002546D01*
X213455788Y-43008968D01*
X213461325Y-43027495D01*
X213467163Y-43037589D01*
X213475525Y-43041223D01*
X213488632Y-43040373D01*
X213490756Y-43040043D01*
X213504418Y-43038641D01*
X213510481Y-43040726D01*
X213511603Y-43045222D01*
X213507085Y-43052772D01*
X213498490Y-43057026D01*
X213486930Y-43064387D01*
X213476585Y-43078038D01*
X213470217Y-43093799D01*
X213469386Y-43101052D01*
X213472252Y-43113481D01*
X213479612Y-43130520D01*
X213489991Y-43149804D01*
X213501916Y-43168969D01*
X213513913Y-43185650D01*
X213524509Y-43197482D01*
X213532230Y-43202101D01*
X213532364Y-43202104D01*
X213535616Y-43197378D01*
X213540175Y-43184970D01*
X213545071Y-43167534D01*
X213545212Y-43166967D01*
X213561043Y-43119195D01*
X213577060Y-43090207D01*
X213707395Y-43090207D01*
X213710576Y-43106045D01*
X213718548Y-43119637D01*
X213728951Y-43127462D01*
X213732830Y-43128188D01*
X213744025Y-43131398D01*
X213752062Y-43136126D01*
X213769262Y-43142962D01*
X213790205Y-43142050D01*
X213811604Y-43133550D01*
X213812224Y-43133176D01*
X213829484Y-43117432D01*
X213839864Y-43097120D01*
X213843300Y-43074797D01*
X213839732Y-43053019D01*
X213829096Y-43034343D01*
X213814899Y-43023051D01*
X213793831Y-43017040D01*
X213773164Y-43020272D01*
X213758147Y-43030124D01*
X213747969Y-43038989D01*
X213740465Y-43043280D01*
X213739856Y-43043354D01*
X213731740Y-43047701D01*
X213722143Y-43058438D01*
X213713462Y-43072105D01*
X213708093Y-43085244D01*
X213707395Y-43090207D01*
X213577060Y-43090207D01*
X213583913Y-43077804D01*
X213614791Y-43040664D01*
X213655681Y-43005360D01*
X213686150Y-42987791D01*
X213723270Y-42987791D01*
X213725916Y-42990437D01*
X213728562Y-42987791D01*
X213725916Y-42985145D01*
X213723270Y-42987791D01*
X213686150Y-42987791D01*
X213699564Y-42980056D01*
X213747306Y-42964385D01*
X213799772Y-42957980D01*
X213810124Y-42957781D01*
X213862601Y-42962467D01*
G37*
D14*
%TO.C,R4*%
X206872936Y-44065000D02*
X207327064Y-44065000D01*
X206872936Y-45535000D02*
X207327064Y-45535000D01*
%TO.C,D1*%
X210400000Y-42260000D02*
X213085000Y-42260000D01*
X213085000Y-40340000D02*
X210400000Y-40340000D01*
X213085000Y-42260000D02*
X213085000Y-40340000D01*
D15*
%TO.C,G\u002A\u002A\u002A*%
G36*
X185348319Y-101298320D02*
G01*
X185356609Y-101302917D01*
X185362122Y-101311823D01*
X185364227Y-101318081D01*
X185365407Y-101329923D01*
X185363154Y-101342166D01*
X185358058Y-101352241D01*
X185355786Y-101354714D01*
X185346611Y-101359622D01*
X185334923Y-101361392D01*
X185325406Y-101360130D01*
X185316266Y-101354604D01*
X185309315Y-101345013D01*
X185305556Y-101333142D01*
X185305360Y-101324441D01*
X185308769Y-101310985D01*
X185315774Y-101302212D01*
X185326777Y-101297762D01*
X185335878Y-101297015D01*
X185348319Y-101298320D01*
G37*
G36*
X185726363Y-101297304D02*
G01*
X185736210Y-101304926D01*
X185738974Y-101308562D01*
X185744780Y-101319713D01*
X185745795Y-101330337D01*
X185742224Y-101342706D01*
X185742106Y-101342989D01*
X185734844Y-101354348D01*
X185725035Y-101360864D01*
X185713560Y-101362092D01*
X185707462Y-101360578D01*
X185696675Y-101353955D01*
X185689427Y-101344164D01*
X185685849Y-101332597D01*
X185686070Y-101320645D01*
X185690218Y-101309701D01*
X185698424Y-101301155D01*
X185701765Y-101299234D01*
X185714825Y-101295392D01*
X185726363Y-101297304D01*
G37*
G36*
X185666235Y-101375616D02*
G01*
X185669587Y-101377363D01*
X185671669Y-101379129D01*
X185676936Y-101387372D01*
X185676517Y-101397097D01*
X185674658Y-101401432D01*
X185670075Y-101404963D01*
X185660453Y-101408817D01*
X185646695Y-101412759D01*
X185629708Y-101416556D01*
X185610395Y-101419974D01*
X185594108Y-101422250D01*
X185579331Y-101423530D01*
X185560199Y-101424390D01*
X185538311Y-101424833D01*
X185515266Y-101424861D01*
X185492666Y-101424476D01*
X185472108Y-101423679D01*
X185455193Y-101422473D01*
X185451432Y-101422075D01*
X185433181Y-101419501D01*
X185415595Y-101416204D01*
X185399733Y-101412462D01*
X185386652Y-101408556D01*
X185377410Y-101404764D01*
X185373102Y-101401432D01*
X185370302Y-101391266D01*
X185373171Y-101382369D01*
X185375957Y-101379251D01*
X185378816Y-101377009D01*
X185382110Y-101375820D01*
X185387048Y-101375718D01*
X185394844Y-101376737D01*
X185406707Y-101378913D01*
X185414017Y-101380342D01*
X185457684Y-101387699D01*
X185498149Y-101391713D01*
X185537167Y-101392372D01*
X185576491Y-101389663D01*
X185617875Y-101383574D01*
X185642564Y-101378691D01*
X185654245Y-101376303D01*
X185661629Y-101375271D01*
X185666235Y-101375616D01*
G37*
G36*
X185507462Y-101116684D02*
G01*
X185526926Y-101116988D01*
X185546087Y-101117660D01*
X185563442Y-101118621D01*
X185577485Y-101119792D01*
X185585074Y-101120783D01*
X185617582Y-101127931D01*
X185650894Y-101138147D01*
X185683527Y-101150821D01*
X185713996Y-101165341D01*
X185740820Y-101181095D01*
X185753731Y-101190257D01*
X185771526Y-101205953D01*
X185789668Y-101225539D01*
X185806683Y-101247220D01*
X185821097Y-101269200D01*
X185826363Y-101278752D01*
X185832357Y-101290989D01*
X185837751Y-101303441D01*
X185842715Y-101316766D01*
X185847418Y-101331621D01*
X185852031Y-101348664D01*
X185856722Y-101368551D01*
X185861662Y-101391940D01*
X185867019Y-101419488D01*
X185872964Y-101451853D01*
X185877283Y-101476119D01*
X185880204Y-101493648D01*
X185883745Y-101516553D01*
X185887830Y-101544284D01*
X185892378Y-101576289D01*
X185897311Y-101612016D01*
X185902551Y-101650912D01*
X185907450Y-101688060D01*
X185917660Y-101752055D01*
X185931426Y-101815889D01*
X185948414Y-101878424D01*
X185968287Y-101938528D01*
X185990711Y-101995064D01*
X186011102Y-102038632D01*
X186015922Y-102047966D01*
X186018928Y-102052658D01*
X186020978Y-102053408D01*
X186022928Y-102050912D01*
X186023916Y-102049080D01*
X186027216Y-102043392D01*
X186032832Y-102034274D01*
X186039797Y-102023282D01*
X186043356Y-102017765D01*
X186083954Y-101960223D01*
X186129845Y-101904237D01*
X186180452Y-101850271D01*
X186235201Y-101798788D01*
X186293515Y-101750252D01*
X186354818Y-101705126D01*
X186418534Y-101663873D01*
X186484087Y-101626957D01*
X186550901Y-101594841D01*
X186588721Y-101579098D01*
X186626697Y-101564179D01*
X186626781Y-101537960D01*
X186627130Y-101523759D01*
X186627818Y-101517808D01*
X186698507Y-101517808D01*
X186701017Y-101520036D01*
X186707497Y-101523735D01*
X186716371Y-101528170D01*
X186726060Y-101532603D01*
X186734989Y-101536298D01*
X186741580Y-101538518D01*
X186743521Y-101538844D01*
X186748441Y-101539717D01*
X186757063Y-101541953D01*
X186766361Y-101544714D01*
X186778429Y-101547908D01*
X186795047Y-101551481D01*
X186814825Y-101555191D01*
X186836375Y-101558798D01*
X186858308Y-101562063D01*
X186879236Y-101564745D01*
X186887239Y-101565624D01*
X186896301Y-101566220D01*
X186910396Y-101566711D01*
X186928586Y-101567084D01*
X186949935Y-101567326D01*
X186973505Y-101567426D01*
X186998360Y-101567370D01*
X187011940Y-101567272D01*
X187040007Y-101566984D01*
X187063037Y-101566644D01*
X187081963Y-101566197D01*
X187097716Y-101565589D01*
X187111230Y-101564765D01*
X187123438Y-101563671D01*
X187135271Y-101562250D01*
X187147663Y-101560449D01*
X187158968Y-101558639D01*
X187181729Y-101554529D01*
X187204184Y-101549793D01*
X187225628Y-101544648D01*
X187245355Y-101539307D01*
X187262660Y-101533987D01*
X187276839Y-101528902D01*
X187287185Y-101524268D01*
X187292995Y-101520300D01*
X187293771Y-101517492D01*
X187288977Y-101513761D01*
X187279224Y-101509240D01*
X187265432Y-101504190D01*
X187248519Y-101498870D01*
X187229404Y-101493540D01*
X187209006Y-101488461D01*
X187188243Y-101483891D01*
X187168035Y-101480090D01*
X187153731Y-101477893D01*
X187102689Y-101472271D01*
X187049747Y-101468886D01*
X186996136Y-101467711D01*
X186943083Y-101468721D01*
X186891818Y-101471890D01*
X186843571Y-101477192D01*
X186799571Y-101484600D01*
X186795522Y-101485441D01*
X186775622Y-101489990D01*
X186756317Y-101495021D01*
X186738459Y-101500250D01*
X186722902Y-101505392D01*
X186710499Y-101510162D01*
X186702102Y-101514276D01*
X186698566Y-101517450D01*
X186698507Y-101517808D01*
X186627818Y-101517808D01*
X186628322Y-101513445D01*
X186630731Y-101504954D01*
X186634209Y-101497250D01*
X186644330Y-101482176D01*
X186658803Y-101468585D01*
X186677907Y-101456344D01*
X186701920Y-101445317D01*
X186731119Y-101435369D01*
X186765784Y-101426366D01*
X186791688Y-101420896D01*
X186813081Y-101416928D01*
X186833224Y-101413705D01*
X186853093Y-101411157D01*
X186873664Y-101409214D01*
X186895912Y-101407804D01*
X186920814Y-101406858D01*
X186949345Y-101406305D01*
X186982482Y-101406073D01*
X186997014Y-101406055D01*
X187031457Y-101406167D01*
X187060925Y-101406549D01*
X187086408Y-101407273D01*
X187108898Y-101408412D01*
X187129386Y-101410036D01*
X187148864Y-101412218D01*
X187168323Y-101415030D01*
X187188753Y-101418543D01*
X187200833Y-101420814D01*
X187236875Y-101428621D01*
X187267826Y-101437293D01*
X187294536Y-101447145D01*
X187317860Y-101458490D01*
X187338489Y-101471527D01*
X187348563Y-101479208D01*
X187355611Y-101486335D01*
X187360166Y-101494219D01*
X187362757Y-101504171D01*
X187363918Y-101517500D01*
X187364179Y-101534867D01*
X187364300Y-101549012D01*
X187364783Y-101558287D01*
X187365800Y-101563787D01*
X187367527Y-101566610D01*
X187369402Y-101567633D01*
X187381336Y-101572252D01*
X187397111Y-101579179D01*
X187415383Y-101587764D01*
X187434806Y-101597356D01*
X187454036Y-101607306D01*
X187471728Y-101616963D01*
X187473295Y-101617850D01*
X187534730Y-101656082D01*
X187593767Y-101699458D01*
X187649785Y-101747425D01*
X187702168Y-101799428D01*
X187750295Y-101854915D01*
X187776802Y-101889552D01*
X187799792Y-101922992D01*
X187822086Y-101958996D01*
X187842758Y-101995910D01*
X187860883Y-102032081D01*
X187875460Y-102065671D01*
X187887853Y-102099312D01*
X187900672Y-102138301D01*
X187913753Y-102182046D01*
X187926933Y-102229955D01*
X187940049Y-102281435D01*
X187952935Y-102335895D01*
X187964117Y-102386567D01*
X187968033Y-102404772D01*
X187972141Y-102423620D01*
X187975989Y-102441054D01*
X187979126Y-102455018D01*
X187979514Y-102456716D01*
X187982409Y-102472262D01*
X187984834Y-102490634D01*
X187986400Y-102508686D01*
X187986694Y-102514925D01*
X187987769Y-102530882D01*
X187989961Y-102550714D01*
X187993023Y-102572487D01*
X187996710Y-102594264D01*
X187996944Y-102595522D01*
X188002808Y-102628247D01*
X188007099Y-102655956D01*
X188009819Y-102679394D01*
X188010969Y-102699303D01*
X188010550Y-102716427D01*
X188008564Y-102731511D01*
X188005011Y-102745296D01*
X187999892Y-102758529D01*
X187997207Y-102764241D01*
X187987402Y-102780014D01*
X187974975Y-102791749D01*
X187958541Y-102800642D01*
X187952238Y-102803072D01*
X187944645Y-102804867D01*
X187932405Y-102806720D01*
X187916840Y-102808517D01*
X187899271Y-102810147D01*
X187881020Y-102811498D01*
X187863408Y-102812458D01*
X187847755Y-102812913D01*
X187837313Y-102812832D01*
X187830262Y-102812565D01*
X187818573Y-102812092D01*
X187803573Y-102811468D01*
X187786587Y-102810748D01*
X187776119Y-102810297D01*
X187752169Y-102808979D01*
X187733131Y-102807164D01*
X187717954Y-102804590D01*
X187705582Y-102800995D01*
X187694965Y-102796119D01*
X187685049Y-102789698D01*
X187681094Y-102786679D01*
X187669763Y-102775824D01*
X187660541Y-102762534D01*
X187653248Y-102746206D01*
X187647704Y-102726238D01*
X187643730Y-102702028D01*
X187641146Y-102672973D01*
X187640063Y-102649254D01*
X187639344Y-102632444D01*
X187638392Y-102618474D01*
X187637293Y-102608254D01*
X187636130Y-102602695D01*
X187635623Y-102601961D01*
X187631543Y-102601985D01*
X187623063Y-102602901D01*
X187611659Y-102604533D01*
X187605137Y-102605594D01*
X187549053Y-102614416D01*
X187488251Y-102622757D01*
X187423974Y-102630485D01*
X187357462Y-102637470D01*
X187289960Y-102643579D01*
X187222708Y-102648681D01*
X187165671Y-102652181D01*
X187032591Y-102656827D01*
X186896878Y-102656540D01*
X186759206Y-102651358D01*
X186620247Y-102641318D01*
X186480672Y-102626460D01*
X186341155Y-102606822D01*
X186323107Y-102603928D01*
X186305342Y-102601108D01*
X186289686Y-102598754D01*
X186277058Y-102596992D01*
X186268372Y-102595951D01*
X186264545Y-102595757D01*
X186264454Y-102595797D01*
X186264231Y-102599052D01*
X186264418Y-102607155D01*
X186264969Y-102619001D01*
X186265840Y-102633483D01*
X186266200Y-102638806D01*
X186267465Y-102667579D01*
X186266825Y-102692106D01*
X186264180Y-102713830D01*
X186259719Y-102733187D01*
X186252214Y-102750546D01*
X186240545Y-102763957D01*
X186224458Y-102773621D01*
X186203699Y-102779738D01*
X186199993Y-102780390D01*
X186184972Y-102782031D01*
X186165280Y-102782999D01*
X186142172Y-102783333D01*
X186116904Y-102783072D01*
X186090733Y-102782254D01*
X186064914Y-102780917D01*
X186040703Y-102779100D01*
X186019357Y-102776842D01*
X186002985Y-102774344D01*
X185978113Y-102768409D01*
X185955652Y-102760580D01*
X185936481Y-102751286D01*
X185921476Y-102740957D01*
X185911515Y-102730021D01*
X185911138Y-102729423D01*
X185907949Y-102724061D01*
X185905496Y-102719060D01*
X185903800Y-102713722D01*
X185902883Y-102707352D01*
X185902766Y-102699252D01*
X185903471Y-102688727D01*
X185904090Y-102683271D01*
X185969167Y-102683271D01*
X185969673Y-102691921D01*
X185972383Y-102697731D01*
X185977703Y-102701718D01*
X185986042Y-102704896D01*
X185994833Y-102707449D01*
X186007312Y-102710393D01*
X186022020Y-102712752D01*
X186039652Y-102714578D01*
X186060900Y-102715922D01*
X186086457Y-102716835D01*
X186117017Y-102717370D01*
X186130231Y-102717485D01*
X186151503Y-102717580D01*
X186167589Y-102717506D01*
X186179269Y-102717209D01*
X186187327Y-102716637D01*
X186192543Y-102715738D01*
X186195700Y-102714459D01*
X186197395Y-102712979D01*
X186199801Y-102706790D01*
X186201464Y-102695327D01*
X186202359Y-102679240D01*
X186202462Y-102659181D01*
X186201748Y-102635804D01*
X186200860Y-102619513D01*
X186198507Y-102582309D01*
X186176119Y-102577459D01*
X186163317Y-102574710D01*
X186147182Y-102571282D01*
X186130225Y-102567706D01*
X186120895Y-102565752D01*
X186106817Y-102562765D01*
X186090246Y-102559173D01*
X186072242Y-102555215D01*
X186053868Y-102551128D01*
X186036185Y-102547153D01*
X186020256Y-102543526D01*
X186007141Y-102540488D01*
X185997903Y-102538275D01*
X185993907Y-102537226D01*
X185991899Y-102537541D01*
X185990180Y-102540392D01*
X185988542Y-102546599D01*
X185986779Y-102556980D01*
X185984687Y-102572353D01*
X185984303Y-102575370D01*
X185981695Y-102595061D01*
X185978563Y-102617338D01*
X185975349Y-102639112D01*
X185973130Y-102653385D01*
X185970455Y-102670764D01*
X185969167Y-102683271D01*
X185904090Y-102683271D01*
X185905019Y-102675078D01*
X185907432Y-102657610D01*
X185910732Y-102635625D01*
X185914858Y-102608955D01*
X185917218Y-102592023D01*
X185919409Y-102573277D01*
X185921051Y-102556058D01*
X185921382Y-102551649D01*
X185923267Y-102524194D01*
X185906899Y-102516955D01*
X185901099Y-102514203D01*
X185896043Y-102511117D01*
X185891059Y-102506965D01*
X185885474Y-102501015D01*
X185878614Y-102492537D01*
X185869808Y-102480799D01*
X185858383Y-102465070D01*
X185855505Y-102461076D01*
X185850868Y-102454521D01*
X185947454Y-102454521D01*
X185947650Y-102458029D01*
X185951445Y-102460321D01*
X185957426Y-102461960D01*
X185962595Y-102463053D01*
X185972644Y-102465337D01*
X185986650Y-102468595D01*
X186003690Y-102472611D01*
X186022841Y-102477170D01*
X186035325Y-102480164D01*
X186175204Y-102511316D01*
X186314447Y-102537278D01*
X186453996Y-102558180D01*
X186594794Y-102574148D01*
X186737784Y-102585312D01*
X186844776Y-102590527D01*
X186866688Y-102591139D01*
X186893324Y-102591569D01*
X186923438Y-102591822D01*
X186955787Y-102591902D01*
X186989125Y-102591814D01*
X187022210Y-102591562D01*
X187053795Y-102591150D01*
X187082637Y-102590583D01*
X187107492Y-102589864D01*
X187114925Y-102589582D01*
X187135141Y-102588464D01*
X187705970Y-102588464D01*
X187706028Y-102643485D01*
X187706171Y-102664952D01*
X187706603Y-102681517D01*
X187707402Y-102694243D01*
X187708645Y-102704195D01*
X187710411Y-102712437D01*
X187711330Y-102715654D01*
X187715473Y-102726772D01*
X187720697Y-102734547D01*
X187728141Y-102739676D01*
X187738944Y-102742858D01*
X187754245Y-102744790D01*
X187759549Y-102745207D01*
X187773657Y-102745959D01*
X187790878Y-102746457D01*
X187810270Y-102746717D01*
X187830891Y-102746754D01*
X187851800Y-102746584D01*
X187872055Y-102746221D01*
X187890714Y-102745680D01*
X187906834Y-102744977D01*
X187919476Y-102744127D01*
X187927695Y-102743146D01*
X187930207Y-102742452D01*
X187937714Y-102735800D01*
X187942803Y-102725138D01*
X187945492Y-102710188D01*
X187945799Y-102690667D01*
X187943741Y-102666297D01*
X187939335Y-102636795D01*
X187937465Y-102626397D01*
X187934274Y-102608961D01*
X187931329Y-102592332D01*
X187928879Y-102577958D01*
X187927175Y-102567285D01*
X187926683Y-102563815D01*
X187925168Y-102554405D01*
X187923491Y-102547323D01*
X187922651Y-102545202D01*
X187919453Y-102544096D01*
X187911929Y-102544723D01*
X187899571Y-102547151D01*
X187889403Y-102549553D01*
X187877574Y-102552338D01*
X187861142Y-102556028D01*
X187841356Y-102560353D01*
X187819468Y-102565041D01*
X187796725Y-102569821D01*
X187782089Y-102572846D01*
X187705970Y-102588464D01*
X187135141Y-102588464D01*
X187235659Y-102582905D01*
X187355745Y-102572849D01*
X187474211Y-102559534D01*
X187590084Y-102543080D01*
X187702390Y-102523606D01*
X187783582Y-102507116D01*
X187815565Y-102500154D01*
X187842161Y-102494283D01*
X187863832Y-102489383D01*
X187881037Y-102485336D01*
X187894238Y-102482025D01*
X187903893Y-102479331D01*
X187910463Y-102477137D01*
X187914410Y-102475322D01*
X187916192Y-102473770D01*
X187916417Y-102472999D01*
X187915759Y-102468042D01*
X187913906Y-102458098D01*
X187911040Y-102443987D01*
X187907345Y-102426531D01*
X187903004Y-102406550D01*
X187898200Y-102384867D01*
X187893115Y-102362302D01*
X187887933Y-102339676D01*
X187882836Y-102317810D01*
X187878007Y-102297526D01*
X187873629Y-102279646D01*
X187871317Y-102270498D01*
X187857347Y-102218192D01*
X187843522Y-102171083D01*
X187829495Y-102128420D01*
X187814919Y-102089452D01*
X187799445Y-102053426D01*
X187782726Y-102019590D01*
X187764415Y-101987192D01*
X187744163Y-101955481D01*
X187721624Y-101923705D01*
X187696450Y-101891112D01*
X187695199Y-101889552D01*
X187648018Y-101835342D01*
X187597005Y-101785578D01*
X187541846Y-101739978D01*
X187486567Y-101701067D01*
X187473452Y-101692838D01*
X187458174Y-101683750D01*
X187441648Y-101674295D01*
X187424788Y-101664962D01*
X187408510Y-101656243D01*
X187393730Y-101648629D01*
X187381363Y-101642609D01*
X187372324Y-101638674D01*
X187367602Y-101637313D01*
X187366078Y-101639564D01*
X187365012Y-101646574D01*
X187364369Y-101658732D01*
X187364118Y-101676425D01*
X187364113Y-101678358D01*
X187363632Y-101700401D01*
X187362109Y-101717343D01*
X187359307Y-101729999D01*
X187354990Y-101739185D01*
X187348918Y-101745715D01*
X187343496Y-101749143D01*
X187333298Y-101753390D01*
X187318100Y-101758342D01*
X187298803Y-101763793D01*
X187276307Y-101769535D01*
X187251512Y-101775363D01*
X187225320Y-101781070D01*
X187198630Y-101786449D01*
X187172343Y-101791294D01*
X187147359Y-101795399D01*
X187132378Y-101797555D01*
X187112282Y-101799641D01*
X187087442Y-101801246D01*
X187059062Y-101802369D01*
X187028349Y-101803010D01*
X186996509Y-101803169D01*
X186964747Y-101802847D01*
X186934269Y-101802042D01*
X186906282Y-101800755D01*
X186881990Y-101798986D01*
X186868668Y-101797567D01*
X186825724Y-101791380D01*
X186781439Y-101783509D01*
X186737758Y-101774352D01*
X186696623Y-101764311D01*
X186668305Y-101756347D01*
X186654847Y-101751427D01*
X186644557Y-101745261D01*
X186637040Y-101737054D01*
X186631906Y-101726006D01*
X186628762Y-101711320D01*
X186627216Y-101692200D01*
X186626865Y-101672042D01*
X186626613Y-101654040D01*
X186625860Y-101641786D01*
X186625841Y-101641686D01*
X186689552Y-101641686D01*
X186689605Y-101660675D01*
X186689821Y-101674550D01*
X186690280Y-101684163D01*
X186691063Y-101690369D01*
X186692252Y-101694023D01*
X186693929Y-101695979D01*
X186694776Y-101696488D01*
X186699486Y-101698194D01*
X186708881Y-101700849D01*
X186723209Y-101704517D01*
X186742721Y-101709260D01*
X186767664Y-101715139D01*
X186786567Y-101719522D01*
X186800538Y-101722350D01*
X186818932Y-101725503D01*
X186840226Y-101728765D01*
X186862898Y-101731925D01*
X186885424Y-101734768D01*
X186906282Y-101737081D01*
X186921996Y-101738505D01*
X186973350Y-101740990D01*
X187026396Y-101740849D01*
X187070149Y-101738656D01*
X187112254Y-101734540D01*
X187156337Y-101728446D01*
X187200426Y-101720721D01*
X187242550Y-101711710D01*
X187280737Y-101701760D01*
X187281343Y-101701584D01*
X187298507Y-101696591D01*
X187298507Y-101642752D01*
X187298471Y-101623627D01*
X187298311Y-101609704D01*
X187297949Y-101600216D01*
X187297308Y-101594394D01*
X187296311Y-101591472D01*
X187294879Y-101590681D01*
X187293283Y-101591103D01*
X187288017Y-101593027D01*
X187278869Y-101596111D01*
X187267659Y-101599746D01*
X187265672Y-101600376D01*
X187225285Y-101611250D01*
X187180316Y-101619973D01*
X187131750Y-101626547D01*
X187080573Y-101630977D01*
X187027770Y-101633266D01*
X186974326Y-101633417D01*
X186921226Y-101631435D01*
X186869456Y-101627321D01*
X186820001Y-101621080D01*
X186773846Y-101612716D01*
X186731978Y-101602230D01*
X186719785Y-101598473D01*
X186707881Y-101594657D01*
X186698269Y-101591656D01*
X186692251Y-101589872D01*
X186690907Y-101589552D01*
X186690468Y-101592378D01*
X186690088Y-101600217D01*
X186689792Y-101612114D01*
X186689606Y-101627112D01*
X186689552Y-101641686D01*
X186625841Y-101641686D01*
X186624614Y-101635357D01*
X186623652Y-101634328D01*
X186618197Y-101635661D01*
X186608305Y-101639394D01*
X186594811Y-101645126D01*
X186578548Y-101652459D01*
X186560353Y-101660992D01*
X186541060Y-101670325D01*
X186521505Y-101680059D01*
X186502523Y-101689794D01*
X186484948Y-101699129D01*
X186469617Y-101707666D01*
X186465671Y-101709958D01*
X186396530Y-101753687D01*
X186331569Y-101801101D01*
X186271000Y-101851998D01*
X186215037Y-101906172D01*
X186163891Y-101963421D01*
X186117774Y-102023542D01*
X186082021Y-102077841D01*
X186050549Y-102134116D01*
X186022236Y-102194334D01*
X185997645Y-102257063D01*
X185977344Y-102320867D01*
X185962665Y-102380597D01*
X185959211Y-102396938D01*
X185955720Y-102413168D01*
X185952618Y-102427316D01*
X185950490Y-102436731D01*
X185948457Y-102446793D01*
X185947454Y-102454521D01*
X185850868Y-102454521D01*
X185823657Y-102416054D01*
X185795476Y-102374403D01*
X185770463Y-102335220D01*
X185748118Y-102297603D01*
X185727939Y-102260647D01*
X185709427Y-102223451D01*
X185692080Y-102185112D01*
X185675399Y-102144725D01*
X185664476Y-102116418D01*
X185645659Y-102063202D01*
X185629492Y-102010241D01*
X185615799Y-101956621D01*
X185604405Y-101901430D01*
X185595136Y-101843756D01*
X185587815Y-101782687D01*
X185582268Y-101717309D01*
X185579665Y-101674627D01*
X185577611Y-101635821D01*
X185561194Y-101637313D01*
X185542881Y-101638478D01*
X185521811Y-101639007D01*
X185499392Y-101638941D01*
X185477031Y-101638325D01*
X185456137Y-101637198D01*
X185438119Y-101635605D01*
X185424385Y-101633586D01*
X185422388Y-101633160D01*
X185378850Y-101621365D01*
X185340276Y-101606914D01*
X185306167Y-101589559D01*
X185276024Y-101569056D01*
X185254438Y-101550228D01*
X185234494Y-101526780D01*
X185219114Y-101499793D01*
X185208363Y-101469649D01*
X185202307Y-101436735D01*
X185201454Y-101413538D01*
X185265718Y-101413538D01*
X185268522Y-101440938D01*
X185275141Y-101465367D01*
X185282599Y-101481173D01*
X185291913Y-101493884D01*
X185305110Y-101507662D01*
X185320633Y-101521117D01*
X185336920Y-101532861D01*
X185347854Y-101539276D01*
X185371522Y-101549932D01*
X185398901Y-101559484D01*
X185428131Y-101567466D01*
X185457353Y-101573416D01*
X185484706Y-101576868D01*
X185501272Y-101577553D01*
X185535580Y-101575271D01*
X185573869Y-101568631D01*
X185616057Y-101557651D01*
X185648597Y-101547138D01*
X185663881Y-101541977D01*
X185674694Y-101538747D01*
X185682131Y-101537219D01*
X185687288Y-101537167D01*
X185691134Y-101538304D01*
X185697020Y-101543780D01*
X185698454Y-101551602D01*
X185695107Y-101559801D01*
X185694776Y-101560227D01*
X185690331Y-101563356D01*
X185681823Y-101567555D01*
X185670866Y-101572051D01*
X185667518Y-101573280D01*
X185643992Y-101581682D01*
X185645663Y-101666960D01*
X185647485Y-101721034D01*
X185650833Y-101770857D01*
X185655865Y-101817989D01*
X185662736Y-101863989D01*
X185668792Y-101896685D01*
X185688643Y-101981574D01*
X185713836Y-102063884D01*
X185744337Y-102143533D01*
X185780112Y-102220441D01*
X185821125Y-102294526D01*
X185867342Y-102365707D01*
X185867966Y-102366597D01*
X185878265Y-102380791D01*
X185885926Y-102390275D01*
X185890813Y-102394894D01*
X185892646Y-102394956D01*
X185894219Y-102390128D01*
X185896310Y-102381390D01*
X185898273Y-102371642D01*
X185903833Y-102345911D01*
X185911597Y-102316246D01*
X185921109Y-102284056D01*
X185931911Y-102250750D01*
X185943548Y-102217739D01*
X185955563Y-102186431D01*
X185967011Y-102159332D01*
X185982504Y-102124635D01*
X185959675Y-102079052D01*
X185939737Y-102037421D01*
X185921610Y-101995926D01*
X185905800Y-101955827D01*
X185892814Y-101918381D01*
X185886196Y-101896313D01*
X185876341Y-101859832D01*
X185867911Y-101826035D01*
X185860623Y-101793486D01*
X185854195Y-101760744D01*
X185848344Y-101726371D01*
X185842789Y-101688930D01*
X185837247Y-101646980D01*
X185837179Y-101646442D01*
X185834306Y-101623849D01*
X185831541Y-101602545D01*
X185829006Y-101583437D01*
X185826824Y-101567433D01*
X185825116Y-101555440D01*
X185824005Y-101548367D01*
X185823926Y-101547934D01*
X185822264Y-101538270D01*
X185820238Y-101525269D01*
X185818249Y-101511516D01*
X185817984Y-101509590D01*
X185816386Y-101499212D01*
X185813838Y-101484257D01*
X185810567Y-101465999D01*
X185806805Y-101445715D01*
X185802782Y-101424678D01*
X185801453Y-101417875D01*
X185794940Y-101386405D01*
X185788617Y-101360007D01*
X185782093Y-101337812D01*
X185774979Y-101318950D01*
X185766885Y-101302553D01*
X185757421Y-101287750D01*
X185746198Y-101273672D01*
X185732825Y-101259449D01*
X185728541Y-101255224D01*
X185704605Y-101235205D01*
X185676750Y-101218076D01*
X185644524Y-101203624D01*
X185607474Y-101191636D01*
X185579104Y-101184741D01*
X185557375Y-101181297D01*
X185532679Y-101179418D01*
X185506874Y-101179086D01*
X185481819Y-101180287D01*
X185459371Y-101183005D01*
X185446073Y-101185837D01*
X185409856Y-101197990D01*
X185376838Y-101213998D01*
X185347474Y-101233486D01*
X185322220Y-101256076D01*
X185301533Y-101281391D01*
X185285868Y-101309054D01*
X185280329Y-101322879D01*
X185271608Y-101353570D01*
X185266743Y-101384103D01*
X185265718Y-101413538D01*
X185201454Y-101413538D01*
X185201009Y-101401434D01*
X185204537Y-101364131D01*
X185212954Y-101325210D01*
X185215039Y-101317910D01*
X185224466Y-101289776D01*
X185235091Y-101265993D01*
X185247843Y-101244945D01*
X185263651Y-101225019D01*
X185276119Y-101211790D01*
X185309778Y-101181856D01*
X185346026Y-101157250D01*
X185385229Y-101137757D01*
X185427753Y-101123163D01*
X185427829Y-101123142D01*
X185437411Y-101120685D01*
X185446415Y-101118913D01*
X185456085Y-101117725D01*
X185467662Y-101117021D01*
X185482393Y-101116700D01*
X185501519Y-101116660D01*
X185507462Y-101116684D01*
G37*
D14*
%TO.C,Q1*%
X195440000Y-62420000D02*
X195440000Y-63350000D01*
X195440000Y-62420000D02*
X196900000Y-62420000D01*
X195440000Y-65580000D02*
X195440000Y-64650000D01*
X196240000Y-65580000D02*
X195440000Y-65580000D01*
X196240000Y-65580000D02*
X197040000Y-65580000D01*
X197780000Y-65940000D02*
X197300000Y-65940000D01*
X197540000Y-65610000D01*
X197780000Y-65940000D01*
G36*
X197780000Y-65940000D02*
G01*
X197300000Y-65940000D01*
X197540000Y-65610000D01*
X197780000Y-65940000D01*
G37*
%TO.C,U4*%
D13*
X169460000Y-76430000D02*
X167480000Y-76430000D01*
X167480000Y-79820000D01*
X169460000Y-79820000D01*
X169460000Y-76430000D01*
X181530000Y-79090000D02*
X179800000Y-79090000D01*
X179800000Y-81830000D01*
X181530000Y-81830000D01*
X181530000Y-79090000D01*
X184190000Y-76180000D02*
X181530000Y-76180000D01*
X181530000Y-77940000D01*
X184190000Y-77940000D01*
X184190000Y-76180000D01*
X186410000Y-72730000D02*
X163510000Y-72730000D01*
X163510000Y-85430000D01*
X186410000Y-85430000D01*
X186410000Y-72730000D01*
X167100000Y-82930000D02*
G75*
G02*
X164920000Y-82930000I-1090000J0D01*
G01*
X164920000Y-82930000D02*
G75*
G02*
X167100000Y-82930000I1090000J0D01*
G01*
X185000000Y-82930000D02*
G75*
G02*
X182820000Y-82930000I-1090000J0D01*
G01*
X182820000Y-82930000D02*
G75*
G02*
X185000000Y-82930000I1090000J0D01*
G01*
D16*
%TO.C,U5*%
X162010000Y-62060000D02*
X162010000Y-41740000D01*
X164550000Y-39200000D02*
X177250000Y-39200000D01*
X177250000Y-64600000D02*
X164550000Y-64600000D01*
X179790000Y-41740000D02*
X179790000Y-62060000D01*
X162010000Y-41740000D02*
G75*
G02*
X164550000Y-39200000I2540001J-1D01*
G01*
X164550000Y-64600000D02*
G75*
G02*
X162010000Y-62060000I0J2540000D01*
G01*
X177250000Y-39200000D02*
G75*
G02*
X179790000Y-41740000I-1J-2540001D01*
G01*
X179790000Y-62060000D02*
G75*
G02*
X177250000Y-64600000I-2540000J0D01*
G01*
D14*
%TO.C,R1*%
X207264564Y-40565000D02*
X206810436Y-40565000D01*
X207264564Y-42035000D02*
X206810436Y-42035000D01*
%TO.C,TP-5V*%
X192400000Y-62400000D02*
G75*
G02*
X189800000Y-62400000I-1300000J0D01*
G01*
X189800000Y-62400000D02*
G75*
G02*
X192400000Y-62400000I1300000J0D01*
G01*
%TO.C,J1*%
X205790000Y-46940000D02*
X205790000Y-47860000D01*
X205790000Y-47860000D02*
X207390000Y-47860000D01*
X205790000Y-66140000D02*
X205790000Y-67060000D01*
X205790000Y-67060000D02*
X213610000Y-67060000D01*
X207390000Y-46940000D02*
X207390000Y-47860000D01*
X207390000Y-47860000D02*
X207390000Y-48140000D01*
X207390000Y-65860000D02*
X206175000Y-65860000D01*
X207390000Y-65860000D02*
X207390000Y-66140000D01*
X207390000Y-66140000D02*
X205790000Y-66140000D01*
X207390000Y-67060000D02*
X207390000Y-66140000D01*
X209250000Y-49500000D02*
X213610000Y-49500000D01*
X209250000Y-64500000D02*
X209250000Y-49500000D01*
X211350000Y-65300000D02*
X213610000Y-65300000D01*
X211350000Y-65800000D02*
X213610000Y-65800000D01*
X213610000Y-46940000D02*
X205790000Y-46940000D01*
X213610000Y-64500000D02*
X209250000Y-64500000D01*
X213610000Y-67060000D02*
X213610000Y-46940000D01*
X209750000Y-48700000D02*
X211350000Y-48700000D01*
X211350000Y-47700000D01*
X209750000Y-47700000D01*
X209750000Y-48700000D01*
X209750000Y-66300000D02*
X211350000Y-66300000D01*
X211350000Y-65300000D01*
X209750000Y-65300000D01*
X209750000Y-66300000D01*
%TO.C,TP-GND*%
X204900000Y-65000000D02*
G75*
G02*
X202300000Y-65000000I-1300000J0D01*
G01*
X202300000Y-65000000D02*
G75*
G02*
X204900000Y-65000000I1300000J0D01*
G01*
D15*
%TO.C,G\u002A\u002A\u002A*%
G36*
X168141218Y-102887228D02*
G01*
X168141435Y-102887786D01*
X168144208Y-102906473D01*
X168143425Y-102914365D01*
X168140496Y-102923361D01*
X168135848Y-102919448D01*
X168131829Y-102912486D01*
X168127323Y-102894336D01*
X168129838Y-102885907D01*
X168136118Y-102879432D01*
X168141218Y-102887228D01*
G37*
G36*
X168337247Y-102841270D02*
G01*
X168342631Y-102856215D01*
X168343558Y-102872651D01*
X168340127Y-102884176D01*
X168336553Y-102886105D01*
X168329251Y-102879620D01*
X168324349Y-102867402D01*
X168322620Y-102849947D01*
X168325876Y-102838342D01*
X168332342Y-102836184D01*
X168337247Y-102841270D01*
G37*
G36*
X168159902Y-102766906D02*
G01*
X168179883Y-102789776D01*
X168196034Y-102824953D01*
X168206499Y-102868384D01*
X168210710Y-102915443D01*
X168208319Y-102959625D01*
X168199843Y-102997108D01*
X168185801Y-103024072D01*
X168185275Y-103024708D01*
X168167413Y-103041373D01*
X168149628Y-103045677D01*
X168127571Y-103038072D01*
X168116628Y-103031826D01*
X168088144Y-103006239D01*
X168069138Y-102969691D01*
X168059359Y-102921578D01*
X168058354Y-102900856D01*
X168077153Y-102900856D01*
X168082481Y-102937388D01*
X168087871Y-102955735D01*
X168103592Y-102989460D01*
X168121943Y-103011958D01*
X168141121Y-103022584D01*
X168159322Y-103020692D01*
X168174740Y-103005637D01*
X168182097Y-102989451D01*
X168188330Y-102958226D01*
X168189333Y-102921083D01*
X168185776Y-102881735D01*
X168178329Y-102843902D01*
X168167659Y-102811298D01*
X168154437Y-102787641D01*
X168144106Y-102778440D01*
X168125066Y-102775040D01*
X168108140Y-102784436D01*
X168094106Y-102804172D01*
X168083745Y-102831791D01*
X168077834Y-102864838D01*
X168077153Y-102900856D01*
X168058354Y-102900856D01*
X168057824Y-102889933D01*
X168059093Y-102852782D01*
X168063037Y-102823963D01*
X168067761Y-102809553D01*
X168090020Y-102777666D01*
X168113666Y-102760298D01*
X168137395Y-102756896D01*
X168159902Y-102766906D01*
G37*
G36*
X168968874Y-100762586D02*
G01*
X168995006Y-100773322D01*
X169032119Y-100791417D01*
X169035921Y-100793330D01*
X169090466Y-100822094D01*
X169138771Y-100850118D01*
X169178615Y-100875998D01*
X169207780Y-100898330D01*
X169218915Y-100909088D01*
X169227827Y-100920754D01*
X169225236Y-100928300D01*
X169215087Y-100935357D01*
X169196803Y-100945711D01*
X169173140Y-100957649D01*
X169166998Y-100960534D01*
X169147048Y-100969935D01*
X169117909Y-100983922D01*
X169084124Y-101000307D01*
X169061820Y-101011208D01*
X169022202Y-101030419D01*
X168994024Y-101043418D01*
X168975118Y-101051014D01*
X168963318Y-101054017D01*
X168956459Y-101053235D01*
X168954012Y-101051490D01*
X168950373Y-101040854D01*
X168948825Y-101022443D01*
X168948824Y-101022091D01*
X168949238Y-101012566D01*
X168951911Y-101004957D01*
X168958991Y-100997939D01*
X168972629Y-100990184D01*
X168994971Y-100980364D01*
X169028167Y-100967154D01*
X169054043Y-100957104D01*
X169159263Y-100916328D01*
X169087981Y-100883298D01*
X169051513Y-100866876D01*
X169014174Y-100850849D01*
X168981940Y-100837754D01*
X168970578Y-100833452D01*
X168945725Y-100823985D01*
X168932373Y-100816705D01*
X168927571Y-100808740D01*
X168928367Y-100797218D01*
X168929156Y-100793139D01*
X168933863Y-100774484D01*
X168940552Y-100763170D01*
X168951472Y-100759203D01*
X168968874Y-100762586D01*
G37*
G36*
X170029803Y-100694934D02*
G01*
X170031238Y-100696051D01*
X170041442Y-100711821D01*
X170043520Y-100722648D01*
X170039821Y-100734343D01*
X170026644Y-100744004D01*
X170007124Y-100751978D01*
X169984626Y-100761729D01*
X169957350Y-100776162D01*
X169927870Y-100793560D01*
X169898757Y-100812205D01*
X169872584Y-100830379D01*
X169851924Y-100846367D01*
X169839348Y-100858450D01*
X169837429Y-100864911D01*
X169837703Y-100865080D01*
X169848858Y-100869108D01*
X169871601Y-100876074D01*
X169902709Y-100885026D01*
X169938962Y-100895016D01*
X169942088Y-100895858D01*
X169982920Y-100907214D01*
X170010698Y-100916352D01*
X170027265Y-100924595D01*
X170034461Y-100933264D01*
X170034130Y-100943681D01*
X170028113Y-100957171D01*
X170027940Y-100957495D01*
X170022033Y-100965851D01*
X170013642Y-100970195D01*
X170000259Y-100970277D01*
X169979374Y-100965848D01*
X169948479Y-100956659D01*
X169917209Y-100946486D01*
X169860158Y-100926819D01*
X169815255Y-100909604D01*
X169783220Y-100895157D01*
X169764772Y-100883796D01*
X169760277Y-100877263D01*
X169766425Y-100864133D01*
X169783312Y-100844913D01*
X169808605Y-100821481D01*
X169839968Y-100795714D01*
X169875067Y-100769489D01*
X169911566Y-100744683D01*
X169947132Y-100723174D01*
X169961588Y-100715390D01*
X169990559Y-100701015D01*
X170009458Y-100693404D01*
X170021476Y-100691673D01*
X170029803Y-100694934D01*
G37*
G36*
X169981251Y-101084798D02*
G01*
X169999974Y-101098944D01*
X170021397Y-101119177D01*
X170043138Y-101142761D01*
X170062819Y-101166960D01*
X170078057Y-101189039D01*
X170086474Y-101206261D01*
X170086027Y-101215589D01*
X170078673Y-101213097D01*
X170064093Y-101202053D01*
X170048172Y-101187457D01*
X170014869Y-101154773D01*
X170018737Y-101276000D01*
X170019097Y-101380468D01*
X170014081Y-101489153D01*
X170004129Y-101595260D01*
X169993072Y-101672754D01*
X169973994Y-101763275D01*
X169947967Y-101852514D01*
X169916204Y-101937464D01*
X169879912Y-102015117D01*
X169840303Y-102082466D01*
X169813551Y-102119044D01*
X169761104Y-102174381D01*
X169703459Y-102217816D01*
X169642230Y-102248670D01*
X169579036Y-102266267D01*
X169515491Y-102269928D01*
X169469379Y-102263312D01*
X169422930Y-102250126D01*
X169384640Y-102233077D01*
X169347361Y-102208727D01*
X169333147Y-102197778D01*
X169280573Y-102146841D01*
X169233193Y-102081697D01*
X169191116Y-102002583D01*
X169154448Y-101909733D01*
X169145577Y-101879445D01*
X169178251Y-101879445D01*
X169194321Y-101921548D01*
X169227395Y-101995585D01*
X169266570Y-102061734D01*
X169305593Y-102111800D01*
X169350645Y-102156267D01*
X169394728Y-102187561D01*
X169441211Y-102207192D01*
X169493459Y-102216670D01*
X169542103Y-102217949D01*
X169579068Y-102216278D01*
X169606546Y-102212577D01*
X169630341Y-102205631D01*
X169656255Y-102194224D01*
X169656931Y-102193895D01*
X169694025Y-102171013D01*
X169734548Y-102138018D01*
X169774927Y-102098408D01*
X169811589Y-102055686D01*
X169840582Y-102013980D01*
X169870192Y-101964790D01*
X169840114Y-101938499D01*
X169768728Y-101885478D01*
X169689837Y-101843686D01*
X169605864Y-101813786D01*
X169519230Y-101796441D01*
X169432357Y-101792314D01*
X169347666Y-101802068D01*
X169344332Y-101802761D01*
X169298913Y-101814976D01*
X169255055Y-101831371D01*
X169217639Y-101849906D01*
X169195590Y-101864933D01*
X169178251Y-101879445D01*
X169145577Y-101879445D01*
X169123299Y-101803382D01*
X169098553Y-101688064D01*
X169087634Y-101619944D01*
X169078176Y-101543111D01*
X169069996Y-101455729D01*
X169062911Y-101355961D01*
X169059229Y-101291618D01*
X169054451Y-101201381D01*
X169020775Y-101228975D01*
X169000346Y-101244244D01*
X168989463Y-101248568D01*
X168987100Y-101244841D01*
X168992861Y-101230019D01*
X169008194Y-101209561D01*
X169030176Y-101186677D01*
X169055884Y-101164580D01*
X169068762Y-101155145D01*
X169102117Y-101132196D01*
X169176525Y-101174486D01*
X169210077Y-101193114D01*
X169233210Y-101204609D01*
X169248495Y-101209941D01*
X169258504Y-101210079D01*
X169263960Y-101207453D01*
X169275531Y-101198518D01*
X169295341Y-101182590D01*
X169319887Y-101162500D01*
X169330805Y-101153469D01*
X169384621Y-101108808D01*
X169467891Y-101148349D01*
X169551160Y-101187890D01*
X169629298Y-101136694D01*
X169707436Y-101085497D01*
X169768129Y-101120762D01*
X169795805Y-101136328D01*
X169818923Y-101148382D01*
X169834022Y-101155163D01*
X169837394Y-101156027D01*
X169847188Y-101151859D01*
X169865937Y-101140738D01*
X169890230Y-101124739D01*
X169900293Y-101117751D01*
X169926440Y-101100337D01*
X169949088Y-101087069D01*
X169964518Y-101080059D01*
X169967607Y-101079475D01*
X169981251Y-101084798D01*
G37*
G36*
X168793558Y-102295121D02*
G01*
X168814094Y-102312436D01*
X168840434Y-102339361D01*
X168871256Y-102374316D01*
X168905241Y-102415719D01*
X168941070Y-102461990D01*
X168977422Y-102511548D01*
X169012977Y-102562811D01*
X169029369Y-102587552D01*
X169128829Y-102751320D01*
X169218943Y-102922514D01*
X169297921Y-103097450D01*
X169363971Y-103272445D01*
X169367323Y-103282388D01*
X169395744Y-103374366D01*
X169417929Y-103461365D01*
X169433802Y-103542232D01*
X169443288Y-103615812D01*
X169446309Y-103680953D01*
X169442791Y-103736501D01*
X169432657Y-103781301D01*
X169415831Y-103814202D01*
X169403209Y-103827194D01*
X169389334Y-103836419D01*
X169374717Y-103840836D01*
X169355013Y-103840847D01*
X169325875Y-103836853D01*
X169316274Y-103835218D01*
X169259910Y-103820521D01*
X169203833Y-103797083D01*
X169151787Y-103767067D01*
X169107518Y-103732637D01*
X169074769Y-103695956D01*
X169074461Y-103695511D01*
X169057578Y-103666008D01*
X169042777Y-103631799D01*
X169037378Y-103615182D01*
X169028063Y-103583211D01*
X169014432Y-103539309D01*
X168997323Y-103485962D01*
X168977572Y-103425657D01*
X168956018Y-103360878D01*
X168933499Y-103294112D01*
X168910852Y-103227846D01*
X168888914Y-103164564D01*
X168868525Y-103106753D01*
X168850520Y-103056899D01*
X168837688Y-103022560D01*
X168819549Y-102977181D01*
X168796243Y-102921980D01*
X168769474Y-102860815D01*
X168740947Y-102797545D01*
X168712365Y-102736029D01*
X168696292Y-102702380D01*
X168658042Y-102623006D01*
X168626093Y-102556017D01*
X168599917Y-102500096D01*
X168578988Y-102453925D01*
X168562777Y-102416186D01*
X168550758Y-102385561D01*
X168542404Y-102360732D01*
X168537187Y-102340381D01*
X168534581Y-102323190D01*
X168534058Y-102307841D01*
X168534595Y-102298116D01*
X168537752Y-102290149D01*
X168544235Y-102295970D01*
X168553419Y-102314576D01*
X168564679Y-102344961D01*
X168565723Y-102348090D01*
X168573257Y-102367562D01*
X168586637Y-102398676D01*
X168604910Y-102439356D01*
X168627123Y-102487527D01*
X168652323Y-102541113D01*
X168679558Y-102598039D01*
X168696747Y-102633483D01*
X168732557Y-102707737D01*
X168765088Y-102777127D01*
X168795138Y-102843680D01*
X168823509Y-102909426D01*
X168850998Y-102976396D01*
X168878406Y-103046617D01*
X168906532Y-103122119D01*
X168936176Y-103204931D01*
X168968137Y-103297083D01*
X169003214Y-103400604D01*
X169026965Y-103471648D01*
X169043125Y-103519688D01*
X169058266Y-103563779D01*
X169071534Y-103601504D01*
X169082074Y-103630448D01*
X169089032Y-103648195D01*
X169090583Y-103651545D01*
X169105621Y-103672551D01*
X169129581Y-103697945D01*
X169158439Y-103723936D01*
X169188174Y-103746736D01*
X169199390Y-103754099D01*
X169224786Y-103767438D01*
X169257572Y-103781447D01*
X169293138Y-103794506D01*
X169326873Y-103804994D01*
X169354166Y-103811292D01*
X169365273Y-103812386D01*
X169383937Y-103805245D01*
X169398520Y-103784958D01*
X169408664Y-103753230D01*
X169414015Y-103711765D01*
X169414218Y-103662266D01*
X169408915Y-103606439D01*
X169408644Y-103604521D01*
X169387620Y-103491260D01*
X169356339Y-103370455D01*
X169315914Y-103244463D01*
X169267458Y-103115641D01*
X169212083Y-102986348D01*
X169150903Y-102858941D01*
X169085031Y-102735778D01*
X169015580Y-102619216D01*
X168943662Y-102511614D01*
X168870391Y-102415328D01*
X168819626Y-102356722D01*
X168793215Y-102326757D01*
X168777839Y-102306051D01*
X168773016Y-102293774D01*
X168778262Y-102289097D01*
X168780143Y-102288998D01*
X168793558Y-102295121D01*
G37*
G36*
X169955589Y-100134630D02*
G01*
X169930296Y-100180669D01*
X169911474Y-100232953D01*
X169899191Y-100288759D01*
X169893512Y-100345361D01*
X169894505Y-100400032D01*
X169902236Y-100450049D01*
X169916772Y-100492684D01*
X169938181Y-100525214D01*
X169945840Y-100532498D01*
X169961590Y-100543284D01*
X169987756Y-100558560D01*
X170020854Y-100576391D01*
X170057402Y-100594840D01*
X170061898Y-100597024D01*
X170163063Y-100646009D01*
X170251130Y-100688756D01*
X170326820Y-100725623D01*
X170390853Y-100756966D01*
X170443948Y-100783142D01*
X170486827Y-100804507D01*
X170520209Y-100821418D01*
X170544814Y-100834232D01*
X170561363Y-100843306D01*
X170570575Y-100848996D01*
X170570579Y-100848999D01*
X170585652Y-100863357D01*
X170594100Y-100882801D01*
X170597672Y-100902437D01*
X170599546Y-100944248D01*
X170596238Y-100997379D01*
X170588356Y-101058976D01*
X170576510Y-101126188D01*
X170561312Y-101196160D01*
X170543370Y-101266041D01*
X170523295Y-101332977D01*
X170501697Y-101394116D01*
X170483075Y-101438362D01*
X170468713Y-101472062D01*
X170460676Y-101499462D01*
X170457333Y-101527342D01*
X170456901Y-101547069D01*
X170455225Y-101578894D01*
X170450572Y-101599342D01*
X170443506Y-101607176D01*
X170434590Y-101601160D01*
X170433197Y-101599096D01*
X170430257Y-101587168D01*
X170427916Y-101563930D01*
X170426510Y-101533381D01*
X170426257Y-101515822D01*
X170419005Y-101394246D01*
X170398722Y-101270516D01*
X170366351Y-101148731D01*
X170322836Y-101032989D01*
X170307288Y-100999095D01*
X170260679Y-100912475D01*
X170207234Y-100834031D01*
X170143533Y-100758958D01*
X170116244Y-100730634D01*
X170058094Y-100678310D01*
X170135382Y-100678310D01*
X170140241Y-100685786D01*
X170153181Y-100701448D01*
X170171747Y-100722371D01*
X170178883Y-100730139D01*
X170239805Y-100805441D01*
X170295064Y-100892751D01*
X170343592Y-100989472D01*
X170384323Y-101093008D01*
X170416191Y-101200764D01*
X170438128Y-101310143D01*
X170446638Y-101381835D01*
X170449604Y-101408456D01*
X170453070Y-101426984D01*
X170456391Y-101434217D01*
X170457106Y-101433904D01*
X170461882Y-101424197D01*
X170469739Y-101403712D01*
X170479230Y-101376299D01*
X170482424Y-101366545D01*
X170504159Y-101293980D01*
X170522626Y-101221815D01*
X170537573Y-101151923D01*
X170548750Y-101086179D01*
X170555905Y-101026460D01*
X170558788Y-100974639D01*
X170557147Y-100932593D01*
X170550732Y-100902195D01*
X170545907Y-100892329D01*
X170534103Y-100881969D01*
X170508287Y-100865518D01*
X170468488Y-100842990D01*
X170414733Y-100814403D01*
X170347051Y-100779771D01*
X170334450Y-100773428D01*
X170283902Y-100748197D01*
X170238079Y-100725634D01*
X170198675Y-100706545D01*
X170167381Y-100691740D01*
X170145889Y-100682028D01*
X170135891Y-100678216D01*
X170135382Y-100678310D01*
X170058094Y-100678310D01*
X170026328Y-100649727D01*
X169929005Y-100580889D01*
X169823577Y-100523817D01*
X169709345Y-100478206D01*
X169585610Y-100443754D01*
X169451673Y-100420154D01*
X169385029Y-100412729D01*
X169251970Y-100407085D01*
X169125044Y-100415428D01*
X169003860Y-100437897D01*
X168888024Y-100474628D01*
X168777144Y-100525759D01*
X168670828Y-100591428D01*
X168568683Y-100671772D01*
X168521191Y-100715425D01*
X168455094Y-100784477D01*
X168395156Y-100857758D01*
X168342406Y-100933397D01*
X168297878Y-101009522D01*
X168262600Y-101084263D01*
X168237606Y-101155747D01*
X168223927Y-101222105D01*
X168221579Y-101259067D01*
X168222992Y-101286007D01*
X168226620Y-101308543D01*
X168229772Y-101317792D01*
X168239684Y-101328696D01*
X168258869Y-101344102D01*
X168284434Y-101362209D01*
X168313486Y-101381219D01*
X168343131Y-101399331D01*
X168370475Y-101414748D01*
X168392626Y-101425669D01*
X168406689Y-101430295D01*
X168409755Y-101429715D01*
X168412983Y-101421596D01*
X168419434Y-101401900D01*
X168428108Y-101373767D01*
X168436097Y-101346888D01*
X168448852Y-101308472D01*
X168466501Y-101262245D01*
X168486751Y-101213915D01*
X168507310Y-101169189D01*
X168508129Y-101167510D01*
X168533999Y-101117637D01*
X168562290Y-101068316D01*
X168591667Y-101021406D01*
X168620797Y-100978767D01*
X168648345Y-100942257D01*
X168672979Y-100913737D01*
X168693363Y-100895066D01*
X168708164Y-100888103D01*
X168708575Y-100888094D01*
X168713833Y-100889663D01*
X168714074Y-100895445D01*
X168708361Y-100907058D01*
X168695754Y-100926117D01*
X168675313Y-100954238D01*
X168652456Y-100984653D01*
X168596329Y-101069769D01*
X168546949Y-101167103D01*
X168504603Y-101274994D01*
X168469580Y-101391778D01*
X168442168Y-101515793D01*
X168422657Y-101645377D01*
X168411333Y-101778866D01*
X168408486Y-101914598D01*
X168414403Y-102050911D01*
X168429373Y-102186141D01*
X168436405Y-102230570D01*
X168453308Y-102320216D01*
X168473529Y-102409332D01*
X168497591Y-102499308D01*
X168526020Y-102591537D01*
X168559339Y-102687409D01*
X168598074Y-102788317D01*
X168642749Y-102895651D01*
X168693887Y-103010803D01*
X168752015Y-103135164D01*
X168817655Y-103270126D01*
X168861061Y-103357164D01*
X168894098Y-103423356D01*
X168925688Y-103487569D01*
X168955000Y-103548042D01*
X168981199Y-103603018D01*
X169003454Y-103650736D01*
X169020930Y-103689440D01*
X169032794Y-103717368D01*
X169036993Y-103728581D01*
X169053114Y-103789840D01*
X169057425Y-103841405D01*
X169049917Y-103883343D01*
X169030577Y-103915717D01*
X169002150Y-103937201D01*
X168977885Y-103946788D01*
X168953301Y-103949156D01*
X168925948Y-103943645D01*
X168893377Y-103929591D01*
X168853139Y-103906335D01*
X168828062Y-103890181D01*
X168783831Y-103861584D01*
X168749011Y-103840860D01*
X168720687Y-103826798D01*
X168695945Y-103818187D01*
X168671870Y-103813816D01*
X168645549Y-103812475D01*
X168640948Y-103812461D01*
X168584887Y-103819431D01*
X168535710Y-103840016D01*
X168493723Y-103874005D01*
X168459234Y-103921186D01*
X168446454Y-103946201D01*
X168429292Y-103997486D01*
X168421685Y-104052459D01*
X168423479Y-104107155D01*
X168434523Y-104157608D01*
X168454663Y-104199854D01*
X168456299Y-104202244D01*
X168468830Y-104220134D01*
X168481629Y-104178933D01*
X168506224Y-104121295D01*
X168540549Y-104072166D01*
X168582735Y-104032701D01*
X168630910Y-104004056D01*
X168683205Y-103987386D01*
X168737749Y-103983847D01*
X168784229Y-103991952D01*
X168813370Y-104003635D01*
X168851298Y-104023817D01*
X168895230Y-104050968D01*
X168911772Y-104062013D01*
X168945003Y-104084181D01*
X168975369Y-104103629D01*
X168999793Y-104118441D01*
X169015199Y-104126701D01*
X169016550Y-104127260D01*
X169048735Y-104131641D01*
X169082199Y-104121997D01*
X169109709Y-104103173D01*
X169128346Y-104087113D01*
X169136934Y-104081782D01*
X169136404Y-104087244D01*
X169127692Y-104103558D01*
X169127241Y-104104343D01*
X169104301Y-104134179D01*
X169076828Y-104150924D01*
X169044003Y-104154605D01*
X169005003Y-104145251D01*
X168959008Y-104122888D01*
X168939049Y-104110681D01*
X168891046Y-104080061D01*
X168853675Y-104056800D01*
X168824782Y-104039835D01*
X168802215Y-104028103D01*
X168783820Y-104020539D01*
X168767444Y-104016082D01*
X168750934Y-104013666D01*
X168740855Y-104012811D01*
X168694769Y-104014005D01*
X168660314Y-104023047D01*
X168613009Y-104048972D01*
X168572509Y-104086706D01*
X168539503Y-104134023D01*
X168514677Y-104188698D01*
X168498718Y-104248506D01*
X168492314Y-104311221D01*
X168496153Y-104374617D01*
X168510921Y-104436469D01*
X168523135Y-104467256D01*
X168555455Y-104519763D01*
X168600442Y-104564923D01*
X168657019Y-104602147D01*
X168724115Y-104630843D01*
X168800655Y-104650422D01*
X168872715Y-104659481D01*
X168944410Y-104660205D01*
X169010033Y-104650634D01*
X169075086Y-104629696D01*
X169113411Y-104612560D01*
X169178871Y-104575713D01*
X169239541Y-104530462D01*
X169298402Y-104474373D01*
X169339822Y-104427721D01*
X169377474Y-104385605D01*
X169411017Y-104355300D01*
X169443558Y-104335114D01*
X169478203Y-104323354D01*
X169518059Y-104318327D01*
X169541562Y-104317812D01*
X169598714Y-104321732D01*
X169646111Y-104334290D01*
X169687674Y-104357247D01*
X169727325Y-104392361D01*
X169740921Y-104407214D01*
X169800074Y-104471005D01*
X169855072Y-104522043D01*
X169908155Y-104561486D01*
X169961565Y-104590490D01*
X170017544Y-104610214D01*
X170078334Y-104621814D01*
X170146176Y-104626447D01*
X170166003Y-104626654D01*
X170208069Y-104626139D01*
X170239762Y-104624135D01*
X170265999Y-104619965D01*
X170291696Y-104612956D01*
X170309240Y-104606984D01*
X170374277Y-104576675D01*
X170428398Y-104536349D01*
X170470899Y-104486762D01*
X170501077Y-104428672D01*
X170513686Y-104387000D01*
X170521435Y-104349338D01*
X170524772Y-104319636D01*
X170523741Y-104291300D01*
X170518387Y-104257733D01*
X170514704Y-104239749D01*
X170493189Y-104169792D01*
X170460534Y-104109939D01*
X170422504Y-104065734D01*
X170385203Y-104033249D01*
X170351817Y-104011619D01*
X170317828Y-103998920D01*
X170278717Y-103993229D01*
X170250210Y-103992375D01*
X170217080Y-103992816D01*
X170193404Y-103995214D01*
X170173335Y-104001017D01*
X170151025Y-104011671D01*
X170133805Y-104021177D01*
X170103385Y-104038883D01*
X170085291Y-104051203D01*
X170078111Y-104059504D01*
X170080432Y-104065155D01*
X170085667Y-104067793D01*
X170096632Y-104076030D01*
X170094915Y-104083365D01*
X170082473Y-104084414D01*
X170079882Y-104083720D01*
X170040291Y-104068237D01*
X170000309Y-104046860D01*
X169963252Y-104021944D01*
X169932433Y-103995847D01*
X169911170Y-103970927D01*
X169905077Y-103959439D01*
X169902321Y-103941007D01*
X169902559Y-103932848D01*
X169903170Y-103911848D01*
X169903482Y-103909039D01*
X169928691Y-103909039D01*
X169928691Y-103932848D01*
X169934558Y-103956823D01*
X169953358Y-103981357D01*
X169953571Y-103981571D01*
X169969540Y-103995759D01*
X169990786Y-104012385D01*
X170013387Y-104028668D01*
X170033425Y-104041824D01*
X170046978Y-104049071D01*
X170049543Y-104049698D01*
X170056539Y-104045143D01*
X170071331Y-104033422D01*
X170084174Y-104022645D01*
X170135360Y-103985992D01*
X170187144Y-103963770D01*
X170241559Y-103955169D01*
X170253812Y-103955020D01*
X170290533Y-103957555D01*
X170323036Y-103963566D01*
X170337507Y-103968328D01*
X170359820Y-103976008D01*
X170370927Y-103976035D01*
X170369836Y-103968987D01*
X170357269Y-103956804D01*
X170312278Y-103928961D01*
X170262277Y-103914615D01*
X170226840Y-103912072D01*
X170199554Y-103912984D01*
X170176187Y-103916903D01*
X170151294Y-103925288D01*
X170119433Y-103939602D01*
X170113356Y-103942525D01*
X170073149Y-103960646D01*
X170042204Y-103970250D01*
X170016854Y-103971022D01*
X169993433Y-103962645D01*
X169968274Y-103944804D01*
X169949743Y-103928436D01*
X169928691Y-103909039D01*
X169903482Y-103909039D01*
X169905960Y-103886714D01*
X169910804Y-103856016D01*
X169917256Y-103822170D01*
X169925599Y-103784203D01*
X169936114Y-103741143D01*
X169949084Y-103692017D01*
X169964792Y-103635852D01*
X169983518Y-103571676D01*
X170005545Y-103498515D01*
X170031156Y-103415398D01*
X170060632Y-103321351D01*
X170094255Y-103215401D01*
X170132308Y-103096577D01*
X170160645Y-103008589D01*
X170209150Y-102856718D01*
X170252335Y-102718151D01*
X170290448Y-102591928D01*
X170323741Y-102477093D01*
X170352462Y-102372686D01*
X170376862Y-102277750D01*
X170397190Y-102191327D01*
X170413696Y-102112459D01*
X170426629Y-102040188D01*
X170436240Y-101973555D01*
X170440647Y-101934584D01*
X170445021Y-101896853D01*
X170449388Y-101873094D01*
X170454232Y-101861975D01*
X170460040Y-101862165D01*
X170464855Y-101868183D01*
X170469654Y-101885322D01*
X170471406Y-101915316D01*
X170470104Y-101956015D01*
X170465742Y-102005270D01*
X170465253Y-102009583D01*
X170462442Y-102036312D01*
X170460853Y-102056228D01*
X170460804Y-102065284D01*
X170460867Y-102065408D01*
X170466278Y-102061275D01*
X170478275Y-102045912D01*
X170495574Y-102021221D01*
X170516890Y-101989104D01*
X170540937Y-101951462D01*
X170566430Y-101910197D01*
X170572175Y-101900706D01*
X170624183Y-101809190D01*
X170677186Y-101706107D01*
X170729595Y-101594976D01*
X170779820Y-101479321D01*
X170826274Y-101362664D01*
X170867366Y-101248527D01*
X170870118Y-101240372D01*
X170895524Y-101160528D01*
X170917209Y-101083836D01*
X170934840Y-101012019D01*
X170948081Y-100946798D01*
X170956601Y-100889893D01*
X170960066Y-100843025D01*
X170958142Y-100807916D01*
X170955869Y-100797817D01*
X170940580Y-100761929D01*
X170914567Y-100718425D01*
X170879279Y-100668975D01*
X170836165Y-100615248D01*
X170786675Y-100558915D01*
X170732257Y-100501644D01*
X170674361Y-100445106D01*
X170614434Y-100390972D01*
X170571729Y-100355137D01*
X170511002Y-100308297D01*
X170443247Y-100260146D01*
X170373368Y-100213962D01*
X170306263Y-100173026D01*
X170265521Y-100150285D01*
X170185141Y-100107495D01*
X170228473Y-100107379D01*
X170252512Y-100109365D01*
X170278511Y-100116070D01*
X170308348Y-100128425D01*
X170343903Y-100147360D01*
X170387054Y-100173804D01*
X170439680Y-100208687D01*
X170456901Y-100220460D01*
X170527042Y-100271306D01*
X170596757Y-100326817D01*
X170664788Y-100385635D01*
X170729879Y-100446401D01*
X170790774Y-100507756D01*
X170846216Y-100568342D01*
X170894948Y-100626800D01*
X170935715Y-100681771D01*
X170967258Y-100731896D01*
X170988322Y-100775818D01*
X170996491Y-100803887D01*
X170998311Y-100835451D01*
X170995066Y-100879198D01*
X170987219Y-100933033D01*
X170975236Y-100994861D01*
X170959581Y-101062590D01*
X170940721Y-101134124D01*
X170919120Y-101207371D01*
X170895243Y-101280235D01*
X170883050Y-101314625D01*
X170813343Y-101493674D01*
X170739826Y-101658379D01*
X170662570Y-101808599D01*
X170581647Y-101944196D01*
X170499796Y-102061515D01*
X170447000Y-102131269D01*
X170425085Y-102234650D01*
X170414149Y-102284902D01*
X170402680Y-102334655D01*
X170390304Y-102385160D01*
X170376648Y-102437666D01*
X170361339Y-102493421D01*
X170344004Y-102553676D01*
X170324268Y-102619678D01*
X170301758Y-102692678D01*
X170276101Y-102773924D01*
X170246924Y-102864666D01*
X170213853Y-102966153D01*
X170176515Y-103079634D01*
X170135387Y-103203797D01*
X170095366Y-103324812D01*
X170060286Y-103431980D01*
X170029971Y-103525886D01*
X170004244Y-103607111D01*
X169982929Y-103676241D01*
X169965850Y-103733857D01*
X169952829Y-103780544D01*
X169943690Y-103816884D01*
X169938257Y-103843462D01*
X169936353Y-103860860D01*
X169936347Y-103861615D01*
X169942163Y-103876827D01*
X169957087Y-103896660D01*
X169977331Y-103917479D01*
X169999108Y-103935650D01*
X170018632Y-103947538D01*
X170028641Y-103950180D01*
X170043489Y-103946313D01*
X170065926Y-103936231D01*
X170088297Y-103923762D01*
X170117815Y-103907913D01*
X170148951Y-103894525D01*
X170168368Y-103888291D01*
X170212175Y-103882628D01*
X170259277Y-103884859D01*
X170303003Y-103894352D01*
X170324471Y-103903079D01*
X170342653Y-103915037D01*
X170364193Y-103932996D01*
X170385794Y-103953664D01*
X170404159Y-103973751D01*
X170415992Y-103989963D01*
X170418625Y-103997108D01*
X170423432Y-104005525D01*
X170436145Y-104021861D01*
X170454201Y-104042861D01*
X170457775Y-104046836D01*
X170500270Y-104103478D01*
X170531148Y-104165285D01*
X170550636Y-104230347D01*
X170558961Y-104296750D01*
X170556351Y-104362585D01*
X170543033Y-104425938D01*
X170519233Y-104484899D01*
X170485180Y-104537555D01*
X170441100Y-104581995D01*
X170390263Y-104614803D01*
X170354944Y-104631364D01*
X170322737Y-104643200D01*
X170289801Y-104651036D01*
X170252293Y-104655598D01*
X170206369Y-104657613D01*
X170162175Y-104657882D01*
X170116674Y-104657528D01*
X170082876Y-104656527D01*
X170057175Y-104654416D01*
X170035965Y-104650735D01*
X170015640Y-104645020D01*
X169992593Y-104636811D01*
X169989933Y-104635810D01*
X169918609Y-104603597D01*
X169853769Y-104562555D01*
X169792551Y-104510570D01*
X169732096Y-104445533D01*
X169732049Y-104445478D01*
X169698979Y-104408485D01*
X169670229Y-104382625D01*
X169642083Y-104366001D01*
X169610824Y-104356713D01*
X169572736Y-104352865D01*
X169549758Y-104352386D01*
X169510598Y-104353634D01*
X169478872Y-104358936D01*
X169451306Y-104370044D01*
X169424624Y-104388711D01*
X169395552Y-104416687D01*
X169364444Y-104451495D01*
X169287676Y-104531262D01*
X169206934Y-104596623D01*
X169121480Y-104648135D01*
X169077269Y-104668657D01*
X169057165Y-104676630D01*
X169038715Y-104682258D01*
X169018511Y-104685997D01*
X168993148Y-104688301D01*
X168959219Y-104689625D01*
X168914376Y-104690411D01*
X168861940Y-104690566D01*
X168821250Y-104689306D01*
X168788786Y-104686379D01*
X168761026Y-104681532D01*
X168748557Y-104678506D01*
X168678570Y-104653930D01*
X168615757Y-104619564D01*
X168562164Y-104576949D01*
X168519834Y-104527627D01*
X168497753Y-104489411D01*
X168478672Y-104437721D01*
X168465945Y-104380166D01*
X168460865Y-104323707D01*
X168461799Y-104295647D01*
X168463685Y-104268443D01*
X168462303Y-104250703D01*
X168456140Y-104236684D01*
X168443682Y-104220639D01*
X168441305Y-104217851D01*
X168411769Y-104172055D01*
X168393665Y-104118954D01*
X168386939Y-104061366D01*
X168391539Y-104002112D01*
X168407410Y-103944012D01*
X168434500Y-103889884D01*
X168447825Y-103870813D01*
X168473393Y-103843758D01*
X168506945Y-103820905D01*
X168527240Y-103810372D01*
X168579986Y-103784858D01*
X168542682Y-103763888D01*
X168450446Y-103703987D01*
X168362237Y-103631002D01*
X168279647Y-103546964D01*
X168204271Y-103453904D01*
X168137700Y-103353855D01*
X168081529Y-103248847D01*
X168037349Y-103140912D01*
X168025454Y-103104279D01*
X168018022Y-103078528D01*
X168012479Y-103055257D01*
X168008477Y-103031328D01*
X168005669Y-103003604D01*
X168003705Y-102968947D01*
X168002239Y-102924221D01*
X168001361Y-102887036D01*
X168000635Y-102842024D01*
X168023060Y-102842024D01*
X168032778Y-102914926D01*
X168052552Y-102994905D01*
X168082381Y-103081217D01*
X168122265Y-103173117D01*
X168125959Y-103180831D01*
X168190968Y-103299557D01*
X168268453Y-103411638D01*
X168358954Y-103517689D01*
X168463007Y-103618325D01*
X168581153Y-103714161D01*
X168614713Y-103738702D01*
X168642281Y-103757377D01*
X168666658Y-103771967D01*
X168684303Y-103780444D01*
X168689825Y-103781765D01*
X168711947Y-103786591D01*
X168743118Y-103800173D01*
X168780882Y-103821163D01*
X168822783Y-103848218D01*
X168859402Y-103874662D01*
X168897718Y-103902141D01*
X168927678Y-103919365D01*
X168951669Y-103926988D01*
X168972082Y-103925659D01*
X168991305Y-103916033D01*
X168996609Y-103912089D01*
X169014637Y-103895084D01*
X169020452Y-103880385D01*
X169013421Y-103866010D01*
X168992910Y-103849980D01*
X168972928Y-103838221D01*
X168870419Y-103774883D01*
X168776697Y-103703744D01*
X168693055Y-103626136D01*
X168620785Y-103543392D01*
X168561179Y-103456841D01*
X168515531Y-103367816D01*
X168514954Y-103366457D01*
X168497623Y-103320303D01*
X168479534Y-103262987D01*
X168461758Y-103198546D01*
X168445364Y-103131020D01*
X168431421Y-103064446D01*
X168424228Y-103023899D01*
X168418235Y-102990104D01*
X168412292Y-102961845D01*
X168407192Y-102942621D01*
X168404404Y-102936247D01*
X168398677Y-102935118D01*
X168397649Y-102940956D01*
X168391450Y-102959939D01*
X168376350Y-102978380D01*
X168357596Y-102990878D01*
X168346831Y-102993278D01*
X168321487Y-102988891D01*
X168301217Y-102974259D01*
X168283329Y-102947172D01*
X168278433Y-102937169D01*
X168265394Y-102899320D01*
X168259689Y-102860111D01*
X168260176Y-102840512D01*
X168280188Y-102840512D01*
X168283570Y-102879706D01*
X168292557Y-102916797D01*
X168306465Y-102947439D01*
X168323438Y-102966498D01*
X168339126Y-102976026D01*
X168349583Y-102975516D01*
X168361533Y-102964498D01*
X168362182Y-102963783D01*
X168371023Y-102948336D01*
X168379616Y-102924315D01*
X168383646Y-102908282D01*
X168388130Y-102878785D01*
X168386856Y-102853389D01*
X168379950Y-102824714D01*
X168365963Y-102788183D01*
X168349412Y-102763181D01*
X168331637Y-102750500D01*
X168313977Y-102750935D01*
X168297773Y-102765279D01*
X168292978Y-102773191D01*
X168283096Y-102803558D01*
X168280188Y-102840512D01*
X168260176Y-102840512D01*
X168260637Y-102821946D01*
X168267559Y-102787230D01*
X168279773Y-102758367D01*
X168296601Y-102737763D01*
X168317362Y-102727822D01*
X168337196Y-102729424D01*
X168352717Y-102734350D01*
X168337272Y-102704077D01*
X168307139Y-102657747D01*
X168271101Y-102623817D01*
X168230645Y-102602950D01*
X168187257Y-102595807D01*
X168142423Y-102603049D01*
X168125347Y-102609697D01*
X168084771Y-102636057D01*
X168054254Y-102673214D01*
X168033798Y-102720424D01*
X168023400Y-102776941D01*
X168023060Y-102842024D01*
X168000635Y-102842024D01*
X168000393Y-102827040D01*
X168000678Y-102779854D01*
X168002618Y-102743003D01*
X168006617Y-102714010D01*
X168013077Y-102690397D01*
X168022401Y-102669690D01*
X168034991Y-102649412D01*
X168041499Y-102640222D01*
X168075232Y-102605843D01*
X168117011Y-102581976D01*
X168163435Y-102569452D01*
X168211100Y-102569100D01*
X168256604Y-102581752D01*
X168264774Y-102585720D01*
X168301971Y-102610869D01*
X168334593Y-102645479D01*
X168363181Y-102690635D01*
X168388277Y-102747423D01*
X168410424Y-102816929D01*
X168430164Y-102900239D01*
X168435695Y-102928069D01*
X168458608Y-103042630D01*
X168480833Y-103142805D01*
X168502617Y-103229489D01*
X168524206Y-103303580D01*
X168545846Y-103365972D01*
X168567782Y-103417563D01*
X168573021Y-103428244D01*
X168615464Y-103499088D01*
X168670631Y-103570085D01*
X168736173Y-103638702D01*
X168809743Y-103702407D01*
X168864617Y-103742624D01*
X168902579Y-103767680D01*
X168939349Y-103790537D01*
X168972643Y-103809919D01*
X169000175Y-103824550D01*
X169019662Y-103833154D01*
X169028820Y-103834454D01*
X169028887Y-103834393D01*
X169030541Y-103823468D01*
X169027442Y-103801288D01*
X169020366Y-103770875D01*
X169010088Y-103735250D01*
X168997386Y-103697436D01*
X168986104Y-103667891D01*
X168975585Y-103644055D01*
X168958895Y-103608864D01*
X168937100Y-103564453D01*
X168911270Y-103512957D01*
X168882474Y-103456511D01*
X168851780Y-103397251D01*
X168826978Y-103350010D01*
X168768990Y-103239430D01*
X168718024Y-103140340D01*
X168673319Y-103051042D01*
X168634115Y-102969840D01*
X168599651Y-102895037D01*
X168569169Y-102824938D01*
X168541907Y-102757844D01*
X168517105Y-102692061D01*
X168494004Y-102625891D01*
X168471842Y-102557637D01*
X168471620Y-102556931D01*
X168456903Y-102509424D01*
X168445014Y-102469187D01*
X168434674Y-102431416D01*
X168424604Y-102391310D01*
X168413525Y-102344066D01*
X168405376Y-102308137D01*
X168395326Y-102261135D01*
X168387383Y-102217646D01*
X168381315Y-102174888D01*
X168376893Y-102130085D01*
X168373884Y-102080456D01*
X168372058Y-102023223D01*
X168371184Y-101955607D01*
X168371014Y-101894755D01*
X168371309Y-101818224D01*
X168372315Y-101754135D01*
X168374252Y-101699631D01*
X168377338Y-101651849D01*
X168381791Y-101607932D01*
X168387828Y-101565020D01*
X168395669Y-101520253D01*
X168402085Y-101487579D01*
X168403927Y-101470678D01*
X168398066Y-101460850D01*
X168381289Y-101452327D01*
X168345400Y-101436295D01*
X168306567Y-101417434D01*
X168268388Y-101397650D01*
X168234461Y-101378851D01*
X168208384Y-101362944D01*
X168196566Y-101354416D01*
X168184778Y-101344030D01*
X168177541Y-101334367D01*
X168173807Y-101321543D01*
X168172531Y-101301675D01*
X168172667Y-101270880D01*
X168172733Y-101265935D01*
X168180491Y-101192574D01*
X168201129Y-101114626D01*
X168233540Y-101033735D01*
X168276619Y-100951545D01*
X168329260Y-100869699D01*
X168390357Y-100789842D01*
X168458805Y-100713618D01*
X168533498Y-100642671D01*
X168613331Y-100578645D01*
X168654098Y-100550224D01*
X168765963Y-100484576D01*
X168881502Y-100433676D01*
X169001351Y-100397334D01*
X169126145Y-100375359D01*
X169256519Y-100367561D01*
X169263899Y-100367540D01*
X169404355Y-100373912D01*
X169542321Y-100392694D01*
X169675266Y-100423384D01*
X169800659Y-100465481D01*
X169839598Y-100481637D01*
X169860885Y-100490524D01*
X169871162Y-100493150D01*
X169873279Y-100489760D01*
X169871603Y-100484376D01*
X169863017Y-100453237D01*
X169856521Y-100411885D01*
X169852782Y-100365351D01*
X169852139Y-100337482D01*
X169859532Y-100256716D01*
X169881418Y-100179679D01*
X169895530Y-100147452D01*
X169907301Y-100124812D01*
X169916920Y-100112800D01*
X169928483Y-100108067D01*
X169944669Y-100107263D01*
X169974161Y-100107263D01*
X169955589Y-100134630D01*
G37*
D14*
%TO.C,TP-SDA*%
X204200000Y-58200000D02*
G75*
G02*
X201600000Y-58200000I-1300000J0D01*
G01*
X201600000Y-58200000D02*
G75*
G02*
X204200000Y-58200000I1300000J0D01*
G01*
%TD*%
M02*
