%TF.GenerationSoftware,KiCad,Pcbnew,9.0.7*%
%TF.CreationDate,2026-02-11T22:14:35-08:00*%
%TF.ProjectId,WALLOPS,57414c4c-4f50-4532-9e6b-696361645f70,rev?*%
%TF.SameCoordinates,Original*%
%TF.FileFunction,Soldermask,Top*%
%TF.FilePolarity,Negative*%
%FSLAX46Y46*%
G04 Gerber Fmt 4.6, Leading zero omitted, Abs format (unit mm)*
G04 Created by KiCad (PCBNEW 9.0.7) date 2026-02-11 22:14:35*
%MOMM*%
%LPD*%
G01*
G04 APERTURE LIST*
G04 Aperture macros list*
%AMRoundRect*
0 Rectangle with rounded corners*
0 $1 Rounding radius*
0 $2 $3 $4 $5 $6 $7 $8 $9 X,Y pos of 4 corners*
0 Add a 4 corners polygon primitive as box body*
4,1,4,$2,$3,$4,$5,$6,$7,$8,$9,$2,$3,0*
0 Add four circle primitives for the rounded corners*
1,1,$1+$1,$2,$3*
1,1,$1+$1,$4,$5*
1,1,$1+$1,$6,$7*
1,1,$1+$1,$8,$9*
0 Add four rect primitives between the rounded corners*
20,1,$1+$1,$2,$3,$4,$5,0*
20,1,$1+$1,$4,$5,$6,$7,0*
20,1,$1+$1,$6,$7,$8,$9,0*
20,1,$1+$1,$8,$9,$2,$3,0*%
G04 Aperture macros list end*
%ADD10C,1.820000*%
%ADD11C,2.000000*%
%ADD12RoundRect,0.243750X0.243750X0.456250X-0.243750X0.456250X-0.243750X-0.456250X0.243750X-0.456250X0*%
%ADD13RoundRect,0.250000X0.350000X0.450000X-0.350000X0.450000X-0.350000X-0.450000X0.350000X-0.450000X0*%
%ADD14RoundRect,0.250000X-0.350000X-0.450000X0.350000X-0.450000X0.350000X0.450000X-0.350000X0.450000X0*%
%ADD15C,1.500000*%
%ADD16RoundRect,0.200000X0.750000X0.200000X-0.750000X0.200000X-0.750000X-0.200000X0.750000X-0.200000X0*%
%ADD17C,1.982000*%
%ADD18C,3.404000*%
%ADD19RoundRect,0.250000X0.625000X-0.350000X0.625000X0.350000X-0.625000X0.350000X-0.625000X-0.350000X0*%
%ADD20O,1.750000X1.200000*%
G04 APERTURE END LIST*
D10*
%TO.C,U2*%
X209840000Y-88300000D03*
X207300000Y-88300000D03*
X204760000Y-88300000D03*
X202220000Y-88340000D03*
X199640000Y-88300000D03*
X197140000Y-88310000D03*
X194600000Y-88300000D03*
X192060000Y-88300000D03*
X189520000Y-88300000D03*
X202220000Y-98460000D03*
X199640000Y-98460000D03*
X197140000Y-98460000D03*
X194600000Y-98460000D03*
%TD*%
%TO.C,U1*%
X209740000Y-73980000D03*
X207200000Y-73980000D03*
X204660000Y-73980000D03*
X202120000Y-74020000D03*
X199540000Y-73980000D03*
X197040000Y-73990000D03*
X194500000Y-73980000D03*
X191960000Y-73980000D03*
X189420000Y-73980000D03*
X202120000Y-84140000D03*
X199540000Y-84140000D03*
X197040000Y-84140000D03*
X194500000Y-84140000D03*
%TD*%
%TO.C,U3*%
X185180000Y-88300000D03*
X182640000Y-88300000D03*
X180100000Y-88300000D03*
X177560000Y-88340000D03*
X174980000Y-88300000D03*
X172480000Y-88310000D03*
X169940000Y-88300000D03*
X167400000Y-88300000D03*
X164860000Y-88300000D03*
X177560000Y-98460000D03*
X174980000Y-98460000D03*
X172480000Y-98460000D03*
X169940000Y-98460000D03*
%TD*%
D11*
%TO.C,TP-SCL*%
X195900000Y-60300000D03*
%TD*%
D12*
%TO.C,D2*%
X212500000Y-44900000D03*
X210625000Y-44900000D03*
%TD*%
D13*
%TO.C,R2*%
X185100000Y-63100000D03*
X183100000Y-63100000D03*
%TD*%
D14*
%TO.C,R3*%
X183100000Y-59000000D03*
X185100000Y-59000000D03*
%TD*%
D15*
%TO.C,U6*%
X185800000Y-39470000D03*
X185800000Y-42010000D03*
X185800000Y-44550000D03*
X185800000Y-47090000D03*
X185800000Y-49630000D03*
X196460000Y-39470000D03*
%TD*%
D14*
%TO.C,R4*%
X206100000Y-44800000D03*
X208100000Y-44800000D03*
%TD*%
D12*
%TO.C,D1*%
X212337500Y-41300000D03*
X210462500Y-41300000D03*
%TD*%
D16*
%TO.C,Q1*%
X197700000Y-64950000D03*
X197700000Y-63050000D03*
X194700000Y-64000000D03*
%TD*%
D10*
%TO.C,U4*%
X185140000Y-74000000D03*
X182600000Y-74000000D03*
X180060000Y-74000000D03*
X177520000Y-74040000D03*
X174940000Y-74000000D03*
X172440000Y-74010000D03*
X169900000Y-74000000D03*
X167360000Y-74000000D03*
X164820000Y-74000000D03*
X177520000Y-84160000D03*
X174940000Y-84160000D03*
X172440000Y-84160000D03*
X169900000Y-84160000D03*
%TD*%
D17*
%TO.C,U5*%
X164550000Y-45550000D03*
X164550000Y-48090000D03*
X164550000Y-50630000D03*
X164550000Y-53170000D03*
X164550000Y-55710000D03*
X164550000Y-58250000D03*
X177250000Y-58250000D03*
X177250000Y-55710000D03*
X177250000Y-53170000D03*
X177250000Y-50630000D03*
X177250000Y-48090000D03*
X177250000Y-45550000D03*
D18*
X177250000Y-41740000D03*
X164550000Y-41740000D03*
X164550000Y-62060000D03*
X177250000Y-62060000D03*
%TD*%
D13*
%TO.C,R1*%
X208037500Y-41300000D03*
X206037500Y-41300000D03*
%TD*%
D11*
%TO.C,TP-5V*%
X191100000Y-62400000D03*
%TD*%
D19*
%TO.C,J1*%
X207250000Y-65000000D03*
D20*
X207250000Y-63000000D03*
X207250000Y-61000000D03*
X207250000Y-59000000D03*
X207250000Y-57000000D03*
X207250000Y-55000000D03*
X207250000Y-53000000D03*
X207250000Y-51000000D03*
X207250000Y-49000000D03*
%TD*%
D11*
%TO.C,TP-GND*%
X203600000Y-65000000D03*
%TD*%
%TO.C,TP-SDA*%
X202900000Y-58200000D03*
%TD*%
M02*
