%TF.GenerationSoftware,KiCad,Pcbnew,9.0.7*%
%TF.CreationDate,2026-02-11T22:14:35-08:00*%
%TF.ProjectId,WALLOPS,57414c4c-4f50-4532-9e6b-696361645f70,rev?*%
%TF.SameCoordinates,Original*%
%TF.FileFunction,Copper,L2,Bot*%
%TF.FilePolarity,Positive*%
%FSLAX46Y46*%
G04 Gerber Fmt 4.6, Leading zero omitted, Abs format (unit mm)*
G04 Created by KiCad (PCBNEW 9.0.7) date 2026-02-11 22:14:35*
%MOMM*%
%LPD*%
G01*
G04 APERTURE LIST*
G04 Aperture macros list*
%AMRoundRect*
0 Rectangle with rounded corners*
0 $1 Rounding radius*
0 $2 $3 $4 $5 $6 $7 $8 $9 X,Y pos of 4 corners*
0 Add a 4 corners polygon primitive as box body*
4,1,4,$2,$3,$4,$5,$6,$7,$8,$9,$2,$3,0*
0 Add four circle primitives for the rounded corners*
1,1,$1+$1,$2,$3*
1,1,$1+$1,$4,$5*
1,1,$1+$1,$6,$7*
1,1,$1+$1,$8,$9*
0 Add four rect primitives between the rounded corners*
20,1,$1+$1,$2,$3,$4,$5,0*
20,1,$1+$1,$4,$5,$6,$7,0*
20,1,$1+$1,$6,$7,$8,$9,0*
20,1,$1+$1,$8,$9,$2,$3,0*%
G04 Aperture macros list end*
%TA.AperFunction,ComponentPad*%
%ADD10C,1.820000*%
%TD*%
%TA.AperFunction,ComponentPad*%
%ADD11C,1.500000*%
%TD*%
%TA.AperFunction,ComponentPad*%
%ADD12C,1.778000*%
%TD*%
%TA.AperFunction,ComponentPad*%
%ADD13C,3.200000*%
%TD*%
%TA.AperFunction,ComponentPad*%
%ADD14RoundRect,0.250000X0.625000X-0.350000X0.625000X0.350000X-0.625000X0.350000X-0.625000X-0.350000X0*%
%TD*%
%TA.AperFunction,ComponentPad*%
%ADD15O,1.750000X1.200000*%
%TD*%
%TA.AperFunction,SMDPad,CuDef*%
%ADD16RoundRect,0.250000X0.250000X0.475000X-0.250000X0.475000X-0.250000X-0.475000X0.250000X-0.475000X0*%
%TD*%
%TA.AperFunction,ViaPad*%
%ADD17C,0.800000*%
%TD*%
%TA.AperFunction,Conductor*%
%ADD18C,0.750000*%
%TD*%
%TA.AperFunction,Conductor*%
%ADD19C,0.250000*%
%TD*%
G04 APERTURE END LIST*
D10*
%TO.P,U2,1,CORE/IOVDD*%
%TO.N,unconnected-(U2-CORE{slash}IOVDD-Pad1)*%
X209840000Y-88300000D03*
%TO.P,U2,2,AVDD*%
%TO.N,unconnected-(U2-AVDD-Pad2)*%
X207300000Y-88300000D03*
%TO.P,U2,3,VIN*%
%TO.N,/3.3VOUT*%
X204760000Y-88300000D03*
%TO.P,U2,4,GND*%
%TO.N,GND*%
X202220000Y-88340000D03*
%TO.P,U2,5,SDA*%
%TO.N,/SDA*%
X199640000Y-88300000D03*
%TO.P,U2,6,SCL*%
%TO.N,/SCL*%
X197140000Y-88310000D03*
%TO.P,U2,7,MISO*%
%TO.N,unconnected-(U2-MISO-Pad7)*%
X194600000Y-88300000D03*
%TO.P,U2,8*%
%TO.N,N/C*%
X192060000Y-88300000D03*
%TO.P,U2,9,CS*%
%TO.N,unconnected-(U2-CS-Pad9)*%
X189520000Y-88300000D03*
%TO.P,U2,10,GND*%
%TO.N,GND*%
X202220000Y-98460000D03*
%TO.P,U2,11,SPI/I2C*%
X199640000Y-98460000D03*
%TO.P,U2,12,LPn*%
%TO.N,/LPn_1*%
X197140000Y-98460000D03*
%TO.P,U2,13,SYNC*%
%TO.N,unconnected-(U2-SYNC-Pad13)*%
X194600000Y-98460000D03*
%TD*%
%TO.P,U1,1,CORE/IOVDD*%
%TO.N,unconnected-(U1-CORE{slash}IOVDD-Pad1)*%
X209740000Y-73980000D03*
%TO.P,U1,2,AVDD*%
%TO.N,unconnected-(U1-AVDD-Pad2)*%
X207200000Y-73980000D03*
%TO.P,U1,3,VIN*%
%TO.N,/3.3VOUT*%
X204660000Y-73980000D03*
%TO.P,U1,4,GND*%
%TO.N,GND*%
X202120000Y-74020000D03*
%TO.P,U1,5,SDA*%
%TO.N,/SDA*%
X199540000Y-73980000D03*
%TO.P,U1,6,SCL*%
%TO.N,/SCL*%
X197040000Y-73990000D03*
%TO.P,U1,7,MISO*%
%TO.N,unconnected-(U1-MISO-Pad7)*%
X194500000Y-73980000D03*
%TO.P,U1,8*%
%TO.N,N/C*%
X191960000Y-73980000D03*
%TO.P,U1,9,CS*%
%TO.N,unconnected-(U1-CS-Pad9)*%
X189420000Y-73980000D03*
%TO.P,U1,10,GND*%
%TO.N,GND*%
X202120000Y-84140000D03*
%TO.P,U1,11,SPI/I2C*%
X199540000Y-84140000D03*
%TO.P,U1,12,LPn*%
%TO.N,/LPn_0*%
X197040000Y-84140000D03*
%TO.P,U1,13,SYNC*%
%TO.N,unconnected-(U1-SYNC-Pad13)*%
X194500000Y-84140000D03*
%TD*%
%TO.P,U3,1,CORE/IOVDD*%
%TO.N,unconnected-(U3-CORE{slash}IOVDD-Pad1)*%
X185180000Y-88300000D03*
%TO.P,U3,2,AVDD*%
%TO.N,unconnected-(U3-AVDD-Pad2)*%
X182640000Y-88300000D03*
%TO.P,U3,3,VIN*%
%TO.N,/3.3VOUT*%
X180100000Y-88300000D03*
%TO.P,U3,4,GND*%
%TO.N,GND*%
X177560000Y-88340000D03*
%TO.P,U3,5,SDA*%
%TO.N,/SDA*%
X174980000Y-88300000D03*
%TO.P,U3,6,SCL*%
%TO.N,/SCL*%
X172480000Y-88310000D03*
%TO.P,U3,7,MISO*%
%TO.N,unconnected-(U3-MISO-Pad7)*%
X169940000Y-88300000D03*
%TO.P,U3,8*%
%TO.N,N/C*%
X167400000Y-88300000D03*
%TO.P,U3,9,CS*%
%TO.N,unconnected-(U3-CS-Pad9)*%
X164860000Y-88300000D03*
%TO.P,U3,10,GND*%
%TO.N,GND*%
X177560000Y-98460000D03*
%TO.P,U3,11,SPI/I2C*%
X174980000Y-98460000D03*
%TO.P,U3,12,LPn*%
%TO.N,/LPn_3*%
X172480000Y-98460000D03*
%TO.P,U3,13,SYNC*%
%TO.N,unconnected-(U3-SYNC-Pad13)*%
X169940000Y-98460000D03*
%TD*%
D11*
%TO.P,U6,1,PG*%
%TO.N,unconnected-(U6-PG-Pad1)*%
X185800000Y-39470000D03*
%TO.P,U6,2,EN*%
%TO.N,unconnected-(U6-EN-Pad2)*%
X185800000Y-42010000D03*
%TO.P,U6,3,VIN*%
%TO.N,/5Vin*%
X185800000Y-44550000D03*
%TO.P,U6,4,GND*%
%TO.N,GND*%
X185800000Y-47090000D03*
%TO.P,U6,5,VOUT*%
%TO.N,/3.3VOUT*%
X185800000Y-49630000D03*
%TO.P,U6,6,VOUT*%
%TO.N,unconnected-(U6-VOUT-Pad6)*%
X196460000Y-39470000D03*
%TD*%
D10*
%TO.P,U4,1,CORE/IOVDD*%
%TO.N,unconnected-(U4-CORE{slash}IOVDD-Pad1)*%
X185140000Y-74000000D03*
%TO.P,U4,2,AVDD*%
%TO.N,unconnected-(U4-AVDD-Pad2)*%
X182600000Y-74000000D03*
%TO.P,U4,3,VIN*%
%TO.N,/3.3VOUT*%
X180060000Y-74000000D03*
%TO.P,U4,4,GND*%
%TO.N,GND*%
X177520000Y-74040000D03*
%TO.P,U4,5,SDA*%
%TO.N,/SDA*%
X174940000Y-74000000D03*
%TO.P,U4,6,SCL*%
%TO.N,/SCL*%
X172440000Y-74010000D03*
%TO.P,U4,7,MISO*%
%TO.N,unconnected-(U4-MISO-Pad7)*%
X169900000Y-74000000D03*
%TO.P,U4,8*%
%TO.N,N/C*%
X167360000Y-74000000D03*
%TO.P,U4,9,CS*%
%TO.N,unconnected-(U4-CS-Pad9)*%
X164820000Y-74000000D03*
%TO.P,U4,10,GND*%
%TO.N,GND*%
X177520000Y-84160000D03*
%TO.P,U4,11,SPI/I2C*%
X174940000Y-84160000D03*
%TO.P,U4,12,LPn*%
%TO.N,/LPn_2*%
X172440000Y-84160000D03*
%TO.P,U4,13,SYNC*%
%TO.N,unconnected-(U4-SYNC-Pad13)*%
X169900000Y-84160000D03*
%TD*%
D12*
%TO.P,U5,JP1_1,VIN*%
%TO.N,/3.3VOUT*%
X164550000Y-45550000D03*
%TO.P,U5,JP1_2,1.8V*%
%TO.N,unconnected-(U5A-1.8V-PadJP1_2)*%
X164550000Y-48090000D03*
%TO.P,U5,JP1_3,GND_JP1*%
%TO.N,GND*%
X164550000Y-50630000D03*
%TO.P,U5,JP1_4,SCK/SCL*%
%TO.N,/SCL*%
X164550000Y-53170000D03*
%TO.P,U5,JP1_5,SDI/SDA*%
%TO.N,/SDA*%
X164550000Y-55710000D03*
%TO.P,U5,JP1_6,INT*%
%TO.N,unconnected-(U5A-INT-PadJP1_6)*%
X164550000Y-58250000D03*
%TO.P,U5,JP3_1*%
%TO.N,N/C*%
X177250000Y-58250000D03*
%TO.P,U5,JP3_2*%
X177250000Y-55710000D03*
%TO.P,U5,JP3_3*%
X177250000Y-53170000D03*
%TO.P,U5,JP3_4*%
X177250000Y-50630000D03*
%TO.P,U5,JP3_5*%
X177250000Y-48090000D03*
%TO.P,U5,JP3_6*%
X177250000Y-45550000D03*
D13*
%TO.P,U5,SH1*%
X177250000Y-41740000D03*
%TO.P,U5,SH2*%
X164550000Y-41740000D03*
%TO.P,U5,SH3*%
X164550000Y-62060000D03*
%TO.P,U5,SH4*%
X177250000Y-62060000D03*
%TD*%
D14*
%TO.P,J1,1,Pin_1*%
%TO.N,GND*%
X207250000Y-65000000D03*
D15*
%TO.P,J1,2,Pin_2*%
%TO.N,/5VinML*%
X207250000Y-63000000D03*
%TO.P,J1,3,Pin_3*%
%TO.N,/SCL*%
X207250000Y-61000000D03*
%TO.P,J1,4,Pin_4*%
%TO.N,/SDA*%
X207250000Y-59000000D03*
%TO.P,J1,5,Pin_5*%
%TO.N,/SCAN_LED*%
X207250000Y-57000000D03*
%TO.P,J1,6,Pin_6*%
%TO.N,/LPn_0*%
X207250000Y-55000000D03*
%TO.P,J1,7,Pin_7*%
%TO.N,/LPn_1*%
X207250000Y-53000000D03*
%TO.P,J1,8,Pin_8*%
%TO.N,/LPn_2*%
X207250000Y-51000000D03*
%TO.P,J1,9,Pin_9*%
%TO.N,/LPn_3*%
X207250000Y-49000000D03*
%TD*%
D16*
%TO.P,C1,1*%
%TO.N,GND*%
X191650000Y-44600000D03*
%TO.P,C1,2*%
%TO.N,/5Vin*%
X189750000Y-44600000D03*
%TD*%
D17*
%TO.N,/5Vin*%
X189750000Y-47100000D03*
%TO.N,GND*%
X213700000Y-44900000D03*
X213700000Y-41300000D03*
X200900000Y-65000000D03*
X197700000Y-66600000D03*
%TO.N,/LPn_1*%
X211200000Y-63600000D03*
X212600000Y-77000000D03*
%TO.N,/SDA*%
X193400000Y-57400000D03*
X193800000Y-92100000D03*
X187000000Y-57400000D03*
X191700000Y-77100000D03*
X187400000Y-82900000D03*
X171300000Y-68300000D03*
X185100000Y-60900000D03*
%TO.N,/LPn_2*%
X183100000Y-66100000D03*
X212700000Y-60700000D03*
X174250000Y-64050000D03*
X166700000Y-65600000D03*
X193400000Y-68300000D03*
X180200000Y-66100000D03*
%TO.N,/LPn_0*%
X199600000Y-79800000D03*
%TO.N,/SCL*%
X180400000Y-68800000D03*
X194200000Y-71000000D03*
X175300000Y-70500000D03*
X187000000Y-63100000D03*
X161400000Y-85100000D03*
X186200000Y-66525000D03*
X193500000Y-60900000D03*
X189700000Y-66500000D03*
%TD*%
D18*
%TO.N,/SCL*%
X161400000Y-85100000D02*
X161400000Y-68300000D01*
X166900000Y-68100000D02*
X166900000Y-70200000D01*
X161400000Y-68300000D02*
X162800000Y-66900000D01*
X162800000Y-66900000D02*
X165700000Y-66900000D01*
X165700000Y-66900000D02*
X166900000Y-68100000D01*
X166900000Y-70200000D02*
X168200000Y-71500000D01*
X168200000Y-71500000D02*
X172400000Y-71500000D01*
%TO.N,/5Vin*%
X189750000Y-47150000D02*
X189750000Y-47100000D01*
D19*
X185850000Y-44600000D02*
X185800000Y-44550000D01*
D18*
X189750000Y-47100000D02*
X189750000Y-44600000D01*
%TO.N,/LPn_1*%
X212600000Y-72900000D02*
X214300000Y-71200000D01*
X211200000Y-64400000D02*
X211200000Y-63600000D01*
X214300000Y-71200000D02*
X214300000Y-67500000D01*
X212600000Y-77000000D02*
X212600000Y-72900000D01*
X214300000Y-67500000D02*
X211200000Y-64400000D01*
%TO.N,/SDA*%
X178750000Y-65150000D02*
X178750000Y-69450000D01*
X193800000Y-92100000D02*
X198600000Y-92100000D01*
X187400000Y-72500000D02*
X187400000Y-76800000D01*
X180600000Y-71300000D02*
X186200000Y-71300000D01*
X171700000Y-68300000D02*
X173400000Y-66600000D01*
X185100000Y-60900000D02*
X183000000Y-60900000D01*
X171300000Y-68300000D02*
X171700000Y-68300000D01*
X177300000Y-66600000D02*
X178750000Y-65150000D01*
X187400000Y-76800000D02*
X187400000Y-82900000D01*
X187400000Y-76800000D02*
X188300000Y-77700000D01*
X198600000Y-92100000D02*
X199640000Y-91060000D01*
X178750000Y-69450000D02*
X180600000Y-71300000D01*
X199640000Y-91060000D02*
X199640000Y-88300000D01*
X173400000Y-66600000D02*
X177300000Y-66600000D01*
X186200000Y-71300000D02*
X187400000Y-72500000D01*
X191100000Y-77700000D02*
X191700000Y-77100000D01*
X183000000Y-60900000D02*
X178750000Y-65150000D01*
X188300000Y-77700000D02*
X191100000Y-77700000D01*
X193400000Y-57400000D02*
X187000000Y-57400000D01*
%TO.N,/LPn_2*%
X207900000Y-68300000D02*
X193400000Y-68300000D01*
X209500000Y-66700000D02*
X207900000Y-68300000D01*
X209500000Y-62700000D02*
X209500000Y-66700000D01*
X174250000Y-64050000D02*
X171600000Y-64050000D01*
X212700000Y-60700000D02*
X211400000Y-62000000D01*
X171600000Y-64100000D02*
X170100000Y-65600000D01*
X211400000Y-62000000D02*
X210200000Y-62000000D01*
X210200000Y-62000000D02*
X209500000Y-62700000D01*
X183100000Y-66100000D02*
X180200000Y-66100000D01*
X171600000Y-64050000D02*
X171600000Y-64100000D01*
X170100000Y-65600000D02*
X166700000Y-65600000D01*
%TO.N,/LPn_0*%
X197040000Y-84140000D02*
X197040000Y-82360000D01*
X197040000Y-82360000D02*
X199600000Y-79800000D01*
%TO.N,/SCL*%
X189700000Y-66500000D02*
X194200000Y-71000000D01*
X186200000Y-66525000D02*
X186200000Y-68200000D01*
X172400000Y-71500000D02*
X172440000Y-71540000D01*
X182200000Y-68800000D02*
X180400000Y-68800000D01*
X193500000Y-60900000D02*
X191300000Y-63100000D01*
X175300000Y-70500000D02*
X173400000Y-70500000D01*
X173400000Y-70500000D02*
X172400000Y-71500000D01*
X185000000Y-69400000D02*
X182800000Y-69400000D01*
X191300000Y-63100000D02*
X187000000Y-63100000D01*
X186200000Y-68200000D02*
X185000000Y-69400000D01*
X182800000Y-69400000D02*
X182200000Y-68800000D01*
X172440000Y-71540000D02*
X172440000Y-74010000D01*
%TD*%
%TA.AperFunction,Conductor*%
%TO.N,GND*%
G36*
X185575763Y-38020185D02*
G01*
X185621518Y-38072989D01*
X185631462Y-38142147D01*
X185602437Y-38205703D01*
X185543659Y-38243477D01*
X185528122Y-38246973D01*
X185507173Y-38250290D01*
X185319970Y-38311117D01*
X185144594Y-38400476D01*
X185053741Y-38466485D01*
X184985354Y-38516172D01*
X184985352Y-38516174D01*
X184985351Y-38516174D01*
X184846174Y-38655351D01*
X184846174Y-38655352D01*
X184846172Y-38655354D01*
X184796485Y-38723741D01*
X184730476Y-38814594D01*
X184641117Y-38989970D01*
X184580290Y-39177173D01*
X184549500Y-39371577D01*
X184549500Y-39568422D01*
X184580290Y-39762826D01*
X184641117Y-39950029D01*
X184679122Y-40024617D01*
X184730476Y-40125405D01*
X184846172Y-40284646D01*
X184985354Y-40423828D01*
X185144595Y-40539524D01*
X185267992Y-40602397D01*
X185321213Y-40629515D01*
X185372009Y-40677489D01*
X185388804Y-40745310D01*
X185366267Y-40811445D01*
X185321213Y-40850485D01*
X185144594Y-40940476D01*
X185089686Y-40980370D01*
X184985354Y-41056172D01*
X184985352Y-41056174D01*
X184985351Y-41056174D01*
X184846174Y-41195351D01*
X184846174Y-41195352D01*
X184846172Y-41195354D01*
X184811669Y-41242843D01*
X184730476Y-41354594D01*
X184641117Y-41529970D01*
X184580290Y-41717173D01*
X184549500Y-41911577D01*
X184549500Y-42108422D01*
X184580290Y-42302826D01*
X184641117Y-42490029D01*
X184730476Y-42665405D01*
X184846172Y-42824646D01*
X184985354Y-42963828D01*
X185144595Y-43079524D01*
X185239590Y-43127926D01*
X185321213Y-43169515D01*
X185372009Y-43217489D01*
X185388804Y-43285310D01*
X185366267Y-43351445D01*
X185321213Y-43390485D01*
X185144594Y-43480476D01*
X185073282Y-43532288D01*
X184985354Y-43596172D01*
X184985352Y-43596174D01*
X184985351Y-43596174D01*
X184846174Y-43735351D01*
X184846174Y-43735352D01*
X184846172Y-43735354D01*
X184796485Y-43803741D01*
X184730476Y-43894594D01*
X184641117Y-44069970D01*
X184580290Y-44257173D01*
X184549500Y-44451577D01*
X184549500Y-44648422D01*
X184580290Y-44842826D01*
X184641117Y-45030029D01*
X184730476Y-45205405D01*
X184846172Y-45364646D01*
X184985354Y-45503828D01*
X185072041Y-45566810D01*
X185144596Y-45619525D01*
X185321763Y-45709795D01*
X185372560Y-45757769D01*
X185389355Y-45825590D01*
X185366818Y-45891725D01*
X185321764Y-45930765D01*
X185144859Y-46020902D01*
X185109873Y-46046320D01*
X185109872Y-46046320D01*
X185650178Y-46586624D01*
X185597358Y-46600778D01*
X185477643Y-46669896D01*
X185379896Y-46767643D01*
X185310778Y-46887358D01*
X185296624Y-46940177D01*
X184756320Y-46399872D01*
X184756320Y-46399873D01*
X184730902Y-46434859D01*
X184730899Y-46434863D01*
X184641582Y-46610161D01*
X184580778Y-46797294D01*
X184550000Y-46991617D01*
X184550000Y-47188382D01*
X184580778Y-47382705D01*
X184641581Y-47569835D01*
X184730905Y-47745145D01*
X184756319Y-47780125D01*
X184756320Y-47780125D01*
X185296624Y-47239821D01*
X185310778Y-47292642D01*
X185379896Y-47412357D01*
X185477643Y-47510104D01*
X185597358Y-47579222D01*
X185650177Y-47593375D01*
X185109873Y-48133677D01*
X185109873Y-48133678D01*
X185144858Y-48159096D01*
X185321764Y-48249234D01*
X185372560Y-48297209D01*
X185389355Y-48365030D01*
X185366818Y-48431164D01*
X185321764Y-48470204D01*
X185144594Y-48560476D01*
X185058016Y-48623380D01*
X184985354Y-48676172D01*
X184985352Y-48676174D01*
X184985351Y-48676174D01*
X184846174Y-48815351D01*
X184846174Y-48815352D01*
X184846172Y-48815354D01*
X184844063Y-48818257D01*
X184730476Y-48974594D01*
X184641117Y-49149970D01*
X184580290Y-49337173D01*
X184549500Y-49531577D01*
X184549500Y-49728422D01*
X184580290Y-49922826D01*
X184641117Y-50110029D01*
X184702195Y-50229901D01*
X184730476Y-50285405D01*
X184846172Y-50444646D01*
X184985354Y-50583828D01*
X185144595Y-50699524D01*
X185222692Y-50739316D01*
X185319970Y-50788882D01*
X185319972Y-50788882D01*
X185319975Y-50788884D01*
X185420317Y-50821487D01*
X185507173Y-50849709D01*
X185701578Y-50880500D01*
X185701583Y-50880500D01*
X185898422Y-50880500D01*
X186092826Y-50849709D01*
X186280025Y-50788884D01*
X186455405Y-50699524D01*
X186614646Y-50583828D01*
X186753828Y-50444646D01*
X186869524Y-50285405D01*
X186958884Y-50110025D01*
X187019709Y-49922826D01*
X187023049Y-49901739D01*
X187050500Y-49728422D01*
X187050500Y-49531577D01*
X187019709Y-49337173D01*
X186958882Y-49149970D01*
X186869523Y-48974594D01*
X186753828Y-48815354D01*
X186614646Y-48676172D01*
X186455405Y-48560476D01*
X186280025Y-48471116D01*
X186280024Y-48471115D01*
X186278235Y-48470204D01*
X186227439Y-48422230D01*
X186210644Y-48354409D01*
X186233181Y-48288274D01*
X186278236Y-48249234D01*
X186455141Y-48159097D01*
X186490125Y-48133678D01*
X186490126Y-48133678D01*
X185949822Y-47593374D01*
X186002642Y-47579222D01*
X186122357Y-47510104D01*
X186220104Y-47412357D01*
X186289222Y-47292642D01*
X186303374Y-47239822D01*
X186843678Y-47780126D01*
X186843678Y-47780125D01*
X186869095Y-47745143D01*
X186958418Y-47569835D01*
X187019221Y-47382705D01*
X187050000Y-47188382D01*
X187050000Y-46991617D01*
X187019221Y-46797294D01*
X186958418Y-46610164D01*
X186869096Y-46434858D01*
X186843678Y-46399873D01*
X186843677Y-46399873D01*
X186303374Y-46940176D01*
X186289222Y-46887358D01*
X186220104Y-46767643D01*
X186122357Y-46669896D01*
X186002642Y-46600778D01*
X185949821Y-46586624D01*
X186490125Y-46046320D01*
X186490125Y-46046319D01*
X186455145Y-46020905D01*
X186278235Y-45930765D01*
X186227439Y-45882790D01*
X186210644Y-45814969D01*
X186233182Y-45748834D01*
X186278236Y-45709795D01*
X186280022Y-45708884D01*
X186280025Y-45708884D01*
X186455405Y-45619524D01*
X186614646Y-45503828D01*
X186753828Y-45364646D01*
X186869524Y-45205405D01*
X186958884Y-45030025D01*
X187019709Y-44842826D01*
X187023049Y-44821739D01*
X187050500Y-44648422D01*
X187050500Y-44451577D01*
X187019709Y-44257173D01*
X186999414Y-44194714D01*
X186960511Y-44074983D01*
X188749500Y-44074983D01*
X188749500Y-45125001D01*
X188749501Y-45125019D01*
X188760000Y-45227796D01*
X188760001Y-45227799D01*
X188815185Y-45394331D01*
X188815190Y-45394342D01*
X188856038Y-45460566D01*
X188860733Y-45477123D01*
X188869477Y-45490728D01*
X188874500Y-45525663D01*
X188874500Y-45738715D01*
X188874074Y-45748981D01*
X188872287Y-45770480D01*
X188870985Y-45791445D01*
X188870943Y-45792451D01*
X188873476Y-45869331D01*
X188874500Y-45883779D01*
X188874500Y-46873414D01*
X188872117Y-46897606D01*
X188849500Y-47011306D01*
X188849500Y-47188695D01*
X188884103Y-47362658D01*
X188884106Y-47362667D01*
X188951984Y-47526542D01*
X188951987Y-47526547D01*
X188961898Y-47541380D01*
X188961904Y-47541388D01*
X188973364Y-47562827D01*
X188974142Y-47564705D01*
X188974143Y-47564706D01*
X188974145Y-47564710D01*
X189069954Y-47708098D01*
X189069957Y-47708102D01*
X189191897Y-47830042D01*
X189191901Y-47830045D01*
X189335288Y-47925854D01*
X189335301Y-47925861D01*
X189467560Y-47980644D01*
X189494626Y-47991855D01*
X189663766Y-48025499D01*
X189663769Y-48025500D01*
X189663771Y-48025500D01*
X189836231Y-48025500D01*
X189836232Y-48025499D01*
X190005374Y-47991855D01*
X190128604Y-47940811D01*
X190164698Y-47925861D01*
X190164698Y-47925860D01*
X190164705Y-47925858D01*
X190308099Y-47830045D01*
X190430045Y-47708099D01*
X190525858Y-47564705D01*
X190526629Y-47562842D01*
X190538096Y-47541387D01*
X190548013Y-47526547D01*
X190615894Y-47362666D01*
X190616079Y-47361739D01*
X190650499Y-47188695D01*
X190650500Y-47188693D01*
X190650500Y-47011306D01*
X190627883Y-46897606D01*
X190625500Y-46873414D01*
X190625500Y-45807343D01*
X190627711Y-45770479D01*
X190625500Y-45743865D01*
X190625500Y-45660523D01*
X190645185Y-45593484D01*
X190697989Y-45547729D01*
X190767147Y-45537785D01*
X190830703Y-45566810D01*
X190837181Y-45572842D01*
X190931654Y-45667315D01*
X191080875Y-45759356D01*
X191080880Y-45759358D01*
X191247302Y-45814505D01*
X191247309Y-45814506D01*
X191350019Y-45824999D01*
X191900000Y-45824999D01*
X191949972Y-45824999D01*
X191949986Y-45824998D01*
X192052697Y-45814505D01*
X192219119Y-45759358D01*
X192219124Y-45759356D01*
X192368345Y-45667315D01*
X192492315Y-45543345D01*
X192584356Y-45394124D01*
X192584358Y-45394119D01*
X192639505Y-45227697D01*
X192639506Y-45227690D01*
X192649999Y-45124986D01*
X192650000Y-45124973D01*
X192650000Y-44850000D01*
X191900000Y-44850000D01*
X191900000Y-45824999D01*
X191350019Y-45824999D01*
X191399999Y-45824998D01*
X191400000Y-45824998D01*
X191400000Y-44350000D01*
X191900000Y-44350000D01*
X192649999Y-44350000D01*
X192649999Y-44075028D01*
X192649998Y-44075013D01*
X192639505Y-43972302D01*
X192584358Y-43805880D01*
X192584356Y-43805875D01*
X192492315Y-43656654D01*
X192368345Y-43532684D01*
X192219124Y-43440643D01*
X192219119Y-43440641D01*
X192052697Y-43385494D01*
X192052690Y-43385493D01*
X191949986Y-43375000D01*
X191900000Y-43375000D01*
X191900000Y-44350000D01*
X191400000Y-44350000D01*
X191400000Y-43375000D01*
X191399999Y-43374999D01*
X191350029Y-43375000D01*
X191350011Y-43375001D01*
X191247302Y-43385494D01*
X191080880Y-43440641D01*
X191080875Y-43440643D01*
X190931654Y-43532684D01*
X190807683Y-43656655D01*
X190807679Y-43656660D01*
X190805826Y-43659665D01*
X190804018Y-43661290D01*
X190803202Y-43662323D01*
X190803025Y-43662183D01*
X190753874Y-43706385D01*
X190684911Y-43717601D01*
X190620831Y-43689752D01*
X190594753Y-43659653D01*
X190594737Y-43659628D01*
X190592712Y-43656344D01*
X190468656Y-43532288D01*
X190319334Y-43440186D01*
X190152797Y-43385001D01*
X190152795Y-43385000D01*
X190050010Y-43374500D01*
X189449998Y-43374500D01*
X189449980Y-43374501D01*
X189347203Y-43385000D01*
X189347200Y-43385001D01*
X189180668Y-43440185D01*
X189180663Y-43440187D01*
X189031342Y-43532289D01*
X188907289Y-43656342D01*
X188815187Y-43805663D01*
X188815185Y-43805668D01*
X188815115Y-43805880D01*
X188760001Y-43972203D01*
X188760001Y-43972204D01*
X188760000Y-43972204D01*
X188749500Y-44074983D01*
X186960511Y-44074983D01*
X186958884Y-44069975D01*
X186869524Y-43894595D01*
X186753828Y-43735354D01*
X186614646Y-43596172D01*
X186526718Y-43532288D01*
X186455403Y-43480474D01*
X186278787Y-43390485D01*
X186227990Y-43342511D01*
X186211195Y-43274690D01*
X186233732Y-43208555D01*
X186278787Y-43169515D01*
X186455403Y-43079525D01*
X186455402Y-43079525D01*
X186455405Y-43079524D01*
X186614646Y-42963828D01*
X186753828Y-42824646D01*
X186869524Y-42665405D01*
X186958884Y-42490025D01*
X187019709Y-42302826D01*
X187050500Y-42108422D01*
X187050500Y-41911577D01*
X187019709Y-41717173D01*
X186978550Y-41590500D01*
X186958884Y-41529975D01*
X186958882Y-41529972D01*
X186958882Y-41529970D01*
X186869523Y-41354594D01*
X186852955Y-41331790D01*
X186753828Y-41195354D01*
X186614646Y-41056172D01*
X186510314Y-40980370D01*
X186455403Y-40940474D01*
X186278787Y-40850485D01*
X186227990Y-40802511D01*
X186211195Y-40734690D01*
X186233732Y-40668555D01*
X186278787Y-40629515D01*
X186455403Y-40539525D01*
X186455402Y-40539525D01*
X186455405Y-40539524D01*
X186614646Y-40423828D01*
X186753828Y-40284646D01*
X186869524Y-40125405D01*
X186958884Y-39950025D01*
X187019709Y-39762826D01*
X187022262Y-39746705D01*
X187050500Y-39568422D01*
X187050500Y-39371577D01*
X187019709Y-39177173D01*
X186958882Y-38989970D01*
X186869523Y-38814594D01*
X186753828Y-38655354D01*
X186614646Y-38516172D01*
X186455405Y-38400476D01*
X186280029Y-38311117D01*
X186092826Y-38250290D01*
X186071878Y-38246973D01*
X186008743Y-38217044D01*
X185971812Y-38157732D01*
X185972810Y-38087870D01*
X186011420Y-38029637D01*
X186075383Y-38001523D01*
X186091276Y-38000500D01*
X196168724Y-38000500D01*
X196235763Y-38020185D01*
X196281518Y-38072989D01*
X196291462Y-38142147D01*
X196262437Y-38205703D01*
X196203659Y-38243477D01*
X196188122Y-38246973D01*
X196167173Y-38250290D01*
X195979970Y-38311117D01*
X195804594Y-38400476D01*
X195713741Y-38466485D01*
X195645354Y-38516172D01*
X195645352Y-38516174D01*
X195645351Y-38516174D01*
X195506174Y-38655351D01*
X195506174Y-38655352D01*
X195506172Y-38655354D01*
X195456485Y-38723741D01*
X195390476Y-38814594D01*
X195301117Y-38989970D01*
X195240290Y-39177173D01*
X195209500Y-39371577D01*
X195209500Y-39568422D01*
X195240290Y-39762826D01*
X195301117Y-39950029D01*
X195339122Y-40024617D01*
X195390476Y-40125405D01*
X195506172Y-40284646D01*
X195645354Y-40423828D01*
X195804595Y-40539524D01*
X195887455Y-40581743D01*
X195979970Y-40628882D01*
X195979972Y-40628882D01*
X195979975Y-40628884D01*
X196080317Y-40661487D01*
X196167173Y-40689709D01*
X196361578Y-40720500D01*
X196361583Y-40720500D01*
X196558422Y-40720500D01*
X196752826Y-40689709D01*
X196768322Y-40684674D01*
X196940025Y-40628884D01*
X197115405Y-40539524D01*
X197169803Y-40500001D01*
X198907521Y-40500001D01*
X198908938Y-40514837D01*
X198909500Y-40526627D01*
X198909500Y-40585829D01*
X198924553Y-40680869D01*
X198925155Y-40684674D01*
X198927264Y-40706753D01*
X198930278Y-40717018D01*
X198931526Y-40724897D01*
X198931527Y-40724900D01*
X198936350Y-40755350D01*
X198936353Y-40755362D01*
X198989391Y-40918601D01*
X198989393Y-40918607D01*
X199031173Y-41000603D01*
X199067321Y-41071547D01*
X199067325Y-41071552D01*
X199076995Y-41084862D01*
X199080351Y-41089481D01*
X199080948Y-41090639D01*
X199084157Y-41094720D01*
X199168213Y-41210413D01*
X199168215Y-41210415D01*
X199200643Y-41242843D01*
X199209336Y-41253897D01*
X199227021Y-41269221D01*
X199289590Y-41331790D01*
X199344963Y-41372020D01*
X199349263Y-41375144D01*
X199366300Y-41389907D01*
X199382280Y-41399132D01*
X199414503Y-41422544D01*
X199428454Y-41432680D01*
X199482490Y-41460212D01*
X199530012Y-41484426D01*
X199546168Y-41493754D01*
X199552874Y-41496075D01*
X199581393Y-41510606D01*
X199744641Y-41563648D01*
X199914176Y-41590500D01*
X199914177Y-41590500D01*
X199942857Y-41590500D01*
X199948018Y-41591242D01*
X199963594Y-41590500D01*
X200085820Y-41590500D01*
X200085824Y-41590500D01*
X200138410Y-41582171D01*
X200155476Y-41581359D01*
X200177926Y-41575912D01*
X200255359Y-41563648D01*
X200334568Y-41537911D01*
X200357315Y-41532394D01*
X200371524Y-41525903D01*
X200418607Y-41510606D01*
X200536003Y-41450789D01*
X200546240Y-41446115D01*
X200548906Y-41444215D01*
X200571547Y-41432679D01*
X200710413Y-41331787D01*
X200831787Y-41210413D01*
X200852585Y-41181785D01*
X200858746Y-41175326D01*
X200869977Y-41157848D01*
X200932679Y-41071547D01*
X200960384Y-41017172D01*
X200971034Y-41000603D01*
X200979121Y-40980398D01*
X201010606Y-40918607D01*
X201039668Y-40829159D01*
X201048226Y-40807787D01*
X201050574Y-40795594D01*
X201063648Y-40755359D01*
X201090500Y-40585824D01*
X201090500Y-40414176D01*
X201063648Y-40244641D01*
X201050575Y-40204408D01*
X201048226Y-40192213D01*
X201039667Y-40170834D01*
X201010606Y-40081393D01*
X200979124Y-40019607D01*
X200971034Y-39999397D01*
X200960378Y-39982815D01*
X200932679Y-39928453D01*
X200869983Y-39842160D01*
X200858746Y-39824674D01*
X200852584Y-39818211D01*
X200847719Y-39811515D01*
X200847718Y-39811514D01*
X200831789Y-39789590D01*
X200831787Y-39789587D01*
X200710413Y-39668213D01*
X200571547Y-39567321D01*
X200551539Y-39557126D01*
X200548915Y-39555789D01*
X200546240Y-39553885D01*
X200535995Y-39549206D01*
X200533620Y-39547996D01*
X200533619Y-39547995D01*
X200418608Y-39489394D01*
X200378273Y-39476288D01*
X200371524Y-39474095D01*
X200357315Y-39467606D01*
X200334571Y-39462088D01*
X200330061Y-39460623D01*
X200330060Y-39460622D01*
X200255363Y-39436352D01*
X200182886Y-39424872D01*
X200182886Y-39424873D01*
X200177928Y-39424087D01*
X200155476Y-39418641D01*
X200138399Y-39417827D01*
X200136139Y-39417469D01*
X200131690Y-39416764D01*
X200131688Y-39416763D01*
X200085828Y-39409500D01*
X200085824Y-39409500D01*
X199963594Y-39409500D01*
X199948018Y-39408758D01*
X199942857Y-39409500D01*
X199914176Y-39409500D01*
X199886655Y-39413859D01*
X199744639Y-39436352D01*
X199581397Y-39489392D01*
X199581393Y-39489393D01*
X199560505Y-39500035D01*
X199560506Y-39500036D01*
X199552871Y-39503925D01*
X199546168Y-39506246D01*
X199530015Y-39515571D01*
X199527118Y-39517048D01*
X199527116Y-39517048D01*
X199428459Y-39567317D01*
X199428447Y-39567324D01*
X199387534Y-39597048D01*
X199382268Y-39600873D01*
X199366300Y-39610093D01*
X199349280Y-39624840D01*
X199344973Y-39627970D01*
X199344963Y-39627979D01*
X199289585Y-39668214D01*
X199230147Y-39727651D01*
X199230146Y-39727650D01*
X199226992Y-39730803D01*
X199209336Y-39746103D01*
X199200657Y-39757138D01*
X199195435Y-39762361D01*
X199195428Y-39762370D01*
X199168212Y-39789588D01*
X199085529Y-39903388D01*
X199084118Y-39905329D01*
X199080948Y-39909361D01*
X199080358Y-39910504D01*
X199077011Y-39915112D01*
X199077003Y-39915125D01*
X199067322Y-39928451D01*
X198989393Y-40081392D01*
X198989391Y-40081398D01*
X198936353Y-40244637D01*
X198936349Y-40244653D01*
X198931526Y-40275092D01*
X198931527Y-40275093D01*
X198930277Y-40282984D01*
X198927264Y-40293247D01*
X198925155Y-40315329D01*
X198924554Y-40319127D01*
X198924553Y-40319131D01*
X198909500Y-40414170D01*
X198909500Y-40473364D01*
X198908939Y-40485149D01*
X198907521Y-40500001D01*
X197169803Y-40500001D01*
X197274646Y-40423828D01*
X197413828Y-40284646D01*
X197529524Y-40125405D01*
X197618884Y-39950025D01*
X197679709Y-39762826D01*
X197682262Y-39746705D01*
X197710500Y-39568422D01*
X197710500Y-39371577D01*
X197679709Y-39177173D01*
X197618882Y-38989970D01*
X197529523Y-38814594D01*
X197413828Y-38655354D01*
X197274646Y-38516172D01*
X197115405Y-38400476D01*
X196940029Y-38311117D01*
X196752826Y-38250290D01*
X196731878Y-38246973D01*
X196668743Y-38217044D01*
X196631812Y-38157732D01*
X196632810Y-38087870D01*
X196671420Y-38029637D01*
X196735383Y-38001523D01*
X196751276Y-38000500D01*
X214875500Y-38000500D01*
X214942539Y-38020185D01*
X214988294Y-38072989D01*
X214999500Y-38124500D01*
X214999500Y-66661994D01*
X214979815Y-66729033D01*
X214927011Y-66774788D01*
X214857853Y-66784732D01*
X214794297Y-66755707D01*
X214787819Y-66749675D01*
X212111819Y-64073675D01*
X212097115Y-64046747D01*
X212080523Y-64020929D01*
X212079631Y-64014728D01*
X212078334Y-64012352D01*
X212075500Y-63985994D01*
X212075500Y-63826584D01*
X212077883Y-63802392D01*
X212078466Y-63799464D01*
X212094884Y-63716926D01*
X212100500Y-63688693D01*
X212100500Y-63511306D01*
X212100499Y-63511304D01*
X212065896Y-63337341D01*
X212065893Y-63337332D01*
X211998016Y-63173459D01*
X211998009Y-63173446D01*
X211899464Y-63025965D01*
X211899461Y-63025961D01*
X211822426Y-62948926D01*
X211788941Y-62887603D01*
X211793925Y-62817911D01*
X211835797Y-62761978D01*
X211841186Y-62758163D01*
X211958099Y-62680045D01*
X213158854Y-61479288D01*
X213177634Y-61463876D01*
X213274035Y-61399464D01*
X213399464Y-61274035D01*
X213498013Y-61126547D01*
X213565894Y-60962666D01*
X213600500Y-60788691D01*
X213600500Y-60611309D01*
X213600500Y-60611306D01*
X213600499Y-60611304D01*
X213565896Y-60437341D01*
X213565893Y-60437332D01*
X213563897Y-60432514D01*
X213519764Y-60325965D01*
X213498016Y-60273459D01*
X213498009Y-60273446D01*
X213399464Y-60125965D01*
X213399461Y-60125961D01*
X213274038Y-60000538D01*
X213274034Y-60000535D01*
X213126553Y-59901990D01*
X213126540Y-59901983D01*
X212962667Y-59834106D01*
X212962658Y-59834103D01*
X212788694Y-59799500D01*
X212788691Y-59799500D01*
X212611309Y-59799500D01*
X212611306Y-59799500D01*
X212437341Y-59834103D01*
X212437332Y-59834106D01*
X212273459Y-59901983D01*
X212273446Y-59901990D01*
X212125965Y-60000535D01*
X212125961Y-60000538D01*
X212000542Y-60125958D01*
X212000539Y-60125961D01*
X211936122Y-60222364D01*
X211920702Y-60241152D01*
X211073675Y-61088181D01*
X211012352Y-61121666D01*
X210985994Y-61124500D01*
X210113768Y-61124500D01*
X209944633Y-61158143D01*
X209944621Y-61158146D01*
X209785301Y-61224138D01*
X209785288Y-61224145D01*
X209641901Y-61319954D01*
X209641897Y-61319957D01*
X209062174Y-61899682D01*
X208941901Y-62019955D01*
X208903088Y-62058768D01*
X208819953Y-62141902D01*
X208724145Y-62285288D01*
X208724140Y-62285298D01*
X208678842Y-62394657D01*
X208635001Y-62449060D01*
X208568706Y-62471125D01*
X208501007Y-62453845D01*
X208463965Y-62420091D01*
X208364414Y-62283072D01*
X208241928Y-62160586D01*
X208158975Y-62100317D01*
X208116311Y-62044988D01*
X208110332Y-61975374D01*
X208142938Y-61913579D01*
X208158976Y-61899682D01*
X208241928Y-61839414D01*
X208364414Y-61716928D01*
X208466232Y-61576788D01*
X208544873Y-61422445D01*
X208598402Y-61257701D01*
X208625500Y-61086611D01*
X208625500Y-60913389D01*
X208598402Y-60742299D01*
X208544873Y-60577555D01*
X208466232Y-60423212D01*
X208364414Y-60283072D01*
X208241928Y-60160586D01*
X208158975Y-60100317D01*
X208116311Y-60044988D01*
X208110332Y-59975374D01*
X208142938Y-59913579D01*
X208158976Y-59899682D01*
X208241928Y-59839414D01*
X208364414Y-59716928D01*
X208466232Y-59576788D01*
X208544873Y-59422445D01*
X208598402Y-59257701D01*
X208625500Y-59086611D01*
X208625500Y-58913389D01*
X208598402Y-58742299D01*
X208544873Y-58577555D01*
X208466232Y-58423212D01*
X208364414Y-58283072D01*
X208241928Y-58160586D01*
X208158975Y-58100317D01*
X208116311Y-58044988D01*
X208110332Y-57975374D01*
X208142938Y-57913579D01*
X208158976Y-57899682D01*
X208241928Y-57839414D01*
X208364414Y-57716928D01*
X208466232Y-57576788D01*
X208544873Y-57422445D01*
X208598402Y-57257701D01*
X208625500Y-57086611D01*
X208625500Y-56913389D01*
X208598402Y-56742299D01*
X208544873Y-56577555D01*
X208466232Y-56423212D01*
X208364414Y-56283072D01*
X208241928Y-56160586D01*
X208158975Y-56100317D01*
X208116311Y-56044988D01*
X208110332Y-55975374D01*
X208142938Y-55913579D01*
X208158976Y-55899682D01*
X208241928Y-55839414D01*
X208364414Y-55716928D01*
X208466232Y-55576788D01*
X208544873Y-55422445D01*
X208598402Y-55257701D01*
X208625500Y-55086611D01*
X208625500Y-54913389D01*
X208598402Y-54742299D01*
X208544873Y-54577555D01*
X208466232Y-54423212D01*
X208364414Y-54283072D01*
X208241928Y-54160586D01*
X208158975Y-54100317D01*
X208116311Y-54044988D01*
X208110332Y-53975374D01*
X208142938Y-53913579D01*
X208158976Y-53899682D01*
X208241928Y-53839414D01*
X208364414Y-53716928D01*
X208466232Y-53576788D01*
X208544873Y-53422445D01*
X208598402Y-53257701D01*
X208625500Y-53086611D01*
X208625500Y-52913389D01*
X208598402Y-52742299D01*
X208544873Y-52577555D01*
X208466232Y-52423212D01*
X208364414Y-52283072D01*
X208241928Y-52160586D01*
X208158975Y-52100317D01*
X208116311Y-52044988D01*
X208110332Y-51975374D01*
X208142938Y-51913579D01*
X208158976Y-51899682D01*
X208241928Y-51839414D01*
X208364414Y-51716928D01*
X208466232Y-51576788D01*
X208544873Y-51422445D01*
X208598402Y-51257701D01*
X208625500Y-51086611D01*
X208625500Y-50913389D01*
X208598402Y-50742299D01*
X208544873Y-50577555D01*
X208466232Y-50423212D01*
X208364414Y-50283072D01*
X208241928Y-50160586D01*
X208158975Y-50100317D01*
X208116311Y-50044988D01*
X208110332Y-49975374D01*
X208142938Y-49913579D01*
X208158976Y-49899682D01*
X208241928Y-49839414D01*
X208364414Y-49716928D01*
X208466232Y-49576788D01*
X208544873Y-49422445D01*
X208598402Y-49257701D01*
X208625500Y-49086611D01*
X208625500Y-48913389D01*
X208598402Y-48742299D01*
X208544873Y-48577555D01*
X208466232Y-48423212D01*
X208364414Y-48283072D01*
X208241928Y-48160586D01*
X208101788Y-48058768D01*
X207947445Y-47980127D01*
X207782701Y-47926598D01*
X207782699Y-47926597D01*
X207782698Y-47926597D01*
X207651271Y-47905781D01*
X207611611Y-47899500D01*
X206888389Y-47899500D01*
X206848728Y-47905781D01*
X206717302Y-47926597D01*
X206552552Y-47980128D01*
X206398211Y-48058768D01*
X206318256Y-48116859D01*
X206258072Y-48160586D01*
X206258070Y-48160588D01*
X206258069Y-48160588D01*
X206135588Y-48283069D01*
X206135588Y-48283070D01*
X206135586Y-48283072D01*
X206131807Y-48288274D01*
X206033768Y-48423211D01*
X205955128Y-48577552D01*
X205901597Y-48742302D01*
X205890027Y-48815354D01*
X205874500Y-48913389D01*
X205874500Y-49086611D01*
X205901598Y-49257701D01*
X205955127Y-49422445D01*
X206033768Y-49576788D01*
X206135586Y-49716928D01*
X206258072Y-49839414D01*
X206275257Y-49851899D01*
X206341023Y-49899683D01*
X206383689Y-49955013D01*
X206389667Y-50024626D01*
X206357061Y-50086421D01*
X206341023Y-50100317D01*
X206258078Y-50160581D01*
X206258069Y-50160588D01*
X206135588Y-50283069D01*
X206135588Y-50283070D01*
X206135586Y-50283072D01*
X206106582Y-50322993D01*
X206033768Y-50423211D01*
X205955128Y-50577552D01*
X205901597Y-50742302D01*
X205888817Y-50822993D01*
X205874500Y-50913389D01*
X205874500Y-51086611D01*
X205901598Y-51257701D01*
X205955127Y-51422445D01*
X206033768Y-51576788D01*
X206135586Y-51716928D01*
X206258072Y-51839414D01*
X206258078Y-51839418D01*
X206341023Y-51899683D01*
X206383689Y-51955013D01*
X206389667Y-52024626D01*
X206357061Y-52086421D01*
X206341023Y-52100317D01*
X206258078Y-52160581D01*
X206258069Y-52160588D01*
X206135588Y-52283069D01*
X206135588Y-52283070D01*
X206135586Y-52283072D01*
X206091859Y-52343256D01*
X206033768Y-52423211D01*
X205955128Y-52577552D01*
X205901597Y-52742302D01*
X205874500Y-52913389D01*
X205874500Y-53086611D01*
X205881127Y-53128451D01*
X205895566Y-53219621D01*
X205901598Y-53257701D01*
X205955127Y-53422445D01*
X206033768Y-53576788D01*
X206135586Y-53716928D01*
X206258072Y-53839414D01*
X206258078Y-53839418D01*
X206341023Y-53899683D01*
X206383689Y-53955013D01*
X206389667Y-54024626D01*
X206357061Y-54086421D01*
X206341023Y-54100317D01*
X206258078Y-54160581D01*
X206258069Y-54160588D01*
X206135588Y-54283069D01*
X206135588Y-54283070D01*
X206135586Y-54283072D01*
X206125733Y-54296634D01*
X206033768Y-54423211D01*
X205955128Y-54577552D01*
X205901597Y-54742302D01*
X205874500Y-54913389D01*
X205874500Y-55086610D01*
X205888755Y-55176617D01*
X205901598Y-55257701D01*
X205955127Y-55422445D01*
X206033768Y-55576788D01*
X206135586Y-55716928D01*
X206258072Y-55839414D01*
X206258078Y-55839418D01*
X206341023Y-55899683D01*
X206383689Y-55955013D01*
X206389667Y-56024626D01*
X206357061Y-56086421D01*
X206341023Y-56100317D01*
X206258078Y-56160581D01*
X206258069Y-56160588D01*
X206135588Y-56283069D01*
X206135588Y-56283070D01*
X206135586Y-56283072D01*
X206091859Y-56343256D01*
X206033768Y-56423211D01*
X205955128Y-56577552D01*
X205955127Y-56577554D01*
X205955127Y-56577555D01*
X205947188Y-56601990D01*
X205901597Y-56742302D01*
X205874500Y-56913389D01*
X205874500Y-57086610D01*
X205890898Y-57190148D01*
X205901598Y-57257701D01*
X205955127Y-57422445D01*
X206033768Y-57576788D01*
X206135586Y-57716928D01*
X206258072Y-57839414D01*
X206258078Y-57839418D01*
X206341023Y-57899683D01*
X206383689Y-57955013D01*
X206389667Y-58024626D01*
X206357061Y-58086421D01*
X206341023Y-58100317D01*
X206258078Y-58160581D01*
X206258069Y-58160588D01*
X206135588Y-58283069D01*
X206135588Y-58283070D01*
X206135586Y-58283072D01*
X206122925Y-58300499D01*
X206033768Y-58423211D01*
X205955128Y-58577552D01*
X205901597Y-58742302D01*
X205895091Y-58783380D01*
X205874500Y-58913389D01*
X205874500Y-59086611D01*
X205901598Y-59257701D01*
X205955127Y-59422445D01*
X206033768Y-59576788D01*
X206135586Y-59716928D01*
X206258072Y-59839414D01*
X206258078Y-59839418D01*
X206341023Y-59899683D01*
X206383689Y-59955013D01*
X206389667Y-60024626D01*
X206357061Y-60086421D01*
X206341023Y-60100317D01*
X206258078Y-60160581D01*
X206258069Y-60160588D01*
X206135588Y-60283069D01*
X206135588Y-60283070D01*
X206135586Y-60283072D01*
X206104425Y-60325961D01*
X206033768Y-60423211D01*
X205955128Y-60577552D01*
X205901597Y-60742302D01*
X205874500Y-60913389D01*
X205874500Y-61086610D01*
X205885829Y-61158143D01*
X205901598Y-61257701D01*
X205955127Y-61422445D01*
X206033768Y-61576788D01*
X206135586Y-61716928D01*
X206258072Y-61839414D01*
X206258078Y-61839418D01*
X206341023Y-61899683D01*
X206383689Y-61955013D01*
X206389667Y-62024626D01*
X206357061Y-62086421D01*
X206341023Y-62100317D01*
X206258078Y-62160581D01*
X206258069Y-62160588D01*
X206135588Y-62283069D01*
X206135588Y-62283070D01*
X206135586Y-62283072D01*
X206091859Y-62343256D01*
X206033768Y-62423211D01*
X205955128Y-62577552D01*
X205901597Y-62742302D01*
X205874500Y-62913389D01*
X205874500Y-63086610D01*
X205897128Y-63229483D01*
X205901598Y-63257701D01*
X205955127Y-63422445D01*
X206033768Y-63576788D01*
X206135586Y-63716928D01*
X206135588Y-63716930D01*
X206243491Y-63824833D01*
X206276976Y-63886156D01*
X206271992Y-63955848D01*
X206230120Y-64011781D01*
X206220907Y-64018053D01*
X206156654Y-64057684D01*
X206032684Y-64181654D01*
X205940643Y-64330875D01*
X205940641Y-64330880D01*
X205885494Y-64497302D01*
X205885493Y-64497309D01*
X205875000Y-64600013D01*
X205875000Y-64750000D01*
X206969670Y-64750000D01*
X206949925Y-64769745D01*
X206900556Y-64855255D01*
X206875000Y-64950630D01*
X206875000Y-65049370D01*
X206900556Y-65144745D01*
X206949925Y-65230255D01*
X206969670Y-65250000D01*
X205875001Y-65250000D01*
X205875001Y-65399986D01*
X205885494Y-65502697D01*
X205940641Y-65669119D01*
X205940643Y-65669124D01*
X206032684Y-65818345D01*
X206156654Y-65942315D01*
X206305875Y-66034356D01*
X206305880Y-66034358D01*
X206472302Y-66089505D01*
X206472309Y-66089506D01*
X206575019Y-66099999D01*
X206999999Y-66099999D01*
X207000000Y-66099998D01*
X207000000Y-65280330D01*
X207019745Y-65300075D01*
X207105255Y-65349444D01*
X207200630Y-65375000D01*
X207299370Y-65375000D01*
X207394745Y-65349444D01*
X207480255Y-65300075D01*
X207500000Y-65280330D01*
X207500000Y-66099999D01*
X207924972Y-66099999D01*
X207924986Y-66099998D01*
X208027697Y-66089505D01*
X208194119Y-66034358D01*
X208194124Y-66034356D01*
X208343345Y-65942315D01*
X208412819Y-65872842D01*
X208474142Y-65839357D01*
X208543834Y-65844341D01*
X208599767Y-65886213D01*
X208624184Y-65951677D01*
X208624500Y-65960523D01*
X208624500Y-66285994D01*
X208604815Y-66353033D01*
X208588181Y-66373675D01*
X207573675Y-67388181D01*
X207512352Y-67421666D01*
X207485994Y-67424500D01*
X193626585Y-67424500D01*
X193602394Y-67422117D01*
X193560436Y-67413771D01*
X193488693Y-67399500D01*
X193488691Y-67399500D01*
X193311309Y-67399500D01*
X193311306Y-67399500D01*
X193137341Y-67434103D01*
X193137332Y-67434106D01*
X192973459Y-67501983D01*
X192973446Y-67501990D01*
X192825965Y-67600535D01*
X192825961Y-67600538D01*
X192700538Y-67725961D01*
X192700535Y-67725965D01*
X192601990Y-67873446D01*
X192601982Y-67873461D01*
X192587950Y-67907338D01*
X192544109Y-67961741D01*
X192477814Y-67983805D01*
X192410115Y-67966525D01*
X192385709Y-67947565D01*
X190479294Y-66041150D01*
X190463873Y-66022359D01*
X190399467Y-65925969D01*
X190399461Y-65925961D01*
X190274038Y-65800538D01*
X190274034Y-65800535D01*
X190126553Y-65701990D01*
X190126540Y-65701983D01*
X189962667Y-65634106D01*
X189962658Y-65634103D01*
X189788694Y-65599500D01*
X189788691Y-65599500D01*
X189611309Y-65599500D01*
X189611306Y-65599500D01*
X189437341Y-65634103D01*
X189437332Y-65634106D01*
X189273459Y-65701983D01*
X189273446Y-65701990D01*
X189125965Y-65800535D01*
X189125961Y-65800538D01*
X189000538Y-65925961D01*
X189000535Y-65925965D01*
X188901990Y-66073446D01*
X188901983Y-66073459D01*
X188834106Y-66237332D01*
X188834103Y-66237341D01*
X188799500Y-66411304D01*
X188799500Y-66588695D01*
X188834103Y-66762658D01*
X188834106Y-66762667D01*
X188901983Y-66926540D01*
X188901990Y-66926553D01*
X189000535Y-67074034D01*
X189000538Y-67074038D01*
X189125961Y-67199461D01*
X189125969Y-67199467D01*
X189222359Y-67263873D01*
X189241150Y-67279294D01*
X193420704Y-71458848D01*
X193436125Y-71477638D01*
X193500535Y-71574034D01*
X193500538Y-71574038D01*
X193625961Y-71699461D01*
X193625965Y-71699464D01*
X193773446Y-71798009D01*
X193773459Y-71798016D01*
X193896363Y-71848923D01*
X193937334Y-71865894D01*
X193937336Y-71865894D01*
X193937341Y-71865896D01*
X194111304Y-71900499D01*
X194111307Y-71900500D01*
X194111309Y-71900500D01*
X194288693Y-71900500D01*
X194288694Y-71900499D01*
X194346682Y-71888964D01*
X194462658Y-71865896D01*
X194462661Y-71865894D01*
X194462666Y-71865894D01*
X194626547Y-71798013D01*
X194774035Y-71699464D01*
X194899464Y-71574035D01*
X194998013Y-71426547D01*
X195004114Y-71411819D01*
X195021903Y-71368870D01*
X195065894Y-71262666D01*
X195078467Y-71199461D01*
X195100499Y-71088695D01*
X195100500Y-71088693D01*
X195100500Y-70911306D01*
X195100499Y-70911304D01*
X195065896Y-70737341D01*
X195065893Y-70737332D01*
X194998016Y-70573459D01*
X194998009Y-70573446D01*
X194899464Y-70425965D01*
X194899461Y-70425961D01*
X194774038Y-70300538D01*
X194774034Y-70300535D01*
X194677638Y-70236125D01*
X194658848Y-70220704D01*
X194312182Y-69874038D01*
X209899500Y-69874038D01*
X209899500Y-69874505D01*
X209899500Y-70125962D01*
X209917140Y-70237334D01*
X209938910Y-70374785D01*
X210016760Y-70614383D01*
X210079411Y-70737341D01*
X210130371Y-70837356D01*
X210131132Y-70838848D01*
X210279201Y-71042649D01*
X210279205Y-71042654D01*
X210457345Y-71220794D01*
X210457350Y-71220798D01*
X210635117Y-71349952D01*
X210661155Y-71368870D01*
X210804184Y-71441747D01*
X210885616Y-71483239D01*
X210885618Y-71483239D01*
X210885621Y-71483241D01*
X211125215Y-71561090D01*
X211374038Y-71600500D01*
X211374039Y-71600500D01*
X211625961Y-71600500D01*
X211625962Y-71600500D01*
X211874785Y-71561090D01*
X212114379Y-71483241D01*
X212338845Y-71368870D01*
X212542656Y-71220793D01*
X212720793Y-71042656D01*
X212868870Y-70838845D01*
X212983241Y-70614379D01*
X213061090Y-70374785D01*
X213100500Y-70125962D01*
X213100500Y-69874038D01*
X213061090Y-69625215D01*
X212983241Y-69385621D01*
X212983239Y-69385618D01*
X212983239Y-69385616D01*
X212888917Y-69200500D01*
X212868870Y-69161155D01*
X212822992Y-69098009D01*
X212720798Y-68957350D01*
X212720794Y-68957345D01*
X212542654Y-68779205D01*
X212542649Y-68779201D01*
X212338848Y-68631132D01*
X212338847Y-68631131D01*
X212338845Y-68631130D01*
X212204479Y-68562667D01*
X212114383Y-68516760D01*
X211874785Y-68438910D01*
X211795327Y-68426325D01*
X211625962Y-68399500D01*
X211374038Y-68399500D01*
X211249626Y-68419205D01*
X211125214Y-68438910D01*
X210885616Y-68516760D01*
X210661151Y-68631132D01*
X210457350Y-68779201D01*
X210457345Y-68779205D01*
X210279205Y-68957345D01*
X210279201Y-68957350D01*
X210131132Y-69161151D01*
X210016760Y-69385616D01*
X209938910Y-69625214D01*
X209926986Y-69700500D01*
X209899500Y-69874038D01*
X194312182Y-69874038D01*
X193825325Y-69387181D01*
X193791840Y-69325858D01*
X193796824Y-69256166D01*
X193838696Y-69200233D01*
X193904160Y-69175816D01*
X193913006Y-69175500D01*
X207986231Y-69175500D01*
X207986232Y-69175499D01*
X208155374Y-69141855D01*
X208314705Y-69075858D01*
X208458099Y-68980045D01*
X210180045Y-67258099D01*
X210218531Y-67200500D01*
X210275858Y-67114705D01*
X210341855Y-66955374D01*
X210375500Y-66786229D01*
X210375500Y-65113006D01*
X210395185Y-65045967D01*
X210447989Y-65000212D01*
X210517147Y-64990268D01*
X210580703Y-65019293D01*
X210587181Y-65025325D01*
X213388181Y-67826325D01*
X213421666Y-67887648D01*
X213424500Y-67914006D01*
X213424500Y-70785994D01*
X213404815Y-70853033D01*
X213388181Y-70873675D01*
X212041901Y-72219955D01*
X211986002Y-72275854D01*
X211919953Y-72341902D01*
X211824145Y-72485288D01*
X211824138Y-72485301D01*
X211758146Y-72644621D01*
X211758143Y-72644633D01*
X211724500Y-72813766D01*
X211724500Y-76773414D01*
X211722117Y-76797606D01*
X211699500Y-76911306D01*
X211699500Y-77088695D01*
X211734103Y-77262658D01*
X211734106Y-77262667D01*
X211801983Y-77426540D01*
X211801990Y-77426553D01*
X211900535Y-77574034D01*
X211900538Y-77574038D01*
X212025961Y-77699461D01*
X212025965Y-77699464D01*
X212173446Y-77798009D01*
X212173459Y-77798016D01*
X212296363Y-77848923D01*
X212337334Y-77865894D01*
X212337336Y-77865894D01*
X212337341Y-77865896D01*
X212511304Y-77900499D01*
X212511307Y-77900500D01*
X212511309Y-77900500D01*
X212688693Y-77900500D01*
X212688694Y-77900499D01*
X212746682Y-77888964D01*
X212862658Y-77865896D01*
X212862661Y-77865894D01*
X212862666Y-77865894D01*
X213026547Y-77798013D01*
X213174035Y-77699464D01*
X213299464Y-77574035D01*
X213398013Y-77426547D01*
X213465894Y-77262666D01*
X213500500Y-77088691D01*
X213500500Y-76911309D01*
X213500500Y-76911306D01*
X213477883Y-76797606D01*
X213475500Y-76773414D01*
X213475500Y-73314006D01*
X213495185Y-73246967D01*
X213511819Y-73226325D01*
X214787819Y-71950325D01*
X214849142Y-71916840D01*
X214918834Y-71921824D01*
X214974767Y-71963696D01*
X214999184Y-72029160D01*
X214999500Y-72038006D01*
X214999500Y-104875500D01*
X214979815Y-104942539D01*
X214927011Y-104988294D01*
X214875500Y-104999500D01*
X160124500Y-104999500D01*
X160057461Y-104979815D01*
X160011706Y-104927011D01*
X160000500Y-104875500D01*
X160000500Y-101874038D01*
X162399500Y-101874038D01*
X162399500Y-102125961D01*
X162438910Y-102374785D01*
X162516760Y-102614383D01*
X162631132Y-102838848D01*
X162779201Y-103042649D01*
X162779205Y-103042654D01*
X162957345Y-103220794D01*
X162957350Y-103220798D01*
X163135117Y-103349952D01*
X163161155Y-103368870D01*
X163304184Y-103441747D01*
X163385616Y-103483239D01*
X163385618Y-103483239D01*
X163385621Y-103483241D01*
X163625215Y-103561090D01*
X163874038Y-103600500D01*
X163874039Y-103600500D01*
X164125961Y-103600500D01*
X164125962Y-103600500D01*
X164374785Y-103561090D01*
X164614379Y-103483241D01*
X164838845Y-103368870D01*
X165042656Y-103220793D01*
X165220793Y-103042656D01*
X165368870Y-102838845D01*
X165483241Y-102614379D01*
X165561090Y-102374785D01*
X165600500Y-102125962D01*
X165600500Y-101874038D01*
X209899500Y-101874038D01*
X209899500Y-102125961D01*
X209938910Y-102374785D01*
X210016760Y-102614383D01*
X210131132Y-102838848D01*
X210279201Y-103042649D01*
X210279205Y-103042654D01*
X210457345Y-103220794D01*
X210457350Y-103220798D01*
X210635117Y-103349952D01*
X210661155Y-103368870D01*
X210804184Y-103441747D01*
X210885616Y-103483239D01*
X210885618Y-103483239D01*
X210885621Y-103483241D01*
X211125215Y-103561090D01*
X211374038Y-103600500D01*
X211374039Y-103600500D01*
X211625961Y-103600500D01*
X211625962Y-103600500D01*
X211874785Y-103561090D01*
X212114379Y-103483241D01*
X212338845Y-103368870D01*
X212542656Y-103220793D01*
X212720793Y-103042656D01*
X212868870Y-102838845D01*
X212983241Y-102614379D01*
X213061090Y-102374785D01*
X213100500Y-102125962D01*
X213100500Y-101874038D01*
X213061090Y-101625215D01*
X212983241Y-101385621D01*
X212983239Y-101385618D01*
X212983239Y-101385616D01*
X212941747Y-101304184D01*
X212868870Y-101161155D01*
X212849952Y-101135117D01*
X212720798Y-100957350D01*
X212720794Y-100957345D01*
X212542654Y-100779205D01*
X212542649Y-100779201D01*
X212338848Y-100631132D01*
X212338847Y-100631131D01*
X212338845Y-100631130D01*
X212268747Y-100595413D01*
X212114383Y-100516760D01*
X211874785Y-100438910D01*
X211625962Y-100399500D01*
X211374038Y-100399500D01*
X211249626Y-100419205D01*
X211125214Y-100438910D01*
X210885616Y-100516760D01*
X210661151Y-100631132D01*
X210457350Y-100779201D01*
X210457345Y-100779205D01*
X210279205Y-100957345D01*
X210279201Y-100957350D01*
X210131132Y-101161151D01*
X210016760Y-101385616D01*
X209938910Y-101625214D01*
X209899500Y-101874038D01*
X165600500Y-101874038D01*
X165561090Y-101625215D01*
X165483241Y-101385621D01*
X165483239Y-101385618D01*
X165483239Y-101385616D01*
X165441747Y-101304184D01*
X165368870Y-101161155D01*
X165349952Y-101135117D01*
X165220798Y-100957350D01*
X165220794Y-100957345D01*
X165042654Y-100779205D01*
X165042649Y-100779201D01*
X164838848Y-100631132D01*
X164838847Y-100631131D01*
X164838845Y-100631130D01*
X164768747Y-100595413D01*
X164614383Y-100516760D01*
X164374785Y-100438910D01*
X164125962Y-100399500D01*
X163874038Y-100399500D01*
X163749626Y-100419205D01*
X163625214Y-100438910D01*
X163385616Y-100516760D01*
X163161151Y-100631132D01*
X162957350Y-100779201D01*
X162957345Y-100779205D01*
X162779205Y-100957345D01*
X162779201Y-100957350D01*
X162631132Y-101161151D01*
X162516760Y-101385616D01*
X162438910Y-101625214D01*
X162399500Y-101874038D01*
X160000500Y-101874038D01*
X160000500Y-98348985D01*
X168529500Y-98348985D01*
X168529500Y-98571014D01*
X168564230Y-98790293D01*
X168632839Y-99001448D01*
X168702156Y-99137487D01*
X168720114Y-99172733D01*
X168733634Y-99199266D01*
X168864124Y-99378872D01*
X168864128Y-99378877D01*
X169021122Y-99535871D01*
X169021127Y-99535875D01*
X169134475Y-99618226D01*
X169200737Y-99666368D01*
X169326785Y-99730593D01*
X169398551Y-99767160D01*
X169398553Y-99767160D01*
X169398556Y-99767162D01*
X169511739Y-99803937D01*
X169609706Y-99835769D01*
X169828986Y-99870500D01*
X169828991Y-99870500D01*
X170051014Y-99870500D01*
X170270293Y-99835769D01*
X170271798Y-99835280D01*
X170481444Y-99767162D01*
X170679263Y-99666368D01*
X170858879Y-99535870D01*
X171015870Y-99378879D01*
X171015872Y-99378875D01*
X171015875Y-99378873D01*
X171109682Y-99249758D01*
X171165011Y-99207092D01*
X171234625Y-99201113D01*
X171296420Y-99233718D01*
X171310318Y-99249758D01*
X171404124Y-99378873D01*
X171561122Y-99535871D01*
X171561127Y-99535875D01*
X171674475Y-99618226D01*
X171740737Y-99666368D01*
X171866785Y-99730593D01*
X171938551Y-99767160D01*
X171938553Y-99767160D01*
X171938556Y-99767162D01*
X172051739Y-99803937D01*
X172149706Y-99835769D01*
X172368986Y-99870500D01*
X172368991Y-99870500D01*
X172591014Y-99870500D01*
X172810293Y-99835769D01*
X172811798Y-99835280D01*
X173021444Y-99767162D01*
X173219263Y-99666368D01*
X173398879Y-99535870D01*
X173555870Y-99378879D01*
X173629991Y-99276858D01*
X173685320Y-99234194D01*
X173754933Y-99228215D01*
X173816729Y-99260820D01*
X173819942Y-99264528D01*
X173821774Y-99264672D01*
X174409572Y-98676874D01*
X174439425Y-98748944D01*
X174506182Y-98848853D01*
X174591147Y-98933818D01*
X174691056Y-99000575D01*
X174763125Y-99030426D01*
X174175325Y-99618225D01*
X174175326Y-99618226D01*
X174240995Y-99665937D01*
X174438743Y-99766696D01*
X174649823Y-99835280D01*
X174869032Y-99870000D01*
X175090968Y-99870000D01*
X175310176Y-99835280D01*
X175521256Y-99766696D01*
X175719001Y-99665939D01*
X175784672Y-99618225D01*
X175784673Y-99618225D01*
X175196874Y-99030427D01*
X175268944Y-99000575D01*
X175368853Y-98933818D01*
X175453818Y-98848853D01*
X175520575Y-98748944D01*
X175550426Y-98676874D01*
X176138225Y-99264673D01*
X176138225Y-99264672D01*
X176169682Y-99221377D01*
X176225012Y-99178712D01*
X176294625Y-99172733D01*
X176356420Y-99205339D01*
X176370319Y-99221378D01*
X176401774Y-99264672D01*
X176989572Y-98676874D01*
X177019425Y-98748944D01*
X177086182Y-98848853D01*
X177171147Y-98933818D01*
X177271056Y-99000575D01*
X177343125Y-99030426D01*
X176755325Y-99618225D01*
X176755326Y-99618226D01*
X176820995Y-99665937D01*
X177018743Y-99766696D01*
X177229823Y-99835280D01*
X177449032Y-99870000D01*
X177670968Y-99870000D01*
X177890176Y-99835280D01*
X178101256Y-99766696D01*
X178299001Y-99665939D01*
X178364672Y-99618225D01*
X178364673Y-99618225D01*
X177776874Y-99030427D01*
X177848944Y-99000575D01*
X177948853Y-98933818D01*
X178033818Y-98848853D01*
X178100575Y-98748944D01*
X178130426Y-98676874D01*
X178718225Y-99264673D01*
X178718225Y-99264672D01*
X178765939Y-99199001D01*
X178866696Y-99001256D01*
X178935280Y-98790176D01*
X178970000Y-98570968D01*
X178970000Y-98349031D01*
X178969993Y-98348985D01*
X193189500Y-98348985D01*
X193189500Y-98571014D01*
X193224230Y-98790293D01*
X193292839Y-99001448D01*
X193362156Y-99137487D01*
X193380114Y-99172733D01*
X193393634Y-99199266D01*
X193524124Y-99378872D01*
X193524128Y-99378877D01*
X193681122Y-99535871D01*
X193681127Y-99535875D01*
X193794475Y-99618226D01*
X193860737Y-99666368D01*
X193986785Y-99730593D01*
X194058551Y-99767160D01*
X194058553Y-99767160D01*
X194058556Y-99767162D01*
X194171739Y-99803937D01*
X194269706Y-99835769D01*
X194488986Y-99870500D01*
X194488991Y-99870500D01*
X194711014Y-99870500D01*
X194930293Y-99835769D01*
X194931798Y-99835280D01*
X195141444Y-99767162D01*
X195339263Y-99666368D01*
X195518879Y-99535870D01*
X195675870Y-99378879D01*
X195675872Y-99378875D01*
X195675875Y-99378873D01*
X195769682Y-99249758D01*
X195825011Y-99207092D01*
X195894625Y-99201113D01*
X195956420Y-99233718D01*
X195970318Y-99249758D01*
X196064124Y-99378873D01*
X196221122Y-99535871D01*
X196221127Y-99535875D01*
X196334475Y-99618226D01*
X196400737Y-99666368D01*
X196526785Y-99730593D01*
X196598551Y-99767160D01*
X196598553Y-99767160D01*
X196598556Y-99767162D01*
X196711739Y-99803937D01*
X196809706Y-99835769D01*
X197028986Y-99870500D01*
X197028991Y-99870500D01*
X197251014Y-99870500D01*
X197470293Y-99835769D01*
X197471798Y-99835280D01*
X197681444Y-99767162D01*
X197879263Y-99666368D01*
X198058879Y-99535870D01*
X198215870Y-99378879D01*
X198289991Y-99276858D01*
X198345320Y-99234194D01*
X198414933Y-99228215D01*
X198476729Y-99260820D01*
X198479942Y-99264528D01*
X198481774Y-99264672D01*
X199069572Y-98676874D01*
X199099425Y-98748944D01*
X199166182Y-98848853D01*
X199251147Y-98933818D01*
X199351056Y-99000575D01*
X199423125Y-99030426D01*
X198835325Y-99618225D01*
X198835326Y-99618226D01*
X198900995Y-99665937D01*
X199098743Y-99766696D01*
X199309823Y-99835280D01*
X199529032Y-99870000D01*
X199750968Y-99870000D01*
X199970176Y-99835280D01*
X200181256Y-99766696D01*
X200379001Y-99665939D01*
X200444672Y-99618225D01*
X200444673Y-99618225D01*
X199856874Y-99030427D01*
X199928944Y-99000575D01*
X200028853Y-98933818D01*
X200113818Y-98848853D01*
X200180575Y-98748944D01*
X200210427Y-98676874D01*
X200798225Y-99264673D01*
X200798225Y-99264672D01*
X200829682Y-99221377D01*
X200885012Y-99178712D01*
X200954625Y-99172733D01*
X201016420Y-99205339D01*
X201030319Y-99221378D01*
X201061774Y-99264672D01*
X201649572Y-98676874D01*
X201679425Y-98748944D01*
X201746182Y-98848853D01*
X201831147Y-98933818D01*
X201931056Y-99000575D01*
X202003125Y-99030426D01*
X201415325Y-99618225D01*
X201415326Y-99618226D01*
X201480995Y-99665937D01*
X201678743Y-99766696D01*
X201889823Y-99835280D01*
X202109032Y-99870000D01*
X202330968Y-99870000D01*
X202550176Y-99835280D01*
X202761256Y-99766696D01*
X202959001Y-99665939D01*
X203024672Y-99618225D01*
X203024673Y-99618225D01*
X202436874Y-99030427D01*
X202508944Y-99000575D01*
X202608853Y-98933818D01*
X202693818Y-98848853D01*
X202760575Y-98748944D01*
X202790426Y-98676874D01*
X203378225Y-99264673D01*
X203378225Y-99264672D01*
X203425939Y-99199001D01*
X203526696Y-99001256D01*
X203595280Y-98790176D01*
X203630000Y-98570968D01*
X203630000Y-98349031D01*
X203595280Y-98129823D01*
X203526696Y-97918743D01*
X203425937Y-97720995D01*
X203378226Y-97655326D01*
X203378225Y-97655325D01*
X202790426Y-98243124D01*
X202760575Y-98171056D01*
X202693818Y-98071147D01*
X202608853Y-97986182D01*
X202508944Y-97919425D01*
X202436873Y-97889572D01*
X203024672Y-97301774D01*
X203024672Y-97301772D01*
X202959003Y-97254061D01*
X202958999Y-97254059D01*
X202761256Y-97153303D01*
X202550176Y-97084719D01*
X202330968Y-97050000D01*
X202109032Y-97050000D01*
X201889823Y-97084719D01*
X201678743Y-97153303D01*
X201480997Y-97254061D01*
X201415326Y-97301772D01*
X201415326Y-97301773D01*
X202003126Y-97889572D01*
X201931056Y-97919425D01*
X201831147Y-97986182D01*
X201746182Y-98071147D01*
X201679425Y-98171056D01*
X201649572Y-98243125D01*
X201061773Y-97655326D01*
X201061772Y-97655326D01*
X201030319Y-97698619D01*
X200974989Y-97741286D01*
X200905376Y-97747265D01*
X200843581Y-97714660D01*
X200829682Y-97698620D01*
X200798227Y-97655326D01*
X200798225Y-97655325D01*
X200210426Y-98243124D01*
X200180575Y-98171056D01*
X200113818Y-98071147D01*
X200028853Y-97986182D01*
X199928944Y-97919425D01*
X199856873Y-97889572D01*
X200444672Y-97301774D01*
X200444672Y-97301772D01*
X200379003Y-97254061D01*
X200378999Y-97254059D01*
X200181256Y-97153303D01*
X199970176Y-97084719D01*
X199750968Y-97050000D01*
X199529032Y-97050000D01*
X199309823Y-97084719D01*
X199098743Y-97153303D01*
X198900997Y-97254061D01*
X198835326Y-97301772D01*
X198835326Y-97301773D01*
X199423126Y-97889572D01*
X199351056Y-97919425D01*
X199251147Y-97986182D01*
X199166182Y-98071147D01*
X199099425Y-98171056D01*
X199069572Y-98243125D01*
X198481773Y-97655326D01*
X198474030Y-97655935D01*
X198435295Y-97685805D01*
X198365681Y-97691783D01*
X198303887Y-97659176D01*
X198289990Y-97643138D01*
X198215875Y-97541126D01*
X198058877Y-97384128D01*
X198058872Y-97384124D01*
X197879266Y-97253634D01*
X197879265Y-97253633D01*
X197879263Y-97253632D01*
X197817487Y-97222156D01*
X197681448Y-97152839D01*
X197470293Y-97084230D01*
X197251014Y-97049500D01*
X197251009Y-97049500D01*
X197028991Y-97049500D01*
X197028986Y-97049500D01*
X196809706Y-97084230D01*
X196598551Y-97152839D01*
X196400733Y-97253634D01*
X196221127Y-97384124D01*
X196221122Y-97384128D01*
X196064128Y-97541122D01*
X196064124Y-97541127D01*
X195970318Y-97670241D01*
X195914988Y-97712907D01*
X195845375Y-97718886D01*
X195783580Y-97686280D01*
X195769682Y-97670241D01*
X195675875Y-97541127D01*
X195675871Y-97541122D01*
X195518877Y-97384128D01*
X195518872Y-97384124D01*
X195339266Y-97253634D01*
X195339265Y-97253633D01*
X195339263Y-97253632D01*
X195277487Y-97222156D01*
X195141448Y-97152839D01*
X194930293Y-97084230D01*
X194711014Y-97049500D01*
X194711009Y-97049500D01*
X194488991Y-97049500D01*
X194488986Y-97049500D01*
X194269706Y-97084230D01*
X194058551Y-97152839D01*
X193860733Y-97253634D01*
X193681127Y-97384124D01*
X193681122Y-97384128D01*
X193524128Y-97541122D01*
X193524124Y-97541127D01*
X193393634Y-97720733D01*
X193292839Y-97918551D01*
X193224230Y-98129706D01*
X193189500Y-98348985D01*
X178969993Y-98348985D01*
X178935280Y-98129823D01*
X178866696Y-97918743D01*
X178765937Y-97720995D01*
X178718226Y-97655326D01*
X178718225Y-97655325D01*
X178130426Y-98243124D01*
X178100575Y-98171056D01*
X178033818Y-98071147D01*
X177948853Y-97986182D01*
X177848944Y-97919425D01*
X177776873Y-97889572D01*
X178364672Y-97301774D01*
X178364672Y-97301772D01*
X178299003Y-97254061D01*
X178298999Y-97254059D01*
X178101256Y-97153303D01*
X177890176Y-97084719D01*
X177670968Y-97050000D01*
X177449032Y-97050000D01*
X177229823Y-97084719D01*
X177018743Y-97153303D01*
X176820997Y-97254061D01*
X176755326Y-97301772D01*
X176755326Y-97301773D01*
X177343126Y-97889572D01*
X177271056Y-97919425D01*
X177171147Y-97986182D01*
X177086182Y-98071147D01*
X177019425Y-98171056D01*
X176989572Y-98243125D01*
X176401773Y-97655326D01*
X176401772Y-97655326D01*
X176370319Y-97698619D01*
X176314989Y-97741286D01*
X176245376Y-97747265D01*
X176183581Y-97714660D01*
X176169682Y-97698620D01*
X176138227Y-97655326D01*
X176138225Y-97655325D01*
X175550426Y-98243124D01*
X175520575Y-98171056D01*
X175453818Y-98071147D01*
X175368853Y-97986182D01*
X175268944Y-97919425D01*
X175196873Y-97889572D01*
X175784672Y-97301774D01*
X175784672Y-97301772D01*
X175719003Y-97254061D01*
X175718999Y-97254059D01*
X175521256Y-97153303D01*
X175310176Y-97084719D01*
X175090968Y-97050000D01*
X174869032Y-97050000D01*
X174649823Y-97084719D01*
X174438743Y-97153303D01*
X174240997Y-97254061D01*
X174175326Y-97301772D01*
X174175326Y-97301773D01*
X174763126Y-97889572D01*
X174691056Y-97919425D01*
X174591147Y-97986182D01*
X174506182Y-98071147D01*
X174439425Y-98171056D01*
X174409572Y-98243125D01*
X173821773Y-97655326D01*
X173814030Y-97655935D01*
X173775295Y-97685805D01*
X173705681Y-97691783D01*
X173643887Y-97659176D01*
X173629990Y-97643138D01*
X173555875Y-97541126D01*
X173398877Y-97384128D01*
X173398872Y-97384124D01*
X173219266Y-97253634D01*
X173219265Y-97253633D01*
X173219263Y-97253632D01*
X173157487Y-97222156D01*
X173021448Y-97152839D01*
X172810293Y-97084230D01*
X172591014Y-97049500D01*
X172591009Y-97049500D01*
X172368991Y-97049500D01*
X172368986Y-97049500D01*
X172149706Y-97084230D01*
X171938551Y-97152839D01*
X171740733Y-97253634D01*
X171561127Y-97384124D01*
X171561122Y-97384128D01*
X171404128Y-97541122D01*
X171404124Y-97541127D01*
X171310318Y-97670241D01*
X171254988Y-97712907D01*
X171185375Y-97718886D01*
X171123580Y-97686280D01*
X171109682Y-97670241D01*
X171015875Y-97541127D01*
X171015871Y-97541122D01*
X170858877Y-97384128D01*
X170858872Y-97384124D01*
X170679266Y-97253634D01*
X170679265Y-97253633D01*
X170679263Y-97253632D01*
X170617487Y-97222156D01*
X170481448Y-97152839D01*
X170270293Y-97084230D01*
X170051014Y-97049500D01*
X170051009Y-97049500D01*
X169828991Y-97049500D01*
X169828986Y-97049500D01*
X169609706Y-97084230D01*
X169398551Y-97152839D01*
X169200733Y-97253634D01*
X169021127Y-97384124D01*
X169021122Y-97384128D01*
X168864128Y-97541122D01*
X168864124Y-97541127D01*
X168733634Y-97720733D01*
X168632839Y-97918551D01*
X168564230Y-98129706D01*
X168529500Y-98348985D01*
X160000500Y-98348985D01*
X160000500Y-88188985D01*
X163449500Y-88188985D01*
X163449500Y-88411014D01*
X163484230Y-88630293D01*
X163552839Y-88841448D01*
X163608150Y-88950000D01*
X163653568Y-89039138D01*
X163653634Y-89039266D01*
X163784124Y-89218872D01*
X163784128Y-89218877D01*
X163941122Y-89375871D01*
X163941127Y-89375875D01*
X164056049Y-89459370D01*
X164120737Y-89506368D01*
X164246785Y-89570593D01*
X164318551Y-89607160D01*
X164318553Y-89607160D01*
X164318556Y-89607162D01*
X164431739Y-89643937D01*
X164529706Y-89675769D01*
X164748986Y-89710500D01*
X164748991Y-89710500D01*
X164971014Y-89710500D01*
X165190293Y-89675769D01*
X165401444Y-89607162D01*
X165599263Y-89506368D01*
X165778879Y-89375870D01*
X165935870Y-89218879D01*
X165935872Y-89218875D01*
X165935875Y-89218873D01*
X166029682Y-89089758D01*
X166085011Y-89047092D01*
X166154625Y-89041113D01*
X166216420Y-89073718D01*
X166230318Y-89089758D01*
X166324124Y-89218873D01*
X166481122Y-89375871D01*
X166481127Y-89375875D01*
X166596049Y-89459370D01*
X166660737Y-89506368D01*
X166786785Y-89570593D01*
X166858551Y-89607160D01*
X166858553Y-89607160D01*
X166858556Y-89607162D01*
X166971739Y-89643937D01*
X167069706Y-89675769D01*
X167288986Y-89710500D01*
X167288991Y-89710500D01*
X167511014Y-89710500D01*
X167730293Y-89675769D01*
X167941444Y-89607162D01*
X168139263Y-89506368D01*
X168318879Y-89375870D01*
X168475870Y-89218879D01*
X168475872Y-89218875D01*
X168475875Y-89218873D01*
X168569682Y-89089758D01*
X168625011Y-89047092D01*
X168694625Y-89041113D01*
X168756420Y-89073718D01*
X168770318Y-89089758D01*
X168864124Y-89218873D01*
X169021122Y-89375871D01*
X169021127Y-89375875D01*
X169136049Y-89459370D01*
X169200737Y-89506368D01*
X169326785Y-89570593D01*
X169398551Y-89607160D01*
X169398553Y-89607160D01*
X169398556Y-89607162D01*
X169511739Y-89643937D01*
X169609706Y-89675769D01*
X169828986Y-89710500D01*
X169828991Y-89710500D01*
X170051014Y-89710500D01*
X170270293Y-89675769D01*
X170481444Y-89607162D01*
X170679263Y-89506368D01*
X170858879Y-89375870D01*
X171015870Y-89218879D01*
X171106049Y-89094756D01*
X171161378Y-89052092D01*
X171230991Y-89046113D01*
X171292787Y-89078718D01*
X171306685Y-89094758D01*
X171404124Y-89228872D01*
X171404128Y-89228877D01*
X171561122Y-89385871D01*
X171561127Y-89385875D01*
X171662471Y-89459505D01*
X171740737Y-89516368D01*
X171866785Y-89580593D01*
X171938551Y-89617160D01*
X171938553Y-89617160D01*
X171938556Y-89617162D01*
X172051739Y-89653937D01*
X172149706Y-89685769D01*
X172368986Y-89720500D01*
X172368991Y-89720500D01*
X172591014Y-89720500D01*
X172810293Y-89685769D01*
X172841070Y-89675769D01*
X173021444Y-89617162D01*
X173219263Y-89516368D01*
X173398879Y-89385870D01*
X173555870Y-89228879D01*
X173633315Y-89122284D01*
X173688642Y-89079619D01*
X173758256Y-89073639D01*
X173820051Y-89106245D01*
X173833950Y-89122285D01*
X173904124Y-89218873D01*
X174061122Y-89375871D01*
X174061127Y-89375875D01*
X174176049Y-89459370D01*
X174240737Y-89506368D01*
X174366785Y-89570593D01*
X174438551Y-89607160D01*
X174438553Y-89607160D01*
X174438556Y-89607162D01*
X174551739Y-89643937D01*
X174649706Y-89675769D01*
X174868986Y-89710500D01*
X174868991Y-89710500D01*
X175091014Y-89710500D01*
X175310293Y-89675769D01*
X175521444Y-89607162D01*
X175719263Y-89506368D01*
X175898879Y-89375870D01*
X176055870Y-89218879D01*
X176155461Y-89081801D01*
X176210789Y-89039138D01*
X176280402Y-89033159D01*
X176342197Y-89065764D01*
X176356096Y-89081804D01*
X176401772Y-89144672D01*
X176401774Y-89144672D01*
X176989572Y-88556874D01*
X177019425Y-88628944D01*
X177086182Y-88728853D01*
X177171147Y-88813818D01*
X177271056Y-88880575D01*
X177343125Y-88910426D01*
X176755325Y-89498225D01*
X176755326Y-89498226D01*
X176820995Y-89545937D01*
X177018743Y-89646696D01*
X177229823Y-89715280D01*
X177449032Y-89750000D01*
X177670968Y-89750000D01*
X177890176Y-89715280D01*
X178101256Y-89646696D01*
X178299001Y-89545939D01*
X178364672Y-89498225D01*
X178364673Y-89498225D01*
X177776874Y-88910427D01*
X177848944Y-88880575D01*
X177948853Y-88813818D01*
X178033818Y-88728853D01*
X178100575Y-88628944D01*
X178130426Y-88556874D01*
X178718225Y-89144673D01*
X178718226Y-89144672D01*
X178743903Y-89109332D01*
X178799233Y-89066666D01*
X178868846Y-89060687D01*
X178930641Y-89093293D01*
X178944539Y-89109332D01*
X179024124Y-89218872D01*
X179024128Y-89218877D01*
X179181122Y-89375871D01*
X179181127Y-89375875D01*
X179296049Y-89459370D01*
X179360737Y-89506368D01*
X179486785Y-89570593D01*
X179558551Y-89607160D01*
X179558553Y-89607160D01*
X179558556Y-89607162D01*
X179671739Y-89643937D01*
X179769706Y-89675769D01*
X179988986Y-89710500D01*
X179988991Y-89710500D01*
X180211014Y-89710500D01*
X180430293Y-89675769D01*
X180641444Y-89607162D01*
X180839263Y-89506368D01*
X181018879Y-89375870D01*
X181175870Y-89218879D01*
X181175872Y-89218875D01*
X181175875Y-89218873D01*
X181269682Y-89089758D01*
X181325011Y-89047092D01*
X181394625Y-89041113D01*
X181456420Y-89073718D01*
X181470318Y-89089758D01*
X181564124Y-89218873D01*
X181721122Y-89375871D01*
X181721127Y-89375875D01*
X181836049Y-89459370D01*
X181900737Y-89506368D01*
X182026785Y-89570593D01*
X182098551Y-89607160D01*
X182098553Y-89607160D01*
X182098556Y-89607162D01*
X182211739Y-89643937D01*
X182309706Y-89675769D01*
X182528986Y-89710500D01*
X182528991Y-89710500D01*
X182751014Y-89710500D01*
X182970293Y-89675769D01*
X183181444Y-89607162D01*
X183379263Y-89506368D01*
X183558879Y-89375870D01*
X183715870Y-89218879D01*
X183715872Y-89218875D01*
X183715875Y-89218873D01*
X183809682Y-89089758D01*
X183865011Y-89047092D01*
X183934625Y-89041113D01*
X183996420Y-89073718D01*
X184010318Y-89089758D01*
X184104124Y-89218873D01*
X184261122Y-89375871D01*
X184261127Y-89375875D01*
X184376049Y-89459370D01*
X184440737Y-89506368D01*
X184566785Y-89570593D01*
X184638551Y-89607160D01*
X184638553Y-89607160D01*
X184638556Y-89607162D01*
X184751739Y-89643937D01*
X184849706Y-89675769D01*
X185068986Y-89710500D01*
X185068991Y-89710500D01*
X185291014Y-89710500D01*
X185510293Y-89675769D01*
X185721444Y-89607162D01*
X185919263Y-89506368D01*
X186098879Y-89375870D01*
X186255870Y-89218879D01*
X186386368Y-89039263D01*
X186487162Y-88841444D01*
X186555769Y-88630293D01*
X186560575Y-88599950D01*
X186590500Y-88411014D01*
X186590500Y-88188985D01*
X188109500Y-88188985D01*
X188109500Y-88411014D01*
X188144230Y-88630293D01*
X188212839Y-88841448D01*
X188268150Y-88950000D01*
X188313568Y-89039138D01*
X188313634Y-89039266D01*
X188444124Y-89218872D01*
X188444128Y-89218877D01*
X188601122Y-89375871D01*
X188601127Y-89375875D01*
X188716049Y-89459370D01*
X188780737Y-89506368D01*
X188906785Y-89570593D01*
X188978551Y-89607160D01*
X188978553Y-89607160D01*
X188978556Y-89607162D01*
X189091739Y-89643937D01*
X189189706Y-89675769D01*
X189408986Y-89710500D01*
X189408991Y-89710500D01*
X189631014Y-89710500D01*
X189850293Y-89675769D01*
X190061444Y-89607162D01*
X190259263Y-89506368D01*
X190438879Y-89375870D01*
X190595870Y-89218879D01*
X190595872Y-89218875D01*
X190595875Y-89218873D01*
X190689682Y-89089758D01*
X190745011Y-89047092D01*
X190814625Y-89041113D01*
X190876420Y-89073718D01*
X190890318Y-89089758D01*
X190984124Y-89218873D01*
X191141122Y-89375871D01*
X191141127Y-89375875D01*
X191256049Y-89459370D01*
X191320737Y-89506368D01*
X191446785Y-89570593D01*
X191518551Y-89607160D01*
X191518553Y-89607160D01*
X191518556Y-89607162D01*
X191631739Y-89643937D01*
X191729706Y-89675769D01*
X191948986Y-89710500D01*
X191948991Y-89710500D01*
X192171014Y-89710500D01*
X192390293Y-89675769D01*
X192601444Y-89607162D01*
X192799263Y-89506368D01*
X192978879Y-89375870D01*
X193135870Y-89218879D01*
X193135872Y-89218875D01*
X193135875Y-89218873D01*
X193229682Y-89089758D01*
X193285011Y-89047092D01*
X193354625Y-89041113D01*
X193416420Y-89073718D01*
X193430318Y-89089758D01*
X193524124Y-89218873D01*
X193681122Y-89375871D01*
X193681127Y-89375875D01*
X193796049Y-89459370D01*
X193860737Y-89506368D01*
X193986785Y-89570593D01*
X194058551Y-89607160D01*
X194058553Y-89607160D01*
X194058556Y-89607162D01*
X194171739Y-89643937D01*
X194269706Y-89675769D01*
X194488986Y-89710500D01*
X194488991Y-89710500D01*
X194711014Y-89710500D01*
X194930293Y-89675769D01*
X195141444Y-89607162D01*
X195339263Y-89506368D01*
X195518879Y-89375870D01*
X195675870Y-89218879D01*
X195766049Y-89094756D01*
X195821378Y-89052092D01*
X195890991Y-89046113D01*
X195952787Y-89078718D01*
X195966685Y-89094758D01*
X196064124Y-89228872D01*
X196064128Y-89228877D01*
X196221122Y-89385871D01*
X196221127Y-89385875D01*
X196322471Y-89459505D01*
X196400737Y-89516368D01*
X196526785Y-89580593D01*
X196598551Y-89617160D01*
X196598553Y-89617160D01*
X196598556Y-89617162D01*
X196711739Y-89653937D01*
X196809706Y-89685769D01*
X197028986Y-89720500D01*
X197028991Y-89720500D01*
X197251014Y-89720500D01*
X197470293Y-89685769D01*
X197501070Y-89675769D01*
X197681444Y-89617162D01*
X197879263Y-89516368D01*
X198058879Y-89385870D01*
X198215870Y-89228879D01*
X198243638Y-89190658D01*
X198298965Y-89147992D01*
X198368579Y-89142011D01*
X198430375Y-89174615D01*
X198457577Y-89213878D01*
X198463307Y-89226988D01*
X198463820Y-89228079D01*
X198476026Y-89252337D01*
X198586252Y-89457505D01*
X198587260Y-89459370D01*
X198587333Y-89459505D01*
X198659875Y-89592998D01*
X198665751Y-89605402D01*
X198712296Y-89719622D01*
X198717186Y-89734125D01*
X198728936Y-89777689D01*
X198731272Y-89788119D01*
X198744116Y-89859831D01*
X198745461Y-89869539D01*
X198754913Y-89965515D01*
X198755455Y-89973983D01*
X198756422Y-90006512D01*
X198756422Y-90006536D01*
X198759385Y-90106187D01*
X198759385Y-90106191D01*
X198763365Y-90158534D01*
X198763311Y-90158538D01*
X198764500Y-90172456D01*
X198764500Y-90645994D01*
X198744815Y-90713033D01*
X198728181Y-90733675D01*
X198273675Y-91188181D01*
X198212352Y-91221666D01*
X198185994Y-91224500D01*
X194026585Y-91224500D01*
X194002394Y-91222117D01*
X193967203Y-91215117D01*
X193888693Y-91199500D01*
X193888691Y-91199500D01*
X193711309Y-91199500D01*
X193711306Y-91199500D01*
X193537341Y-91234103D01*
X193537332Y-91234106D01*
X193373459Y-91301983D01*
X193373446Y-91301990D01*
X193225965Y-91400535D01*
X193225961Y-91400538D01*
X193100538Y-91525961D01*
X193100535Y-91525965D01*
X193001990Y-91673446D01*
X193001983Y-91673459D01*
X192934106Y-91837332D01*
X192934103Y-91837341D01*
X192899500Y-92011304D01*
X192899500Y-92188695D01*
X192934103Y-92362658D01*
X192934106Y-92362667D01*
X193001983Y-92526540D01*
X193001990Y-92526553D01*
X193100535Y-92674034D01*
X193100538Y-92674038D01*
X193225961Y-92799461D01*
X193225965Y-92799464D01*
X193373446Y-92898009D01*
X193373459Y-92898016D01*
X193496363Y-92948923D01*
X193537334Y-92965894D01*
X193537336Y-92965894D01*
X193537341Y-92965896D01*
X193711304Y-93000499D01*
X193711307Y-93000500D01*
X193711309Y-93000500D01*
X193888693Y-93000500D01*
X193967203Y-92984882D01*
X194002394Y-92977882D01*
X194026585Y-92975500D01*
X198686231Y-92975500D01*
X198686232Y-92975499D01*
X198855374Y-92941855D01*
X199014705Y-92875858D01*
X199158099Y-92780045D01*
X200320045Y-91618099D01*
X200415858Y-91474705D01*
X200481855Y-91315374D01*
X200515500Y-91146229D01*
X200515500Y-90973771D01*
X200515500Y-90146154D01*
X200515675Y-90139560D01*
X200516067Y-90132186D01*
X200520616Y-90106042D01*
X200524521Y-89973427D01*
X200524596Y-89972028D01*
X200524675Y-89971801D01*
X200525004Y-89966616D01*
X200534345Y-89870815D01*
X200535643Y-89861331D01*
X200548017Y-89791210D01*
X200550245Y-89781086D01*
X200561198Y-89739640D01*
X200566106Y-89724885D01*
X200614665Y-89604702D01*
X200620679Y-89591957D01*
X200640196Y-89556044D01*
X200640197Y-89556042D01*
X200640198Y-89556041D01*
X200691508Y-89461632D01*
X200691967Y-89460795D01*
X200693858Y-89457380D01*
X200766709Y-89325757D01*
X200774041Y-89312016D01*
X200774374Y-89311368D01*
X200781423Y-89297103D01*
X200846408Y-89160210D01*
X200892940Y-89108092D01*
X200960263Y-89089403D01*
X201027004Y-89110078D01*
X201058744Y-89140504D01*
X201061772Y-89144672D01*
X201061774Y-89144672D01*
X201649572Y-88556874D01*
X201679425Y-88628944D01*
X201746182Y-88728853D01*
X201831147Y-88813818D01*
X201931056Y-88880575D01*
X202003125Y-88910426D01*
X201415325Y-89498225D01*
X201415326Y-89498226D01*
X201480995Y-89545937D01*
X201678743Y-89646696D01*
X201889823Y-89715280D01*
X202109032Y-89750000D01*
X202330968Y-89750000D01*
X202550176Y-89715280D01*
X202761256Y-89646696D01*
X202959001Y-89545939D01*
X203024672Y-89498225D01*
X203024673Y-89498225D01*
X202436874Y-88910427D01*
X202508944Y-88880575D01*
X202608853Y-88813818D01*
X202693818Y-88728853D01*
X202760575Y-88628944D01*
X202790426Y-88556874D01*
X203378225Y-89144673D01*
X203378226Y-89144672D01*
X203403903Y-89109332D01*
X203459233Y-89066666D01*
X203528846Y-89060687D01*
X203590641Y-89093293D01*
X203604539Y-89109332D01*
X203684124Y-89218872D01*
X203684128Y-89218877D01*
X203841122Y-89375871D01*
X203841127Y-89375875D01*
X203956049Y-89459370D01*
X204020737Y-89506368D01*
X204146785Y-89570593D01*
X204218551Y-89607160D01*
X204218553Y-89607160D01*
X204218556Y-89607162D01*
X204331739Y-89643937D01*
X204429706Y-89675769D01*
X204648986Y-89710500D01*
X204648991Y-89710500D01*
X204871014Y-89710500D01*
X205090293Y-89675769D01*
X205301444Y-89607162D01*
X205499263Y-89506368D01*
X205678879Y-89375870D01*
X205835870Y-89218879D01*
X205835872Y-89218875D01*
X205835875Y-89218873D01*
X205929682Y-89089758D01*
X205985011Y-89047092D01*
X206054625Y-89041113D01*
X206116420Y-89073718D01*
X206130318Y-89089758D01*
X206224124Y-89218873D01*
X206381122Y-89375871D01*
X206381127Y-89375875D01*
X206496049Y-89459370D01*
X206560737Y-89506368D01*
X206686785Y-89570593D01*
X206758551Y-89607160D01*
X206758553Y-89607160D01*
X206758556Y-89607162D01*
X206871739Y-89643937D01*
X206969706Y-89675769D01*
X207188986Y-89710500D01*
X207188991Y-89710500D01*
X207411014Y-89710500D01*
X207630293Y-89675769D01*
X207841444Y-89607162D01*
X208039263Y-89506368D01*
X208218879Y-89375870D01*
X208375870Y-89218879D01*
X208375872Y-89218875D01*
X208375875Y-89218873D01*
X208469682Y-89089758D01*
X208525011Y-89047092D01*
X208594625Y-89041113D01*
X208656420Y-89073718D01*
X208670318Y-89089758D01*
X208764124Y-89218873D01*
X208921122Y-89375871D01*
X208921127Y-89375875D01*
X209036049Y-89459370D01*
X209100737Y-89506368D01*
X209226785Y-89570593D01*
X209298551Y-89607160D01*
X209298553Y-89607160D01*
X209298556Y-89607162D01*
X209411739Y-89643937D01*
X209509706Y-89675769D01*
X209728986Y-89710500D01*
X209728991Y-89710500D01*
X209951014Y-89710500D01*
X210170293Y-89675769D01*
X210381444Y-89607162D01*
X210579263Y-89506368D01*
X210758879Y-89375870D01*
X210915870Y-89218879D01*
X211046368Y-89039263D01*
X211147162Y-88841444D01*
X211215769Y-88630293D01*
X211220575Y-88599950D01*
X211250500Y-88411014D01*
X211250500Y-88188985D01*
X211215769Y-87969706D01*
X211147160Y-87758551D01*
X211092547Y-87651369D01*
X211046368Y-87560737D01*
X210923140Y-87391127D01*
X210915875Y-87381127D01*
X210915871Y-87381122D01*
X210758877Y-87224128D01*
X210758872Y-87224124D01*
X210579266Y-87093634D01*
X210579265Y-87093633D01*
X210579263Y-87093632D01*
X210517487Y-87062156D01*
X210381448Y-86992839D01*
X210170293Y-86924230D01*
X209951014Y-86889500D01*
X209951009Y-86889500D01*
X209728991Y-86889500D01*
X209728986Y-86889500D01*
X209509706Y-86924230D01*
X209298551Y-86992839D01*
X209100733Y-87093634D01*
X208921127Y-87224124D01*
X208921122Y-87224128D01*
X208764128Y-87381122D01*
X208764124Y-87381127D01*
X208670318Y-87510241D01*
X208614988Y-87552907D01*
X208545375Y-87558886D01*
X208483580Y-87526280D01*
X208469682Y-87510241D01*
X208375875Y-87381127D01*
X208375871Y-87381122D01*
X208218877Y-87224128D01*
X208218872Y-87224124D01*
X208039266Y-87093634D01*
X208039265Y-87093633D01*
X208039263Y-87093632D01*
X207977487Y-87062156D01*
X207841448Y-86992839D01*
X207630293Y-86924230D01*
X207411014Y-86889500D01*
X207411009Y-86889500D01*
X207188991Y-86889500D01*
X207188986Y-86889500D01*
X206969706Y-86924230D01*
X206758551Y-86992839D01*
X206560733Y-87093634D01*
X206381127Y-87224124D01*
X206381122Y-87224128D01*
X206224128Y-87381122D01*
X206224124Y-87381127D01*
X206130318Y-87510241D01*
X206074988Y-87552907D01*
X206005375Y-87558886D01*
X205943580Y-87526280D01*
X205929682Y-87510241D01*
X205835875Y-87381127D01*
X205835871Y-87381122D01*
X205678877Y-87224128D01*
X205678872Y-87224124D01*
X205499266Y-87093634D01*
X205499265Y-87093633D01*
X205499263Y-87093632D01*
X205437487Y-87062156D01*
X205301448Y-86992839D01*
X205090293Y-86924230D01*
X204871014Y-86889500D01*
X204871009Y-86889500D01*
X204648991Y-86889500D01*
X204648986Y-86889500D01*
X204429706Y-86924230D01*
X204218551Y-86992839D01*
X204020733Y-87093634D01*
X203841127Y-87224124D01*
X203841122Y-87224128D01*
X203684128Y-87381122D01*
X203684124Y-87381127D01*
X203575478Y-87530667D01*
X203520148Y-87573333D01*
X203450535Y-87579312D01*
X203388740Y-87546707D01*
X203378926Y-87535381D01*
X203378225Y-87535325D01*
X202790426Y-88123124D01*
X202760575Y-88051056D01*
X202693818Y-87951147D01*
X202608853Y-87866182D01*
X202508944Y-87799425D01*
X202436873Y-87769572D01*
X203024672Y-87181774D01*
X203024672Y-87181772D01*
X202959003Y-87134061D01*
X202958999Y-87134059D01*
X202761256Y-87033303D01*
X202550176Y-86964719D01*
X202330968Y-86930000D01*
X202109032Y-86930000D01*
X201889823Y-86964719D01*
X201678743Y-87033303D01*
X201480997Y-87134061D01*
X201415326Y-87181772D01*
X201415326Y-87181773D01*
X202003126Y-87769572D01*
X201931056Y-87799425D01*
X201831147Y-87866182D01*
X201746182Y-87951147D01*
X201679425Y-88051056D01*
X201649572Y-88123125D01*
X201061773Y-87535326D01*
X201061772Y-87535326D01*
X201045158Y-87558195D01*
X200989828Y-87600861D01*
X200920215Y-87606840D01*
X200858419Y-87574235D01*
X200844527Y-87558203D01*
X200715870Y-87381121D01*
X200558879Y-87224130D01*
X200558877Y-87224128D01*
X200558872Y-87224124D01*
X200379266Y-87093634D01*
X200379265Y-87093633D01*
X200379263Y-87093632D01*
X200317487Y-87062156D01*
X200181448Y-86992839D01*
X199970293Y-86924230D01*
X199751014Y-86889500D01*
X199751009Y-86889500D01*
X199528991Y-86889500D01*
X199528986Y-86889500D01*
X199309706Y-86924230D01*
X199098551Y-86992839D01*
X198900733Y-87093634D01*
X198721127Y-87224124D01*
X198721122Y-87224128D01*
X198564128Y-87381122D01*
X198486685Y-87487714D01*
X198431355Y-87530379D01*
X198361742Y-87536358D01*
X198299947Y-87503752D01*
X198286049Y-87487713D01*
X198215875Y-87391127D01*
X198215871Y-87391122D01*
X198058877Y-87234128D01*
X198058872Y-87234124D01*
X197879266Y-87103634D01*
X197879265Y-87103633D01*
X197879263Y-87103632D01*
X197817487Y-87072156D01*
X197681448Y-87002839D01*
X197470293Y-86934230D01*
X197251014Y-86899500D01*
X197251009Y-86899500D01*
X197028991Y-86899500D01*
X197028986Y-86899500D01*
X196809706Y-86934230D01*
X196598551Y-87002839D01*
X196400733Y-87103634D01*
X196221127Y-87234124D01*
X196221122Y-87234128D01*
X196064128Y-87391122D01*
X195973950Y-87515242D01*
X195918620Y-87557907D01*
X195849006Y-87563886D01*
X195787212Y-87531280D01*
X195773314Y-87515241D01*
X195675875Y-87381126D01*
X195518877Y-87224128D01*
X195518872Y-87224124D01*
X195339266Y-87093634D01*
X195339265Y-87093633D01*
X195339263Y-87093632D01*
X195277487Y-87062156D01*
X195141448Y-86992839D01*
X194930293Y-86924230D01*
X194711014Y-86889500D01*
X194711009Y-86889500D01*
X194488991Y-86889500D01*
X194488986Y-86889500D01*
X194269706Y-86924230D01*
X194058551Y-86992839D01*
X193860733Y-87093634D01*
X193681127Y-87224124D01*
X193681122Y-87224128D01*
X193524128Y-87381122D01*
X193524124Y-87381127D01*
X193430318Y-87510241D01*
X193374988Y-87552907D01*
X193305375Y-87558886D01*
X193243580Y-87526280D01*
X193229682Y-87510241D01*
X193135875Y-87381127D01*
X193135871Y-87381122D01*
X192978877Y-87224128D01*
X192978872Y-87224124D01*
X192799266Y-87093634D01*
X192799265Y-87093633D01*
X192799263Y-87093632D01*
X192737487Y-87062156D01*
X192601448Y-86992839D01*
X192390293Y-86924230D01*
X192171014Y-86889500D01*
X192171009Y-86889500D01*
X191948991Y-86889500D01*
X191948986Y-86889500D01*
X191729706Y-86924230D01*
X191518551Y-86992839D01*
X191320733Y-87093634D01*
X191141127Y-87224124D01*
X191141122Y-87224128D01*
X190984128Y-87381122D01*
X190984124Y-87381127D01*
X190890318Y-87510241D01*
X190834988Y-87552907D01*
X190765375Y-87558886D01*
X190703580Y-87526280D01*
X190689682Y-87510241D01*
X190595875Y-87381127D01*
X190595871Y-87381122D01*
X190438877Y-87224128D01*
X190438872Y-87224124D01*
X190259266Y-87093634D01*
X190259265Y-87093633D01*
X190259263Y-87093632D01*
X190197487Y-87062156D01*
X190061448Y-86992839D01*
X189850293Y-86924230D01*
X189631014Y-86889500D01*
X189631009Y-86889500D01*
X189408991Y-86889500D01*
X189408986Y-86889500D01*
X189189706Y-86924230D01*
X188978551Y-86992839D01*
X188780733Y-87093634D01*
X188601127Y-87224124D01*
X188601122Y-87224128D01*
X188444128Y-87381122D01*
X188444124Y-87381127D01*
X188313634Y-87560733D01*
X188212839Y-87758551D01*
X188144230Y-87969706D01*
X188109500Y-88188985D01*
X186590500Y-88188985D01*
X186555769Y-87969706D01*
X186487160Y-87758551D01*
X186432547Y-87651369D01*
X186386368Y-87560737D01*
X186263140Y-87391127D01*
X186255875Y-87381127D01*
X186255871Y-87381122D01*
X186098877Y-87224128D01*
X186098872Y-87224124D01*
X185919266Y-87093634D01*
X185919265Y-87093633D01*
X185919263Y-87093632D01*
X185857487Y-87062156D01*
X185721448Y-86992839D01*
X185510293Y-86924230D01*
X185291014Y-86889500D01*
X185291009Y-86889500D01*
X185068991Y-86889500D01*
X185068986Y-86889500D01*
X184849706Y-86924230D01*
X184638551Y-86992839D01*
X184440733Y-87093634D01*
X184261127Y-87224124D01*
X184261122Y-87224128D01*
X184104128Y-87381122D01*
X184104124Y-87381127D01*
X184010318Y-87510241D01*
X183954988Y-87552907D01*
X183885375Y-87558886D01*
X183823580Y-87526280D01*
X183809682Y-87510241D01*
X183715875Y-87381127D01*
X183715871Y-87381122D01*
X183558877Y-87224128D01*
X183558872Y-87224124D01*
X183379266Y-87093634D01*
X183379265Y-87093633D01*
X183379263Y-87093632D01*
X183317487Y-87062156D01*
X183181448Y-86992839D01*
X182970293Y-86924230D01*
X182751014Y-86889500D01*
X182751009Y-86889500D01*
X182528991Y-86889500D01*
X182528986Y-86889500D01*
X182309706Y-86924230D01*
X182098551Y-86992839D01*
X181900733Y-87093634D01*
X181721127Y-87224124D01*
X181721122Y-87224128D01*
X181564128Y-87381122D01*
X181564124Y-87381127D01*
X181470318Y-87510241D01*
X181414988Y-87552907D01*
X181345375Y-87558886D01*
X181283580Y-87526280D01*
X181269682Y-87510241D01*
X181175875Y-87381127D01*
X181175871Y-87381122D01*
X181018877Y-87224128D01*
X181018872Y-87224124D01*
X180839266Y-87093634D01*
X180839265Y-87093633D01*
X180839263Y-87093632D01*
X180777487Y-87062156D01*
X180641448Y-86992839D01*
X180430293Y-86924230D01*
X180211014Y-86889500D01*
X180211009Y-86889500D01*
X179988991Y-86889500D01*
X179988986Y-86889500D01*
X179769706Y-86924230D01*
X179558551Y-86992839D01*
X179360733Y-87093634D01*
X179181127Y-87224124D01*
X179181122Y-87224128D01*
X179024128Y-87381122D01*
X179024124Y-87381127D01*
X178915478Y-87530667D01*
X178860148Y-87573333D01*
X178790535Y-87579312D01*
X178728740Y-87546707D01*
X178718926Y-87535381D01*
X178718225Y-87535325D01*
X178130426Y-88123124D01*
X178100575Y-88051056D01*
X178033818Y-87951147D01*
X177948853Y-87866182D01*
X177848944Y-87799425D01*
X177776873Y-87769572D01*
X178364672Y-87181774D01*
X178364672Y-87181772D01*
X178299003Y-87134061D01*
X178298999Y-87134059D01*
X178101256Y-87033303D01*
X177890176Y-86964719D01*
X177670968Y-86930000D01*
X177449032Y-86930000D01*
X177229823Y-86964719D01*
X177018743Y-87033303D01*
X176820997Y-87134061D01*
X176755326Y-87181772D01*
X176755326Y-87181773D01*
X177343126Y-87769572D01*
X177271056Y-87799425D01*
X177171147Y-87866182D01*
X177086182Y-87951147D01*
X177019425Y-88051056D01*
X176989572Y-88123125D01*
X176401773Y-87535326D01*
X176401772Y-87535326D01*
X176385158Y-87558195D01*
X176329828Y-87600861D01*
X176260215Y-87606840D01*
X176198419Y-87574235D01*
X176184527Y-87558203D01*
X176055870Y-87381121D01*
X175898879Y-87224130D01*
X175898877Y-87224128D01*
X175898872Y-87224124D01*
X175719266Y-87093634D01*
X175719265Y-87093633D01*
X175719263Y-87093632D01*
X175657487Y-87062156D01*
X175521448Y-86992839D01*
X175310293Y-86924230D01*
X175091014Y-86889500D01*
X175091009Y-86889500D01*
X174868991Y-86889500D01*
X174868986Y-86889500D01*
X174649706Y-86924230D01*
X174438551Y-86992839D01*
X174240733Y-87093634D01*
X174061127Y-87224124D01*
X174061122Y-87224128D01*
X173904128Y-87381122D01*
X173826685Y-87487714D01*
X173771355Y-87530379D01*
X173701742Y-87536358D01*
X173639947Y-87503752D01*
X173626049Y-87487713D01*
X173555875Y-87391127D01*
X173555871Y-87391122D01*
X173398877Y-87234128D01*
X173398872Y-87234124D01*
X173219266Y-87103634D01*
X173219265Y-87103633D01*
X173219263Y-87103632D01*
X173157487Y-87072156D01*
X173021448Y-87002839D01*
X172810293Y-86934230D01*
X172591014Y-86899500D01*
X172591009Y-86899500D01*
X172368991Y-86899500D01*
X172368986Y-86899500D01*
X172149706Y-86934230D01*
X171938551Y-87002839D01*
X171740733Y-87103634D01*
X171561127Y-87234124D01*
X171561122Y-87234128D01*
X171404128Y-87391122D01*
X171313950Y-87515242D01*
X171258620Y-87557907D01*
X171189006Y-87563886D01*
X171127212Y-87531280D01*
X171113314Y-87515241D01*
X171015875Y-87381126D01*
X170858877Y-87224128D01*
X170858872Y-87224124D01*
X170679266Y-87093634D01*
X170679265Y-87093633D01*
X170679263Y-87093632D01*
X170617487Y-87062156D01*
X170481448Y-86992839D01*
X170270293Y-86924230D01*
X170051014Y-86889500D01*
X170051009Y-86889500D01*
X169828991Y-86889500D01*
X169828986Y-86889500D01*
X169609706Y-86924230D01*
X169398551Y-86992839D01*
X169200733Y-87093634D01*
X169021127Y-87224124D01*
X169021122Y-87224128D01*
X168864128Y-87381122D01*
X168864124Y-87381127D01*
X168770318Y-87510241D01*
X168714988Y-87552907D01*
X168645375Y-87558886D01*
X168583580Y-87526280D01*
X168569682Y-87510241D01*
X168475875Y-87381127D01*
X168475871Y-87381122D01*
X168318877Y-87224128D01*
X168318872Y-87224124D01*
X168139266Y-87093634D01*
X168139265Y-87093633D01*
X168139263Y-87093632D01*
X168077487Y-87062156D01*
X167941448Y-86992839D01*
X167730293Y-86924230D01*
X167511014Y-86889500D01*
X167511009Y-86889500D01*
X167288991Y-86889500D01*
X167288986Y-86889500D01*
X167069706Y-86924230D01*
X166858551Y-86992839D01*
X166660733Y-87093634D01*
X166481127Y-87224124D01*
X166481122Y-87224128D01*
X166324128Y-87381122D01*
X166324124Y-87381127D01*
X166230318Y-87510241D01*
X166174988Y-87552907D01*
X166105375Y-87558886D01*
X166043580Y-87526280D01*
X166029682Y-87510241D01*
X165935875Y-87381127D01*
X165935871Y-87381122D01*
X165778877Y-87224128D01*
X165778872Y-87224124D01*
X165599266Y-87093634D01*
X165599265Y-87093633D01*
X165599263Y-87093632D01*
X165537487Y-87062156D01*
X165401448Y-86992839D01*
X165190293Y-86924230D01*
X164971014Y-86889500D01*
X164971009Y-86889500D01*
X164748991Y-86889500D01*
X164748986Y-86889500D01*
X164529706Y-86924230D01*
X164318551Y-86992839D01*
X164120733Y-87093634D01*
X163941127Y-87224124D01*
X163941122Y-87224128D01*
X163784128Y-87381122D01*
X163784124Y-87381127D01*
X163653634Y-87560733D01*
X163552839Y-87758551D01*
X163484230Y-87969706D01*
X163449500Y-88188985D01*
X160000500Y-88188985D01*
X160000500Y-85011309D01*
X160499500Y-85011309D01*
X160499500Y-85016873D01*
X160499500Y-85188695D01*
X160534103Y-85362658D01*
X160534106Y-85362667D01*
X160601983Y-85526540D01*
X160601990Y-85526553D01*
X160700535Y-85674034D01*
X160700538Y-85674038D01*
X160825961Y-85799461D01*
X160825965Y-85799464D01*
X160973446Y-85898009D01*
X160973459Y-85898016D01*
X161096363Y-85948923D01*
X161137334Y-85965894D01*
X161137336Y-85965894D01*
X161137341Y-85965896D01*
X161311304Y-86000499D01*
X161311307Y-86000500D01*
X161311309Y-86000500D01*
X161488693Y-86000500D01*
X161488694Y-86000499D01*
X161546682Y-85988964D01*
X161662658Y-85965896D01*
X161662661Y-85965894D01*
X161662666Y-85965894D01*
X161826547Y-85898013D01*
X161974035Y-85799464D01*
X162099464Y-85674035D01*
X162198013Y-85526547D01*
X162265894Y-85362666D01*
X162269137Y-85346365D01*
X162295093Y-85215875D01*
X162300500Y-85188691D01*
X162300500Y-85011309D01*
X162300500Y-85011306D01*
X162277883Y-84897606D01*
X162275500Y-84873414D01*
X162275500Y-84048985D01*
X168489500Y-84048985D01*
X168489500Y-84271014D01*
X168524230Y-84490293D01*
X168592839Y-84701448D01*
X168662156Y-84837487D01*
X168692235Y-84896522D01*
X168693634Y-84899266D01*
X168824124Y-85078872D01*
X168824128Y-85078877D01*
X168981122Y-85235871D01*
X168981127Y-85235875D01*
X169094475Y-85318226D01*
X169160737Y-85366368D01*
X169286785Y-85430593D01*
X169358551Y-85467160D01*
X169358553Y-85467160D01*
X169358556Y-85467162D01*
X169471739Y-85503937D01*
X169569706Y-85535769D01*
X169788986Y-85570500D01*
X169788991Y-85570500D01*
X170011014Y-85570500D01*
X170230293Y-85535769D01*
X170258697Y-85526540D01*
X170441444Y-85467162D01*
X170639263Y-85366368D01*
X170818879Y-85235870D01*
X170975870Y-85078879D01*
X170975872Y-85078875D01*
X170975875Y-85078873D01*
X171069682Y-84949758D01*
X171125011Y-84907092D01*
X171194625Y-84901113D01*
X171256420Y-84933718D01*
X171270318Y-84949758D01*
X171364124Y-85078873D01*
X171521122Y-85235871D01*
X171521127Y-85235875D01*
X171634475Y-85318226D01*
X171700737Y-85366368D01*
X171826785Y-85430593D01*
X171898551Y-85467160D01*
X171898553Y-85467160D01*
X171898556Y-85467162D01*
X172011739Y-85503937D01*
X172109706Y-85535769D01*
X172328986Y-85570500D01*
X172328991Y-85570500D01*
X172551014Y-85570500D01*
X172770293Y-85535769D01*
X172798697Y-85526540D01*
X172981444Y-85467162D01*
X173179263Y-85366368D01*
X173358879Y-85235870D01*
X173515870Y-85078879D01*
X173589991Y-84976858D01*
X173645320Y-84934194D01*
X173714933Y-84928215D01*
X173776729Y-84960820D01*
X173779942Y-84964528D01*
X173781774Y-84964672D01*
X174369572Y-84376874D01*
X174399425Y-84448944D01*
X174466182Y-84548853D01*
X174551147Y-84633818D01*
X174651056Y-84700575D01*
X174723125Y-84730426D01*
X174135325Y-85318225D01*
X174135326Y-85318226D01*
X174200995Y-85365937D01*
X174398743Y-85466696D01*
X174609823Y-85535280D01*
X174829032Y-85570000D01*
X175050968Y-85570000D01*
X175270176Y-85535280D01*
X175481256Y-85466696D01*
X175679001Y-85365939D01*
X175744672Y-85318225D01*
X175744673Y-85318225D01*
X175156874Y-84730427D01*
X175228944Y-84700575D01*
X175328853Y-84633818D01*
X175413818Y-84548853D01*
X175480575Y-84448944D01*
X175510426Y-84376874D01*
X176098225Y-84964673D01*
X176098225Y-84964672D01*
X176129682Y-84921377D01*
X176185012Y-84878712D01*
X176254625Y-84872733D01*
X176316420Y-84905339D01*
X176330319Y-84921378D01*
X176361774Y-84964672D01*
X176949572Y-84376874D01*
X176979425Y-84448944D01*
X177046182Y-84548853D01*
X177131147Y-84633818D01*
X177231056Y-84700575D01*
X177303125Y-84730426D01*
X176715325Y-85318225D01*
X176715326Y-85318226D01*
X176780995Y-85365937D01*
X176978743Y-85466696D01*
X177189823Y-85535280D01*
X177409032Y-85570000D01*
X177630968Y-85570000D01*
X177850176Y-85535280D01*
X178061256Y-85466696D01*
X178259001Y-85365939D01*
X178324672Y-85318225D01*
X178324673Y-85318225D01*
X177736874Y-84730427D01*
X177808944Y-84700575D01*
X177908853Y-84633818D01*
X177993818Y-84548853D01*
X178060575Y-84448944D01*
X178090427Y-84376874D01*
X178678225Y-84964673D01*
X178678225Y-84964672D01*
X178725939Y-84899001D01*
X178826696Y-84701256D01*
X178895280Y-84490176D01*
X178930000Y-84270968D01*
X178930000Y-84049030D01*
X178929126Y-84043511D01*
X178929126Y-84043510D01*
X178926825Y-84028985D01*
X193089500Y-84028985D01*
X193089500Y-84251014D01*
X193124230Y-84470293D01*
X193192839Y-84681448D01*
X193240190Y-84774378D01*
X193293351Y-84878712D01*
X193293634Y-84879266D01*
X193424124Y-85058872D01*
X193424128Y-85058877D01*
X193581122Y-85215871D01*
X193581127Y-85215875D01*
X193694475Y-85298226D01*
X193760737Y-85346368D01*
X193886785Y-85410593D01*
X193958551Y-85447160D01*
X193958553Y-85447160D01*
X193958556Y-85447162D01*
X194018676Y-85466696D01*
X194169706Y-85515769D01*
X194388986Y-85550500D01*
X194388991Y-85550500D01*
X194611014Y-85550500D01*
X194830293Y-85515769D01*
X194831798Y-85515280D01*
X195041444Y-85447162D01*
X195239263Y-85346368D01*
X195418879Y-85215870D01*
X195575870Y-85058879D01*
X195575872Y-85058875D01*
X195575875Y-85058873D01*
X195669682Y-84929758D01*
X195725011Y-84887092D01*
X195794625Y-84881113D01*
X195856420Y-84913718D01*
X195870318Y-84929758D01*
X195964124Y-85058873D01*
X196121122Y-85215871D01*
X196121127Y-85215875D01*
X196234475Y-85298226D01*
X196300737Y-85346368D01*
X196426785Y-85410593D01*
X196498551Y-85447160D01*
X196498553Y-85447160D01*
X196498556Y-85447162D01*
X196558676Y-85466696D01*
X196709706Y-85515769D01*
X196928986Y-85550500D01*
X196928991Y-85550500D01*
X197151014Y-85550500D01*
X197370293Y-85515769D01*
X197371798Y-85515280D01*
X197581444Y-85447162D01*
X197779263Y-85346368D01*
X197958879Y-85215870D01*
X198115870Y-85058879D01*
X198189991Y-84956858D01*
X198245320Y-84914194D01*
X198314933Y-84908215D01*
X198376729Y-84940820D01*
X198379942Y-84944528D01*
X198381774Y-84944672D01*
X198969572Y-84356874D01*
X198999425Y-84428944D01*
X199066182Y-84528853D01*
X199151147Y-84613818D01*
X199251056Y-84680575D01*
X199323125Y-84710426D01*
X198735325Y-85298225D01*
X198735326Y-85298226D01*
X198800995Y-85345937D01*
X198998743Y-85446696D01*
X199209823Y-85515280D01*
X199429032Y-85550000D01*
X199650968Y-85550000D01*
X199870176Y-85515280D01*
X200081256Y-85446696D01*
X200279001Y-85345939D01*
X200344672Y-85298225D01*
X200344673Y-85298225D01*
X199756874Y-84710427D01*
X199828944Y-84680575D01*
X199928853Y-84613818D01*
X200013818Y-84528853D01*
X200080575Y-84428944D01*
X200110427Y-84356874D01*
X200698225Y-84944673D01*
X200698225Y-84944672D01*
X200729682Y-84901377D01*
X200785012Y-84858712D01*
X200854625Y-84852733D01*
X200916420Y-84885339D01*
X200930319Y-84901378D01*
X200961774Y-84944672D01*
X201549572Y-84356874D01*
X201579425Y-84428944D01*
X201646182Y-84528853D01*
X201731147Y-84613818D01*
X201831056Y-84680575D01*
X201903125Y-84710426D01*
X201315325Y-85298225D01*
X201315326Y-85298226D01*
X201380995Y-85345937D01*
X201578743Y-85446696D01*
X201789823Y-85515280D01*
X202009032Y-85550000D01*
X202230968Y-85550000D01*
X202450176Y-85515280D01*
X202661256Y-85446696D01*
X202859001Y-85345939D01*
X202924672Y-85298225D01*
X202924673Y-85298225D01*
X202336874Y-84710427D01*
X202408944Y-84680575D01*
X202508853Y-84613818D01*
X202593818Y-84528853D01*
X202660575Y-84428944D01*
X202690426Y-84356874D01*
X203278225Y-84944673D01*
X203278225Y-84944672D01*
X203325939Y-84879001D01*
X203426696Y-84681256D01*
X203495280Y-84470176D01*
X203530000Y-84250968D01*
X203530000Y-84029031D01*
X203495280Y-83809823D01*
X203426696Y-83598743D01*
X203325937Y-83400995D01*
X203278226Y-83335326D01*
X203278225Y-83335325D01*
X202690426Y-83923124D01*
X202660575Y-83851056D01*
X202593818Y-83751147D01*
X202508853Y-83666182D01*
X202408944Y-83599425D01*
X202336873Y-83569572D01*
X202924672Y-82981774D01*
X202924672Y-82981772D01*
X202859003Y-82934061D01*
X202858999Y-82934059D01*
X202661256Y-82833303D01*
X202450176Y-82764719D01*
X202230968Y-82730000D01*
X202009032Y-82730000D01*
X201789823Y-82764719D01*
X201578743Y-82833303D01*
X201380997Y-82934061D01*
X201315326Y-82981772D01*
X201315326Y-82981773D01*
X201903126Y-83569572D01*
X201831056Y-83599425D01*
X201731147Y-83666182D01*
X201646182Y-83751147D01*
X201579425Y-83851056D01*
X201549572Y-83923125D01*
X200961773Y-83335326D01*
X200961772Y-83335326D01*
X200930319Y-83378619D01*
X200874989Y-83421286D01*
X200805376Y-83427265D01*
X200743581Y-83394660D01*
X200729682Y-83378620D01*
X200698227Y-83335326D01*
X200698225Y-83335325D01*
X200110426Y-83923124D01*
X200080575Y-83851056D01*
X200013818Y-83751147D01*
X199928853Y-83666182D01*
X199828944Y-83599425D01*
X199756873Y-83569572D01*
X200344672Y-82981774D01*
X200344672Y-82981772D01*
X200279003Y-82934061D01*
X200278999Y-82934059D01*
X200081256Y-82833303D01*
X199870176Y-82764719D01*
X199650968Y-82730000D01*
X199429032Y-82730000D01*
X199209823Y-82764719D01*
X198998743Y-82833303D01*
X198800997Y-82934061D01*
X198735326Y-82981772D01*
X198735326Y-82981773D01*
X199323126Y-83569572D01*
X199251056Y-83599425D01*
X199151147Y-83666182D01*
X199066182Y-83751147D01*
X198999425Y-83851056D01*
X198969572Y-83923125D01*
X198381773Y-83335326D01*
X198372399Y-83336064D01*
X198371611Y-83336672D01*
X198353254Y-83355599D01*
X198344376Y-83357672D01*
X198337159Y-83363238D01*
X198310891Y-83365493D01*
X198285215Y-83371491D01*
X198276627Y-83368436D01*
X198267546Y-83369216D01*
X198244225Y-83356910D01*
X198219386Y-83348075D01*
X198212041Y-83339928D01*
X198205751Y-83336609D01*
X198194051Y-83323502D01*
X198188971Y-83316928D01*
X198186041Y-83311857D01*
X198131946Y-83243126D01*
X198131597Y-83242674D01*
X198131575Y-83242618D01*
X198129404Y-83239747D01*
X198115874Y-83221127D01*
X198115870Y-83221121D01*
X198115237Y-83220488D01*
X198105486Y-83209508D01*
X198059364Y-83150906D01*
X198059355Y-83150895D01*
X198059343Y-83150880D01*
X198039466Y-83127159D01*
X198038501Y-83126077D01*
X198038494Y-83126069D01*
X198017216Y-83103625D01*
X197952033Y-83038953D01*
X197951758Y-83038678D01*
X197935171Y-83008251D01*
X197918439Y-82977893D01*
X197918393Y-82977473D01*
X197918316Y-82977332D01*
X197918340Y-82976993D01*
X197915500Y-82951058D01*
X197915500Y-82774005D01*
X197935185Y-82706966D01*
X197951814Y-82686329D01*
X200058854Y-80579288D01*
X200077634Y-80563876D01*
X200174035Y-80499464D01*
X200299464Y-80374035D01*
X200398013Y-80226547D01*
X200465894Y-80062666D01*
X200500500Y-79888691D01*
X200500500Y-79711309D01*
X200500500Y-79711306D01*
X200500499Y-79711304D01*
X200465896Y-79537341D01*
X200465893Y-79537332D01*
X200398016Y-79373459D01*
X200398009Y-79373446D01*
X200299464Y-79225965D01*
X200299461Y-79225961D01*
X200174038Y-79100538D01*
X200174034Y-79100535D01*
X200026553Y-79001990D01*
X200026540Y-79001983D01*
X199862667Y-78934106D01*
X199862658Y-78934103D01*
X199688694Y-78899500D01*
X199688691Y-78899500D01*
X199511309Y-78899500D01*
X199511306Y-78899500D01*
X199337341Y-78934103D01*
X199337332Y-78934106D01*
X199173459Y-79001983D01*
X199173446Y-79001990D01*
X199025965Y-79100535D01*
X199025961Y-79100538D01*
X198900542Y-79225958D01*
X198900539Y-79225961D01*
X198836122Y-79322364D01*
X198820702Y-79341152D01*
X196481902Y-81679954D01*
X196481899Y-81679957D01*
X196451756Y-81710098D01*
X196440847Y-81719792D01*
X196416240Y-81739190D01*
X196287628Y-81874388D01*
X196277468Y-81885388D01*
X196277067Y-81885836D01*
X196266633Y-81897847D01*
X196156404Y-82028860D01*
X196144563Y-82043477D01*
X196144092Y-82044081D01*
X196133226Y-82058544D01*
X196054268Y-82167631D01*
X196042469Y-82184656D01*
X196041964Y-82185417D01*
X196030732Y-82203142D01*
X195968354Y-82306255D01*
X195956853Y-82326288D01*
X195956361Y-82327193D01*
X195945903Y-82347491D01*
X195899349Y-82443098D01*
X195889555Y-82464457D01*
X195889159Y-82465376D01*
X195880359Y-82487190D01*
X195845116Y-82580762D01*
X195834433Y-82612224D01*
X195833989Y-82613689D01*
X195825456Y-82645529D01*
X195825450Y-82645552D01*
X195789512Y-82799601D01*
X195778149Y-82848312D01*
X195772058Y-82878575D01*
X195771817Y-82879994D01*
X195767477Y-82911571D01*
X195746924Y-83106500D01*
X195720319Y-83171105D01*
X195663008Y-83211071D01*
X195593188Y-83213708D01*
X195535927Y-83181178D01*
X195418877Y-83064128D01*
X195418872Y-83064124D01*
X195239266Y-82933634D01*
X195239265Y-82933633D01*
X195239263Y-82933632D01*
X195131208Y-82878575D01*
X195041448Y-82832839D01*
X194830293Y-82764230D01*
X194611014Y-82729500D01*
X194611009Y-82729500D01*
X194388991Y-82729500D01*
X194388986Y-82729500D01*
X194169706Y-82764230D01*
X193958551Y-82832839D01*
X193760733Y-82933634D01*
X193581127Y-83064124D01*
X193581122Y-83064128D01*
X193424128Y-83221122D01*
X193424124Y-83221127D01*
X193293634Y-83400733D01*
X193192839Y-83598551D01*
X193124230Y-83809706D01*
X193089500Y-84028985D01*
X178926825Y-84028985D01*
X178895281Y-83829823D01*
X178826696Y-83618743D01*
X178725937Y-83420995D01*
X178678226Y-83355326D01*
X178678225Y-83355325D01*
X178090426Y-83943124D01*
X178060575Y-83871056D01*
X177993818Y-83771147D01*
X177908853Y-83686182D01*
X177808944Y-83619425D01*
X177736873Y-83589572D01*
X178324672Y-83001774D01*
X178324672Y-83001772D01*
X178259003Y-82954061D01*
X178258999Y-82954059D01*
X178061256Y-82853303D01*
X177850176Y-82784719D01*
X177630968Y-82750000D01*
X177409032Y-82750000D01*
X177189823Y-82784719D01*
X176978743Y-82853303D01*
X176780997Y-82954061D01*
X176715326Y-83001772D01*
X176715326Y-83001773D01*
X177303126Y-83589572D01*
X177231056Y-83619425D01*
X177131147Y-83686182D01*
X177046182Y-83771147D01*
X176979425Y-83871056D01*
X176949572Y-83943125D01*
X176361773Y-83355326D01*
X176361772Y-83355326D01*
X176330319Y-83398619D01*
X176274989Y-83441286D01*
X176205376Y-83447265D01*
X176143581Y-83414660D01*
X176129682Y-83398620D01*
X176098227Y-83355326D01*
X176098225Y-83355325D01*
X175510426Y-83943124D01*
X175480575Y-83871056D01*
X175413818Y-83771147D01*
X175328853Y-83686182D01*
X175228944Y-83619425D01*
X175156873Y-83589572D01*
X175744672Y-83001774D01*
X175744672Y-83001772D01*
X175679003Y-82954061D01*
X175678999Y-82954059D01*
X175481256Y-82853303D01*
X175270176Y-82784719D01*
X175050968Y-82750000D01*
X174829032Y-82750000D01*
X174609823Y-82784719D01*
X174398743Y-82853303D01*
X174200997Y-82954061D01*
X174135326Y-83001772D01*
X174135326Y-83001773D01*
X174723126Y-83589572D01*
X174651056Y-83619425D01*
X174551147Y-83686182D01*
X174466182Y-83771147D01*
X174399425Y-83871056D01*
X174369572Y-83943125D01*
X173781773Y-83355326D01*
X173774030Y-83355935D01*
X173735295Y-83385805D01*
X173665681Y-83391783D01*
X173603887Y-83359176D01*
X173589990Y-83343138D01*
X173515875Y-83241126D01*
X173358877Y-83084128D01*
X173358872Y-83084124D01*
X173179266Y-82953634D01*
X173179265Y-82953633D01*
X173179263Y-82953632D01*
X173096702Y-82911565D01*
X172981448Y-82852839D01*
X172770293Y-82784230D01*
X172551014Y-82749500D01*
X172551009Y-82749500D01*
X172328991Y-82749500D01*
X172328986Y-82749500D01*
X172109706Y-82784230D01*
X171898551Y-82852839D01*
X171700733Y-82953634D01*
X171521127Y-83084124D01*
X171521122Y-83084128D01*
X171364128Y-83241122D01*
X171364124Y-83241127D01*
X171270318Y-83370241D01*
X171214988Y-83412907D01*
X171145375Y-83418886D01*
X171083580Y-83386280D01*
X171069682Y-83370241D01*
X170975875Y-83241127D01*
X170975871Y-83241122D01*
X170818877Y-83084128D01*
X170818872Y-83084124D01*
X170639266Y-82953634D01*
X170639265Y-82953633D01*
X170639263Y-82953632D01*
X170556702Y-82911565D01*
X170441448Y-82852839D01*
X170230293Y-82784230D01*
X170011014Y-82749500D01*
X170011009Y-82749500D01*
X169788991Y-82749500D01*
X169788986Y-82749500D01*
X169569706Y-82784230D01*
X169358551Y-82852839D01*
X169160733Y-82953634D01*
X168981127Y-83084124D01*
X168981122Y-83084128D01*
X168824128Y-83241122D01*
X168824124Y-83241127D01*
X168693634Y-83420733D01*
X168592839Y-83618551D01*
X168524230Y-83829706D01*
X168489500Y-84048985D01*
X162275500Y-84048985D01*
X162275500Y-70654764D01*
X162295185Y-70587725D01*
X162347989Y-70541970D01*
X162417147Y-70532026D01*
X162480703Y-70561051D01*
X162513472Y-70610476D01*
X162514898Y-70609886D01*
X162516757Y-70614377D01*
X162579411Y-70737341D01*
X162630371Y-70837356D01*
X162631132Y-70838848D01*
X162779201Y-71042649D01*
X162779205Y-71042654D01*
X162957345Y-71220794D01*
X162957350Y-71220798D01*
X163135117Y-71349952D01*
X163161155Y-71368870D01*
X163304184Y-71441747D01*
X163385616Y-71483239D01*
X163385618Y-71483239D01*
X163385621Y-71483241D01*
X163625215Y-71561090D01*
X163874038Y-71600500D01*
X163874039Y-71600500D01*
X164125961Y-71600500D01*
X164125962Y-71600500D01*
X164374785Y-71561090D01*
X164614379Y-71483241D01*
X164838845Y-71368870D01*
X165042656Y-71220793D01*
X165220793Y-71042656D01*
X165368870Y-70838845D01*
X165483241Y-70614379D01*
X165561090Y-70374785D01*
X165600500Y-70125962D01*
X165600500Y-69874038D01*
X165561090Y-69625215D01*
X165483241Y-69385621D01*
X165483239Y-69385618D01*
X165483239Y-69385616D01*
X165388917Y-69200500D01*
X165368870Y-69161155D01*
X165322992Y-69098009D01*
X165220798Y-68957350D01*
X165220794Y-68957345D01*
X165042654Y-68779205D01*
X165042649Y-68779201D01*
X164838848Y-68631132D01*
X164838847Y-68631131D01*
X164838845Y-68631130D01*
X164704479Y-68562667D01*
X164614383Y-68516760D01*
X164374785Y-68438910D01*
X164295327Y-68426325D01*
X164125962Y-68399500D01*
X163874038Y-68399500D01*
X163749626Y-68419205D01*
X163625214Y-68438910D01*
X163385616Y-68516760D01*
X163161151Y-68631132D01*
X162957350Y-68779201D01*
X162957345Y-68779205D01*
X162779205Y-68957345D01*
X162779201Y-68957350D01*
X162631132Y-69161151D01*
X162516757Y-69385622D01*
X162514898Y-69390114D01*
X162513378Y-69389484D01*
X162477985Y-69441236D01*
X162413624Y-69468428D01*
X162344779Y-69456507D01*
X162293307Y-69409259D01*
X162275500Y-69345235D01*
X162275500Y-68714006D01*
X162295185Y-68646967D01*
X162311819Y-68626325D01*
X163126325Y-67811819D01*
X163187648Y-67778334D01*
X163214006Y-67775500D01*
X165285994Y-67775500D01*
X165353033Y-67795185D01*
X165373675Y-67811819D01*
X165988181Y-68426325D01*
X166021666Y-68487648D01*
X166024500Y-68514006D01*
X166024500Y-70286233D01*
X166058143Y-70455366D01*
X166058146Y-70455378D01*
X166124138Y-70614698D01*
X166124145Y-70614711D01*
X166219954Y-70758098D01*
X166219957Y-70758102D01*
X167519955Y-72058099D01*
X167599400Y-72137544D01*
X167641902Y-72180046D01*
X167785288Y-72275854D01*
X167785301Y-72275861D01*
X167940763Y-72340255D01*
X167944626Y-72341855D01*
X168113766Y-72375499D01*
X168113769Y-72375500D01*
X168113771Y-72375500D01*
X169564564Y-72375500D01*
X169631603Y-72395185D01*
X169677358Y-72447989D01*
X169687302Y-72517147D01*
X169658277Y-72580703D01*
X169599499Y-72618477D01*
X169583962Y-72621973D01*
X169569706Y-72624230D01*
X169358551Y-72692839D01*
X169160733Y-72793634D01*
X168981127Y-72924124D01*
X168981122Y-72924128D01*
X168824128Y-73081122D01*
X168824124Y-73081127D01*
X168730318Y-73210241D01*
X168674988Y-73252907D01*
X168605375Y-73258886D01*
X168543580Y-73226280D01*
X168529682Y-73210241D01*
X168435875Y-73081127D01*
X168435871Y-73081122D01*
X168278877Y-72924128D01*
X168278872Y-72924124D01*
X168099266Y-72793634D01*
X168099265Y-72793633D01*
X168099263Y-72793632D01*
X168037487Y-72762156D01*
X167901448Y-72692839D01*
X167690293Y-72624230D01*
X167471014Y-72589500D01*
X167471009Y-72589500D01*
X167248991Y-72589500D01*
X167248986Y-72589500D01*
X167029706Y-72624230D01*
X166818551Y-72692839D01*
X166620733Y-72793634D01*
X166441127Y-72924124D01*
X166441122Y-72924128D01*
X166284128Y-73081122D01*
X166284124Y-73081127D01*
X166190318Y-73210241D01*
X166134988Y-73252907D01*
X166065375Y-73258886D01*
X166003580Y-73226280D01*
X165989682Y-73210241D01*
X165895875Y-73081127D01*
X165895871Y-73081122D01*
X165738877Y-72924128D01*
X165738872Y-72924124D01*
X165559266Y-72793634D01*
X165559265Y-72793633D01*
X165559263Y-72793632D01*
X165497487Y-72762156D01*
X165361448Y-72692839D01*
X165150293Y-72624230D01*
X164931014Y-72589500D01*
X164931009Y-72589500D01*
X164708991Y-72589500D01*
X164708986Y-72589500D01*
X164489706Y-72624230D01*
X164278551Y-72692839D01*
X164080733Y-72793634D01*
X163901127Y-72924124D01*
X163901122Y-72924128D01*
X163744128Y-73081122D01*
X163744124Y-73081127D01*
X163613634Y-73260733D01*
X163512839Y-73458551D01*
X163444230Y-73669706D01*
X163409500Y-73888985D01*
X163409500Y-74111014D01*
X163444230Y-74330293D01*
X163512839Y-74541448D01*
X163562357Y-74638630D01*
X163613568Y-74739138D01*
X163613634Y-74739266D01*
X163744124Y-74918872D01*
X163744128Y-74918877D01*
X163901122Y-75075871D01*
X163901127Y-75075875D01*
X164042001Y-75178225D01*
X164080737Y-75206368D01*
X164206785Y-75270593D01*
X164278551Y-75307160D01*
X164278553Y-75307160D01*
X164278556Y-75307162D01*
X164338676Y-75326696D01*
X164489706Y-75375769D01*
X164708986Y-75410500D01*
X164708991Y-75410500D01*
X164931014Y-75410500D01*
X165150293Y-75375769D01*
X165181070Y-75365769D01*
X165361444Y-75307162D01*
X165559263Y-75206368D01*
X165738879Y-75075870D01*
X165895870Y-74918879D01*
X165895872Y-74918875D01*
X165895875Y-74918873D01*
X165989682Y-74789758D01*
X166045011Y-74747092D01*
X166114625Y-74741113D01*
X166176420Y-74773718D01*
X166190318Y-74789758D01*
X166284124Y-74918873D01*
X166441122Y-75075871D01*
X166441127Y-75075875D01*
X166582001Y-75178225D01*
X166620737Y-75206368D01*
X166746785Y-75270593D01*
X166818551Y-75307160D01*
X166818553Y-75307160D01*
X166818556Y-75307162D01*
X166878676Y-75326696D01*
X167029706Y-75375769D01*
X167248986Y-75410500D01*
X167248991Y-75410500D01*
X167471014Y-75410500D01*
X167690293Y-75375769D01*
X167721070Y-75365769D01*
X167901444Y-75307162D01*
X168099263Y-75206368D01*
X168278879Y-75075870D01*
X168435870Y-74918879D01*
X168435872Y-74918875D01*
X168435875Y-74918873D01*
X168529682Y-74789758D01*
X168585011Y-74747092D01*
X168654625Y-74741113D01*
X168716420Y-74773718D01*
X168730318Y-74789758D01*
X168824124Y-74918873D01*
X168981122Y-75075871D01*
X168981127Y-75075875D01*
X169122001Y-75178225D01*
X169160737Y-75206368D01*
X169286785Y-75270593D01*
X169358551Y-75307160D01*
X169358553Y-75307160D01*
X169358556Y-75307162D01*
X169418676Y-75326696D01*
X169569706Y-75375769D01*
X169788986Y-75410500D01*
X169788991Y-75410500D01*
X170011014Y-75410500D01*
X170230293Y-75375769D01*
X170261070Y-75365769D01*
X170441444Y-75307162D01*
X170639263Y-75206368D01*
X170818879Y-75075870D01*
X170975870Y-74918879D01*
X171066049Y-74794756D01*
X171121378Y-74752092D01*
X171190991Y-74746113D01*
X171252787Y-74778718D01*
X171266685Y-74794758D01*
X171364124Y-74928872D01*
X171364128Y-74928877D01*
X171521122Y-75085871D01*
X171521127Y-75085875D01*
X171648237Y-75178225D01*
X171700737Y-75216368D01*
X171826785Y-75280593D01*
X171898551Y-75317160D01*
X171898553Y-75317160D01*
X171898556Y-75317162D01*
X172011739Y-75353937D01*
X172109706Y-75385769D01*
X172328986Y-75420500D01*
X172328991Y-75420500D01*
X172551014Y-75420500D01*
X172770293Y-75385769D01*
X172801070Y-75375769D01*
X172981444Y-75317162D01*
X173179263Y-75216368D01*
X173358879Y-75085870D01*
X173515870Y-74928879D01*
X173593315Y-74822284D01*
X173648642Y-74779619D01*
X173718256Y-74773639D01*
X173780051Y-74806245D01*
X173793950Y-74822285D01*
X173864124Y-74918873D01*
X174021122Y-75075871D01*
X174021127Y-75075875D01*
X174162001Y-75178225D01*
X174200737Y-75206368D01*
X174326785Y-75270593D01*
X174398551Y-75307160D01*
X174398553Y-75307160D01*
X174398556Y-75307162D01*
X174458676Y-75326696D01*
X174609706Y-75375769D01*
X174828986Y-75410500D01*
X174828991Y-75410500D01*
X175051014Y-75410500D01*
X175270293Y-75375769D01*
X175301070Y-75365769D01*
X175481444Y-75307162D01*
X175679263Y-75206368D01*
X175858879Y-75075870D01*
X176015870Y-74918879D01*
X176115461Y-74781801D01*
X176170789Y-74739138D01*
X176240402Y-74733159D01*
X176302197Y-74765764D01*
X176316096Y-74781804D01*
X176361772Y-74844672D01*
X176361774Y-74844672D01*
X176949572Y-74256874D01*
X176979425Y-74328944D01*
X177046182Y-74428853D01*
X177131147Y-74513818D01*
X177231056Y-74580575D01*
X177303125Y-74610426D01*
X176715325Y-75198225D01*
X176715326Y-75198226D01*
X176780995Y-75245937D01*
X176978743Y-75346696D01*
X177189823Y-75415280D01*
X177409032Y-75450000D01*
X177630968Y-75450000D01*
X177850176Y-75415280D01*
X178061256Y-75346696D01*
X178259001Y-75245939D01*
X178324672Y-75198225D01*
X178324673Y-75198225D01*
X177736874Y-74610427D01*
X177808944Y-74580575D01*
X177908853Y-74513818D01*
X177993818Y-74428853D01*
X178060575Y-74328944D01*
X178090427Y-74256874D01*
X178678225Y-74844673D01*
X178678226Y-74844672D01*
X178703903Y-74809332D01*
X178759233Y-74766666D01*
X178828846Y-74760687D01*
X178890641Y-74793293D01*
X178904539Y-74809332D01*
X178984124Y-74918872D01*
X178984128Y-74918877D01*
X179141122Y-75075871D01*
X179141127Y-75075875D01*
X179282001Y-75178225D01*
X179320737Y-75206368D01*
X179446785Y-75270593D01*
X179518551Y-75307160D01*
X179518553Y-75307160D01*
X179518556Y-75307162D01*
X179578676Y-75326696D01*
X179729706Y-75375769D01*
X179948986Y-75410500D01*
X179948991Y-75410500D01*
X180171014Y-75410500D01*
X180390293Y-75375769D01*
X180421070Y-75365769D01*
X180601444Y-75307162D01*
X180799263Y-75206368D01*
X180978879Y-75075870D01*
X181135870Y-74918879D01*
X181135872Y-74918875D01*
X181135875Y-74918873D01*
X181229682Y-74789758D01*
X181285011Y-74747092D01*
X181354625Y-74741113D01*
X181416420Y-74773718D01*
X181430318Y-74789758D01*
X181524124Y-74918873D01*
X181681122Y-75075871D01*
X181681127Y-75075875D01*
X181822001Y-75178225D01*
X181860737Y-75206368D01*
X181986785Y-75270593D01*
X182058551Y-75307160D01*
X182058553Y-75307160D01*
X182058556Y-75307162D01*
X182118676Y-75326696D01*
X182269706Y-75375769D01*
X182488986Y-75410500D01*
X182488991Y-75410500D01*
X182711014Y-75410500D01*
X182930293Y-75375769D01*
X182961070Y-75365769D01*
X183141444Y-75307162D01*
X183339263Y-75206368D01*
X183518879Y-75075870D01*
X183675870Y-74918879D01*
X183675872Y-74918875D01*
X183675875Y-74918873D01*
X183769682Y-74789758D01*
X183825011Y-74747092D01*
X183894625Y-74741113D01*
X183956420Y-74773718D01*
X183970318Y-74789758D01*
X184064124Y-74918873D01*
X184221122Y-75075871D01*
X184221127Y-75075875D01*
X184362001Y-75178225D01*
X184400737Y-75206368D01*
X184526785Y-75270593D01*
X184598551Y-75307160D01*
X184598553Y-75307160D01*
X184598556Y-75307162D01*
X184658676Y-75326696D01*
X184809706Y-75375769D01*
X185028986Y-75410500D01*
X185028991Y-75410500D01*
X185251014Y-75410500D01*
X185470293Y-75375769D01*
X185501070Y-75365769D01*
X185681444Y-75307162D01*
X185879263Y-75206368D01*
X186058879Y-75075870D01*
X186215870Y-74918879D01*
X186230406Y-74898872D01*
X186300182Y-74802834D01*
X186355511Y-74760168D01*
X186425125Y-74754189D01*
X186486920Y-74786794D01*
X186521277Y-74847633D01*
X186524500Y-74875719D01*
X186524500Y-82673414D01*
X186522117Y-82697606D01*
X186499500Y-82811306D01*
X186499500Y-82988695D01*
X186534103Y-83162658D01*
X186534106Y-83162667D01*
X186601983Y-83326540D01*
X186601990Y-83326553D01*
X186700535Y-83474034D01*
X186700538Y-83474038D01*
X186825961Y-83599461D01*
X186825965Y-83599464D01*
X186973446Y-83698009D01*
X186973459Y-83698016D01*
X187096363Y-83748923D01*
X187137334Y-83765894D01*
X187137336Y-83765894D01*
X187137341Y-83765896D01*
X187311304Y-83800499D01*
X187311307Y-83800500D01*
X187311309Y-83800500D01*
X187488693Y-83800500D01*
X187488694Y-83800499D01*
X187559345Y-83786446D01*
X187662658Y-83765896D01*
X187662661Y-83765894D01*
X187662666Y-83765894D01*
X187826547Y-83698013D01*
X187974035Y-83599464D01*
X188099464Y-83474035D01*
X188198013Y-83326547D01*
X188265894Y-83162666D01*
X188268234Y-83150906D01*
X188297712Y-83002707D01*
X188300500Y-82988691D01*
X188300500Y-82811309D01*
X188300500Y-82811306D01*
X188277883Y-82697606D01*
X188275500Y-82673414D01*
X188275500Y-78699500D01*
X188295185Y-78632461D01*
X188347989Y-78586706D01*
X188399500Y-78575500D01*
X191186231Y-78575500D01*
X191186232Y-78575499D01*
X191355374Y-78541855D01*
X191514705Y-78475858D01*
X191658099Y-78380045D01*
X192158859Y-77879283D01*
X192177634Y-77863876D01*
X192274035Y-77799464D01*
X192399464Y-77674035D01*
X192498013Y-77526547D01*
X192565894Y-77362666D01*
X192600500Y-77188691D01*
X192600500Y-77011309D01*
X192600500Y-77011306D01*
X192600499Y-77011304D01*
X192565896Y-76837341D01*
X192565893Y-76837332D01*
X192498016Y-76673459D01*
X192498009Y-76673446D01*
X192399464Y-76525965D01*
X192399461Y-76525961D01*
X192274038Y-76400538D01*
X192274034Y-76400535D01*
X192126553Y-76301990D01*
X192126540Y-76301983D01*
X191962667Y-76234106D01*
X191962658Y-76234103D01*
X191788694Y-76199500D01*
X191788691Y-76199500D01*
X191611309Y-76199500D01*
X191611306Y-76199500D01*
X191437341Y-76234103D01*
X191437332Y-76234106D01*
X191273459Y-76301983D01*
X191273446Y-76301990D01*
X191125965Y-76400535D01*
X191125961Y-76400538D01*
X191000542Y-76525958D01*
X191000539Y-76525961D01*
X190936122Y-76622364D01*
X190920702Y-76641152D01*
X190773673Y-76788182D01*
X190712353Y-76821666D01*
X190685994Y-76824500D01*
X188714006Y-76824500D01*
X188646967Y-76804815D01*
X188626325Y-76788181D01*
X188311819Y-76473675D01*
X188278334Y-76412352D01*
X188275500Y-76385994D01*
X188275500Y-75129611D01*
X188295185Y-75062572D01*
X188347989Y-75016817D01*
X188417147Y-75006873D01*
X188480703Y-75035898D01*
X188487181Y-75041930D01*
X188501122Y-75055871D01*
X188501127Y-75055875D01*
X188602617Y-75129611D01*
X188680737Y-75186368D01*
X188806785Y-75250593D01*
X188878551Y-75287160D01*
X188878553Y-75287160D01*
X188878556Y-75287162D01*
X188940104Y-75307160D01*
X189089706Y-75355769D01*
X189308986Y-75390500D01*
X189308991Y-75390500D01*
X189531014Y-75390500D01*
X189750293Y-75355769D01*
X189778217Y-75346696D01*
X189961444Y-75287162D01*
X190159263Y-75186368D01*
X190338879Y-75055870D01*
X190495870Y-74898879D01*
X190495872Y-74898875D01*
X190495875Y-74898873D01*
X190589682Y-74769758D01*
X190645011Y-74727092D01*
X190714625Y-74721113D01*
X190776420Y-74753718D01*
X190790318Y-74769758D01*
X190884124Y-74898873D01*
X191041122Y-75055871D01*
X191041127Y-75055875D01*
X191142617Y-75129611D01*
X191220737Y-75186368D01*
X191346785Y-75250593D01*
X191418551Y-75287160D01*
X191418553Y-75287160D01*
X191418556Y-75287162D01*
X191480104Y-75307160D01*
X191629706Y-75355769D01*
X191848986Y-75390500D01*
X191848991Y-75390500D01*
X192071014Y-75390500D01*
X192290293Y-75355769D01*
X192318217Y-75346696D01*
X192501444Y-75287162D01*
X192699263Y-75186368D01*
X192878879Y-75055870D01*
X193035870Y-74898879D01*
X193035872Y-74898875D01*
X193035875Y-74898873D01*
X193129682Y-74769758D01*
X193185011Y-74727092D01*
X193254625Y-74721113D01*
X193316420Y-74753718D01*
X193330318Y-74769758D01*
X193424124Y-74898873D01*
X193581122Y-75055871D01*
X193581127Y-75055875D01*
X193682617Y-75129611D01*
X193760737Y-75186368D01*
X193886785Y-75250593D01*
X193958551Y-75287160D01*
X193958553Y-75287160D01*
X193958556Y-75287162D01*
X194020104Y-75307160D01*
X194169706Y-75355769D01*
X194388986Y-75390500D01*
X194388991Y-75390500D01*
X194611014Y-75390500D01*
X194830293Y-75355769D01*
X194858217Y-75346696D01*
X195041444Y-75287162D01*
X195239263Y-75186368D01*
X195418879Y-75055870D01*
X195575870Y-74898879D01*
X195666049Y-74774756D01*
X195721378Y-74732092D01*
X195790991Y-74726113D01*
X195852787Y-74758718D01*
X195866685Y-74774758D01*
X195964124Y-74908872D01*
X195964128Y-74908877D01*
X196121122Y-75065871D01*
X196121127Y-75065875D01*
X196208853Y-75129611D01*
X196300737Y-75196368D01*
X196426785Y-75260593D01*
X196498551Y-75297160D01*
X196498553Y-75297160D01*
X196498556Y-75297162D01*
X196611739Y-75333937D01*
X196709706Y-75365769D01*
X196928986Y-75400500D01*
X196928991Y-75400500D01*
X197151014Y-75400500D01*
X197370293Y-75365769D01*
X197401070Y-75355769D01*
X197581444Y-75297162D01*
X197779263Y-75196368D01*
X197958879Y-75065870D01*
X198115870Y-74908879D01*
X198193315Y-74802284D01*
X198248642Y-74759619D01*
X198318256Y-74753639D01*
X198380051Y-74786245D01*
X198393950Y-74802285D01*
X198464124Y-74898873D01*
X198621122Y-75055871D01*
X198621127Y-75055875D01*
X198722617Y-75129611D01*
X198800737Y-75186368D01*
X198926785Y-75250593D01*
X198998551Y-75287160D01*
X198998553Y-75287160D01*
X198998556Y-75287162D01*
X199060104Y-75307160D01*
X199209706Y-75355769D01*
X199428986Y-75390500D01*
X199428991Y-75390500D01*
X199651014Y-75390500D01*
X199870293Y-75355769D01*
X199898217Y-75346696D01*
X200081444Y-75287162D01*
X200279263Y-75186368D01*
X200458879Y-75055870D01*
X200615870Y-74898879D01*
X200715461Y-74761801D01*
X200770789Y-74719138D01*
X200840402Y-74713159D01*
X200902197Y-74745764D01*
X200916096Y-74761804D01*
X200961772Y-74824672D01*
X200961774Y-74824672D01*
X201549572Y-74236874D01*
X201579425Y-74308944D01*
X201646182Y-74408853D01*
X201731147Y-74493818D01*
X201831056Y-74560575D01*
X201903125Y-74590426D01*
X201315325Y-75178225D01*
X201315326Y-75178226D01*
X201380995Y-75225937D01*
X201578743Y-75326696D01*
X201789823Y-75395280D01*
X202009032Y-75430000D01*
X202230968Y-75430000D01*
X202450176Y-75395280D01*
X202661256Y-75326696D01*
X202859001Y-75225939D01*
X202924672Y-75178225D01*
X202924673Y-75178225D01*
X202336874Y-74590427D01*
X202408944Y-74560575D01*
X202508853Y-74493818D01*
X202593818Y-74408853D01*
X202660575Y-74308944D01*
X202690426Y-74236874D01*
X203278225Y-74824673D01*
X203278226Y-74824672D01*
X203303903Y-74789332D01*
X203359233Y-74746666D01*
X203428846Y-74740687D01*
X203490641Y-74773293D01*
X203504539Y-74789332D01*
X203584124Y-74898872D01*
X203584128Y-74898877D01*
X203741122Y-75055871D01*
X203741127Y-75055875D01*
X203842617Y-75129611D01*
X203920737Y-75186368D01*
X204046785Y-75250593D01*
X204118551Y-75287160D01*
X204118553Y-75287160D01*
X204118556Y-75287162D01*
X204180104Y-75307160D01*
X204329706Y-75355769D01*
X204548986Y-75390500D01*
X204548991Y-75390500D01*
X204771014Y-75390500D01*
X204990293Y-75355769D01*
X205018217Y-75346696D01*
X205201444Y-75287162D01*
X205399263Y-75186368D01*
X205578879Y-75055870D01*
X205735870Y-74898879D01*
X205735872Y-74898875D01*
X205735875Y-74898873D01*
X205829682Y-74769758D01*
X205885011Y-74727092D01*
X205954625Y-74721113D01*
X206016420Y-74753718D01*
X206030318Y-74769758D01*
X206124124Y-74898873D01*
X206281122Y-75055871D01*
X206281127Y-75055875D01*
X206382617Y-75129611D01*
X206460737Y-75186368D01*
X206586785Y-75250593D01*
X206658551Y-75287160D01*
X206658553Y-75287160D01*
X206658556Y-75287162D01*
X206720104Y-75307160D01*
X206869706Y-75355769D01*
X207088986Y-75390500D01*
X207088991Y-75390500D01*
X207311014Y-75390500D01*
X207530293Y-75355769D01*
X207558217Y-75346696D01*
X207741444Y-75287162D01*
X207939263Y-75186368D01*
X208118879Y-75055870D01*
X208275870Y-74898879D01*
X208275872Y-74898875D01*
X208275875Y-74898873D01*
X208369682Y-74769758D01*
X208425011Y-74727092D01*
X208494625Y-74721113D01*
X208556420Y-74753718D01*
X208570318Y-74769758D01*
X208664124Y-74898873D01*
X208821122Y-75055871D01*
X208821127Y-75055875D01*
X208922617Y-75129611D01*
X209000737Y-75186368D01*
X209126785Y-75250593D01*
X209198551Y-75287160D01*
X209198553Y-75287160D01*
X209198556Y-75287162D01*
X209260104Y-75307160D01*
X209409706Y-75355769D01*
X209628986Y-75390500D01*
X209628991Y-75390500D01*
X209851014Y-75390500D01*
X210070293Y-75355769D01*
X210098217Y-75346696D01*
X210281444Y-75287162D01*
X210479263Y-75186368D01*
X210658879Y-75055870D01*
X210815870Y-74898879D01*
X210946368Y-74719263D01*
X211047162Y-74521444D01*
X211115769Y-74310293D01*
X211115983Y-74308944D01*
X211150500Y-74091014D01*
X211150500Y-73868985D01*
X211115769Y-73649706D01*
X211082132Y-73546182D01*
X211047162Y-73438556D01*
X211047160Y-73438553D01*
X211047160Y-73438551D01*
X210980049Y-73306840D01*
X210946368Y-73240737D01*
X210924312Y-73210379D01*
X210815875Y-73061127D01*
X210815871Y-73061122D01*
X210658877Y-72904128D01*
X210658872Y-72904124D01*
X210479266Y-72773634D01*
X210479265Y-72773633D01*
X210479263Y-72773632D01*
X210400113Y-72733303D01*
X210281448Y-72672839D01*
X210070293Y-72604230D01*
X209851014Y-72569500D01*
X209851009Y-72569500D01*
X209628991Y-72569500D01*
X209628986Y-72569500D01*
X209409706Y-72604230D01*
X209198551Y-72672839D01*
X209000733Y-72773634D01*
X208821127Y-72904124D01*
X208821122Y-72904128D01*
X208664128Y-73061122D01*
X208664124Y-73061127D01*
X208570318Y-73190241D01*
X208514988Y-73232907D01*
X208445375Y-73238886D01*
X208383580Y-73206280D01*
X208369682Y-73190241D01*
X208275875Y-73061127D01*
X208275871Y-73061122D01*
X208118877Y-72904128D01*
X208118872Y-72904124D01*
X207939266Y-72773634D01*
X207939265Y-72773633D01*
X207939263Y-72773632D01*
X207860113Y-72733303D01*
X207741448Y-72672839D01*
X207530293Y-72604230D01*
X207311014Y-72569500D01*
X207311009Y-72569500D01*
X207088991Y-72569500D01*
X207088986Y-72569500D01*
X206869706Y-72604230D01*
X206658551Y-72672839D01*
X206460733Y-72773634D01*
X206281127Y-72904124D01*
X206281122Y-72904128D01*
X206124128Y-73061122D01*
X206124124Y-73061127D01*
X206030318Y-73190241D01*
X205974988Y-73232907D01*
X205905375Y-73238886D01*
X205843580Y-73206280D01*
X205829682Y-73190241D01*
X205735875Y-73061127D01*
X205735871Y-73061122D01*
X205578877Y-72904128D01*
X205578872Y-72904124D01*
X205399266Y-72773634D01*
X205399265Y-72773633D01*
X205399263Y-72773632D01*
X205320113Y-72733303D01*
X205201448Y-72672839D01*
X204990293Y-72604230D01*
X204771014Y-72569500D01*
X204771009Y-72569500D01*
X204548991Y-72569500D01*
X204548986Y-72569500D01*
X204329706Y-72604230D01*
X204118551Y-72672839D01*
X203920733Y-72773634D01*
X203741127Y-72904124D01*
X203741122Y-72904128D01*
X203584128Y-73061122D01*
X203584124Y-73061127D01*
X203475478Y-73210667D01*
X203420148Y-73253333D01*
X203350535Y-73259312D01*
X203288740Y-73226707D01*
X203278926Y-73215381D01*
X203278225Y-73215325D01*
X202690426Y-73803124D01*
X202660575Y-73731056D01*
X202593818Y-73631147D01*
X202508853Y-73546182D01*
X202408944Y-73479425D01*
X202336873Y-73449572D01*
X202924672Y-72861774D01*
X202924672Y-72861772D01*
X202859003Y-72814061D01*
X202858999Y-72814059D01*
X202661256Y-72713303D01*
X202450176Y-72644719D01*
X202230968Y-72610000D01*
X202009032Y-72610000D01*
X201789823Y-72644719D01*
X201578743Y-72713303D01*
X201380997Y-72814061D01*
X201315326Y-72861772D01*
X201315326Y-72861773D01*
X201903126Y-73449572D01*
X201831056Y-73479425D01*
X201731147Y-73546182D01*
X201646182Y-73631147D01*
X201579425Y-73731056D01*
X201549572Y-73803125D01*
X200961773Y-73215326D01*
X200961772Y-73215326D01*
X200945158Y-73238195D01*
X200889828Y-73280861D01*
X200820215Y-73286840D01*
X200758419Y-73254235D01*
X200744527Y-73238203D01*
X200615870Y-73061121D01*
X200458879Y-72904130D01*
X200458877Y-72904128D01*
X200458872Y-72904124D01*
X200279266Y-72773634D01*
X200279265Y-72773633D01*
X200279263Y-72773632D01*
X200200113Y-72733303D01*
X200081448Y-72672839D01*
X199870293Y-72604230D01*
X199651014Y-72569500D01*
X199651009Y-72569500D01*
X199428991Y-72569500D01*
X199428986Y-72569500D01*
X199209706Y-72604230D01*
X198998551Y-72672839D01*
X198800733Y-72773634D01*
X198621127Y-72904124D01*
X198621122Y-72904128D01*
X198464128Y-73061122D01*
X198386685Y-73167714D01*
X198331355Y-73210379D01*
X198261742Y-73216358D01*
X198199947Y-73183752D01*
X198186049Y-73167713D01*
X198115875Y-73071127D01*
X198115871Y-73071122D01*
X197958877Y-72914128D01*
X197958872Y-72914124D01*
X197779266Y-72783634D01*
X197779265Y-72783633D01*
X197779263Y-72783632D01*
X197717487Y-72752156D01*
X197581448Y-72682839D01*
X197370293Y-72614230D01*
X197151014Y-72579500D01*
X197151009Y-72579500D01*
X196928991Y-72579500D01*
X196928986Y-72579500D01*
X196709706Y-72614230D01*
X196498551Y-72682839D01*
X196300733Y-72783634D01*
X196121127Y-72914124D01*
X196121122Y-72914128D01*
X195964128Y-73071122D01*
X195873950Y-73195242D01*
X195818620Y-73237907D01*
X195749006Y-73243886D01*
X195687212Y-73211280D01*
X195673314Y-73195241D01*
X195575875Y-73061126D01*
X195418877Y-72904128D01*
X195418872Y-72904124D01*
X195239266Y-72773634D01*
X195239265Y-72773633D01*
X195239263Y-72773632D01*
X195160113Y-72733303D01*
X195041448Y-72672839D01*
X194830293Y-72604230D01*
X194611014Y-72569500D01*
X194611009Y-72569500D01*
X194388991Y-72569500D01*
X194388986Y-72569500D01*
X194169706Y-72604230D01*
X193958551Y-72672839D01*
X193760733Y-72773634D01*
X193581127Y-72904124D01*
X193581122Y-72904128D01*
X193424128Y-73061122D01*
X193424124Y-73061127D01*
X193330318Y-73190241D01*
X193274988Y-73232907D01*
X193205375Y-73238886D01*
X193143580Y-73206280D01*
X193129682Y-73190241D01*
X193035875Y-73061127D01*
X193035871Y-73061122D01*
X192878877Y-72904128D01*
X192878872Y-72904124D01*
X192699266Y-72773634D01*
X192699265Y-72773633D01*
X192699263Y-72773632D01*
X192620113Y-72733303D01*
X192501448Y-72672839D01*
X192290293Y-72604230D01*
X192071014Y-72569500D01*
X192071009Y-72569500D01*
X191848991Y-72569500D01*
X191848986Y-72569500D01*
X191629706Y-72604230D01*
X191418551Y-72672839D01*
X191220733Y-72773634D01*
X191041127Y-72904124D01*
X191041122Y-72904128D01*
X190884128Y-73061122D01*
X190884124Y-73061127D01*
X190790318Y-73190241D01*
X190734988Y-73232907D01*
X190665375Y-73238886D01*
X190603580Y-73206280D01*
X190589682Y-73190241D01*
X190495875Y-73061127D01*
X190495871Y-73061122D01*
X190338877Y-72904128D01*
X190338872Y-72904124D01*
X190159266Y-72773634D01*
X190159265Y-72773633D01*
X190159263Y-72773632D01*
X190080113Y-72733303D01*
X189961448Y-72672839D01*
X189750293Y-72604230D01*
X189531014Y-72569500D01*
X189531009Y-72569500D01*
X189308991Y-72569500D01*
X189308986Y-72569500D01*
X189089706Y-72604230D01*
X188878551Y-72672839D01*
X188680733Y-72773634D01*
X188501127Y-72904124D01*
X188501122Y-72904128D01*
X188487181Y-72918070D01*
X188425858Y-72951555D01*
X188356166Y-72946571D01*
X188300233Y-72904699D01*
X188275816Y-72839235D01*
X188275500Y-72830389D01*
X188275500Y-72413768D01*
X188275499Y-72413766D01*
X188267887Y-72375499D01*
X188241855Y-72244626D01*
X188241853Y-72244621D01*
X188175861Y-72085301D01*
X188175854Y-72085288D01*
X188080046Y-71941902D01*
X188038643Y-71900499D01*
X187958099Y-71819955D01*
X187358937Y-71220793D01*
X186758102Y-70619957D01*
X186758098Y-70619954D01*
X186614711Y-70524145D01*
X186614698Y-70524138D01*
X186455378Y-70458146D01*
X186455366Y-70458143D01*
X186286232Y-70424500D01*
X186286229Y-70424500D01*
X185437821Y-70424500D01*
X185370782Y-70404815D01*
X185325027Y-70352011D01*
X185315083Y-70282853D01*
X185344108Y-70219297D01*
X185390368Y-70185939D01*
X185397889Y-70182823D01*
X185414705Y-70175858D01*
X185558099Y-70080045D01*
X186880045Y-68758099D01*
X186975858Y-68614705D01*
X187041855Y-68455374D01*
X187075500Y-68286229D01*
X187075500Y-68113771D01*
X187075500Y-66751584D01*
X187077883Y-66727392D01*
X187083908Y-66697106D01*
X187090892Y-66661994D01*
X187100500Y-66613693D01*
X187100500Y-66436306D01*
X187100499Y-66436304D01*
X187065896Y-66262341D01*
X187065893Y-66262332D01*
X186998016Y-66098459D01*
X186998009Y-66098446D01*
X186899464Y-65950965D01*
X186899461Y-65950961D01*
X186774038Y-65825538D01*
X186774034Y-65825535D01*
X186626553Y-65726990D01*
X186626540Y-65726983D01*
X186462667Y-65659106D01*
X186462658Y-65659103D01*
X186288694Y-65624500D01*
X186288691Y-65624500D01*
X186111309Y-65624500D01*
X186111306Y-65624500D01*
X185937341Y-65659103D01*
X185937332Y-65659106D01*
X185773459Y-65726983D01*
X185773446Y-65726990D01*
X185625965Y-65825535D01*
X185625961Y-65825538D01*
X185500538Y-65950961D01*
X185500535Y-65950965D01*
X185401990Y-66098446D01*
X185401983Y-66098459D01*
X185334106Y-66262332D01*
X185334103Y-66262341D01*
X185299500Y-66436304D01*
X185299500Y-66436309D01*
X185299500Y-66613691D01*
X185299500Y-66613693D01*
X185299499Y-66613693D01*
X185322117Y-66727392D01*
X185324500Y-66751584D01*
X185324500Y-67785994D01*
X185304815Y-67853033D01*
X185288181Y-67873675D01*
X184673675Y-68488181D01*
X184612352Y-68521666D01*
X184585994Y-68524500D01*
X183214006Y-68524500D01*
X183146967Y-68504815D01*
X183126325Y-68488181D01*
X182758102Y-68119957D01*
X182758098Y-68119954D01*
X182614711Y-68024145D01*
X182614698Y-68024138D01*
X182455378Y-67958146D01*
X182455366Y-67958143D01*
X182286232Y-67924500D01*
X182286229Y-67924500D01*
X180626585Y-67924500D01*
X180602394Y-67922117D01*
X180561617Y-67914006D01*
X180488693Y-67899500D01*
X180488691Y-67899500D01*
X180311309Y-67899500D01*
X180311306Y-67899500D01*
X180137341Y-67934103D01*
X180137332Y-67934106D01*
X179973459Y-68001983D01*
X179973446Y-68001990D01*
X179820900Y-68103920D01*
X179819805Y-68102281D01*
X179763852Y-68126044D01*
X179694985Y-68114251D01*
X179643426Y-68067098D01*
X179625500Y-68002877D01*
X179625500Y-67022307D01*
X179645185Y-66955268D01*
X179697989Y-66909513D01*
X179767147Y-66899569D01*
X179796946Y-66907744D01*
X179937334Y-66965894D01*
X179937337Y-66965894D01*
X179937341Y-66965896D01*
X180111304Y-67000499D01*
X180111307Y-67000500D01*
X180111309Y-67000500D01*
X180288693Y-67000500D01*
X180367203Y-66984882D01*
X180402394Y-66977882D01*
X180426585Y-66975500D01*
X182873415Y-66975500D01*
X182897605Y-66977882D01*
X182923765Y-66983086D01*
X183011306Y-67000500D01*
X183011309Y-67000500D01*
X183188693Y-67000500D01*
X183188694Y-67000499D01*
X183246682Y-66988964D01*
X183362658Y-66965896D01*
X183362661Y-66965894D01*
X183362666Y-66965894D01*
X183503049Y-66907746D01*
X183526540Y-66898016D01*
X183526540Y-66898015D01*
X183526547Y-66898013D01*
X183674035Y-66799464D01*
X183799464Y-66674035D01*
X183898013Y-66526547D01*
X183905502Y-66508468D01*
X183919157Y-66475500D01*
X183965894Y-66362666D01*
X183967811Y-66353033D01*
X184000499Y-66188695D01*
X184000500Y-66188693D01*
X184000500Y-66011306D01*
X184000499Y-66011304D01*
X183965896Y-65837341D01*
X183965893Y-65837332D01*
X183958028Y-65818345D01*
X183933093Y-65758145D01*
X183898016Y-65673459D01*
X183898009Y-65673446D01*
X183799464Y-65525965D01*
X183799461Y-65525961D01*
X183674038Y-65400538D01*
X183674034Y-65400535D01*
X183526551Y-65301989D01*
X183526540Y-65301983D01*
X183362667Y-65234106D01*
X183362658Y-65234103D01*
X183188694Y-65199500D01*
X183188691Y-65199500D01*
X183011309Y-65199500D01*
X183011307Y-65199500D01*
X182932796Y-65215117D01*
X182897605Y-65222117D01*
X182873415Y-65224500D01*
X180426585Y-65224500D01*
X180410289Y-65223425D01*
X180406333Y-65222900D01*
X180288691Y-65199500D01*
X180229818Y-65199500D01*
X180221709Y-65198425D01*
X180196948Y-65187444D01*
X180170966Y-65179815D01*
X180165487Y-65173492D01*
X180157838Y-65170100D01*
X180142944Y-65147476D01*
X180125211Y-65127011D01*
X180124020Y-65118730D01*
X180119419Y-65111741D01*
X180119121Y-65084658D01*
X180115267Y-65057853D01*
X180118742Y-65050241D01*
X180118651Y-65041876D01*
X180133039Y-65018935D01*
X180144292Y-64994297D01*
X180150324Y-64987819D01*
X182126840Y-63011304D01*
X186099500Y-63011304D01*
X186099500Y-63188695D01*
X186134103Y-63362658D01*
X186134106Y-63362667D01*
X186201983Y-63526540D01*
X186201990Y-63526553D01*
X186300535Y-63674034D01*
X186300538Y-63674038D01*
X186425961Y-63799461D01*
X186425965Y-63799464D01*
X186573446Y-63898009D01*
X186573459Y-63898016D01*
X186693938Y-63947919D01*
X186737334Y-63965894D01*
X186737336Y-63965894D01*
X186737341Y-63965896D01*
X186911304Y-64000499D01*
X186911307Y-64000500D01*
X186911309Y-64000500D01*
X187088693Y-64000500D01*
X187167203Y-63984882D01*
X187202394Y-63977882D01*
X187226585Y-63975500D01*
X191386231Y-63975500D01*
X191386232Y-63975499D01*
X191555374Y-63941855D01*
X191714705Y-63875858D01*
X191858099Y-63780045D01*
X193958854Y-61679288D01*
X193977634Y-61663876D01*
X194074035Y-61599464D01*
X194199464Y-61474035D01*
X194298013Y-61326547D01*
X194300744Y-61319955D01*
X194319764Y-61274034D01*
X194365894Y-61162666D01*
X194366794Y-61158145D01*
X194400499Y-60988695D01*
X194400500Y-60988693D01*
X194400500Y-60811306D01*
X194400499Y-60811304D01*
X194365896Y-60637341D01*
X194365893Y-60637332D01*
X194298016Y-60473459D01*
X194298009Y-60473446D01*
X194199464Y-60325965D01*
X194199461Y-60325961D01*
X194074038Y-60200538D01*
X194074034Y-60200535D01*
X193926553Y-60101990D01*
X193926540Y-60101983D01*
X193762667Y-60034106D01*
X193762658Y-60034103D01*
X193588694Y-59999500D01*
X193588691Y-59999500D01*
X193411309Y-59999500D01*
X193411306Y-59999500D01*
X193237341Y-60034103D01*
X193237332Y-60034106D01*
X193073459Y-60101983D01*
X193073446Y-60101990D01*
X192925965Y-60200535D01*
X192925961Y-60200538D01*
X192800542Y-60325958D01*
X192800539Y-60325961D01*
X192736122Y-60422364D01*
X192720702Y-60441152D01*
X190973675Y-62188181D01*
X190912352Y-62221666D01*
X190885994Y-62224500D01*
X187226585Y-62224500D01*
X187202394Y-62222117D01*
X187167203Y-62215117D01*
X187088693Y-62199500D01*
X187088691Y-62199500D01*
X186911309Y-62199500D01*
X186911306Y-62199500D01*
X186737341Y-62234103D01*
X186737332Y-62234106D01*
X186573459Y-62301983D01*
X186573446Y-62301990D01*
X186425965Y-62400535D01*
X186425961Y-62400538D01*
X186300538Y-62525961D01*
X186300535Y-62525965D01*
X186201990Y-62673446D01*
X186201983Y-62673459D01*
X186134106Y-62837332D01*
X186134103Y-62837341D01*
X186099500Y-63011304D01*
X182126840Y-63011304D01*
X182220608Y-62917536D01*
X183326325Y-61811819D01*
X183387648Y-61778334D01*
X183414006Y-61775500D01*
X184873415Y-61775500D01*
X184897605Y-61777882D01*
X184923765Y-61783086D01*
X185011306Y-61800500D01*
X185011309Y-61800500D01*
X185188693Y-61800500D01*
X185188694Y-61800499D01*
X185246682Y-61788964D01*
X185362658Y-61765896D01*
X185362661Y-61765894D01*
X185362666Y-61765894D01*
X185526547Y-61698013D01*
X185674035Y-61599464D01*
X185799464Y-61474035D01*
X185898013Y-61326547D01*
X185900744Y-61319955D01*
X185919764Y-61274034D01*
X185965894Y-61162666D01*
X185966794Y-61158145D01*
X186000499Y-60988695D01*
X186000500Y-60988693D01*
X186000500Y-60811306D01*
X186000499Y-60811304D01*
X185965896Y-60637341D01*
X185965893Y-60637332D01*
X185898016Y-60473459D01*
X185898009Y-60473446D01*
X185799464Y-60325965D01*
X185799461Y-60325961D01*
X185674038Y-60200538D01*
X185674034Y-60200535D01*
X185526553Y-60101990D01*
X185526540Y-60101983D01*
X185362667Y-60034106D01*
X185362658Y-60034103D01*
X185188694Y-59999500D01*
X185188691Y-59999500D01*
X185011309Y-59999500D01*
X185011307Y-59999500D01*
X184932796Y-60015117D01*
X184897605Y-60022117D01*
X184873415Y-60024500D01*
X182913768Y-60024500D01*
X182744633Y-60058143D01*
X182744621Y-60058146D01*
X182585301Y-60124138D01*
X182585288Y-60124145D01*
X182472514Y-60199500D01*
X182472513Y-60199501D01*
X182441898Y-60219956D01*
X182441897Y-60219957D01*
X178191901Y-64469955D01*
X176973675Y-65688181D01*
X176912352Y-65721666D01*
X176885994Y-65724500D01*
X173313768Y-65724500D01*
X173144633Y-65758143D01*
X173144621Y-65758146D01*
X172985301Y-65824138D01*
X172985288Y-65824145D01*
X172841901Y-65919954D01*
X172841897Y-65919957D01*
X171398675Y-67363181D01*
X171337352Y-67396666D01*
X171310994Y-67399500D01*
X171211306Y-67399500D01*
X171037341Y-67434103D01*
X171037332Y-67434106D01*
X170873459Y-67501983D01*
X170873446Y-67501990D01*
X170725965Y-67600535D01*
X170725961Y-67600538D01*
X170600538Y-67725961D01*
X170600535Y-67725965D01*
X170501990Y-67873446D01*
X170501983Y-67873459D01*
X170434106Y-68037332D01*
X170434103Y-68037341D01*
X170399500Y-68211304D01*
X170399500Y-68388695D01*
X170434103Y-68562658D01*
X170434106Y-68562667D01*
X170501983Y-68726540D01*
X170501990Y-68726553D01*
X170600535Y-68874034D01*
X170600538Y-68874038D01*
X170725961Y-68999461D01*
X170725965Y-68999464D01*
X170873446Y-69098009D01*
X170873459Y-69098016D01*
X170996363Y-69148923D01*
X171037334Y-69165894D01*
X171037336Y-69165894D01*
X171037341Y-69165896D01*
X171211304Y-69200499D01*
X171211307Y-69200500D01*
X171211309Y-69200500D01*
X171388693Y-69200500D01*
X171467203Y-69184882D01*
X171502394Y-69177882D01*
X171526585Y-69175500D01*
X171786231Y-69175500D01*
X171786232Y-69175499D01*
X171955374Y-69141855D01*
X172114705Y-69075858D01*
X172258099Y-68980045D01*
X173726325Y-67511819D01*
X173787648Y-67478334D01*
X173814006Y-67475500D01*
X177386231Y-67475500D01*
X177386232Y-67475499D01*
X177555374Y-67441855D01*
X177703047Y-67380687D01*
X177772517Y-67373218D01*
X177834996Y-67404493D01*
X177870648Y-67464582D01*
X177874500Y-67495248D01*
X177874500Y-69536233D01*
X177908143Y-69705366D01*
X177908146Y-69705378D01*
X177974138Y-69864698D01*
X177974145Y-69864711D01*
X178069954Y-70008098D01*
X178069957Y-70008102D01*
X180041897Y-71980042D01*
X180041901Y-71980045D01*
X180185288Y-72075854D01*
X180185301Y-72075861D01*
X180334218Y-72137544D01*
X180344626Y-72141855D01*
X180513766Y-72175499D01*
X180513769Y-72175500D01*
X180513771Y-72175500D01*
X180686229Y-72175500D01*
X185785994Y-72175500D01*
X185853033Y-72195185D01*
X185873675Y-72211819D01*
X186488181Y-72826325D01*
X186521666Y-72887648D01*
X186524500Y-72914006D01*
X186524500Y-73124280D01*
X186504815Y-73191319D01*
X186452011Y-73237074D01*
X186382853Y-73247018D01*
X186319297Y-73217993D01*
X186300182Y-73197165D01*
X186215875Y-73081127D01*
X186215871Y-73081122D01*
X186058877Y-72924128D01*
X186058872Y-72924124D01*
X185879266Y-72793634D01*
X185879265Y-72793633D01*
X185879263Y-72793632D01*
X185817487Y-72762156D01*
X185681448Y-72692839D01*
X185470293Y-72624230D01*
X185251014Y-72589500D01*
X185251009Y-72589500D01*
X185028991Y-72589500D01*
X185028986Y-72589500D01*
X184809706Y-72624230D01*
X184598551Y-72692839D01*
X184400733Y-72793634D01*
X184221127Y-72924124D01*
X184221122Y-72924128D01*
X184064128Y-73081122D01*
X184064124Y-73081127D01*
X183970318Y-73210241D01*
X183914988Y-73252907D01*
X183845375Y-73258886D01*
X183783580Y-73226280D01*
X183769682Y-73210241D01*
X183675875Y-73081127D01*
X183675871Y-73081122D01*
X183518877Y-72924128D01*
X183518872Y-72924124D01*
X183339266Y-72793634D01*
X183339265Y-72793633D01*
X183339263Y-72793632D01*
X183277487Y-72762156D01*
X183141448Y-72692839D01*
X182930293Y-72624230D01*
X182711014Y-72589500D01*
X182711009Y-72589500D01*
X182488991Y-72589500D01*
X182488986Y-72589500D01*
X182269706Y-72624230D01*
X182058551Y-72692839D01*
X181860733Y-72793634D01*
X181681127Y-72924124D01*
X181681122Y-72924128D01*
X181524128Y-73081122D01*
X181524124Y-73081127D01*
X181430318Y-73210241D01*
X181374988Y-73252907D01*
X181305375Y-73258886D01*
X181243580Y-73226280D01*
X181229682Y-73210241D01*
X181135875Y-73081127D01*
X181135871Y-73081122D01*
X180978877Y-72924128D01*
X180978872Y-72924124D01*
X180799266Y-72793634D01*
X180799265Y-72793633D01*
X180799263Y-72793632D01*
X180737487Y-72762156D01*
X180601448Y-72692839D01*
X180390293Y-72624230D01*
X180171014Y-72589500D01*
X180171009Y-72589500D01*
X179948991Y-72589500D01*
X179948986Y-72589500D01*
X179729706Y-72624230D01*
X179518551Y-72692839D01*
X179320733Y-72793634D01*
X179141127Y-72924124D01*
X179141122Y-72924128D01*
X178984128Y-73081122D01*
X178984124Y-73081127D01*
X178875478Y-73230667D01*
X178820148Y-73273333D01*
X178750535Y-73279312D01*
X178688740Y-73246707D01*
X178678926Y-73235381D01*
X178678225Y-73235325D01*
X178090426Y-73823124D01*
X178060575Y-73751056D01*
X177993818Y-73651147D01*
X177908853Y-73566182D01*
X177808944Y-73499425D01*
X177736873Y-73469572D01*
X178324672Y-72881774D01*
X178324672Y-72881772D01*
X178259003Y-72834061D01*
X178258999Y-72834059D01*
X178061256Y-72733303D01*
X177850176Y-72664719D01*
X177630968Y-72630000D01*
X177409032Y-72630000D01*
X177189823Y-72664719D01*
X176978743Y-72733303D01*
X176780997Y-72834061D01*
X176715326Y-72881772D01*
X176715326Y-72881773D01*
X177303126Y-73469572D01*
X177231056Y-73499425D01*
X177131147Y-73566182D01*
X177046182Y-73651147D01*
X176979425Y-73751056D01*
X176949572Y-73823125D01*
X176361773Y-73235326D01*
X176361772Y-73235326D01*
X176345158Y-73258195D01*
X176289828Y-73300861D01*
X176220215Y-73306840D01*
X176158419Y-73274235D01*
X176144527Y-73258203D01*
X176015870Y-73081121D01*
X175858879Y-72924130D01*
X175858877Y-72924128D01*
X175858872Y-72924124D01*
X175679266Y-72793634D01*
X175679265Y-72793633D01*
X175679263Y-72793632D01*
X175617487Y-72762156D01*
X175481448Y-72692839D01*
X175270293Y-72624230D01*
X175051014Y-72589500D01*
X175051009Y-72589500D01*
X174828991Y-72589500D01*
X174828986Y-72589500D01*
X174609706Y-72624230D01*
X174398551Y-72692839D01*
X174200733Y-72793634D01*
X174021127Y-72924124D01*
X174021122Y-72924128D01*
X173864128Y-73081122D01*
X173864127Y-73081124D01*
X173836358Y-73119344D01*
X173781028Y-73162009D01*
X173711414Y-73167987D01*
X173649620Y-73135380D01*
X173622418Y-73096114D01*
X173616719Y-73083074D01*
X173616176Y-73081918D01*
X173603975Y-73057668D01*
X173579911Y-73012877D01*
X173493815Y-72852621D01*
X173493812Y-72852617D01*
X173493110Y-72851309D01*
X173493109Y-72851308D01*
X173493109Y-72851307D01*
X173492909Y-72850936D01*
X173492817Y-72850773D01*
X173491945Y-72849169D01*
X173420129Y-72717015D01*
X173414250Y-72704603D01*
X173380578Y-72621973D01*
X173367695Y-72590359D01*
X173362808Y-72575861D01*
X173361092Y-72569500D01*
X173351063Y-72532312D01*
X173348728Y-72521887D01*
X173347879Y-72517147D01*
X173335880Y-72450156D01*
X173334539Y-72440484D01*
X173325082Y-72344454D01*
X173324543Y-72336028D01*
X173320614Y-72203817D01*
X173317079Y-72157311D01*
X173316635Y-72151467D01*
X173316688Y-72151462D01*
X173315500Y-72137544D01*
X173315500Y-71874006D01*
X173335185Y-71806967D01*
X173351819Y-71786325D01*
X173726325Y-71411819D01*
X173787648Y-71378334D01*
X173814006Y-71375500D01*
X175073415Y-71375500D01*
X175097605Y-71377882D01*
X175123765Y-71383086D01*
X175211306Y-71400500D01*
X175211309Y-71400500D01*
X175388693Y-71400500D01*
X175388694Y-71400499D01*
X175446682Y-71388964D01*
X175562658Y-71365896D01*
X175562661Y-71365894D01*
X175562666Y-71365894D01*
X175726547Y-71298013D01*
X175874035Y-71199464D01*
X175999464Y-71074035D01*
X176098013Y-70926547D01*
X176165894Y-70762666D01*
X176166803Y-70758099D01*
X176195327Y-70614698D01*
X176200500Y-70588691D01*
X176200500Y-70411309D01*
X176200500Y-70411306D01*
X176200499Y-70411304D01*
X176165896Y-70237341D01*
X176165893Y-70237332D01*
X176098016Y-70073459D01*
X176098009Y-70073446D01*
X175999464Y-69925965D01*
X175999461Y-69925961D01*
X175874038Y-69800538D01*
X175874034Y-69800535D01*
X175726553Y-69701990D01*
X175726540Y-69701983D01*
X175562667Y-69634106D01*
X175562658Y-69634103D01*
X175388694Y-69599500D01*
X175388691Y-69599500D01*
X175211309Y-69599500D01*
X175211307Y-69599500D01*
X175132796Y-69615117D01*
X175097605Y-69622117D01*
X175073415Y-69624500D01*
X173313768Y-69624500D01*
X173144633Y-69658143D01*
X173144621Y-69658146D01*
X172985301Y-69724138D01*
X172985288Y-69724145D01*
X172872514Y-69799500D01*
X172872513Y-69799501D01*
X172841898Y-69819956D01*
X172841897Y-69819957D01*
X172073675Y-70588181D01*
X172012352Y-70621666D01*
X171985994Y-70624500D01*
X168614006Y-70624500D01*
X168546967Y-70604815D01*
X168526325Y-70588181D01*
X167811819Y-69873675D01*
X167778334Y-69812352D01*
X167775500Y-69785994D01*
X167775500Y-68013768D01*
X167775499Y-68013766D01*
X167766102Y-67966525D01*
X167741855Y-67844626D01*
X167738844Y-67837356D01*
X167675861Y-67685301D01*
X167675854Y-67685288D01*
X167580046Y-67541902D01*
X167533392Y-67495248D01*
X167458099Y-67419955D01*
X166744169Y-66706025D01*
X166739299Y-66697106D01*
X166731272Y-66690871D01*
X166722835Y-66666955D01*
X166710684Y-66644702D01*
X166711408Y-66634564D01*
X166708028Y-66624981D01*
X166713859Y-66600305D01*
X166715668Y-66575010D01*
X166721759Y-66566873D01*
X166724096Y-66556984D01*
X166742344Y-66539375D01*
X166757540Y-66519077D01*
X166768398Y-66514234D01*
X166774375Y-66508468D01*
X166807659Y-66496727D01*
X166902394Y-66477883D01*
X166926585Y-66475500D01*
X170186231Y-66475500D01*
X170186232Y-66475499D01*
X170355374Y-66441855D01*
X170514705Y-66375858D01*
X170658099Y-66280045D01*
X171976325Y-64961819D01*
X172037648Y-64928334D01*
X172064006Y-64925500D01*
X174023415Y-64925500D01*
X174047605Y-64927882D01*
X174073765Y-64933086D01*
X174161306Y-64950500D01*
X174161309Y-64950500D01*
X174338693Y-64950500D01*
X174338694Y-64950499D01*
X174396682Y-64938964D01*
X174512658Y-64915896D01*
X174512661Y-64915894D01*
X174512666Y-64915894D01*
X174676547Y-64848013D01*
X174824035Y-64749464D01*
X174949464Y-64624035D01*
X175048013Y-64476547D01*
X175050744Y-64469955D01*
X175057958Y-64452535D01*
X175115894Y-64312666D01*
X175150500Y-64138691D01*
X175150500Y-63961309D01*
X175150500Y-63961306D01*
X175150499Y-63961304D01*
X175115896Y-63787341D01*
X175115893Y-63787332D01*
X175112873Y-63780042D01*
X175068964Y-63674034D01*
X175048016Y-63623459D01*
X175048009Y-63623446D01*
X174949464Y-63475965D01*
X174949461Y-63475961D01*
X174824038Y-63350538D01*
X174824034Y-63350535D01*
X174676553Y-63251990D01*
X174676540Y-63251983D01*
X174512667Y-63184106D01*
X174512658Y-63184103D01*
X174338694Y-63149500D01*
X174338691Y-63149500D01*
X174161309Y-63149500D01*
X174161307Y-63149500D01*
X174082796Y-63165117D01*
X174047605Y-63172117D01*
X174023415Y-63174500D01*
X171513768Y-63174500D01*
X171344633Y-63208143D01*
X171344621Y-63208146D01*
X171185301Y-63274138D01*
X171185288Y-63274145D01*
X171041901Y-63369954D01*
X171041897Y-63369957D01*
X170919957Y-63491897D01*
X170919954Y-63491901D01*
X170826057Y-63632428D01*
X170810636Y-63651218D01*
X169773675Y-64688181D01*
X169712352Y-64721666D01*
X169685994Y-64724500D01*
X166926585Y-64724500D01*
X166902394Y-64722117D01*
X166867203Y-64715117D01*
X166788693Y-64699500D01*
X166788691Y-64699500D01*
X166611309Y-64699500D01*
X166611306Y-64699500D01*
X166437341Y-64734103D01*
X166437332Y-64734106D01*
X166273459Y-64801983D01*
X166273446Y-64801990D01*
X166125965Y-64900535D01*
X166125961Y-64900538D01*
X166000538Y-65025961D01*
X166000535Y-65025965D01*
X165901990Y-65173446D01*
X165901983Y-65173459D01*
X165834106Y-65337332D01*
X165834103Y-65337341D01*
X165799500Y-65511304D01*
X165799500Y-65688695D01*
X165834104Y-65862662D01*
X165834664Y-65864506D01*
X165834673Y-65865519D01*
X165835294Y-65868641D01*
X165834701Y-65868758D01*
X165835287Y-65934372D01*
X165798038Y-65993485D01*
X165734744Y-66023076D01*
X165716003Y-66024500D01*
X162713768Y-66024500D01*
X162544633Y-66058143D01*
X162544621Y-66058146D01*
X162385301Y-66124138D01*
X162385288Y-66124145D01*
X162241901Y-66219954D01*
X162241897Y-66219957D01*
X161191198Y-67270658D01*
X160841901Y-67619955D01*
X160780927Y-67680929D01*
X160719953Y-67741902D01*
X160624145Y-67885288D01*
X160624138Y-67885301D01*
X160558146Y-68044621D01*
X160558143Y-68044633D01*
X160524500Y-68213766D01*
X160524500Y-84873414D01*
X160522414Y-84894586D01*
X160522328Y-84896522D01*
X160522232Y-84897024D01*
X160499500Y-85011309D01*
X160000500Y-85011309D01*
X160000500Y-61922332D01*
X162449500Y-61922332D01*
X162449500Y-62197667D01*
X162449501Y-62197684D01*
X162485438Y-62470655D01*
X162485439Y-62470660D01*
X162485440Y-62470666D01*
X162514080Y-62577552D01*
X162556704Y-62736630D01*
X162662075Y-62991017D01*
X162662080Y-62991028D01*
X162717265Y-63086610D01*
X162799751Y-63229479D01*
X162799753Y-63229482D01*
X162799754Y-63229483D01*
X162967370Y-63447926D01*
X162967376Y-63447933D01*
X163162066Y-63642623D01*
X163162073Y-63642629D01*
X163258902Y-63716928D01*
X163380521Y-63810249D01*
X163531026Y-63897143D01*
X163618971Y-63947919D01*
X163618976Y-63947921D01*
X163618979Y-63947923D01*
X163873368Y-64053295D01*
X164139334Y-64124560D01*
X164412326Y-64160500D01*
X164412333Y-64160500D01*
X164687667Y-64160500D01*
X164687674Y-64160500D01*
X164960666Y-64124560D01*
X165226632Y-64053295D01*
X165481021Y-63947923D01*
X165719479Y-63810249D01*
X165937928Y-63642628D01*
X166132628Y-63447928D01*
X166300249Y-63229479D01*
X166437923Y-62991021D01*
X166543295Y-62736632D01*
X166614560Y-62470666D01*
X166650500Y-62197674D01*
X166650500Y-61922332D01*
X175149500Y-61922332D01*
X175149500Y-62197667D01*
X175149501Y-62197684D01*
X175185438Y-62470655D01*
X175185439Y-62470660D01*
X175185440Y-62470666D01*
X175214080Y-62577552D01*
X175256704Y-62736630D01*
X175362075Y-62991017D01*
X175362080Y-62991028D01*
X175417265Y-63086610D01*
X175499751Y-63229479D01*
X175499753Y-63229482D01*
X175499754Y-63229483D01*
X175667370Y-63447926D01*
X175667376Y-63447933D01*
X175862066Y-63642623D01*
X175862073Y-63642629D01*
X175958902Y-63716928D01*
X176080521Y-63810249D01*
X176231026Y-63897143D01*
X176318971Y-63947919D01*
X176318976Y-63947921D01*
X176318979Y-63947923D01*
X176573368Y-64053295D01*
X176839334Y-64124560D01*
X177112326Y-64160500D01*
X177112333Y-64160500D01*
X177387667Y-64160500D01*
X177387674Y-64160500D01*
X177660666Y-64124560D01*
X177926632Y-64053295D01*
X178181021Y-63947923D01*
X178419479Y-63810249D01*
X178637928Y-63642628D01*
X178832628Y-63447928D01*
X179000249Y-63229479D01*
X179137923Y-62991021D01*
X179243295Y-62736632D01*
X179314560Y-62470666D01*
X179350500Y-62197674D01*
X179350500Y-61922326D01*
X179314560Y-61649334D01*
X179243295Y-61383368D01*
X179137923Y-61128979D01*
X179137921Y-61128976D01*
X179137919Y-61128971D01*
X179088732Y-61043778D01*
X179000249Y-60890521D01*
X178832628Y-60672072D01*
X178832623Y-60672066D01*
X178637933Y-60477376D01*
X178637926Y-60477370D01*
X178419483Y-60309754D01*
X178419482Y-60309753D01*
X178419479Y-60309751D01*
X178324407Y-60254861D01*
X178181028Y-60172080D01*
X178181017Y-60172075D01*
X177926630Y-60066704D01*
X177760226Y-60022117D01*
X177660666Y-59995440D01*
X177660660Y-59995439D01*
X177660655Y-59995438D01*
X177387684Y-59959501D01*
X177387679Y-59959500D01*
X177387674Y-59959500D01*
X177112326Y-59959500D01*
X177112320Y-59959500D01*
X177112315Y-59959501D01*
X176839344Y-59995438D01*
X176839337Y-59995439D01*
X176839334Y-59995440D01*
X176820308Y-60000538D01*
X176573369Y-60066704D01*
X176318982Y-60172075D01*
X176318971Y-60172080D01*
X176080516Y-60309754D01*
X175862073Y-60477370D01*
X175862066Y-60477376D01*
X175667376Y-60672066D01*
X175667370Y-60672073D01*
X175499754Y-60890516D01*
X175362080Y-61128971D01*
X175362075Y-61128982D01*
X175256704Y-61383369D01*
X175185441Y-61649331D01*
X175185438Y-61649344D01*
X175149501Y-61922315D01*
X175149500Y-61922332D01*
X166650500Y-61922332D01*
X166650500Y-61922326D01*
X166614560Y-61649334D01*
X166543295Y-61383368D01*
X166437923Y-61128979D01*
X166437921Y-61128976D01*
X166437919Y-61128971D01*
X166388732Y-61043778D01*
X166300249Y-60890521D01*
X166132628Y-60672072D01*
X166132623Y-60672066D01*
X165937933Y-60477376D01*
X165937926Y-60477370D01*
X165719483Y-60309754D01*
X165719482Y-60309753D01*
X165719479Y-60309751D01*
X165624407Y-60254861D01*
X165481028Y-60172080D01*
X165481017Y-60172075D01*
X165226630Y-60066704D01*
X165060226Y-60022117D01*
X164960666Y-59995440D01*
X164960660Y-59995439D01*
X164960655Y-59995438D01*
X164687684Y-59959501D01*
X164687679Y-59959500D01*
X164687674Y-59959500D01*
X164412326Y-59959500D01*
X164412320Y-59959500D01*
X164412315Y-59959501D01*
X164139344Y-59995438D01*
X164139337Y-59995439D01*
X164139334Y-59995440D01*
X164120308Y-60000538D01*
X163873369Y-60066704D01*
X163618982Y-60172075D01*
X163618971Y-60172080D01*
X163380516Y-60309754D01*
X163162073Y-60477370D01*
X163162066Y-60477376D01*
X162967376Y-60672066D01*
X162967370Y-60672073D01*
X162799754Y-60890516D01*
X162662080Y-61128971D01*
X162662075Y-61128982D01*
X162556704Y-61383369D01*
X162485441Y-61649331D01*
X162485438Y-61649344D01*
X162449501Y-61922315D01*
X162449500Y-61922332D01*
X160000500Y-61922332D01*
X160000500Y-45440638D01*
X163160500Y-45440638D01*
X163160500Y-45659361D01*
X163194714Y-45875376D01*
X163262297Y-46083380D01*
X163262298Y-46083383D01*
X163361595Y-46278260D01*
X163490142Y-46455193D01*
X163644806Y-46609857D01*
X163795969Y-46719682D01*
X163838635Y-46775011D01*
X163844614Y-46844625D01*
X163812009Y-46906420D01*
X163795969Y-46920318D01*
X163644806Y-47030142D01*
X163490142Y-47184806D01*
X163361595Y-47361739D01*
X163262298Y-47556616D01*
X163262297Y-47556619D01*
X163194714Y-47764623D01*
X163160500Y-47980638D01*
X163160500Y-48199361D01*
X163194714Y-48415376D01*
X163262297Y-48623380D01*
X163262298Y-48623383D01*
X163322890Y-48742299D01*
X163360112Y-48815351D01*
X163361595Y-48818260D01*
X163490142Y-48995193D01*
X163490148Y-48995199D01*
X163644801Y-49149852D01*
X163796395Y-49259991D01*
X163839060Y-49315319D01*
X163845039Y-49384932D01*
X163812434Y-49446728D01*
X163796394Y-49460626D01*
X163760360Y-49486805D01*
X163760360Y-49486807D01*
X164420590Y-50147037D01*
X164357007Y-50164075D01*
X164242993Y-50229901D01*
X164149901Y-50322993D01*
X164084075Y-50437007D01*
X164067037Y-50500590D01*
X163406807Y-49840360D01*
X163406806Y-49840360D01*
X163362023Y-49902001D01*
X163262762Y-50096808D01*
X163262761Y-50096811D01*
X163195202Y-50304740D01*
X163161000Y-50520683D01*
X163161000Y-50739316D01*
X163195202Y-50955259D01*
X163262761Y-51163188D01*
X163262762Y-51163191D01*
X163362020Y-51357993D01*
X163362021Y-51357995D01*
X163406806Y-51419638D01*
X163406807Y-51419638D01*
X164067037Y-50759408D01*
X164084075Y-50822993D01*
X164149901Y-50937007D01*
X164242993Y-51030099D01*
X164357007Y-51095925D01*
X164420590Y-51112962D01*
X163760360Y-51773191D01*
X163760360Y-51773192D01*
X163796394Y-51799372D01*
X163839060Y-51854701D01*
X163845039Y-51924315D01*
X163812434Y-51986110D01*
X163796394Y-52000008D01*
X163644807Y-52110142D01*
X163644802Y-52110146D01*
X163490142Y-52264806D01*
X163361595Y-52441739D01*
X163262298Y-52636616D01*
X163262297Y-52636619D01*
X163194714Y-52844623D01*
X163160500Y-53060638D01*
X163160500Y-53279361D01*
X163194714Y-53495376D01*
X163262297Y-53703380D01*
X163262298Y-53703383D01*
X163329782Y-53835825D01*
X163352733Y-53880869D01*
X163361595Y-53898260D01*
X163490142Y-54075193D01*
X163644806Y-54229857D01*
X163795969Y-54339682D01*
X163838635Y-54395011D01*
X163844614Y-54464625D01*
X163812009Y-54526420D01*
X163795969Y-54540318D01*
X163644806Y-54650142D01*
X163490142Y-54804806D01*
X163361595Y-54981739D01*
X163262298Y-55176616D01*
X163262297Y-55176619D01*
X163194714Y-55384623D01*
X163160500Y-55600638D01*
X163160500Y-55819361D01*
X163194714Y-56035376D01*
X163262297Y-56243380D01*
X163262298Y-56243383D01*
X163361595Y-56438260D01*
X163490142Y-56615193D01*
X163644806Y-56769857D01*
X163795969Y-56879682D01*
X163838635Y-56935011D01*
X163844614Y-57004625D01*
X163812009Y-57066420D01*
X163795969Y-57080318D01*
X163644806Y-57190142D01*
X163490142Y-57344806D01*
X163361595Y-57521739D01*
X163262298Y-57716616D01*
X163262297Y-57716619D01*
X163194714Y-57924623D01*
X163160500Y-58140638D01*
X163160500Y-58359361D01*
X163194714Y-58575376D01*
X163262297Y-58783380D01*
X163262298Y-58783383D01*
X163361595Y-58978260D01*
X163490142Y-59155193D01*
X163644806Y-59309857D01*
X163799773Y-59422445D01*
X163821743Y-59438407D01*
X163949132Y-59503315D01*
X164016616Y-59537701D01*
X164016619Y-59537702D01*
X164120621Y-59571493D01*
X164224625Y-59605286D01*
X164324672Y-59621132D01*
X164440639Y-59639500D01*
X164440644Y-59639500D01*
X164659361Y-59639500D01*
X164764082Y-59622912D01*
X164875375Y-59605286D01*
X165083383Y-59537701D01*
X165278257Y-59438407D01*
X165377601Y-59366229D01*
X165455193Y-59309857D01*
X165455195Y-59309854D01*
X165455199Y-59309852D01*
X165609852Y-59155199D01*
X165609854Y-59155195D01*
X165609857Y-59155193D01*
X165666229Y-59077601D01*
X165738407Y-58978257D01*
X165837701Y-58783383D01*
X165905286Y-58575375D01*
X165922912Y-58464082D01*
X165939500Y-58359361D01*
X165939500Y-58140638D01*
X165913112Y-57974038D01*
X165905286Y-57924625D01*
X165837803Y-57716930D01*
X165837702Y-57716619D01*
X165837701Y-57716616D01*
X165803315Y-57649132D01*
X165738407Y-57521743D01*
X165730147Y-57510374D01*
X165609857Y-57344806D01*
X165455199Y-57190148D01*
X165455191Y-57190142D01*
X165304028Y-57080316D01*
X165261364Y-57024989D01*
X165255385Y-56955376D01*
X165287990Y-56893580D01*
X165304023Y-56879686D01*
X165455199Y-56769852D01*
X165609852Y-56615199D01*
X165609854Y-56615195D01*
X165609857Y-56615193D01*
X165675748Y-56524500D01*
X165738407Y-56438257D01*
X165837701Y-56243383D01*
X165905286Y-56035375D01*
X165924577Y-55913579D01*
X165939500Y-55819361D01*
X165939500Y-55600638D01*
X165911276Y-55422445D01*
X165905286Y-55384625D01*
X165871493Y-55280621D01*
X165837702Y-55176619D01*
X165837701Y-55176616D01*
X165791840Y-55086610D01*
X165738407Y-54981743D01*
X165730147Y-54970374D01*
X165609857Y-54804806D01*
X165455199Y-54650148D01*
X165431153Y-54632678D01*
X165304028Y-54540316D01*
X165261364Y-54484989D01*
X165255385Y-54415376D01*
X165287990Y-54353580D01*
X165304023Y-54339686D01*
X165455199Y-54229852D01*
X165609852Y-54075199D01*
X165609854Y-54075195D01*
X165609857Y-54075193D01*
X165673005Y-53988276D01*
X165738407Y-53898257D01*
X165837701Y-53703383D01*
X165905286Y-53495375D01*
X165925015Y-53370812D01*
X165939500Y-53279361D01*
X165939500Y-53060638D01*
X165916177Y-52913389D01*
X165905286Y-52844625D01*
X165860325Y-52706246D01*
X165837702Y-52636619D01*
X165837701Y-52636616D01*
X165803315Y-52569132D01*
X165738407Y-52441743D01*
X165724943Y-52423211D01*
X165609857Y-52264806D01*
X165455197Y-52110146D01*
X165455192Y-52110142D01*
X165303605Y-52000008D01*
X165260939Y-51944678D01*
X165254960Y-51875065D01*
X165287565Y-51813270D01*
X165303605Y-51799372D01*
X165339638Y-51773191D01*
X165339639Y-51773191D01*
X164679409Y-51112962D01*
X164742993Y-51095925D01*
X164857007Y-51030099D01*
X164950099Y-50937007D01*
X165015925Y-50822993D01*
X165032962Y-50759410D01*
X165693191Y-51419639D01*
X165693191Y-51419638D01*
X165737978Y-51357995D01*
X165837237Y-51163191D01*
X165837238Y-51163188D01*
X165904797Y-50955259D01*
X165939000Y-50739316D01*
X165939000Y-50520683D01*
X165904797Y-50304740D01*
X165837238Y-50096811D01*
X165837237Y-50096808D01*
X165737980Y-49902008D01*
X165693191Y-49840360D01*
X165032962Y-50500589D01*
X165015925Y-50437007D01*
X164950099Y-50322993D01*
X164857007Y-50229901D01*
X164742993Y-50164075D01*
X164679407Y-50147037D01*
X165339638Y-49486807D01*
X165339638Y-49486806D01*
X165303606Y-49460628D01*
X165260939Y-49405299D01*
X165254959Y-49335685D01*
X165287565Y-49273890D01*
X165303599Y-49259994D01*
X165455199Y-49149852D01*
X165609852Y-48995199D01*
X165609854Y-48995195D01*
X165609857Y-48995193D01*
X165669290Y-48913389D01*
X165738407Y-48818257D01*
X165837701Y-48623383D01*
X165905286Y-48415375D01*
X165926241Y-48283069D01*
X165939500Y-48199361D01*
X165939500Y-47980638D01*
X165907741Y-47780126D01*
X165905286Y-47764625D01*
X165840331Y-47564710D01*
X165837702Y-47556619D01*
X165837701Y-47556616D01*
X165803315Y-47489132D01*
X165738407Y-47361743D01*
X165688203Y-47292642D01*
X165609857Y-47184806D01*
X165455199Y-47030148D01*
X165402165Y-46991617D01*
X165304028Y-46920316D01*
X165261364Y-46864989D01*
X165255385Y-46795376D01*
X165287990Y-46733580D01*
X165304023Y-46719686D01*
X165455199Y-46609852D01*
X165609852Y-46455199D01*
X165609854Y-46455195D01*
X165609857Y-46455193D01*
X165666229Y-46377601D01*
X165738407Y-46278257D01*
X165837701Y-46083383D01*
X165905286Y-45875375D01*
X165926931Y-45738715D01*
X165939500Y-45659361D01*
X165939500Y-45440638D01*
X175860500Y-45440638D01*
X175860500Y-45659361D01*
X175894714Y-45875376D01*
X175962297Y-46083380D01*
X175962298Y-46083383D01*
X176061595Y-46278260D01*
X176190142Y-46455193D01*
X176344806Y-46609857D01*
X176495969Y-46719682D01*
X176538635Y-46775011D01*
X176544614Y-46844625D01*
X176512009Y-46906420D01*
X176495969Y-46920318D01*
X176344806Y-47030142D01*
X176190142Y-47184806D01*
X176061595Y-47361739D01*
X175962298Y-47556616D01*
X175962297Y-47556619D01*
X175894714Y-47764623D01*
X175860500Y-47980638D01*
X175860500Y-48199361D01*
X175894714Y-48415376D01*
X175962297Y-48623380D01*
X175962298Y-48623383D01*
X176022890Y-48742299D01*
X176060112Y-48815351D01*
X176061595Y-48818260D01*
X176190142Y-48995193D01*
X176344806Y-49149857D01*
X176495969Y-49259682D01*
X176538635Y-49315011D01*
X176544614Y-49384625D01*
X176512009Y-49446420D01*
X176495969Y-49460318D01*
X176344806Y-49570142D01*
X176190142Y-49724806D01*
X176061595Y-49901739D01*
X175962298Y-50096616D01*
X175962297Y-50096619D01*
X175894714Y-50304623D01*
X175860500Y-50520638D01*
X175860500Y-50739361D01*
X175894714Y-50955376D01*
X175962297Y-51163380D01*
X175962298Y-51163383D01*
X176029782Y-51295825D01*
X176061458Y-51357993D01*
X176061595Y-51358260D01*
X176190142Y-51535193D01*
X176344806Y-51689857D01*
X176495969Y-51799682D01*
X176538635Y-51855011D01*
X176544614Y-51924625D01*
X176512009Y-51986420D01*
X176495969Y-52000318D01*
X176344806Y-52110142D01*
X176190142Y-52264806D01*
X176061595Y-52441739D01*
X175962298Y-52636616D01*
X175962297Y-52636619D01*
X175894714Y-52844623D01*
X175860500Y-53060638D01*
X175860500Y-53279361D01*
X175894714Y-53495376D01*
X175962297Y-53703380D01*
X175962298Y-53703383D01*
X176029782Y-53835825D01*
X176052733Y-53880869D01*
X176061595Y-53898260D01*
X176190142Y-54075193D01*
X176344806Y-54229857D01*
X176495969Y-54339682D01*
X176538635Y-54395011D01*
X176544614Y-54464625D01*
X176512009Y-54526420D01*
X176495969Y-54540318D01*
X176344806Y-54650142D01*
X176190142Y-54804806D01*
X176061595Y-54981739D01*
X175962298Y-55176616D01*
X175962297Y-55176619D01*
X175894714Y-55384623D01*
X175860500Y-55600638D01*
X175860500Y-55819361D01*
X175894714Y-56035376D01*
X175962297Y-56243380D01*
X175962298Y-56243383D01*
X176061595Y-56438260D01*
X176190142Y-56615193D01*
X176344806Y-56769857D01*
X176495969Y-56879682D01*
X176538635Y-56935011D01*
X176544614Y-57004625D01*
X176512009Y-57066420D01*
X176495969Y-57080318D01*
X176344806Y-57190142D01*
X176190142Y-57344806D01*
X176061595Y-57521739D01*
X175962298Y-57716616D01*
X175962297Y-57716619D01*
X175894714Y-57924623D01*
X175860500Y-58140638D01*
X175860500Y-58359361D01*
X175894714Y-58575376D01*
X175962297Y-58783380D01*
X175962298Y-58783383D01*
X176061595Y-58978260D01*
X176190142Y-59155193D01*
X176344806Y-59309857D01*
X176499773Y-59422445D01*
X176521743Y-59438407D01*
X176649132Y-59503315D01*
X176716616Y-59537701D01*
X176716619Y-59537702D01*
X176820621Y-59571493D01*
X176924625Y-59605286D01*
X177024672Y-59621132D01*
X177140639Y-59639500D01*
X177140644Y-59639500D01*
X177359361Y-59639500D01*
X177464082Y-59622912D01*
X177575375Y-59605286D01*
X177783383Y-59537701D01*
X177978257Y-59438407D01*
X178077601Y-59366229D01*
X178155193Y-59309857D01*
X178155195Y-59309854D01*
X178155199Y-59309852D01*
X178309852Y-59155199D01*
X178309854Y-59155195D01*
X178309857Y-59155193D01*
X178366229Y-59077601D01*
X178438407Y-58978257D01*
X178537701Y-58783383D01*
X178605286Y-58575375D01*
X178622912Y-58464082D01*
X178639500Y-58359361D01*
X178639500Y-58140638D01*
X178613112Y-57974038D01*
X178605286Y-57924625D01*
X178537803Y-57716930D01*
X178537702Y-57716619D01*
X178537701Y-57716616D01*
X178503315Y-57649132D01*
X178438407Y-57521743D01*
X178414395Y-57488693D01*
X178334047Y-57378102D01*
X178334046Y-57378101D01*
X178309855Y-57344804D01*
X178276355Y-57311304D01*
X186099500Y-57311304D01*
X186099500Y-57488695D01*
X186134103Y-57662658D01*
X186134106Y-57662667D01*
X186201983Y-57826540D01*
X186201990Y-57826553D01*
X186300535Y-57974034D01*
X186300538Y-57974038D01*
X186425961Y-58099461D01*
X186425965Y-58099464D01*
X186573446Y-58198009D01*
X186573459Y-58198016D01*
X186696363Y-58248923D01*
X186737334Y-58265894D01*
X186737336Y-58265894D01*
X186737341Y-58265896D01*
X186911304Y-58300499D01*
X186911307Y-58300500D01*
X186911309Y-58300500D01*
X187088693Y-58300500D01*
X187176322Y-58283069D01*
X187202394Y-58277882D01*
X187226585Y-58275500D01*
X193173415Y-58275500D01*
X193197605Y-58277882D01*
X193223678Y-58283069D01*
X193311306Y-58300500D01*
X193311309Y-58300500D01*
X193488693Y-58300500D01*
X193488694Y-58300499D01*
X193576317Y-58283070D01*
X193662658Y-58265896D01*
X193662661Y-58265894D01*
X193662666Y-58265894D01*
X193826547Y-58198013D01*
X193974035Y-58099464D01*
X194099464Y-57974035D01*
X194198013Y-57826547D01*
X194265894Y-57662666D01*
X194300500Y-57488691D01*
X194300500Y-57311309D01*
X194300500Y-57311306D01*
X194300499Y-57311304D01*
X194265896Y-57137341D01*
X194265893Y-57137332D01*
X194198016Y-56973459D01*
X194198009Y-56973446D01*
X194099464Y-56825965D01*
X194099461Y-56825961D01*
X193974038Y-56700538D01*
X193974034Y-56700535D01*
X193826553Y-56601990D01*
X193826540Y-56601983D01*
X193662667Y-56534106D01*
X193662658Y-56534103D01*
X193488694Y-56499500D01*
X193488691Y-56499500D01*
X193311309Y-56499500D01*
X193311307Y-56499500D01*
X193232796Y-56515117D01*
X193197605Y-56522117D01*
X193173415Y-56524500D01*
X187226585Y-56524500D01*
X187202394Y-56522117D01*
X187167203Y-56515117D01*
X187088693Y-56499500D01*
X187088691Y-56499500D01*
X186911309Y-56499500D01*
X186911306Y-56499500D01*
X186737341Y-56534103D01*
X186737332Y-56534106D01*
X186573459Y-56601983D01*
X186573446Y-56601990D01*
X186425965Y-56700535D01*
X186425961Y-56700538D01*
X186300538Y-56825961D01*
X186300535Y-56825965D01*
X186201990Y-56973446D01*
X186201983Y-56973459D01*
X186134106Y-57137332D01*
X186134103Y-57137341D01*
X186099500Y-57311304D01*
X178276355Y-57311304D01*
X178155199Y-57190148D01*
X178155191Y-57190142D01*
X178004028Y-57080316D01*
X177961364Y-57024989D01*
X177955385Y-56955376D01*
X177987990Y-56893580D01*
X178004023Y-56879686D01*
X178155199Y-56769852D01*
X178309852Y-56615199D01*
X178309854Y-56615195D01*
X178309857Y-56615193D01*
X178375748Y-56524500D01*
X178438407Y-56438257D01*
X178537701Y-56243383D01*
X178605286Y-56035375D01*
X178624577Y-55913579D01*
X178639500Y-55819361D01*
X178639500Y-55600638D01*
X178611276Y-55422445D01*
X178605286Y-55384625D01*
X178571493Y-55280621D01*
X178537702Y-55176619D01*
X178537701Y-55176616D01*
X178491840Y-55086610D01*
X178438407Y-54981743D01*
X178430147Y-54970374D01*
X178309857Y-54804806D01*
X178155199Y-54650148D01*
X178131153Y-54632678D01*
X178004028Y-54540316D01*
X177961364Y-54484989D01*
X177955385Y-54415376D01*
X177987990Y-54353580D01*
X178004023Y-54339686D01*
X178155199Y-54229852D01*
X178309852Y-54075199D01*
X178309854Y-54075195D01*
X178309857Y-54075193D01*
X178373005Y-53988276D01*
X178438407Y-53898257D01*
X178537701Y-53703383D01*
X178538800Y-53700001D01*
X185707521Y-53700001D01*
X185708938Y-53714837D01*
X185709500Y-53726627D01*
X185709500Y-53785829D01*
X185724553Y-53880869D01*
X185725155Y-53884674D01*
X185727264Y-53906753D01*
X185730278Y-53917018D01*
X185731526Y-53924897D01*
X185731527Y-53924900D01*
X185736350Y-53955350D01*
X185736353Y-53955362D01*
X185789391Y-54118601D01*
X185789393Y-54118607D01*
X185831173Y-54200603D01*
X185867321Y-54271547D01*
X185876995Y-54284862D01*
X185880351Y-54289481D01*
X185880948Y-54290639D01*
X185884157Y-54294720D01*
X185968213Y-54410413D01*
X185968215Y-54410415D01*
X186000643Y-54442843D01*
X186009336Y-54453897D01*
X186027021Y-54469221D01*
X186089590Y-54531790D01*
X186144963Y-54572020D01*
X186149263Y-54575144D01*
X186166300Y-54589907D01*
X186182280Y-54599132D01*
X186214503Y-54622544D01*
X186228454Y-54632680D01*
X186282490Y-54660212D01*
X186330012Y-54684426D01*
X186346168Y-54693754D01*
X186352874Y-54696075D01*
X186381393Y-54710606D01*
X186544641Y-54763648D01*
X186714176Y-54790500D01*
X186714177Y-54790500D01*
X186742857Y-54790500D01*
X186748018Y-54791242D01*
X186763594Y-54790500D01*
X186885820Y-54790500D01*
X186885824Y-54790500D01*
X186938410Y-54782171D01*
X186955476Y-54781359D01*
X186977926Y-54775912D01*
X187055359Y-54763648D01*
X187134568Y-54737911D01*
X187157315Y-54732394D01*
X187171524Y-54725903D01*
X187218607Y-54710606D01*
X187336003Y-54650789D01*
X187346240Y-54646115D01*
X187348906Y-54644215D01*
X187371547Y-54632679D01*
X187510413Y-54531787D01*
X187631787Y-54410413D01*
X187652585Y-54381785D01*
X187658746Y-54375326D01*
X187669977Y-54357848D01*
X187732679Y-54271547D01*
X187760384Y-54217172D01*
X187771034Y-54200603D01*
X187779121Y-54180398D01*
X187810606Y-54118607D01*
X187839668Y-54029159D01*
X187848226Y-54007787D01*
X187850574Y-53995594D01*
X187863648Y-53955359D01*
X187890500Y-53785824D01*
X187890500Y-53614176D01*
X187863648Y-53444641D01*
X187850575Y-53404408D01*
X187848226Y-53392213D01*
X187839667Y-53370834D01*
X187810606Y-53281393D01*
X187779124Y-53219607D01*
X187771034Y-53199397D01*
X187760378Y-53182815D01*
X187732679Y-53128453D01*
X187669983Y-53042160D01*
X187658746Y-53024674D01*
X187652584Y-53018211D01*
X187647719Y-53011515D01*
X187647718Y-53011514D01*
X187631789Y-52989590D01*
X187631787Y-52989587D01*
X187510413Y-52868213D01*
X187371547Y-52767321D01*
X187351539Y-52757126D01*
X187348915Y-52755789D01*
X187346240Y-52753885D01*
X187335995Y-52749206D01*
X187333620Y-52747996D01*
X187333619Y-52747995D01*
X187218608Y-52689394D01*
X187178273Y-52676288D01*
X187171524Y-52674095D01*
X187157315Y-52667606D01*
X187134571Y-52662088D01*
X187130061Y-52660623D01*
X187130060Y-52660622D01*
X187055363Y-52636352D01*
X186982886Y-52624872D01*
X186982886Y-52624873D01*
X186977928Y-52624087D01*
X186955476Y-52618641D01*
X186938399Y-52617827D01*
X186936139Y-52617469D01*
X186931690Y-52616764D01*
X186931688Y-52616763D01*
X186885828Y-52609500D01*
X186885824Y-52609500D01*
X186763594Y-52609500D01*
X186748018Y-52608758D01*
X186742857Y-52609500D01*
X186714176Y-52609500D01*
X186686655Y-52613859D01*
X186544639Y-52636352D01*
X186381397Y-52689392D01*
X186381393Y-52689393D01*
X186360505Y-52700035D01*
X186360506Y-52700036D01*
X186352871Y-52703925D01*
X186346168Y-52706246D01*
X186330015Y-52715571D01*
X186327118Y-52717048D01*
X186327116Y-52717048D01*
X186228459Y-52767317D01*
X186228447Y-52767324D01*
X186187534Y-52797048D01*
X186182268Y-52800873D01*
X186166300Y-52810093D01*
X186149280Y-52824840D01*
X186144973Y-52827970D01*
X186144963Y-52827979D01*
X186089585Y-52868214D01*
X186030147Y-52927651D01*
X186030146Y-52927650D01*
X186026992Y-52930803D01*
X186009336Y-52946103D01*
X186000657Y-52957138D01*
X185995435Y-52962361D01*
X185995428Y-52962370D01*
X185968212Y-52989588D01*
X185885529Y-53103388D01*
X185884118Y-53105329D01*
X185880948Y-53109361D01*
X185880358Y-53110504D01*
X185877011Y-53115112D01*
X185877003Y-53115125D01*
X185867322Y-53128451D01*
X185789393Y-53281392D01*
X185789391Y-53281398D01*
X185736353Y-53444637D01*
X185736349Y-53444653D01*
X185731526Y-53475092D01*
X185731527Y-53475093D01*
X185730277Y-53482984D01*
X185727264Y-53493247D01*
X185725155Y-53515329D01*
X185724554Y-53519127D01*
X185724553Y-53519131D01*
X185709500Y-53614170D01*
X185709500Y-53673364D01*
X185708939Y-53685149D01*
X185707521Y-53700001D01*
X178538800Y-53700001D01*
X178605286Y-53495375D01*
X178625015Y-53370812D01*
X178639500Y-53279361D01*
X178639500Y-53060638D01*
X178616177Y-52913389D01*
X178605286Y-52844625D01*
X178560325Y-52706246D01*
X178537702Y-52636619D01*
X178537701Y-52636616D01*
X178503315Y-52569132D01*
X178438407Y-52441743D01*
X178424943Y-52423211D01*
X178309857Y-52264806D01*
X178155199Y-52110148D01*
X178122541Y-52086421D01*
X178004028Y-52000316D01*
X177961364Y-51944989D01*
X177955385Y-51875376D01*
X177987990Y-51813580D01*
X178004023Y-51799686D01*
X178155199Y-51689852D01*
X178309852Y-51535199D01*
X178309854Y-51535195D01*
X178309857Y-51535193D01*
X178366229Y-51457601D01*
X178438407Y-51358257D01*
X178537701Y-51163383D01*
X178605286Y-50955375D01*
X178631656Y-50788882D01*
X178639500Y-50739361D01*
X178639500Y-50520638D01*
X178605304Y-50304740D01*
X178605286Y-50304625D01*
X178542059Y-50110029D01*
X178537702Y-50096619D01*
X178537701Y-50096616D01*
X178475924Y-49975374D01*
X178438407Y-49901743D01*
X178393123Y-49839414D01*
X178309857Y-49724806D01*
X178155199Y-49570148D01*
X178102110Y-49531577D01*
X178004028Y-49460316D01*
X177961364Y-49404989D01*
X177955385Y-49335376D01*
X177987990Y-49273580D01*
X178004023Y-49259686D01*
X178155199Y-49149852D01*
X178309852Y-48995199D01*
X178309854Y-48995195D01*
X178309857Y-48995193D01*
X178369290Y-48913389D01*
X178438407Y-48818257D01*
X178537701Y-48623383D01*
X178605286Y-48415375D01*
X178626241Y-48283069D01*
X178639500Y-48199361D01*
X178639500Y-47980638D01*
X178607741Y-47780126D01*
X178605286Y-47764625D01*
X178540331Y-47564710D01*
X178537702Y-47556619D01*
X178537701Y-47556616D01*
X178503315Y-47489132D01*
X178438407Y-47361743D01*
X178388203Y-47292642D01*
X178309857Y-47184806D01*
X178155199Y-47030148D01*
X178102165Y-46991617D01*
X178004028Y-46920316D01*
X177961364Y-46864989D01*
X177955385Y-46795376D01*
X177987990Y-46733580D01*
X178004023Y-46719686D01*
X178155199Y-46609852D01*
X178309852Y-46455199D01*
X178309854Y-46455195D01*
X178309857Y-46455193D01*
X178366229Y-46377601D01*
X178438407Y-46278257D01*
X178537701Y-46083383D01*
X178605286Y-45875375D01*
X178626931Y-45738715D01*
X178639500Y-45659361D01*
X178639500Y-45440638D01*
X178619595Y-45314971D01*
X178605286Y-45224625D01*
X178542059Y-45030029D01*
X178537702Y-45016619D01*
X178537701Y-45016616D01*
X178503315Y-44949132D01*
X178438407Y-44821743D01*
X178430147Y-44810374D01*
X178309857Y-44644806D01*
X178155193Y-44490142D01*
X177978260Y-44361595D01*
X177978259Y-44361594D01*
X177978257Y-44361593D01*
X177915825Y-44329782D01*
X177783383Y-44262298D01*
X177783380Y-44262297D01*
X177575376Y-44194714D01*
X177359361Y-44160500D01*
X177359356Y-44160500D01*
X177140644Y-44160500D01*
X177140639Y-44160500D01*
X176924623Y-44194714D01*
X176716619Y-44262297D01*
X176716616Y-44262298D01*
X176521739Y-44361595D01*
X176344806Y-44490142D01*
X176190142Y-44644806D01*
X176061595Y-44821739D01*
X175962298Y-45016616D01*
X175962297Y-45016619D01*
X175894714Y-45224623D01*
X175860500Y-45440638D01*
X165939500Y-45440638D01*
X165919595Y-45314971D01*
X165905286Y-45224625D01*
X165842059Y-45030029D01*
X165837702Y-45016619D01*
X165837701Y-45016616D01*
X165803315Y-44949132D01*
X165738407Y-44821743D01*
X165730147Y-44810374D01*
X165609857Y-44644806D01*
X165455193Y-44490142D01*
X165278260Y-44361595D01*
X165278259Y-44361594D01*
X165278257Y-44361593D01*
X165215825Y-44329782D01*
X165083383Y-44262298D01*
X165083380Y-44262297D01*
X164875376Y-44194714D01*
X164659361Y-44160500D01*
X164659356Y-44160500D01*
X164440644Y-44160500D01*
X164440639Y-44160500D01*
X164224623Y-44194714D01*
X164016619Y-44262297D01*
X164016616Y-44262298D01*
X163821739Y-44361595D01*
X163644806Y-44490142D01*
X163490142Y-44644806D01*
X163361595Y-44821739D01*
X163262298Y-45016616D01*
X163262297Y-45016619D01*
X163194714Y-45224623D01*
X163160500Y-45440638D01*
X160000500Y-45440638D01*
X160000500Y-41602332D01*
X162449500Y-41602332D01*
X162449500Y-41877667D01*
X162449501Y-41877684D01*
X162485438Y-42150655D01*
X162485439Y-42150660D01*
X162485440Y-42150666D01*
X162485441Y-42150668D01*
X162556704Y-42416630D01*
X162662075Y-42671017D01*
X162662080Y-42671028D01*
X162744861Y-42814407D01*
X162799751Y-42909479D01*
X162799753Y-42909482D01*
X162799754Y-42909483D01*
X162967370Y-43127926D01*
X162967376Y-43127933D01*
X163162066Y-43322623D01*
X163162073Y-43322629D01*
X163230325Y-43375000D01*
X163380521Y-43490249D01*
X163533778Y-43578732D01*
X163618971Y-43627919D01*
X163618976Y-43627921D01*
X163618979Y-43627923D01*
X163873368Y-43733295D01*
X164139334Y-43804560D01*
X164412326Y-43840500D01*
X164412333Y-43840500D01*
X164687667Y-43840500D01*
X164687674Y-43840500D01*
X164960666Y-43804560D01*
X165226632Y-43733295D01*
X165481021Y-43627923D01*
X165719479Y-43490249D01*
X165937928Y-43322628D01*
X166132628Y-43127928D01*
X166300249Y-42909479D01*
X166437923Y-42671021D01*
X166543295Y-42416632D01*
X166614560Y-42150666D01*
X166650500Y-41877674D01*
X166650500Y-41602332D01*
X175149500Y-41602332D01*
X175149500Y-41877667D01*
X175149501Y-41877684D01*
X175185438Y-42150655D01*
X175185439Y-42150660D01*
X175185440Y-42150666D01*
X175185441Y-42150668D01*
X175256704Y-42416630D01*
X175362075Y-42671017D01*
X175362080Y-42671028D01*
X175444861Y-42814407D01*
X175499751Y-42909479D01*
X175499753Y-42909482D01*
X175499754Y-42909483D01*
X175667370Y-43127926D01*
X175667376Y-43127933D01*
X175862066Y-43322623D01*
X175862073Y-43322629D01*
X175930325Y-43375000D01*
X176080521Y-43490249D01*
X176233778Y-43578732D01*
X176318971Y-43627919D01*
X176318976Y-43627921D01*
X176318979Y-43627923D01*
X176573368Y-43733295D01*
X176839334Y-43804560D01*
X177112326Y-43840500D01*
X177112333Y-43840500D01*
X177387667Y-43840500D01*
X177387674Y-43840500D01*
X177660666Y-43804560D01*
X177926632Y-43733295D01*
X178181021Y-43627923D01*
X178419479Y-43490249D01*
X178637928Y-43322628D01*
X178832628Y-43127928D01*
X179000249Y-42909479D01*
X179137923Y-42671021D01*
X179243295Y-42416632D01*
X179314560Y-42150666D01*
X179350500Y-41877674D01*
X179350500Y-41602326D01*
X179314560Y-41329334D01*
X179243295Y-41063368D01*
X179137923Y-40808979D01*
X179137921Y-40808976D01*
X179137919Y-40808971D01*
X179066155Y-40684674D01*
X179000249Y-40570521D01*
X178832628Y-40352072D01*
X178832623Y-40352066D01*
X178637933Y-40157376D01*
X178637926Y-40157370D01*
X178419483Y-39989754D01*
X178419482Y-39989753D01*
X178419479Y-39989751D01*
X178313308Y-39928453D01*
X178181028Y-39852080D01*
X178181017Y-39852075D01*
X177926630Y-39746704D01*
X177793649Y-39711072D01*
X177660666Y-39675440D01*
X177660660Y-39675439D01*
X177660655Y-39675438D01*
X177387684Y-39639501D01*
X177387679Y-39639500D01*
X177387674Y-39639500D01*
X177112326Y-39639500D01*
X177112320Y-39639500D01*
X177112315Y-39639501D01*
X176839344Y-39675438D01*
X176839337Y-39675439D01*
X176839334Y-39675440D01*
X176783125Y-39690500D01*
X176573369Y-39746704D01*
X176318982Y-39852075D01*
X176318971Y-39852080D01*
X176080516Y-39989754D01*
X175862073Y-40157370D01*
X175862066Y-40157376D01*
X175667376Y-40352066D01*
X175667370Y-40352073D01*
X175499754Y-40570516D01*
X175362080Y-40808971D01*
X175362075Y-40808982D01*
X175256704Y-41063369D01*
X175185441Y-41329331D01*
X175185438Y-41329344D01*
X175149501Y-41602315D01*
X175149500Y-41602332D01*
X166650500Y-41602332D01*
X166650500Y-41602326D01*
X166614560Y-41329334D01*
X166543295Y-41063368D01*
X166437923Y-40808979D01*
X166437921Y-40808976D01*
X166437919Y-40808971D01*
X166366155Y-40684674D01*
X166300249Y-40570521D01*
X166132628Y-40352072D01*
X166132623Y-40352066D01*
X165937933Y-40157376D01*
X165937926Y-40157370D01*
X165719483Y-39989754D01*
X165719482Y-39989753D01*
X165719479Y-39989751D01*
X165613308Y-39928453D01*
X165481028Y-39852080D01*
X165481017Y-39852075D01*
X165226630Y-39746704D01*
X165093649Y-39711072D01*
X164960666Y-39675440D01*
X164960660Y-39675439D01*
X164960655Y-39675438D01*
X164687684Y-39639501D01*
X164687679Y-39639500D01*
X164687674Y-39639500D01*
X164412326Y-39639500D01*
X164412320Y-39639500D01*
X164412315Y-39639501D01*
X164139344Y-39675438D01*
X164139337Y-39675439D01*
X164139334Y-39675440D01*
X164083125Y-39690500D01*
X163873369Y-39746704D01*
X163618982Y-39852075D01*
X163618971Y-39852080D01*
X163380516Y-39989754D01*
X163162073Y-40157370D01*
X163162066Y-40157376D01*
X162967376Y-40352066D01*
X162967370Y-40352073D01*
X162799754Y-40570516D01*
X162662080Y-40808971D01*
X162662075Y-40808982D01*
X162556704Y-41063369D01*
X162485441Y-41329331D01*
X162485438Y-41329344D01*
X162449501Y-41602315D01*
X162449500Y-41602332D01*
X160000500Y-41602332D01*
X160000500Y-38124500D01*
X160020185Y-38057461D01*
X160072989Y-38011706D01*
X160124500Y-38000500D01*
X185508724Y-38000500D01*
X185575763Y-38020185D01*
G37*
%TD.AperFunction*%
%TD*%
%TA.AperFunction,Conductor*%
%TO.N,/5Vin*%
G36*
X189758065Y-44606678D02*
G01*
X190129747Y-44960519D01*
X190239734Y-45065227D01*
X190243363Y-45073413D01*
X190240141Y-45081768D01*
X190238459Y-45083227D01*
X190187274Y-45119721D01*
X190187267Y-45119727D01*
X190143038Y-45178965D01*
X190114563Y-45249648D01*
X190114561Y-45249656D01*
X190099073Y-45328745D01*
X190096057Y-45499897D01*
X190111945Y-45667878D01*
X190111957Y-45668011D01*
X190123947Y-45812331D01*
X190121217Y-45820860D01*
X190113256Y-45824960D01*
X190112287Y-45825000D01*
X189387713Y-45825000D01*
X189379440Y-45821573D01*
X189376013Y-45813300D01*
X189376053Y-45812331D01*
X189388039Y-45668055D01*
X189388053Y-45667897D01*
X189403302Y-45510295D01*
X189403239Y-45499897D01*
X189402273Y-45340894D01*
X189375618Y-45219819D01*
X189325868Y-45133819D01*
X189260754Y-45083337D01*
X189256316Y-45075559D01*
X189258676Y-45066921D01*
X189259848Y-45065623D01*
X189741934Y-44606678D01*
X189750288Y-44603457D01*
X189758065Y-44606678D01*
G37*
%TD.AperFunction*%
%TD*%
%TA.AperFunction,Conductor*%
%TO.N,/SDA*%
G36*
X200520503Y-88475129D02*
G01*
X200527943Y-88480112D01*
X200529681Y-88488897D01*
X200529563Y-88489421D01*
X200471158Y-88724669D01*
X200470808Y-88725822D01*
X200400440Y-88920782D01*
X200400005Y-88921828D01*
X200324766Y-89080320D01*
X200324433Y-89080968D01*
X200293597Y-89136681D01*
X200248511Y-89218141D01*
X200176377Y-89350863D01*
X200159416Y-89382072D01*
X200159411Y-89382081D01*
X200082591Y-89572212D01*
X200054792Y-89677404D01*
X200054790Y-89677414D01*
X200033597Y-89797509D01*
X200019825Y-89938737D01*
X200019824Y-89938747D01*
X200015335Y-90091160D01*
X200011666Y-90099328D01*
X200003640Y-90102515D01*
X199276358Y-90102515D01*
X199268085Y-90099088D01*
X199264663Y-90091163D01*
X199261754Y-89993351D01*
X199260092Y-89937416D01*
X199246089Y-89795221D01*
X199224068Y-89672272D01*
X199195110Y-89564909D01*
X199120699Y-89382306D01*
X199031489Y-89218142D01*
X198921327Y-89013093D01*
X198920795Y-89011961D01*
X198824890Y-88775138D01*
X198824520Y-88774078D01*
X198784108Y-88637294D01*
X198783925Y-88636596D01*
X198750171Y-88489257D01*
X198751664Y-88480428D01*
X198758963Y-88475240D01*
X198759250Y-88475178D01*
X199637705Y-88299459D01*
X199642295Y-88299459D01*
X200520503Y-88475129D01*
G37*
%TD.AperFunction*%
%TD*%
%TA.AperFunction,Conductor*%
%TO.N,/LPn_0*%
G36*
X196799029Y-82087193D02*
G01*
X196799238Y-82087397D01*
X197313479Y-82601638D01*
X197316906Y-82609911D01*
X197314145Y-82617460D01*
X197239564Y-82705770D01*
X197239563Y-82705773D01*
X197194924Y-82793847D01*
X197194924Y-82793849D01*
X197182771Y-82875516D01*
X197182771Y-82875517D01*
X197198715Y-82952792D01*
X197198715Y-82952793D01*
X197238368Y-83027710D01*
X197297328Y-83102283D01*
X197297330Y-83102284D01*
X197297334Y-83102289D01*
X197455656Y-83258559D01*
X197455677Y-83258580D01*
X197661185Y-83462474D01*
X197662139Y-83463544D01*
X197788816Y-83624495D01*
X197791240Y-83633115D01*
X197786858Y-83640925D01*
X197786124Y-83641458D01*
X197043327Y-84138009D01*
X197034545Y-84139758D01*
X197034532Y-84139755D01*
X196158507Y-83964670D01*
X196151066Y-83959688D01*
X196149244Y-83951366D01*
X196208735Y-83575943D01*
X196238402Y-83266084D01*
X196270192Y-82964568D01*
X196270434Y-82963142D01*
X196317732Y-82760394D01*
X196318170Y-82758950D01*
X196353425Y-82665348D01*
X196353838Y-82664389D01*
X196400379Y-82568808D01*
X196400872Y-82567902D01*
X196463251Y-82464788D01*
X196463753Y-82464031D01*
X196542722Y-82354928D01*
X196543228Y-82354279D01*
X196653427Y-82223303D01*
X196653869Y-82222810D01*
X196782488Y-82087605D01*
X196790673Y-82083974D01*
X196799029Y-82087193D01*
G37*
%TD.AperFunction*%
%TD*%
%TA.AperFunction,Conductor*%
%TO.N,/SCL*%
G36*
X172811915Y-72210912D02*
G01*
X172815337Y-72218837D01*
X172819907Y-72372574D01*
X172833911Y-72514785D01*
X172848326Y-72595263D01*
X172855932Y-72637728D01*
X172855933Y-72637734D01*
X172855934Y-72637736D01*
X172884886Y-72745079D01*
X172884893Y-72745099D01*
X172959297Y-72927686D01*
X172959304Y-72927701D01*
X173048484Y-73091808D01*
X173048498Y-73091864D01*
X173048511Y-73091858D01*
X173158668Y-73296899D01*
X173159206Y-73298044D01*
X173255106Y-73534853D01*
X173255482Y-73535930D01*
X173295889Y-73672701D01*
X173296073Y-73673403D01*
X173329828Y-73820741D01*
X173328335Y-73829571D01*
X173321036Y-73834759D01*
X173320718Y-73834827D01*
X172442295Y-74010540D01*
X172437705Y-74010540D01*
X171559496Y-73834870D01*
X171552056Y-73829887D01*
X171550318Y-73821102D01*
X171550427Y-73820616D01*
X171608842Y-73585324D01*
X171609191Y-73584176D01*
X171626803Y-73535381D01*
X171679567Y-73389196D01*
X171679985Y-73388190D01*
X171755242Y-73229659D01*
X171755555Y-73229049D01*
X171831489Y-73091857D01*
X171920586Y-72927923D01*
X171997409Y-72737785D01*
X172025209Y-72632588D01*
X172046402Y-72512493D01*
X172060175Y-72371260D01*
X172064666Y-72218837D01*
X172068334Y-72210672D01*
X172076360Y-72207485D01*
X172803642Y-72207485D01*
X172811915Y-72210912D01*
G37*
%TD.AperFunction*%
%TD*%
M02*
